  0
SECTION
  2
HEADER
  9
$ACADVER
  1
AC1032
  9
$ACADMAINTVER
 90
4
  9
$DWGCODEPAGE
  3
ANSI_1252
  9
$LASTSAVEDBY
  1
ezdxf
  9
$REQUIREDVERSIONS
160
0
  9
$INSBASE
 10
0.0
 20
0.0
 30
0.0
  9
$EXTMIN
 10
1e+20
 20
1e+20
 30
1e+20
  9
$EXTMAX
 10
-1e+20
 20
-1e+20
 30
-1e+20
  9
$LIMMIN
 10
0.0
 20
0.0
  9
$LIMMAX
 10
420.0
 20
297.0
  9
$ORTHOMODE
 70
0
  9
$REGENMODE
 70
1
  9
$FILLMODE
 70
1
  9
$QTEXTMODE
 70
0
  9
$MIRRTEXT
 70
1
  9
$LTSCALE
 40
1.0
  9
$ATTMODE
 70
1
  9
$TEXTSIZE
 40
2.5
  9
$TRACEWID
 40
1.0
  9
$TEXTSTYLE
  7
Standard
  9
$CLAYER
  8
0
  9
$CELTYPE
  6
ByLayer
  9
$CECOLOR
 62
256
  9
$CELTSCALE
 40
1.0
  9
$DISPSILH
 70
0
  9
$DIMSCALE
 40
1.0
  9
$DIMASZ
 40
2.5
  9
$DIMEXO
 40
0.625
  9
$DIMDLI
 40
3.75
  9
$DIMRND
 40
0.0
  9
$DIMDLE
 40
0.0
  9
$DIMEXE
 40
1.25
  9
$DIMTP
 40
0.0
  9
$DIMTM
 40
0.0
  9
$DIMTXT
 40
2.5
  9
$DIMCEN
 40
2.5
  9
$DIMTSZ
 40
0.0
  9
$DIMTOL
 70
0
  9
$DIMLIM
 70
0
  9
$DIMTIH
 70
0
  9
$DIMTOH
 70
0
  9
$DIMSE1
 70
0
  9
$DIMSE2
 70
0
  9
$DIMTAD
 70
1
  9
$DIMZIN
 70
8
  9
$DIMBLK
  1

  9
$DIMASO
 70
1
  9
$DIMSHO
 70
1
  9
$DIMPOST
  1

  9
$DIMAPOST
  1

  9
$DIMALT
 70
0
  9
$DIMALTD
 70
3
  9
$DIMALTF
 40
0.03937007874
  9
$DIMLFAC
 40
1.0
  9
$DIMTOFL
 70
1
  9
$DIMTVP
 40
0.0
  9
$DIMTIX
 70
0
  9
$DIMSOXD
 70
0
  9
$DIMSAH
 70
0
  9
$DIMBLK1
  1

  9
$DIMBLK2
  1

  9
$DIMSTYLE
  2
ISO-25
  9
$DIMCLRD
 70
0
  9
$DIMCLRE
 70
0
  9
$DIMCLRT
 70
0
  9
$DIMTFAC
 40
1.0
  9
$DIMGAP
 40
0.625
  9
$DIMJUST
 70
0
  9
$DIMSD1
 70
0
  9
$DIMSD2
 70
0
  9
$DIMTOLJ
 70
0
  9
$DIMTZIN
 70
8
  9
$DIMALTZ
 70
0
  9
$DIMALTTZ
 70
0
  9
$DIMUPT
 70
0
  9
$DIMDEC
 70
2
  9
$DIMTDEC
 70
2
  9
$DIMALTU
 70
2
  9
$DIMALTTD
 70
3
  9
$DIMTXSTY
  7
Standard
  9
$DIMAUNIT
 70
0
  9
$DIMADEC
 70
0
  9
$DIMALTRND
 40
0.0
  9
$DIMAZIN
 70
0
  9
$DIMDSEP
 70
44
  9
$DIMATFIT
 70
3
  9
$DIMFRAC
 70
0
  9
$DIMLDRBLK
  1

  9
$DIMLUNIT
 70
2
  9
$DIMLWD
 70
-2
  9
$DIMLWE
 70
-2
  9
$DIMTMOVE
 70
0
  9
$DIMFXL
 40
1.0
  9
$DIMFXLON
 70
0
  9
$DIMJOGANG
 40
0.785398163397
  9
$DIMTFILL
 70
0
  9
$DIMTFILLCLR
 70
0
  9
$DIMARCSYM
 70
0
  9
$DIMLTYPE
  6

  9
$DIMLTEX1
  6

  9
$DIMLTEX2
  6

  9
$DIMTXTDIRECTION
 70
0
  9
$LUNITS
 70
2
  9
$LUPREC
 70
4
  9
$SKETCHINC
 40
1.0
  9
$FILLETRAD
 40
10.0
  9
$AUNITS
 70
0
  9
$AUPREC
 70
2
  9
$MENU
  1
.
  9
$ELEVATION
 40
0.0
  9
$PELEVATION
 40
0.0
  9
$THICKNESS
 40
0.0
  9
$LIMCHECK
 70
0
  9
$CHAMFERA
 40
0.0
  9
$CHAMFERB
 40
0.0
  9
$CHAMFERC
 40
0.0
  9
$CHAMFERD
 40
0.0
  9
$SKPOLY
 70
0
  9
$TDCREATE
 40
2461265.6465972224
  9
$TDUCREATE
 40
2458532.153996898
  9
$TDUPDATE
 40
2461265.6465972224
  9
$TDUUPDATE
 40
2458532.1544311
  9
$TDINDWG
 40
0.0
  9
$TDUSRTIMER
 40
0.0
  9
$USRTIMER
 70
1
  9
$ANGBASE
 50
0.0
  9
$ANGDIR
 70
0
  9
$PDMODE
 70
0
  9
$PDSIZE
 40
0.0
  9
$PLINEWID
 40
0.0
  9
$SPLFRAME
 70
0
  9
$SPLINETYPE
 70
6
  9
$SPLINESEGS
 70
8
  9
$HANDSEED
  5
3F3
  9
$SURFTAB1
 70
6
  9
$SURFTAB2
 70
6
  9
$SURFTYPE
 70
6
  9
$SURFU
 70
6
  9
$SURFV
 70
6
  9
$UCSBASE
  2

  9
$UCSNAME
  2

  9
$UCSORG
 10
0.0
 20
0.0
 30
0.0
  9
$UCSXDIR
 10
1.0
 20
0.0
 30
0.0
  9
$UCSYDIR
 10
0.0
 20
1.0
 30
0.0
  9
$UCSORTHOREF
  2

  9
$UCSORTHOVIEW
 70
0
  9
$UCSORGTOP
 10
0.0
 20
0.0
 30
0.0
  9
$UCSORGBOTTOM
 10
0.0
 20
0.0
 30
0.0
  9
$UCSORGLEFT
 10
0.0
 20
0.0
 30
0.0
  9
$UCSORGRIGHT
 10
0.0
 20
0.0
 30
0.0
  9
$UCSORGFRONT
 10
0.0
 20
0.0
 30
0.0
  9
$UCSORGBACK
 10
0.0
 20
0.0
 30
0.0
  9
$PUCSBASE
  2

  9
$PUCSNAME
  2

  9
$PUCSORG
 10
0.0
 20
0.0
 30
0.0
  9
$PUCSXDIR
 10
1.0
 20
0.0
 30
0.0
  9
$PUCSYDIR
 10
0.0
 20
1.0
 30
0.0
  9
$PUCSORTHOREF
  2

  9
$PUCSORTHOVIEW
 70
0
  9
$PUCSORGTOP
 10
0.0
 20
0.0
 30
0.0
  9
$PUCSORGBOTTOM
 10
0.0
 20
0.0
 30
0.0
  9
$PUCSORGLEFT
 10
0.0
 20
0.0
 30
0.0
  9
$PUCSORGRIGHT
 10
0.0
 20
0.0
 30
0.0
  9
$PUCSORGFRONT
 10
0.0
 20
0.0
 30
0.0
  9
$PUCSORGBACK
 10
0.0
 20
0.0
 30
0.0
  9
$USERI1
 70
0
  9
$USERI2
 70
0
  9
$USERI3
 70
0
  9
$USERI4
 70
0
  9
$USERI5
 70
0
  9
$USERR1
 40
0.0
  9
$USERR2
 40
0.0
  9
$USERR3
 40
0.0
  9
$USERR4
 40
0.0
  9
$USERR5
 40
0.0
  9
$WORLDVIEW
 70
1
  9
$SHADEDGE
 70
3
  9
$SHADEDIF
 70
70
  9
$TILEMODE
 70
1
  9
$MAXACTVP
 70
64
  9
$PINSBASE
 10
0.0
 20
0.0
 30
0.0
  9
$PLIMCHECK
 70
0
  9
$PEXTMIN
 10
1e+20
 20
1e+20
 30
1e+20
  9
$PEXTMAX
 10
-1e+20
 20
-1e+20
 30
-1e+20
  9
$PLIMMIN
 10
0.0
 20
0.0
  9
$PLIMMAX
 10
420.0
 20
297.0
  9
$UNITMODE
 70
0
  9
$VISRETAIN
 70
1
  9
$PLINEGEN
 70
0
  9
$PSLTSCALE
 70
1
  9
$TREEDEPTH
 70
3020
  9
$CMLSTYLE
  2
Standard
  9
$CMLJUST
 70
0
  9
$CMLSCALE
 40
20.0
  9
$PROXYGRAPHICS
 70
1
  9
$MEASUREMENT
 70
1
  9
$CELWEIGHT
370
-1
  9
$ENDCAPS
280
0
  9
$JOINSTYLE
280
0
  9
$LWDISPLAY
290
0
  9
$INSUNITS
 70
4
  9
$HYPERLINKBASE
  1

  9
$STYLESHEET
  1

  9
$XEDIT
290
1
  9
$CEPSNTYPE
380
0
  9
$PSTYLEMODE
290
1
  9
$FINGERPRINTGUID
  2
{3926A1B8-8E73-400B-BACF-D1FB9D0F2136}
  9
$VERSIONGUID
  2
{88B6158D-A254-4887-8395-8158D6A69E82}
  9
$EXTNAMES
290
1
  9
$PSVPSCALE
 40
0.0
  9
$OLESTARTUP
290
0
  9
$SORTENTS
280
127
  9
$INDEXCTL
280
0
  9
$HIDETEXT
280
1
  9
$XCLIPFRAME
280
1
  9
$HALOGAP
280
0
  9
$OBSCOLOR
 70
257
  9
$OBSLTYPE
280
0
  9
$INTERSECTIONDISPLAY
280
0
  9
$INTERSECTIONCOLOR
 70
257
  9
$DIMASSOC
280
2
  9
$PROJECTNAME
  1

  9
$CAMERADISPLAY
290
0
  9
$LENSLENGTH
 40
50.0
  9
$CAMERAHEIGHT
 40
0.0
  9
$STEPSPERSEC
 40
24.0
  9
$STEPSIZE
 40
100.0
  9
$3DDWFPREC
 40
2.0
  9
$PSOLWIDTH
 40
0.005
  9
$PSOLHEIGHT
 40
0.08
  9
$LOFTANG1
 40
1.570796326795
  9
$LOFTANG2
 40
1.570796326795
  9
$LOFTMAG1
 40
0.0
  9
$LOFTMAG2
 40
0.0
  9
$LOFTPARAM
 70
7
  9
$LOFTNORMALS
280
1
  9
$LATITUDE
 40
37.795
  9
$LONGITUDE
 40
-122.394
  9
$NORTHDIRECTION
 40
0.0
  9
$TIMEZONE
 70
-8000
  9
$LIGHTGLYPHDISPLAY
280
1
  9
$TILEMODELIGHTSYNCH
280
1
  9
$CMATERIAL
347
20
  9
$SOLIDHIST
280
0
  9
$SHOWHIST
280
1
  9
$DWFFRAME
280
2
  9
$DGNFRAME
280
2
  9
$REALWORLDSCALE
290
1
  9
$INTERFERECOLOR
 62
256
  9
$CSHADOW
280
0
  9
$SHADOWPLANELOCATION
 40
0.0
  0
ENDSEC
  0
SECTION
  2
CLASSES
  0
CLASS
  1
ACDBDICTIONARYWDFLT
  2
AcDbDictionaryWithDefault
  3
ObjectDBX Classes
 90
0
 91
0
280
0
281
0
  0
CLASS
  1
SUN
  2
AcDbSun
  3
SCENEOE
 90
1153
 91
0
280
0
281
0
  0
CLASS
  1
VISUALSTYLE
  2
AcDbVisualStyle
  3
ObjectDBX Classes
 90
4095
 91
0
280
0
281
0
  0
CLASS
  1
MATERIAL
  2
AcDbMaterial
  3
ObjectDBX Classes
 90
1153
 91
0
280
0
281
0
  0
CLASS
  1
SCALE
  2
AcDbScale
  3
ObjectDBX Classes
 90
1153
 91
0
280
0
281
0
  0
CLASS
  1
TABLESTYLE
  2
AcDbTableStyle
  3
ObjectDBX Classes
 90
4095
 91
0
280
0
281
0
  0
CLASS
  1
MLEADERSTYLE
  2
AcDbMLeaderStyle
  3
ACDB_MLEADERSTYLE_CLASS
 90
4095
 91
0
280
0
281
0
  0
CLASS
  1
DICTIONARYVAR
  2
AcDbDictionaryVar
  3
ObjectDBX Classes
 90
0
 91
0
280
0
281
0
  0
CLASS
  1
CELLSTYLEMAP
  2
AcDbCellStyleMap
  3
ObjectDBX Classes
 90
1152
 91
0
280
0
281
0
  0
CLASS
  1
MENTALRAYRENDERSETTINGS
  2
AcDbMentalRayRenderSettings
  3
SCENEOE
 90
1024
 91
0
280
0
281
0
  0
CLASS
  1
ACDBDETAILVIEWSTYLE
  2
AcDbDetailViewStyle
  3
ObjectDBX Classes
 90
1025
 91
0
280
0
281
0
  0
CLASS
  1
ACDBSECTIONVIEWSTYLE
  2
AcDbSectionViewStyle
  3
ObjectDBX Classes
 90
1025
 91
0
280
0
281
0
  0
CLASS
  1
RASTERVARIABLES
  2
AcDbRasterVariables
  3
ISM
 90
0
 91
0
280
0
281
0
  0
CLASS
  1
LAYOUT
  2
AcDbLayout
  3
ObjectDBX Classes
 90
0
 91
0
280
0
281
0
  0
CLASS
  1
ACDBPLACEHOLDER
  2
AcDbPlaceHolder
  3
ObjectDBX Classes
 90
0
 91
0
280
0
281
0
  0
ENDSEC
  0
SECTION
  2
TABLES
  0
TABLE
  2
VPORT
  5
8
330
0
100
AcDbSymbolTable
 70
1
  0
VPORT
  5
23
330
8
100
AcDbSymbolTableRecord
100
AcDbViewportTableRecord
  2
*Active
 70
0
 10
0.0
 20
0.0
 11
1.0
 21
1.0
 12
0.0
 22
0.0
 13
0.0
 23
0.0
 14
0.5
 24
0.5
 15
0.5
 25
0.5
 16
0.0
 26
0.0
 36
1.0
 17
0.0
 27
0.0
 37
0.0
 40
1000.0
 41
1.34
 42
50.0
 43
0.0
 44
0.0
 50
0.0
 51
0.0
 71
0
 72
1000
 73
1
 74
3
 75
0
 76
0
 77
0
 78
0
281
0
 65
0
146
0.0
  0
ENDTAB
  0
TABLE
  2
LTYPE
  5
2
330
0
100
AcDbSymbolTable
 70
5
  0
LTYPE
  5
24
330
2
100
AcDbSymbolTableRecord
100
AcDbLinetypeTableRecord
  2
ByBlock
 70
0
  3

 72
65
 73
0
 40
0.0
  0
LTYPE
  5
25
330
2
100
AcDbSymbolTableRecord
100
AcDbLinetypeTableRecord
  2
ByLayer
 70
0
  3

 72
65
 73
0
 40
0.0
  0
LTYPE
  5
26
330
2
100
AcDbSymbolTableRecord
100
AcDbLinetypeTableRecord
  2
Continuous
 70
0
  3

 72
65
 73
0
 40
0.0
  0
LTYPE
  5
3EA
330
2
100
AcDbSymbolTableRecord
100
AcDbLinetypeTableRecord
  2
1-12商铺首层$0$DASH
 70
0
  3
__ __ __ __ __ __ __ __ __ __ __ __ __ __ __ __
 72
65
 73
2
 40
0.35
 49
0.25
 74
0
 49
-0.1
 74
0
  0
LTYPE
  5
3EB
330
2
100
AcDbSymbolTableRecord
100
AcDbLinetypeTableRecord
  2
DOTE
 70
0
  3
____ . ____ . ____ . ____ . ____ . ____ . ____ 
 72
65
 73
4
 40
2.42
 49
2.0
 74
0
 49
-0.2
 74
0
 49
0.02
 74
0
 49
-0.2
 74
0
  0
ENDTAB
  0
TABLE
  2
LAYER
  5
1
330
0
100
AcDbSymbolTable
 70
17
  0
LAYER
  5
27
330
1
100
AcDbSymbolTableRecord
100
AcDbLayerTableRecord
  2
0
 70
0
 62
7
  6
Continuous
370
-3
390
13
347
21
  0
LAYER
  5
28
330
1
100
AcDbSymbolTableRecord
100
AcDbLayerTableRecord
  2
Defpoints
 70
0
 62
7
  6
Continuous
290
0
370
-3
390
13
347
21
  0
LAYER
  5
2F
330
1
100
AcDbSymbolTableRecord
100
AcDbLayerTableRecord
  2
PUB_TEXT
 70
0
 62
7
  6
Continuous
370
-3
390
13
347
21
  0
LAYER
  5
30
330
1
100
AcDbSymbolTableRecord
100
AcDbLayerTableRecord
  2
DIM_SYMB
 70
0
 62
7
  6
Continuous
370
-3
390
13
347
21
  0
LAYER
  5
31
330
1
100
AcDbSymbolTableRecord
100
AcDbLayerTableRecord
  2
WALL
 70
0
 62
7
  6
Continuous
370
-3
390
13
347
21
  0
LAYER
  5
32
330
1
100
AcDbSymbolTableRecord
100
AcDbLayerTableRecord
  2
STAIR
 70
0
 62
7
  6
Continuous
370
-3
390
13
347
21
  0
LAYER
  5
33
330
1
100
AcDbSymbolTableRecord
100
AcDbLayerTableRecord
  2
WINDOW
 70
0
 62
7
  6
Continuous
370
-3
390
13
347
21
  0
LAYER
  5
34
330
1
100
AcDbSymbolTableRecord
100
AcDbLayerTableRecord
  2
DIM_ELEV
 70
0
 62
7
  6
Continuous
370
-3
390
13
347
21
  0
LAYER
  5
35
330
1
100
AcDbSymbolTableRecord
100
AcDbLayerTableRecord
  2
COLUMN
 70
0
 62
7
  6
Continuous
370
-3
390
13
347
21
  0
LAYER
  5
36
330
1
100
AcDbSymbolTableRecord
100
AcDbLayerTableRecord
  2
房间名
 70
0
 62
7
  6
Continuous
370
-3
390
13
347
21
  0
LAYER
  5
37
330
1
100
AcDbSymbolTableRecord
100
AcDbLayerTableRecord
  2
A-LIFT
 70
0
 62
7
  6
Continuous
370
-3
390
13
347
21
  0
LAYER
  5
38
330
1
100
AcDbSymbolTableRecord
100
AcDbLayerTableRecord
  2
3T_GLASS
 70
0
 62
7
  6
Continuous
370
-3
390
13
347
21
  0
LAYER
  5
39
330
1
100
AcDbSymbolTableRecord
100
AcDbLayerTableRecord
  2
CURTWALL
 70
0
 62
7
  6
Continuous
370
-3
390
13
347
21
  0
LAYER
  5
3A
330
1
100
AcDbSymbolTableRecord
100
AcDbLayerTableRecord
  2
HWD_1_洁具
 70
0
 62
7
  6
Continuous
370
-3
390
13
347
21
  0
LAYER
  5
3B
330
1
100
AcDbSymbolTableRecord
100
AcDbLayerTableRecord
  2
变形线
 70
0
 62
7
  6
Continuous
370
-3
390
13
347
21
  0
LAYER
  5
3E8
330
1
100
AcDbSymbolTableRecord
100
AcDbLayerTableRecord
  2
PUB_HATCH
 70
0
 62
252
  6
Continuous
370
-3
390
9
347
C
348
0
  0
LAYER
  5
3E9
330
1
100
AcDbSymbolTableRecord
100
AcDbLayerTableRecord
  2
DOTE
 70
0
 62
16
  6
DOTE
370
-3
390
9
347
C
348
0
  0
ENDTAB
  0
TABLE
  2
STYLE
  5
5
330
0
100
AcDbSymbolTable
 70
5
  0
STYLE
  5
29
330
5
100
AcDbSymbolTableRecord
100
AcDbTextStyleTableRecord
  2
Standard
 70
0
 40
0.0
 41
1.0
 50
0.0
 71
0
 42
2.5
  3
txt
  4

  0
STYLE
  5
3EC
330
5
100
AcDbSymbolTableRecord
100
AcDbTextStyleTableRecord
  2
H-Z
 70
0
 40
0.0
 41
0.7
 50
0.0
 71
0
 42
250.0
  3
xcsg.shx
  4
hztxt.shx
  0
STYLE
  5
3ED
330
5
100
AcDbSymbolTableRecord
100
AcDbTextStyleTableRecord
  2
_TCH_LABEL
 70
0
 40
0.0
 41
1.0
 50
0.0
 71
0
 42
350.0
  3
COMPLEX
  4
GBCBIG
  0
STYLE
  5
3EE
330
5
100
AcDbSymbolTableRecord
100
AcDbTextStyleTableRecord
  2
_TCH_SPACE
 70
0
 40
5.0
 41
1.0
 50
0.0
 71
0
 42
350.0
  3
SIMPLEX
  4
GBCBIG
  0
STYLE
  5
3EF
330
5
100
AcDbSymbolTableRecord
100
AcDbTextStyleTableRecord
  2
_TCH_DIM
 70
0
 40
0.0
 41
1.0
 50
0.0
 71
0
 42
350.0
  3
SIMPLEX
  4
GBCBIG
  0
ENDTAB
  0
TABLE
  2
VIEW
  5
7
330
0
100
AcDbSymbolTable
 70
0
  0
ENDTAB
  0
TABLE
  2
UCS
  5
6
330
0
100
AcDbSymbolTable
 70
0
  0
ENDTAB
  0
TABLE
  2
APPID
  5
3
330
0
100
AcDbSymbolTable
 70
3
  0
APPID
  5
2A
330
3
100
AcDbSymbolTableRecord
100
AcDbRegAppTableRecord
  2
ACAD
 70
0
  0
APPID
  5
3F0
330
3
100
AcDbSymbolTableRecord
100
AcDbRegAppTableRecord
  2
HATCHBACKGROUNDCOLOR
 70
0
  0
APPID
  5
3F1
330
3
100
AcDbSymbolTableRecord
100
AcDbRegAppTableRecord
  2
EZDXF
 70
0
  0
ENDTAB
  0
TABLE
  2
DIMSTYLE
  5
4
330
0
100
AcDbSymbolTable
 70
1
100
AcDbDimStyleTable
  0
DIMSTYLE
105
2B
330
4
100
AcDbSymbolTableRecord
100
AcDbDimStyleTableRecord
  2
Standard
 70
0
 40
1.0
 41
2.5
 42
0.625
 43
3.75
 44
1.25
 45
0.0
 46
0.0
 47
0.0
 48
0.0
 49
2.5
140
2.5
141
2.5
142
0.0
143
0.03937007874
144
1.0
145
0.0
146
1.0
147
0.625
148
0.0
 69
0
 70
0
 71
0
 72
0
 73
0
 74
0
 75
0
 76
0
 77
1
 78
8
 79
3
170
0
171
3
172
1
173
0
174
0
175
0
176
0
177
0
178
0
179
2
271
2
272
2
273
2
274
3
275
0
276
0
277
2
278
44
279
0
280
0
281
0
282
0
283
0
284
8
285
0
286
0
288
0
289
3
290
0
371
-2
372
-2
  0
ENDTAB
  0
TABLE
  2
BLOCK_RECORD
  5
9
330
0
100
AcDbSymbolTable
 70
10
  0
BLOCK_RECORD
  5
17
330
9
100
AcDbSymbolTableRecord
100
AcDbBlockTableRecord
  2
*Model_Space
340
1A
 70
0
280
1
281
0
  0
BLOCK_RECORD
  5
1B
330
9
100
AcDbSymbolTableRecord
100
AcDbBlockTableRecord
  2
*Paper_Space
340
1E
 70
0
280
1
281
0
  0
BLOCK_RECORD
  5
389
330
9
100
AcDbSymbolTableRecord
100
AcDbBlockTableRecord
  2
224
340
0
 70
0
280
1
281
0
  0
BLOCK_RECORD
  5
391
330
9
100
AcDbSymbolTableRecord
100
AcDbBlockTableRecord
  2
A$C4F7F3484
340
0
 70
0
280
1
281
0
  0
BLOCK_RECORD
  5
3B5
330
9
100
AcDbSymbolTableRecord
100
AcDbBlockTableRecord
  2
$DorLib2D$00000002
340
0
 70
0
280
1
281
0
  0
BLOCK_RECORD
  5
3C2
330
9
100
AcDbSymbolTableRecord
100
AcDbBlockTableRecord
  2
$DORLIB2D$00000127
340
0
 70
0
280
1
281
0
  0
BLOCK_RECORD
  5
3CE
330
9
100
AcDbSymbolTableRecord
100
AcDbBlockTableRecord
  2
$DorLib2D$00000114
340
0
 70
0
280
1
281
0
  0
BLOCK_RECORD
  5
3D3
330
9
100
AcDbSymbolTableRecord
100
AcDbBlockTableRecord
  2
_FZH
340
0
 70
0
280
1
281
0
  0
BLOCK_RECORD
  5
3D8
330
9
100
AcDbSymbolTableRecord
100
AcDbBlockTableRecord
  2
$DorLib2D$00000001
340
0
 70
0
280
1
281
0
  0
BLOCK_RECORD
  5
3E0
330
9
100
AcDbSymbolTableRecord
100
AcDbBlockTableRecord
  2
_YZH
340
0
 70
0
280
1
281
0
  0
ENDTAB
  0
ENDSEC
  0
SECTION
  2
BLOCKS
  0
BLOCK
  5
18
330
17
100
AcDbEntity
  8
0
100
AcDbBlockBegin
  2
*Model_Space
 70
0
 10
0.0
 20
0.0
 30
0.0
  3
*Model_Space
  1

  0
ENDBLK
  5
19
330
17
100
AcDbEntity
  8
0
100
AcDbBlockEnd
  0
BLOCK
  5
1C
330
1B
100
AcDbEntity
  8
0
100
AcDbBlockBegin
  2
*Paper_Space
 70
0
 10
0.0
 20
0.0
 30
0.0
  3
*Paper_Space
  1

  0
ENDBLK
  5
1D
330
1B
100
AcDbEntity
  8
0
100
AcDbBlockEnd
  0
BLOCK
  5
38A
330
389
100
AcDbEntity
  8
0
100
AcDbBlockBegin
  2
224
 70
0
 10
0.0
 20
0.0
 30
0.0
  3
224
  1

  0
LINE
  5
38C
330
389
100
AcDbEntity
  8
A-LIFT
100
AcDbLine
 10
-949.9998986683786
 20
-1675.000354647637
 30
0.0
 11
949.9998986721039
 21
-175.0005573034286
 31
0.0
  0
LINE
  5
38D
330
389
100
AcDbEntity
  8
A-LIFT
100
AcDbLine
 10
949.9998986758292
 20
-1675.000354647637
 30
0.0
 11
-949.9998986721039
 21
-175.0005573034286
 31
0.0
  0
LWPOLYLINE
  5
38E
330
389
100
AcDbEntity
  8
A-LIFT
100
AcDbPolyline
 90
4
 70
1
 10
1000.0
 20
-125.0004559755325
 10
1000.0
 20
-1725.000455975533
 10
-999.9999999962747
 20
-1725.000455975533
 10
-999.9999999962747
 20
-125.0004559755325
  0
LWPOLYLINE
  5
38F
330
389
100
AcDbEntity
  8
A-LIFT
100
AcDbPolyline
 90
4
 70
1
 10
-949.9998986683786
 20
-1675.000354647637
 10
-949.9998986683786
 20
-175.0005573034286
 10
949.9998986721039
 20
-175.0005573034286
 10
949.9998986721039
 20
-1675.000354647637
  0
LWPOLYLINE
  5
390
330
389
100
AcDbEntity
  8
A-LIFT
100
AcDbPolyline
 90
4
 70
1
 10
699.9993920326233
 20
100.0
 10
699.9993920326233
 20
-50.00030398368835
 10
-699.9993920326233
 20
-50.00030398368835
 10
-699.9993920326233
 20
100.0
  0
ENDBLK
  5
38B
330
389
100
AcDbEntity
  8
0
100
AcDbBlockEnd
  0
BLOCK
  5
392
330
391
100
AcDbEntity
  8
0
100
AcDbBlockBegin
  2
A$C4F7F3484
 70
0
 10
0.0
 20
0.0
 30
0.0
  3
A$C4F7F3484
  1

  0
LWPOLYLINE
  5
394
330
391
100
AcDbEntity
  8
DOTE
  6
1-12商铺首层$0$DASH
 62
1
 48
3.0
100
AcDbPolyline
 90
9
 70
0
 10
30868.53773646034
 20
27389.08568167326
 42
0.3439193699172574
 10
27389.08568166592
 20
30868.53773646744
 42
0.0615290114541297
 10
-9389.085681665456
 20
30868.53773646744
 42
0.343919369917245
 10
-12868.53773645987
 20
27389.08568167332
 42
0.0615290114541444
 10
-12868.53773646173
 20
-9389.085681666911
 42
0.3439193699172813
 10
-9389.085681667319
 20
-12868.53773646156
 42
0.0615290114541364
 10
27389.08568166825
 20
-12868.53773646162
 42
0.3439193699172776
 10
30868.53773646266
 20
-9389.08568166697
 42
0.0615290114541443
 10
30868.5377364608
 20
27389.08568167326
  0
INSERT
  5
395
330
391
100
AcDbEntity
  8
COLUMN
 62
1
100
AcDbBlockReference
  2
_YZH
 10
28600.00000000047
 20
-10599.99999999977
 30
0.0
 41
1600.0
 42
1600.0
 43
1600.0
  0
INSERT
  5
397
330
391
100
AcDbEntity
  8
COLUMN
 62
1
100
AcDbBlockReference
  2
_FZH
 10
17999.99999999558
 20
-12400.0
 30
0.0
 41
1200.0
 42
1200.0
 43
1200.0
 50
270.0
  0
INSERT
  5
399
330
391
100
AcDbEntity
  8
COLUMN
 62
1
100
AcDbBlockReference
  2
_FZH
 10
8999.999999995576
 20
-12400.0
 30
0.0
 41
1200.0
 42
1200.0
 43
1200.0
 50
270.0
  0
INSERT
  5
39B
330
391
100
AcDbEntity
  8
COLUMN
 62
1
100
AcDbBlockReference
  2
_FZH
 10
-4.4237822e-09
 20
-12400.0
 30
0.0
 41
1200.0
 42
1200.0
 43
1200.0
 50
270.0
  0
INSERT
  5
39D
330
391
100
AcDbEntity
  8
COLUMN
 62
1
100
AcDbBlockReference
  2
_YZH
 10
-10600.0
 20
-10600.0
 30
0.0
 41
1600.0
 42
1600.0
 43
1600.0
  0
INSERT
  5
39F
330
391
100
AcDbEntity
  8
COLUMN
 62
1
100
AcDbBlockReference
  2
_FZH
 10
-12400.00000000023
 20
9000.0
 30
0.0
 41
1200.0
 42
1200.0
 43
1200.0
 50
270.0
  0
INSERT
  5
3A1
330
391
100
AcDbEntity
  8
COLUMN
 62
1
100
AcDbBlockReference
  2
_FZH
 10
-12400.00000000023
 20
18000.00000000047
 30
0.0
 41
1200.0
 42
1200.0
 43
1200.0
 50
270.0
  0
INSERT
  5
3A3
330
391
100
AcDbEntity
  8
COLUMN
 62
1
100
AcDbBlockReference
  2
_YZH
 10
-10600.0
 20
28599.99999999884
 30
0.0
 41
1600.0
 42
1600.0
 43
1600.0
  0
INSERT
  5
3A5
330
391
100
AcDbEntity
  8
COLUMN
 62
1
100
AcDbBlockReference
  2
_FZH
 10
-12400.0
 20
-1.1641532e-09
 30
0.0
 41
1200.0
 42
1200.0
 43
1200.0
 50
270.0
  0
INSERT
  5
3A7
330
391
100
AcDbEntity
  8
COLUMN
 62
1
100
AcDbBlockReference
  2
_FZH
 10
17999.99999999558
 20
30400.0
 30
0.0
 41
1200.0
 42
1200.0
 43
1200.0
 50
270.0
  0
INSERT
  5
3A9
330
391
100
AcDbEntity
  8
COLUMN
 62
1
100
AcDbBlockReference
  2
_FZH
 10
8999.999999995576
 20
30400.0
 30
0.0
 41
1200.0
 42
1200.0
 43
1200.0
 50
270.0
  0
INSERT
  5
3AB
330
391
100
AcDbEntity
  8
COLUMN
 62
1
100
AcDbBlockReference
  2
_FZH
 10
-2.328306e-10
 20
30399.99999999884
 30
0.0
 41
1200.0
 42
1200.0
 43
1200.0
 50
270.0
  0
INSERT
  5
3AD
330
391
100
AcDbEntity
  8
COLUMN
 62
1
100
AcDbBlockReference
  2
_FZH
 10
30400.0
 20
8999.999999998836
 30
0.0
 41
1200.0
 42
1200.0
 43
1200.0
 50
270.0
  0
INSERT
  5
3AF
330
391
100
AcDbEntity
  8
COLUMN
 62
1
100
AcDbBlockReference
  2
_FZH
 10
30400.0
 20
17999.99999999884
 30
0.0
 41
1200.0
 42
1200.0
 43
1200.0
 50
270.0
  0
INSERT
  5
3B1
330
391
100
AcDbEntity
  8
COLUMN
 62
1
100
AcDbBlockReference
  2
_FZH
 10
30400.0
 20
-1.1641532e-09
 30
0.0
 41
1200.0
 42
1200.0
 43
1200.0
 50
270.0
  0
INSERT
  5
3B3
330
391
100
AcDbEntity
  8
COLUMN
 62
1
100
AcDbBlockReference
  2
_YZH
 10
28600.0
 20
28599.99999999884
 30
0.0
 41
1600.0
 42
1600.0
 43
1600.0
  0
ENDBLK
  5
393
330
391
100
AcDbEntity
  8
0
100
AcDbBlockEnd
  0
BLOCK
  5
3B6
330
3B5
100
AcDbEntity
  8
0
100
AcDbBlockBegin
  2
$DorLib2D$00000002
 70
0
 10
0.0
 20
0.0
 30
0.0
  3
$DorLib2D$00000002
  1

  0
LINE
  5
3B8
330
3B5
100
AcDbEntity
  8
0
100
AcDbLine
 10
-0.5
 20
-1e-16
 30
0.0
 11
-0.5000000000000007
 21
0.4875
 31
0.0
  0
LINE
  5
3B9
330
3B5
100
AcDbEntity
  8
0
100
AcDbLine
 10
-0.475
 20
0.0
 30
0.0
 11
-0.4750000000000007
 21
0.4875
 31
0.0
  0
LINE
  5
3BA
330
3B5
100
AcDbEntity
  8
0
100
AcDbLine
 10
-0.5
 20
-1e-16
 30
0.0
 11
-0.475
 21
0.0
 31
0.0
  0
LINE
  5
3BB
330
3B5
100
AcDbEntity
  8
0
100
AcDbLine
 10
-0.4750000000000007
 20
0.4875
 30
0.0
 11
-0.5000000000000007
 21
0.4875
 31
0.0
  0
ARC
  5
3BC
330
3B5
100
AcDbEntity
  8
0
370
13
100
AcDbCircle
 10
-0.4875
 20
0.0
 30
0.0
 40
0.4875
100
AcDbArc
 50
0.0
 51
88.53071641864632
  0
ARC
  5
3BD
330
3B5
100
AcDbEntity
  8
0
370
13
100
AcDbCircle
 10
0.4875
 20
0.0
 30
0.0
 40
0.4875
100
AcDbArc
 50
91.46928358135371
 51
180.0
  0
LINE
  5
3BE
330
3B5
100
AcDbEntity
  8
0
100
AcDbLine
 10
0.475
 20
0.0
 30
0.0
 11
0.4750000000000007
 21
0.4875
 31
0.0
  0
LINE
  5
3BF
330
3B5
100
AcDbEntity
  8
0
100
AcDbLine
 10
0.5
 20
-1e-16
 30
0.0
 11
0.5000000000000007
 21
0.4875
 31
0.0
  0
LINE
  5
3C0
330
3B5
100
AcDbEntity
  8
0
100
AcDbLine
 10
0.4750000000000007
 20
0.4875
 30
0.0
 11
0.5000000000000007
 21
0.4875
 31
0.0
  0
LINE
  5
3C1
330
3B5
100
AcDbEntity
  8
0
100
AcDbLine
 10
0.5
 20
-1e-16
 30
0.0
 11
0.475
 21
0.0
 31
0.0
  0
ENDBLK
  5
3B7
330
3B5
100
AcDbEntity
  8
0
100
AcDbBlockEnd
  0
BLOCK
  5
3C3
330
3C2
100
AcDbEntity
  8
0
100
AcDbBlockBegin
  2
$DORLIB2D$00000127
 70
0
 10
0.0
 20
0.0
 30
0.0
  3
$DORLIB2D$00000127
  1

  0
LWPOLYLINE
  5
3C5
330
3C2
100
AcDbEntity
  8
0
 62
0
100
AcDbPolyline
 90
2
 70
0
 10
0.5333333333328483
 20
0.7948983154366971
 10
0.0333333333328483
 20
0.7948983154366971
  0
LWPOLYLINE
  5
3C6
330
3C2
100
AcDbEntity
  8
0
 62
0
100
AcDbPolyline
 90
2
 70
0
 10
0.5333333333328483
 20
0.6904056441872372
 10
0.0333333333328483
 20
0.6904056441872372
  0
LWPOLYLINE
  5
3C7
330
3C2
100
AcDbEntity
  8
0
 62
0
100
AcDbPolyline
 90
2
 70
0
 10
-0.5333333333328483
 20
0.7948983154366971
 10
-0.5333333333328483
 20
0.6904056441872372
  0
LWPOLYLINE
  5
3C8
330
3C2
100
AcDbEntity
  8
0
 62
0
100
AcDbPolyline
 90
2
 70
0
 10
0.5333333333328483
 20
0.7948983154366971
 10
0.5333333333328483
 20
0.6904056441872372
  0
LWPOLYLINE
  5
3C9
330
3C2
100
AcDbEntity
  8
0
 62
0
100
AcDbPolyline
 90
2
 70
0
 10
-0.0333333333328483
 20
0.7948983154366971
 10
-0.0333333333328483
 20
0.6904056441872372
  0
LWPOLYLINE
  5
3CA
330
3C2
100
AcDbEntity
  8
0
 62
0
100
AcDbPolyline
 90
2
 70
0
 10
-0.0333333333328483
 20
0.6904056441872372
 10
-0.5333333333328483
 20
0.6904056441872372
  0
LWPOLYLINE
  5
3CB
330
3C2
100
AcDbEntity
  8
0
 62
0
100
AcDbPolyline
 90
2
 70
0
 10
-0.0333333333328483
 20
0.7948983154366971
 10
-0.5333333333328483
 20
0.7948983154366971
  0
LWPOLYLINE
  5
3CC
330
3C2
100
AcDbEntity
  8
0
 62
0
100
AcDbPolyline
 90
2
 70
0
 10
0.0333333333328483
 20
0.7948983154366971
 10
0.0333333333328483
 20
0.6904056441872372
  0
LWPOLYLINE
  5
3CD
330
3C2
100
AcDbEntity
  8
0
 62
0
100
AcDbPolyline
 90
2
 70
0
 10
0.5
 20
0.4999999999999858
 10
-0.5
 20
0.4999999999999858
  0
ENDBLK
  5
3C4
330
3C2
100
AcDbEntity
  8
0
100
AcDbBlockEnd
  0
BLOCK
  5
3CF
330
3CE
100
AcDbEntity
  8
0
100
AcDbBlockBegin
  2
$DorLib2D$00000114
 70
0
 10
0.0
 20
0.0
 30
0.0
  3
$DorLib2D$00000114
  1

  0
ARC
  5
3D1
330
3CE
100
AcDbEntity
  8
0
 62
0
100
AcDbCircle
 10
0.5000000000013856
 20
-1.1546e-12
 30
0.0
 40
1.000000000001696
100
AcDbArc
 50
135.0
 51
180.0
  0
LINE
  5
3D2
330
3CE
100
AcDbEntity
  8
0
 62
0
100
AcDbLine
 10
0.4999999999999964
 20
3.6e-15
 30
0.0
 11
-0.2071067811864751
 21
0.7071067811864857
 31
0.0
  0
ENDBLK
  5
3D0
330
3CE
100
AcDbEntity
  8
0
100
AcDbBlockEnd
  0
BLOCK
  5
3D4
330
3D3
100
AcDbEntity
  8
0
100
AcDbBlockBegin
  2
_FZH
 70
0
 10
0.0
 20
0.0
 30
0.0
  3
_FZH
  1

  0
SOLID
  5
3D6
330
3D3
100
AcDbEntity
  8
PUB_HATCH
100
AcDbTrace
 10
-0.5
 20
-0.5
 30
0.0
 11
0.5
 21
-0.5
 31
0.0
 12
-0.5
 22
0.5
 32
0.0
 13
0.5
 23
0.5
 33
0.0
  0
LWPOLYLINE
  5
3D7
330
3D3
100
AcDbEntity
  8
0
100
AcDbPolyline
 90
4
 70
1
 10
-0.5
 20
-0.5
 10
0.5
 20
-0.5
 10
0.5
 20
0.5
 10
-0.5
 20
0.5
  0
ENDBLK
  5
3D5
330
3D3
100
AcDbEntity
  8
0
100
AcDbBlockEnd
  0
BLOCK
  5
3D9
330
3D8
100
AcDbEntity
  8
0
100
AcDbBlockBegin
  2
$DorLib2D$00000001
 70
0
 10
0.0
 20
0.0
 30
0.0
  3
$DorLib2D$00000001
  1

  0
LINE
  5
3DB
330
3D8
100
AcDbEntity
  8
0
100
AcDbLine
 10
0.45
 20
0.9750000000000001
 30
0.0
 11
0.5000000000000002
 21
0.9750000000000001
 31
0.0
  0
LINE
  5
3DC
330
3D8
100
AcDbEntity
  8
0
100
AcDbLine
 10
0.5
 20
0.0
 30
0.0
 11
0.45
 21
0.0
 31
0.0
  0
ARC
  5
3DD
330
3D8
100
AcDbEntity
  8
0
370
13
100
AcDbCircle
 10
0.475
 20
0.0
 30
0.0
 40
0.975
100
AcDbArc
 50
91.4692835813538
 51
180.0
  0
LINE
  5
3DE
330
3D8
100
AcDbEntity
  8
0
100
AcDbLine
 10
0.5
 20
0.0
 30
0.0
 11
0.5
 21
0.9750000000000001
 31
0.0
  0
LINE
  5
3DF
330
3D8
100
AcDbEntity
  8
0
100
AcDbLine
 10
0.45
 20
0.0
 30
0.0
 11
0.45
 21
0.9750000000000001
 31
0.0
  0
ENDBLK
  5
3DA
330
3D8
100
AcDbEntity
  8
0
100
AcDbBlockEnd
  0
BLOCK
  5
3E1
330
3E0
100
AcDbEntity
  8
0
100
AcDbBlockBegin
  2
_YZH
 70
0
 10
0.0
 20
0.0
 30
0.0
  3
_YZH
  1

  0
POLYLINE
  5
3E3
330
3E0
100
AcDbEntity
  8
PUB_HATCH
100
AcDb2dPolyline
 66
1
 10
0.0
 20
0.0
 30
0.0
 70
1
 40
0.5
 41
0.5
  0
VERTEX
  5
3E4
330
3E3
100
AcDbEntity
  8
PUB_HATCH
100
AcDbVertex
100
AcDb2dVertex
 10
-0.25
 20
0.0
 30
0.0
 42
1.0
 70
0
  0
VERTEX
  5
3E5
330
3E3
100
AcDbEntity
  8
PUB_HATCH
100
AcDbVertex
100
AcDb2dVertex
 10
0.25
 20
0.0
 30
0.0
 42
1.0
 70
0
  0
SEQEND
  5
3E6
330
3E3
100
AcDbEntity
  8
PUB_HATCH
  0
CIRCLE
  5
3E7
330
3E0
100
AcDbEntity
  8
0
100
AcDbCircle
 10
0.0
 20
0.0
 30
0.0
 40
0.5
  0
ENDBLK
  5
3E2
330
3E0
100
AcDbEntity
  8
0
100
AcDbBlockEnd
  0
ENDSEC
  0
SECTION
  2
ENTITIES
  0
LWPOLYLINE
  5
3C
330
17
100
AcDbEntity
  8
HWD_1_洁具
100
AcDbPolyline
 90
8
 70
1
 10
1179662.794934599
 20
138241.3568603477
 10
1178723.538914776
 20
139180.6128801709
 10
1175123.538914776
 20
139180.6128801709
 10
1174184.282894953
 20
138241.3568603477
 10
1174749.968319899
 20
137675.671435394
 10
1175454.909764676
 20
138380.6128801709
 10
1178392.168064876
 20
138380.6128801709
 10
1179097.109509653
 20
137675.671435394
  0
CIRCLE
  5
3D
330
17
100
AcDbEntity
  8
HWD_1_洁具
100
AcDbCircle
 10
1176044.123034178
 20
137688.270000883
 30
0.0
 40
300.0
  0
CIRCLE
  5
3E
330
17
100
AcDbEntity
  8
HWD_1_洁具
100
AcDbCircle
 10
1177802.954795374
 20
137688.270000883
 30
0.0
 40
300.0
  0
INSERT
  5
3F
330
17
100
AcDbEntity
  8
A-LIFT
100
AcDbBlockReference
  2
224
 10
1190172.056374324
 20
160527.9862517786
 30
0.0
 41
-1.0
  0
INSERT
  5
41
330
17
100
AcDbEntity
  8
A-LIFT
100
AcDbBlockReference
  2
224
 10
1187272.056374324
 20
160527.9862517786
 30
0.0
 41
-1.0
  0
INSERT
  5
43
330
17
100
AcDbEntity
  8
A-LIFT
100
AcDbBlockReference
  2
224
 10
1184372.056374324
 20
160527.9862517786
 30
0.0
 41
-1.0
  0
INSERT
  5
45
330
17
100
AcDbEntity
  8
A-LIFT
100
AcDbBlockReference
  2
224
 10
1187272.056374324
 20
152577.9862517785
 30
0.0
 50
180.0
  0
INSERT
  5
47
330
17
100
AcDbEntity
  8
A-LIFT
100
AcDbBlockReference
  2
224
 10
1184372.056374324
 20
152577.9862517785
 30
0.0
 50
180.0
  0
INSERT
  5
49
330
17
100
AcDbEntity
  8
A-LIFT
100
AcDbBlockReference
  2
224
 10
1187272.056374324
 20
151377.9862517786
 30
0.0
 41
-1.0
  0
INSERT
  5
4B
330
17
100
AcDbEntity
  8
A-LIFT
100
AcDbBlockReference
  2
224
 10
1184372.056374324
 20
151377.9862517786
 30
0.0
 41
-1.0
  0
INSERT
  5
4D
330
17
100
AcDbEntity
  8
A-LIFT
100
AcDbBlockReference
  2
224
 10
1196722.056374331
 20
154527.9862517842
 30
0.0
 50
180.0
  0
INSERT
  5
4F
330
17
100
AcDbEntity
  8
A-LIFT
100
AcDbBlockReference
  2
224
 10
1196722.056374331
 20
150027.986251784
 30
0.0
 41
-1.0
  0
INSERT
  5
51
330
17
100
AcDbEntity
  8
A-LIFT
100
AcDbBlockReference
  2
224
 10
1190172.056374324
 20
143427.9862517786
 30
0.0
 50
180.0
  0
INSERT
  5
53
330
17
100
AcDbEntity
  8
A-LIFT
100
AcDbBlockReference
  2
224
 10
1184372.056374324
 20
143427.9862517786
 30
0.0
 50
180.0
  0
INSERT
  5
55
330
17
100
AcDbEntity
  8
A-LIFT
100
AcDbBlockReference
  2
224
 10
1187272.056374324
 20
143427.9862517786
 30
0.0
 50
180.0
  0
INSERT
  5
57
330
17
100
AcDbEntity
  8
3T_GLASS
 62
4
100
AcDbBlockReference
  2
A$C4F7F3484
 10
1182972.056374325
 20
142977.986251779
 30
0.0
  0
LWPOLYLINE
  5
59
330
17
100
AcDbEntity
  8
变形线
  6
1-12商铺首层$0$DASH
 62
1
 48
5.0
100
AcDbPolyline
 90
4
 70
0
 43
100.0
 10
1165901.706049262
 20
129977.986251779
 10
1214172.056373093
 20
129977.986251779
 10
1214172.056373093
 20
174177.9862160084
 10
1165901.706049262
 20
174177.9862160084
  0
LWPOLYLINE
  5
5A
330
17
100
AcDbEntity
  8
变形线
100
AcDbPolyline
 90
8
 70
1
 10
1167909.691726437
 20
127805.4768364066
 10
1170363.453107093
 20
129977.9862517543
 10
1214172.056373094
 20
129977.9862517543
 10
1214172.056373094
 20
174177.9862159837
 10
1169630.635053838
 20
174177.9862159837
 10
1167373.757671591
 20
176434.8635982316
 10
1216374.105503711
 20
176434.8635982302
 10
1216374.105503711
 20
127805.4768364066
  0
TEXT
  5
5B
330
17
100
AcDbEntity
  8
房间名
100
AcDbText
 10
1175665.982680107
 20
150466.7049248979
 30
-7.1295e-12
 40
771.6312056737588
  1
办公大堂
  7
_TCH_SPACE
100
AcDbText
  0
TEXT
  5
5C
330
17
100
AcDbEntity
  8
房间名
100
AcDbText
 10
1175682.34638921
 20
139996.008312439
 30
-7.1295e-12
 40
771.6312056737588
  1
接待
  7
_TCH_SPACE
100
AcDbText
  0
TEXT
  5
5D
330
17
100
AcDbEntity
  8
房间名
100
AcDbText
 10
1193868.634762833
 20
133064.4950418171
 30
-7.1001e-12
 40
771.6312056737588
  1
疏散通道
  7
_TCH_SPACE
100
AcDbText
  0
TEXT
  5
5E
330
17
100
AcDbEntity
  8
房间名
100
AcDbText
 10
1178720.726769867
 20
164966.6582414537
 30
-7.1001e-12
 40
771.6312056737588
  1
疏散通道
  7
_TCH_SPACE
100
AcDbText
  0
LINE
  5
5F
330
17
100
AcDbEntity
  8
DIM_ELEV
100
AcDbLine
 10
1176276.449079208
 20
152868.9433241837
 30
0.0
 11
1175676.449079208
 21
153468.9433241837
 31
0.0
  0
LINE
  5
60
330
17
100
AcDbEntity
  8
DIM_ELEV
100
AcDbLine
 10
1176276.449079208
 20
152868.9433241837
 30
0.0
 11
1176876.449079208
 21
153468.9433241837
 31
0.0
  0
LINE
  5
61
330
17
100
AcDbEntity
  8
DIM_ELEV
100
AcDbLine
 10
1175676.449079208
 20
153468.9433241837
 30
0.0
 11
1178531.501406381
 21
153468.9433241837
 31
0.0
  0
TEXT
  5
62
330
17
100
AcDbEntity
  8
PUB_TEXT
100
AcDbText
 10
1176271.501406381
 20
153648.9433241837
 30
0.0
 40
600.0
  1
%%P0.000
  7
H-Z
 41
0.7
100
AcDbText
  0
TEXT
  5
63
330
17
100
AcDbEntity
  8
PUB_TEXT
100
AcDbText
 10
1178731.501406381
 20
153648.9433241837
 30
0.0
 40
600.0
  1
(4.000)
  7
H-Z
 41
0.7
100
AcDbText
  0
TEXT
  5
64
330
17
100
AcDbEntity
  8
房间名
100
AcDbText
 10
1183472.917357285
 20
156272.7066942311
 30
0.0
 40
771.6312056737588
  1
低区电梯厅
  7
_TCH_SPACE
100
AcDbText
  0
TEXT
  5
65
330
17
100
AcDbEntity
  8
房间名
100
AcDbText
 10
1183431.612709674
 20
147167.8410502325
 30
0.0
 40
771.6312056737588
  1
高区电梯厅
  7
_TCH_SPACE
100
AcDbText
  0
TEXT
  5
66
330
17
100
AcDbEntity
  8
房间名
100
AcDbText
 10
1199270.957149051
 20
159851.4150896542
 30
0.0
 40
680.0
  1
QD
  7
_TCH_SPACE
 41
0.7058823529411765
100
AcDbText
  0
TEXT
  5
67
330
17
100
AcDbEntity
  8
房间名
100
AcDbText
 10
1199374.147854389
 20
143470.1801204949
 30
0.0
 40
680.0
  1
RD
  7
_TCH_SPACE
 41
0.7058823529411765
100
AcDbText
  0
TEXT
  5
68
330
17
100
AcDbEntity
  8
房间名
100
AcDbText
 10
1196492.435124436
 20
152572.7680720303
 30
0.0
 40
680.0
  1
XF
  7
_TCH_SPACE
 41
0.7058823529411765
100
AcDbText
  0
TEXT
  5
69
330
17
100
AcDbEntity
  8
房间名
100
AcDbText
 10
1195530.484415369
 20
158228.3870124241
 30
0.0
 40
771.6312056737588
  1
合用前室
  7
_TCH_SPACE
100
AcDbText
  0
TEXT
  5
6A
330
17
100
AcDbEntity
  8
房间名
100
AcDbText
 10
1196457.577530373
 20
148966.8000181511
 30
0.0
 40
771.6312056737588
  1
消防
  7
_TCH_SPACE
100
AcDbText
  0
TEXT
  5
6B
330
17
100
AcDbEntity
  8
房间名
100
AcDbText
 10
1195924.871200137
 20
155280.2263721321
 30
0.0
 40
771.6312056737588
  1
服务梯
  7
_TCH_SPACE
100
AcDbText
  0
TEXT
  5
6C
330
17
100
AcDbEntity
  8
房间名
100
AcDbText
 10
1195454.342559208
 20
145683.6283799398
 30
0.0
 40
771.6312056737588
  1
合用前室
  7
_TCH_SPACE
100
AcDbText
  0
TEXT
  5
6D
330
17
100
AcDbEntity
  8
房间名
100
AcDbText
 10
1198600.132491117
 20
144876.2379520822
 30
0.0
 40
680.0
  1
JY
  7
_TCH_SPACE
 41
0.7058823529411765
100
AcDbText
  0
TEXT
  5
6E
330
17
100
AcDbEntity
  8
房间名
100
AcDbText
 10
1200156.823492719
 20
144918.5498632125
 30
0.0
 40
680.0
  1
PY
  7
_TCH_SPACE
 41
0.7058823529411765
100
AcDbText
  0
TEXT
  5
6F
330
17
100
AcDbEntity
  8
房间名
100
AcDbText
 10
1198702.178726517
 20
158675.2305737214
 30
0.0
 40
680.0
  1
JY
  7
_TCH_SPACE
 41
0.7058823529411765
100
AcDbText
  0
TEXT
  5
70
330
17
100
AcDbEntity
  8
房间名
100
AcDbText
 10
1200078.032803649
 20
158708.1531848923
 30
0.0
 40
680.0
  1
PY
  7
_TCH_SPACE
 41
0.7058823529411765
100
AcDbText
  0
TEXT
  5
71
330
17
100
AcDbEntity
  8
房间名
100
AcDbText
 10
1196447.344802971
 20
143092.4483925598
 30
0.0
 40
680.0
  1
JY
  7
_TCH_SPACE
 41
0.7058823529411765
100
AcDbText
  0
TEXT
  5
72
330
17
100
AcDbEntity
  8
房间名
100
AcDbText
 10
1196579.431562029
 20
150921.244745177
 30
0.0
 40
680.0
  1
SJ
  7
_TCH_SPACE
 41
0.7058823529411765
100
AcDbText
  0
TEXT
  5
73
330
17
100
AcDbEntity
  8
房间名
100
AcDbText
 10
1183724.228626901
 20
144187.3406151072
 30
0.0
 40
680.0
  1
OP10
  7
_TCH_SPACE
 41
0.7058823529411765
100
AcDbText
  0
TEXT
  5
74
330
17
100
AcDbEntity
  8
房间名
100
AcDbText
 10
1186706.385779151
 20
144170.3130646476
 30
0.0
 40
680.0
  1
OP09
  7
_TCH_SPACE
 41
0.7058823529411765
100
AcDbText
  0
TEXT
  5
75
330
17
100
AcDbEntity
  8
房间名
100
AcDbText
 10
1189507.678654558
 20
144144.6293527761
 30
0.0
 40
680.0
  1
OP08
  7
_TCH_SPACE
 41
0.7058823529411765
100
AcDbText
  0
TEXT
  5
76
330
17
100
AcDbEntity
  8
房间名
100
AcDbText
 10
1186779.455479162
 20
150303.0848158115
 30
0.0
 40
680.0
  1
OP06
  7
_TCH_SPACE
 41
0.7058823529411765
100
AcDbText
  0
TEXT
  5
77
330
17
100
AcDbEntity
  8
房间名
100
AcDbText
 10
1183921.027448183
 20
150303.0848158115
 30
0.0
 40
680.0
  1
OP07
  7
_TCH_SPACE
 41
0.7058823529411765
100
AcDbText
  0
TEXT
  5
78
330
17
100
AcDbEntity
  8
房间名
100
AcDbText
 10
1186834.694288959
 20
153354.9867714573
 30
0.0
 40
680.0
  1
OP05
  7
_TCH_SPACE
 41
0.7058823529411765
100
AcDbText
  0
TEXT
  5
79
330
17
100
AcDbEntity
  8
房间名
100
AcDbText
 10
1189763.205524633
 20
159484.5186196538
 30
0.0
 40
680.0
  1
OP03
  7
_TCH_SPACE
 41
0.7058823529411765
100
AcDbText
  0
TEXT
  5
7A
330
17
100
AcDbEntity
  8
房间名
100
AcDbText
 10
1186926.559294206
 20
159484.5186196538
 30
0.0
 40
680.0
  1
OP02
  7
_TCH_SPACE
 41
0.7058823529411765
100
AcDbText
  0
TEXT
  5
7B
330
17
100
AcDbEntity
  8
房间名
100
AcDbText
 10
1183996.538990669
 20
159484.5186196538
 30
0.0
 40
680.0
  1
OP01
  7
_TCH_SPACE
 41
0.7058823529411765
100
AcDbText
  0
TEXT
  5
7C
330
17
100
AcDbEntity
  8
房间名
100
AcDbText
 10
1183959.279708926
 20
153360.4619489521
 30
0.0
 40
680.0
  1
OP04
  7
_TCH_SPACE
 41
0.7058823529411765
100
AcDbText
  0
TEXT
  5
7D
330
17
100
AcDbEntity
  8
房间名
100
AcDbText
 10
1196329.957149051
 20
160442.6531848923
 30
0.0
 40
680.0
  1
JY
  7
_TCH_SPACE
 41
0.7058823529411765
100
AcDbText
  0
TEXT
  5
7E
330
17
100
AcDbEntity
  8
房间名
100
AcDbText
 10
1206681.156714403
 20
141781.4605849853
 30
-7.1001e-12
 40
771.6312056737588
  1
消防控制中心
  7
_TCH_SPACE
100
AcDbText
  0
TEXT
  5
7F
330
17
100
AcDbEntity
  8
房间名
100
AcDbText
 10
1206113.093676866
 20
157149.6498930488
 30
0.0
 40
771.6312056737588
  1
空调机房
  7
_TCH_SPACE
100
AcDbText
  0
TEXT
  5
80
330
17
100
AcDbEntity
  8
房间名
100
AcDbText
 10
1191466.249352808
 20
159470.0322577325
 30
7.1001e-12
 40
680.0
  1
PY
  7
_TCH_SPACE
 41
0.7058823529411765
100
AcDbText
  0
TEXT
  5
81
330
17
100
AcDbEntity
  8
房间名
100
AcDbText
 10
1191525.816066556
 20
144139.7428263559
 30
7.1001e-12
 40
680.0
  1
PY
  7
_TCH_SPACE
 41
0.7058823529411765
100
AcDbText
  0
TEXT
  5
82
330
17
100
AcDbEntity
  8
房间名
100
AcDbText
 10
1192544.035147172
 20
152685.8361673874
 30
0.0
 40
771.6312056737588
  1
地下车库
  7
_TCH_SPACE
100
AcDbText
  0
TEXT
  5
83
330
17
100
AcDbEntity
  8
房间名
100
AcDbText
 10
1189932.732132381
 20
149391.3839313383
 30
0.0
 40
680.0
  1
PY
  7
_TCH_SPACE
 41
0.7058823529411765
100
AcDbText
  0
TEXT
  5
84
330
17
100
AcDbEntity
  8
房间名
100
AcDbText
 10
1189811.098478541
 20
153379.9863155843
 30
0.0
 40
680.0
  1
OP11
  7
_TCH_SPACE
 41
0.7058823529411765
100
AcDbText
  0
TEXT
  5
85
330
17
100
AcDbEntity
  8
房间名
100
AcDbText
 10
1189811.098478541
 20
150979.9863153793
 30
0.0
 40
680.0
  1
OP12
  7
_TCH_SPACE
 41
0.7058823529411765
100
AcDbText
  0
TEXT
  5
86
330
17
100
AcDbEntity
  8
房间名
100
AcDbText
 10
1165529.86340238
 20
147179.126472993
 30
0.0
 40
771.6312056737588
  1
办公入口
  7
_TCH_SPACE
100
AcDbText
  0
LWPOLYLINE
  5
87
330
17
100
AcDbEntity
  8
DIM_SYMB
100
AcDbPolyline
 90
3
 70
0
 43
100.0
 10
1186072.056374324
 20
130987.032545278
 10
1187272.056374324
 20
130987.032545278
 10
1187272.056374324
 20
132987.032545278
  0
LWPOLYLINE
  5
88
330
17
100
AcDbEntity
  8
DIM_SYMB
100
AcDbPolyline
 90
3
 70
0
 43
100.0
 10
1187272.056374324
 20
176296.6882197987
 10
1187272.056374324
 20
178296.6882197987
 10
1186072.056374324
 20
178296.6882197987
  0
TEXT
  5
89
330
17
100
AcDbEntity
  8
PUB_TEXT
100
AcDbText
 10
1184943.484945752
 20
130562.032545278
 30
0.0
 40
850.0
  1
1
  7
_TCH_LABEL
 41
0.7058823529411765
100
AcDbText
  0
TEXT
  5
8A
330
17
100
AcDbEntity
  8
PUB_TEXT
100
AcDbText
 10
1184943.484945752
 20
177871.6882197987
 30
0.0
 40
850.0
  1
1
  7
_TCH_LABEL
 41
0.7058823529411765
100
AcDbText
  0
INSERT
  5
8B
330
17
100
AcDbEntity
  8
WINDOW
100
AcDbBlockReference
 66
1
  2
$DorLib2D$00000002
 10
1200372.056374325
 20
133919.1275039229
 30
0.0
 41
2100.0
 42
2100.0
 43
2100.0
 50
90.0
  0
ATTRIB
  5
8C
330
8B
100
AcDbEntity
  8
WINDOW_TEXT
100
AcDbText
 10
1201798.201479218
 20
133451.1275039232
 30
0.0
 40
892.5
  1

 50
90.0
  7
_TCH_WINDOW
 41
0.5647058823529412
100
AcDbAttribute
  2
A
 70
0
 71
1
 72
0
  0
SEQEND
  5
8D
330
8B
100
AcDbEntity
  8
WINDOW
  0
INSERT
  5
8E
330
17
100
AcDbEntity
  8
WINDOW
100
AcDbBlockReference
 66
1
  2
$DorLib2D$00000002
 10
1182812.056374878
 20
170827.9862522392
 30
0.0
 41
2100.0
 42
2100.0
 43
2100.0
 50
90.0
  0
ATTRIB
  5
8F
330
8E
100
AcDbEntity
  8
WINDOW_TEXT
100
AcDbText
 10
1184386.770950162
 20
170359.9862522395
 30
0.0
 40
892.5
  1

 50
90.0
  7
_TCH_WINDOW
 41
0.5647058823529412
100
AcDbAttribute
  2
A
 70
0
 71
1
 72
0
  0
SEQEND
  5
90
330
8E
100
AcDbEntity
  8
WINDOW
  0
LINE
  5
91
330
17
100
AcDbEntity
  8
WALL
100
AcDbLine
 10
1182712.056374882
 20
172977.9862517729
 30
0.0
 11
1192072.056374885
 21
172977.986251781
 31
0.0
  0
LINE
  5
92
330
17
100
AcDbEntity
  8
WALL
100
AcDbLine
 10
1182912.056374875
 20
172777.9862517699
 30
0.0
 11
1191872.056374877
 21
172777.9862517775
 31
0.0
  0
LINE
  5
93
330
17
100
AcDbEntity
  8
WALL
100
AcDbLine
 10
1182972.056374331
 20
160977.9862517785
 30
0.0
 11
1182972.056374331
 21
158277.9862517785
 31
0.0
  0
LINE
  5
94
330
17
100
AcDbEntity
  8
WALL
100
AcDbLine
 10
1182172.05637432
 20
161777.9862517785
 30
0.0
 11
1182172.05637432
 21
158277.9862517785
 31
0.0
  0
LINE
  5
95
330
17
100
AcDbEntity
  8
WALL
100
AcDbLine
 10
1182972.056374331
 20
158277.9862517785
 30
0.0
 11
1182172.05637432
 21
158277.9862517785
 31
0.0
  0
LINE
  5
96
330
17
100
AcDbEntity
  8
WALL
100
AcDbLine
 10
1192472.056374317
 20
161777.9862517596
 30
0.0
 11
1192472.056374324
 21
158377.9862517786
 31
0.0
  0
LINE
  5
97
330
17
100
AcDbEntity
  8
WALL
100
AcDbLine
 10
1192172.056374328
 20
160977.9862517615
 30
0.0
 11
1192172.056374324
 21
158377.9862517786
 31
0.0
  0
LINE
  5
98
330
17
100
AcDbEntity
  8
WALL
100
AcDbLine
 10
1192172.056374328
 20
160977.9862517615
 30
0.0
 11
1191672.056374323
 21
160977.9862517786
 31
0.0
  0
LINE
  5
99
330
17
100
AcDbEntity
  8
WALL
100
AcDbLine
 10
1192472.056374317
 20
161777.9862517596
 30
0.0
 11
1191672.056374323
 21
161777.9862517786
 31
0.0
  0
LINE
  5
9A
330
17
100
AcDbEntity
  8
WALL
100
AcDbLine
 10
1195172.056374323
 20
158277.9862517802
 30
0.0
 11
1192472.056374317
 21
158277.9862517802
 31
0.0
  0
LINE
  5
9B
330
17
100
AcDbEntity
  8
WALL
100
AcDbLine
 10
1195172.056374323
 20
158477.98625177
 30
0.0
 11
1192472.056374317
 21
158477.98625177
 31
0.0
  0
INSERT
  5
9C
330
17
100
AcDbEntity
  8
WINDOW
  6
ByBlock
100
AcDbBlockReference
 66
1
  2
$DORLIB2D$00000127
 10
1190172.056371053
 20
158377.9862517786
 30
0.0
 41
-1400.0
 42
-200.0
 43
-1400.0
 50
180.0
  0
ATTRIB
  5
9D
330
9C
100
AcDbEntity
  8
WINDOW_TEXT
  6
ByBlock
100
AcDbText
 10
1189404.056371061
 20
158444.3760608478
 30
0.0
 40
892.5
  1

  7
_TCH_WINDOW
 41
0.5647058823529412
100
AcDbAttribute
  2
A
 70
0
 71
1
 72
0
  0
SEQEND
  5
9E
330
9C
100
AcDbEntity
  8
WINDOW
  6
ByBlock
  0
LINE
  5
9F
330
17
100
AcDbEntity
  8
WALL
100
AcDbLine
 10
1188672.056374331
 20
158477.9862517785
 30
0.0
 11
1188672.056374331
 21
160977.9862517785
 31
0.0
  0
LINE
  5
A0
330
17
100
AcDbEntity
  8
WALL
100
AcDbLine
 10
1188772.056374331
 20
158477.9862517726
 30
0.0
 11
1188772.056374331
 21
160977.9862517785
 31
0.0
  0
LINE
  5
A1
330
17
100
AcDbEntity
  8
WALL
100
AcDbLine
 10
1188672.056374331
 20
158477.9862517785
 30
0.0
 11
1187972.056371041
 21
158477.9862517875
 31
0.0
  0
LINE
  5
A2
330
17
100
AcDbEntity
  8
WALL
100
AcDbLine
 10
1187972.056371041
 20
158477.9862517875
 30
0.0
 11
1187972.05637104
 21
158277.9862517784
 31
0.0
  0
LINE
  5
A3
330
17
100
AcDbEntity
  8
WALL
100
AcDbLine
 10
1187972.05637104
 20
158277.9862517784
 30
0.0
 11
1188672.056374324
 21
158277.9862517786
 31
0.0
  0
LINE
  5
A4
330
17
100
AcDbEntity
  8
WALL
100
AcDbLine
 10
1185772.056374324
 20
158277.9862517786
 30
0.0
 11
1186572.05637104
 21
158277.9862517784
 31
0.0
  0
LINE
  5
A5
330
17
100
AcDbEntity
  8
WALL
100
AcDbLine
 10
1186572.05637104
 20
158277.9862517784
 30
0.0
 11
1186572.056371041
 21
158477.9862517875
 31
0.0
  0
LINE
  5
A6
330
17
100
AcDbEntity
  8
WALL
100
AcDbLine
 10
1186572.056371041
 20
158477.9862517875
 30
0.0
 11
1185872.056374331
 21
158477.9862517785
 31
0.0
  0
INSERT
  5
A7
330
17
100
AcDbEntity
  8
WINDOW
  6
ByBlock
100
AcDbBlockReference
 66
1
  2
$DORLIB2D$00000127
 10
1187272.056371054
 20
158377.9862517786
 30
0.0
 41
-1400.0
 42
-200.0
 43
-1400.0
 50
180.0
  0
ATTRIB
  5
A8
330
A7
100
AcDbEntity
  8
WINDOW_TEXT
  6
ByBlock
100
AcDbText
 10
1186504.056371061
 20
158444.3760608478
 30
0.0
 40
892.5
  1

  7
_TCH_WINDOW
 41
0.5647058823529412
100
AcDbAttribute
  2
A
 70
0
 71
1
 72
0
  0
SEQEND
  5
A9
330
A7
100
AcDbEntity
  8
WINDOW
  6
ByBlock
  0
LINE
  5
AA
330
17
100
AcDbEntity
  8
WALL
100
AcDbLine
 10
1185772.056374331
 20
158477.9862517785
 30
0.0
 11
1185772.056374331
 21
160977.9862517785
 31
0.0
  0
LINE
  5
AB
330
17
100
AcDbEntity
  8
WALL
100
AcDbLine
 10
1185872.056374331
 20
158477.9862517785
 30
0.0
 11
1185872.056374331
 21
160977.9862517785
 31
0.0
  0
LINE
  5
AC
330
17
100
AcDbEntity
  8
WALL
100
AcDbLine
 10
1185772.056374331
 20
158477.9862517785
 30
0.0
 11
1185072.056359711
 21
158477.9862517875
 31
0.0
  0
LINE
  5
AD
330
17
100
AcDbEntity
  8
WALL
100
AcDbLine
 10
1185072.056359711
 20
158477.9862517875
 30
0.0
 11
1185072.056359711
 21
158277.9862517775
 31
0.0
  0
LINE
  5
AE
330
17
100
AcDbEntity
  8
WALL
100
AcDbLine
 10
1185072.056359711
 20
158277.9862517775
 30
0.0
 11
1185772.056374324
 21
158277.9862517786
 31
0.0
  0
LINE
  5
AF
330
17
100
AcDbEntity
  8
WALL
100
AcDbLine
 10
1182972.056374331
 20
158277.9862517785
 30
0.0
 11
1183672.056359711
 21
158277.9862517774
 31
0.0
  0
LINE
  5
B0
330
17
100
AcDbEntity
  8
WALL
100
AcDbLine
 10
1183672.056359711
 20
158277.9862517774
 30
0.0
 11
1183672.056359711
 21
158477.9862517875
 31
0.0
  0
LINE
  5
B1
330
17
100
AcDbEntity
  8
WALL
100
AcDbLine
 10
1183672.056359711
 20
158477.9862517875
 30
0.0
 11
1182972.056374331
 21
158477.9862517785
 31
0.0
  0
INSERT
  5
B2
330
17
100
AcDbEntity
  8
WINDOW
  6
ByBlock
100
AcDbBlockReference
 66
1
  2
$DORLIB2D$00000127
 10
1184372.056359691
 20
158377.9862517786
 30
0.0
 41
-1400.0
 42
-200.0
 43
-1400.0
 50
180.0
  0
ATTRIB
  5
B3
330
B2
100
AcDbEntity
  8
WINDOW_TEXT
  6
ByBlock
100
AcDbText
 10
1183604.056359698
 20
158444.3760564427
 30
0.0
 40
892.5
  1

  7
_TCH_WINDOW
 41
0.5647058823529412
100
AcDbAttribute
  2
A
 70
0
 71
1
 72
0
  0
SEQEND
  5
B4
330
B2
100
AcDbEntity
  8
WINDOW
  6
ByBlock
  0
LINE
  5
B5
330
17
100
AcDbEntity
  8
WALL
100
AcDbLine
 10
1182972.056374323
 20
154827.9862517784
 30
0.0
 11
1182972.056374323
 21
152127.9862517784
 31
0.0
  0
LINE
  5
B6
330
17
100
AcDbEntity
  8
WALL
100
AcDbLine
 10
1182172.056374323
 20
154827.9862517784
 30
0.0
 11
1182172.056374324
 21
151977.9862517786
 31
0.0
  0
LINE
  5
B7
330
17
100
AcDbEntity
  8
WALL
100
AcDbLine
 10
1182972.056374323
 20
154827.9862517784
 30
0.0
 11
1182172.056374323
 21
154827.9862517784
 31
0.0
  0
LINE
  5
B8
330
17
100
AcDbEntity
  8
WALL
100
AcDbLine
 10
1192472.056374331
 20
145677.9862517462
 30
0.0
 11
1192472.056374331
 21
142177.9862518052
 31
0.0
  0
LINE
  5
B9
330
17
100
AcDbEntity
  8
WALL
100
AcDbLine
 10
1192172.05637432
 20
145677.9862517462
 30
0.0
 11
1192172.05637432
 21
142977.9862517525
 31
0.0
  0
LINE
  5
BA
330
17
100
AcDbEntity
  8
WALL
100
AcDbLine
 10
1192472.056374331
 20
145677.9862517462
 30
0.0
 11
1192172.05637432
 21
145677.9862517462
 31
0.0
  0
LINE
  5
BB
330
17
100
AcDbEntity
  8
WALL
100
AcDbLine
 10
1182972.05637432
 20
145677.9862517785
 30
0.0
 11
1182972.05637432
 21
142977.9862517785
 31
0.0
  0
LINE
  5
BC
330
17
100
AcDbEntity
  8
WALL
100
AcDbLine
 10
1182172.05637432
 20
145677.9862517785
 30
0.0
 11
1182172.05637432
 21
142177.9862517785
 31
0.0
  0
LINE
  5
BD
330
17
100
AcDbEntity
  8
WALL
100
AcDbLine
 10
1182972.05637432
 20
145677.9862517785
 30
0.0
 11
1182172.05637432
 21
145677.9862517785
 31
0.0
  0
LINE
  5
BE
330
17
100
AcDbEntity
  8
WALL
100
AcDbLine
 10
1192472.056374331
 20
142177.9862518052
 30
0.0
 11
1191672.056374323
 21
142177.9862517786
 31
0.0
  0
LINE
  5
BF
330
17
100
AcDbEntity
  8
WALL
100
AcDbLine
 10
1192172.05637432
 20
142977.9862517525
 30
0.0
 11
1191672.056374323
 21
142977.9862517786
 31
0.0
  0
LINE
  5
C0
330
17
100
AcDbEntity
  8
WALL
100
AcDbLine
 10
1185772.056374323
 20
152127.9862517802
 30
0.0
 11
1185772.056374323
 21
154627.9862517784
 31
0.0
  0
LINE
  5
C1
330
17
100
AcDbEntity
  8
WALL
100
AcDbLine
 10
1185872.056374323
 20
152127.9862517802
 30
0.0
 11
1185872.056374323
 21
154627.9862517802
 31
0.0
  0
LINE
  5
C2
330
17
100
AcDbEntity
  8
WALL
100
AcDbLine
 10
1185772.056374324
 20
154827.9862517786
 30
0.0
 11
1185072.056359673
 21
154827.9862517791
 31
0.0
  0
LINE
  5
C3
330
17
100
AcDbEntity
  8
WALL
100
AcDbLine
 10
1185072.056359673
 20
154827.9862517791
 30
0.0
 11
1185072.056359673
 21
154627.9862517766
 31
0.0
  0
LINE
  5
C4
330
17
100
AcDbEntity
  8
WALL
100
AcDbLine
 10
1185072.056359673
 20
154627.9862517766
 30
0.0
 11
1185772.056374323
 21
154627.9862517784
 31
0.0
  0
LINE
  5
C5
330
17
100
AcDbEntity
  8
WALL
100
AcDbLine
 10
1182972.056374323
 20
154627.9862517784
 30
0.0
 11
1183672.056359711
 21
154627.9862517766
 31
0.0
  0
LINE
  5
C6
330
17
100
AcDbEntity
  8
WALL
100
AcDbLine
 10
1183672.056359711
 20
154627.9862517766
 30
0.0
 11
1183672.056359711
 21
154827.9862517791
 31
0.0
  0
LINE
  5
C7
330
17
100
AcDbEntity
  8
WALL
100
AcDbLine
 10
1183672.056359711
 20
154827.9862517791
 30
0.0
 11
1182972.056374323
 21
154827.9862517784
 31
0.0
  0
INSERT
  5
C8
330
17
100
AcDbEntity
  8
WINDOW
  6
ByBlock
100
AcDbBlockReference
 66
1
  2
$DORLIB2D$00000127
 10
1184372.056359691
 20
154727.9862517786
 30
0.0
 41
-1400.0
 42
200.0
 43
-1400.0
 50
180.0
  0
ATTRIB
  5
C9
330
C8
100
AcDbEntity
  8
WINDOW_TEXT
  6
ByBlock
100
AcDbText
 10
1183604.056359698
 20
153769.0964453637
 30
0.0
 40
892.5
  1

  7
_TCH_WINDOW
 41
0.5647058823529412
100
AcDbAttribute
  2
A
 70
0
 71
1
 72
0
  0
SEQEND
  5
CA
330
C8
100
AcDbEntity
  8
WINDOW
  6
ByBlock
  0
LINE
  5
CB
330
17
100
AcDbEntity
  8
WALL
100
AcDbLine
 10
1185772.056374324
 20
151827.9862517786
 30
0.0
 11
1182972.056374323
 21
151827.9862517784
 31
0.0
  0
LINE
  5
CC
330
17
100
AcDbEntity
  8
WALL
100
AcDbLine
 10
1185772.056374324
 20
152127.9862517786
 30
0.0
 11
1182972.056374323
 21
152127.9862517784
 31
0.0
  0
LINE
  5
CD
330
17
100
AcDbEntity
  8
WALL
100
AcDbLine
 10
1185772.056374323
 20
149327.9862517784
 30
0.0
 11
1185772.056374323
 21
151827.9862517784
 31
0.0
  0
LINE
  5
CE
330
17
100
AcDbEntity
  8
WALL
100
AcDbLine
 10
1185872.056374323
 20
149327.9862517665
 30
0.0
 11
1185872.056374323
 21
151827.9862517784
 31
0.0
  0
LINE
  5
CF
330
17
100
AcDbEntity
  8
WALL
100
AcDbLine
 10
1185772.056374323
 20
149327.9862517784
 30
0.0
 11
1185072.056371041
 21
149327.9862517766
 31
0.0
  0
LINE
  5
D0
330
17
100
AcDbEntity
  8
WALL
100
AcDbLine
 10
1185072.056371041
 20
149327.9862517766
 30
0.0
 11
1185072.056371041
 21
149127.9862517806
 31
0.0
  0
LINE
  5
D1
330
17
100
AcDbEntity
  8
WALL
100
AcDbLine
 10
1185072.056371041
 20
149127.9862517806
 30
0.0
 11
1185772.056374324
 21
149127.9862517786
 31
0.0
  0
LINE
  5
D2
330
17
100
AcDbEntity
  8
WALL
100
AcDbLine
 10
1182972.056374323
 20
149127.9862517784
 30
0.0
 11
1183672.056371041
 21
149127.9862517805
 31
0.0
  0
LINE
  5
D3
330
17
100
AcDbEntity
  8
WALL
100
AcDbLine
 10
1183672.056371041
 20
149127.9862517805
 30
0.0
 11
1183672.056371041
 21
149327.9862517766
 31
0.0
  0
LINE
  5
D4
330
17
100
AcDbEntity
  8
WALL
100
AcDbLine
 10
1183672.056371041
 20
149327.9862517766
 30
0.0
 11
1182972.056374323
 21
149327.9862517784
 31
0.0
  0
INSERT
  5
D5
330
17
100
AcDbEntity
  8
WINDOW
  6
ByBlock
100
AcDbBlockReference
 66
1
  2
$DORLIB2D$00000127
 10
1184372.056371054
 20
149227.9862517786
 30
0.0
 41
-1400.0
 42
-200.0
 43
-1400.0
 50
180.0
  0
ATTRIB
  5
D6
330
D5
100
AcDbEntity
  8
WINDOW_TEXT
  6
ByBlock
100
AcDbText
 10
1183604.056371061
 20
149388.1609205144
 30
0.0
 40
892.5
  1

  7
_TCH_WINDOW
 41
0.5647058823529412
100
AcDbAttribute
  2
A
 70
0
 71
1
 72
0
  0
SEQEND
  5
D7
330
D5
100
AcDbEntity
  8
WINDOW
  6
ByBlock
  0
LINE
  5
D8
330
17
100
AcDbEntity
  8
WALL
100
AcDbLine
 10
1188672.05637432
 20
142977.9862517858
 30
0.0
 11
1188672.05637432
 21
145477.9862517785
 31
0.0
  0
LINE
  5
D9
330
17
100
AcDbEntity
  8
WALL
100
AcDbLine
 10
1188772.056374319
 20
142977.9862517858
 30
0.0
 11
1188772.056374319
 21
145477.9862517767
 31
0.0
  0
LINE
  5
DA
330
17
100
AcDbEntity
  8
WALL
100
AcDbLine
 10
1185772.05637432
 20
142977.9862517785
 30
0.0
 11
1185772.05637432
 21
145477.9862517785
 31
0.0
  0
LINE
  5
DB
330
17
100
AcDbEntity
  8
WALL
100
AcDbLine
 10
1185872.05637432
 20
142977.9862517785
 30
0.0
 11
1185872.05637432
 21
145477.9862517785
 31
0.0
  0
LINE
  5
DC
330
17
100
AcDbEntity
  8
WALL
100
AcDbLine
 10
1182972.056374323
 20
151827.9862517784
 30
0.0
 11
1182972.056374323
 21
149127.9862517784
 31
0.0
  0
LINE
  5
DD
330
17
100
AcDbEntity
  8
WALL
100
AcDbLine
 10
1182172.056374324
 20
151977.9862517786
 30
0.0
 11
1182172.056374323
 21
149127.9862517784
 31
0.0
  0
LINE
  5
DE
330
17
100
AcDbEntity
  8
WALL
100
AcDbLine
 10
1182972.056374323
 20
149127.9862517784
 30
0.0
 11
1182172.056374323
 21
149127.9862517784
 31
0.0
  0
LINE
  5
DF
330
17
100
AcDbEntity
  8
WALL
100
AcDbLine
 10
1188672.056374324
 20
145677.9862517786
 30
0.0
 11
1187972.056379051
 21
145677.9862517784
 31
0.0
  0
LINE
  5
E0
330
17
100
AcDbEntity
  8
WALL
100
AcDbLine
 10
1187972.056379051
 20
145677.9862517784
 30
0.0
 11
1187972.056379051
 21
145477.9862517766
 31
0.0
  0
LINE
  5
E1
330
17
100
AcDbEntity
  8
WALL
100
AcDbLine
 10
1187972.056379051
 20
145477.9862517766
 30
0.0
 11
1188672.05637432
 21
145477.9862517785
 31
0.0
  0
LINE
  5
E2
330
17
100
AcDbEntity
  8
WALL
100
AcDbLine
 10
1185872.05637432
 20
145477.9862517785
 30
0.0
 11
1186572.056379051
 21
145477.9862517766
 31
0.0
  0
LINE
  5
E3
330
17
100
AcDbEntity
  8
WALL
100
AcDbLine
 10
1186572.056379051
 20
145477.9862517766
 30
0.0
 11
1186572.056379051
 21
145677.9862517784
 31
0.0
  0
LINE
  5
E4
330
17
100
AcDbEntity
  8
WALL
100
AcDbLine
 10
1186572.056379051
 20
145677.9862517784
 30
0.0
 11
1185772.056374324
 21
145677.9862517786
 31
0.0
  0
INSERT
  5
E5
330
17
100
AcDbEntity
  8
WINDOW
  6
ByBlock
100
AcDbBlockReference
 66
1
  2
$DORLIB2D$00000127
 10
1187272.056379048
 20
145577.9862517786
 30
0.0
 41
-1400.0
 42
200.0
 43
-1400.0
 50
180.0
  0
ATTRIB
  5
E6
330
E5
100
AcDbEntity
  8
WINDOW_TEXT
  6
ByBlock
100
AcDbText
 10
1186504.056379055
 20
144588.2859346705
 30
0.0
 40
892.5
  1

  7
_TCH_WINDOW
 41
0.5647058823529412
100
AcDbAttribute
  2
A
 70
0
 71
1
 72
0
  0
SEQEND
  5
E7
330
E5
100
AcDbEntity
  8
WINDOW
  6
ByBlock
  0
LINE
  5
E8
330
17
100
AcDbEntity
  8
WALL
100
AcDbLine
 10
1192172.05637432
 20
145477.9862517975
 30
0.0
 11
1191772.056374331
 21
145477.9862517975
 31
0.0
  0
LINE
  5
E9
330
17
100
AcDbEntity
  8
WALL
100
AcDbLine
 10
1192172.05637432
 20
145677.9862517462
 30
0.0
 11
1191672.056374323
 21
145677.9862517786
 31
0.0
  0
INSERT
  5
EA
330
17
100
AcDbEntity
  8
WINDOW
  6
ByBlock
100
AcDbBlockReference
 66
1
  2
$DORLIB2D$00000127
 10
1190172.056379047
 20
145577.9862517786
 30
0.0
 41
-1400.0
 42
200.0
 43
-1400.0
 50
180.0
  0
ATTRIB
  5
EB
330
EA
100
AcDbEntity
  8
WINDOW_TEXT
  6
ByBlock
100
AcDbText
 10
1189404.056379055
 20
144588.2859267683
 30
0.0
 40
892.5
  1

  7
_TCH_WINDOW
 41
0.5647058823529412
100
AcDbAttribute
  2
A
 70
0
 71
1
 72
0
  0
SEQEND
  5
EC
330
EA
100
AcDbEntity
  8
WINDOW
  6
ByBlock
  0
LINE
  5
ED
330
17
100
AcDbEntity
  8
WALL
100
AcDbLine
 10
1185772.056374324
 20
145677.9862517786
 30
0.0
 11
1185072.056367722
 21
145677.9862517836
 31
0.0
  0
LINE
  5
EE
330
17
100
AcDbEntity
  8
WALL
100
AcDbLine
 10
1185072.056367722
 20
145677.9862517836
 30
0.0
 11
1185072.056367722
 21
145477.9862517766
 31
0.0
  0
LINE
  5
EF
330
17
100
AcDbEntity
  8
WALL
100
AcDbLine
 10
1185072.056367722
 20
145477.9862517766
 30
0.0
 11
1185772.05637432
 21
145477.9862517785
 31
0.0
  0
LINE
  5
F0
330
17
100
AcDbEntity
  8
WALL
100
AcDbLine
 10
1182972.05637432
 20
145477.9862517785
 30
0.0
 11
1183672.056367684
 21
145477.9862517766
 31
0.0
  0
LINE
  5
F1
330
17
100
AcDbEntity
  8
WALL
100
AcDbLine
 10
1183672.056367684
 20
145477.9862517766
 30
0.0
 11
1183672.056367684
 21
145677.9862517835
 31
0.0
  0
LINE
  5
F2
330
17
100
AcDbEntity
  8
WALL
100
AcDbLine
 10
1183672.056367684
 20
145677.9862517835
 30
0.0
 11
1182972.05637432
 21
145677.9862517785
 31
0.0
  0
INSERT
  5
F3
330
17
100
AcDbEntity
  8
WINDOW
  6
ByBlock
100
AcDbBlockReference
 66
1
  2
$DORLIB2D$00000127
 10
1184372.056367686
 20
145577.9862517786
 30
0.0
 41
-1400.0
 42
200.0
 43
-1400.0
 50
180.0
  0
ATTRIB
  5
F4
330
F3
100
AcDbEntity
  8
WINDOW_TEXT
  6
ByBlock
100
AcDbText
 10
1183604.056367693
 20
144588.2859390757
 30
0.0
 40
892.5
  1

  7
_TCH_WINDOW
 41
0.5647058823529412
100
AcDbAttribute
  2
A
 70
0
 71
1
 72
0
  0
SEQEND
  5
F5
330
F3
100
AcDbEntity
  8
WINDOW
  6
ByBlock
  0
LINE
  5
F6
330
17
100
AcDbEntity
  8
WALL
100
AcDbLine
 10
1197972.056374324
 20
147877.9862517842
 30
0.0
 11
1197972.056374314
 21
146977.9862517802
 31
0.0
  0
LINE
  5
F7
330
17
100
AcDbEntity
  8
WALL
100
AcDbLine
 10
1197972.056374314
 20
146977.9862517802
 30
0.0
 11
1198272.056374327
 21
146977.9862517802
 31
0.0
  0
LINE
  5
F8
330
17
100
AcDbEntity
  8
WALL
100
AcDbLine
 10
1198272.056374327
 20
146977.9862517802
 30
0.0
 11
1198272.056374324
 21
147877.9862517842
 31
0.0
  0
LINE
  5
F9
330
17
100
AcDbEntity
  8
WALL
100
AcDbLine
 10
1198272.056374324
 20
145477.9862517833
 30
0.0
 11
1198272.056374327
 21
145777.9862517802
 31
0.0
  0
LINE
  5
FA
330
17
100
AcDbEntity
  8
WALL
100
AcDbLine
 10
1198272.056374327
 20
145777.9862517802
 30
0.0
 11
1197972.056374314
 21
145777.9862517802
 31
0.0
  0
LINE
  5
FB
330
17
100
AcDbEntity
  8
WALL
100
AcDbLine
 10
1197972.056374314
 20
145777.9862517802
 30
0.0
 11
1197972.056374324
 21
145477.9862517833
 31
0.0
  0
LINE
  5
FC
330
17
100
AcDbEntity
  8
WALL
100
AcDbLine
 10
1198272.056374324
 20
150577.9862517842
 30
0.0
 11
1198272.056374324
 21
147877.9862517842
 31
0.0
  0
LINE
  5
FD
330
17
100
AcDbEntity
  8
WALL
100
AcDbLine
 10
1197972.056374324
 20
150577.9862517842
 30
0.0
 11
1197972.056374324
 21
147877.9862517842
 31
0.0
  0
LINE
  5
FE
330
17
100
AcDbEntity
  8
WALL
100
AcDbLine
 10
1201772.056374324
 20
161777.986251789
 30
0.0
 11
1201772.056374324
 21
151977.9862517842
 31
0.0
  0
LINE
  5
FF
330
17
100
AcDbEntity
  8
WALL
100
AcDbLine
 10
1200972.056374324
 20
160977.986251789
 30
0.0
 11
1200972.056374324
 21
152127.9862517773
 31
0.0
  0
LINE
  5
100
330
17
100
AcDbEntity
  8
WALL
100
AcDbLine
 10
1200972.056374324
 20
142977.986251789
 30
0.0
 11
1199922.056374321
 21
142977.9862517896
 31
0.0
  0
LINE
  5
101
330
17
100
AcDbEntity
  8
WALL
100
AcDbLine
 10
1199922.056374321
 20
142977.9862517896
 30
0.0
 11
1199922.056374321
 21
142177.9862517859
 31
0.0
  0
LINE
  5
102
330
17
100
AcDbEntity
  8
WALL
100
AcDbLine
 10
1199922.056374321
 20
142177.9862517859
 30
0.0
 11
1201772.056374324
 21
142177.986251789
 31
0.0
  0
LINE
  5
103
330
17
100
AcDbEntity
  8
WALL
100
AcDbLine
 10
1198172.056374324
 20
142177.9862517842
 30
0.0
 11
1199222.056374321
 21
142177.986251785
 31
0.0
  0
LINE
  5
104
330
17
100
AcDbEntity
  8
WALL
100
AcDbLine
 10
1199222.056374321
 20
142177.986251785
 30
0.0
 11
1199222.056374321
 21
142977.9862517896
 31
0.0
  0
LINE
  5
105
330
17
100
AcDbEntity
  8
WALL
100
AcDbLine
 10
1199222.056374321
 20
142977.9862517896
 30
0.0
 11
1198272.056374312
 21
142977.986251789
 31
0.0
  0
INSERT
  5
106
330
17
100
AcDbEntity
  8
WINDOW
  6
ByBlock
100
AcDbBlockReference
 66
1
  2
$DorLib2D$00000114
 10
1199572.056374324
 20
142577.9862517842
 30
0.0
 41
700.0
 42
700.0
 43
700.0
 50
180.0
  0
ATTRIB
  5
107
330
106
100
AcDbEntity
  8
WINDOW_TEXT
  6
ByBlock
100
AcDbText
 10
1198804.056374324
 20
143263.7362517833
 30
0.0
 40
892.5
  1

  7
_TCH_WINDOW
 41
0.5647058823529412
100
AcDbAttribute
  2
A
 70
0
 71
1
 72
0
  0
SEQEND
  5
108
330
106
100
AcDbEntity
  8
WINDOW
  6
ByBlock
  0
LINE
  5
109
330
17
100
AcDbEntity
  8
WINDOW
  6
ByBlock
100
AcDbLine
 10
1199922.056374324
 20
142177.9862517842
 30
0.0
 11
1199222.056374324
 21
142177.9862517842
 31
0.0
  0
LINE
  5
10A
330
17
100
AcDbEntity
  8
WINDOW
  6
ByBlock
100
AcDbLine
 10
1199922.056374324
 20
142977.9862517842
 30
0.0
 11
1199222.056374324
 21
142977.9862517842
 31
0.0
  0
LINE
  5
10B
330
17
100
AcDbEntity
  8
WALL
100
AcDbLine
 10
1201772.056374324
 20
161777.986251789
 30
0.0
 11
1199922.056374321
 21
161777.9862517859
 31
0.0
  0
LINE
  5
10C
330
17
100
AcDbEntity
  8
WALL
100
AcDbLine
 10
1199922.056374321
 20
161777.9862517859
 30
0.0
 11
1199922.056374321
 21
160977.9862517849
 31
0.0
  0
LINE
  5
10D
330
17
100
AcDbEntity
  8
WALL
100
AcDbLine
 10
1199922.056374321
 20
160977.9862517849
 30
0.0
 11
1200972.056374324
 21
160977.986251789
 31
0.0
  0
LINE
  5
10E
330
17
100
AcDbEntity
  8
WALL
100
AcDbLine
 10
1198272.056374325
 20
160977.986251789
 30
0.0
 11
1199222.056374321
 21
160977.9862517849
 31
0.0
  0
LINE
  5
10F
330
17
100
AcDbEntity
  8
WALL
100
AcDbLine
 10
1199222.056374321
 20
160977.9862517849
 30
0.0
 11
1199222.056374321
 21
161777.986251785
 31
0.0
  0
LINE
  5
110
330
17
100
AcDbEntity
  8
WALL
100
AcDbLine
 10
1199222.056374321
 20
161777.986251785
 30
0.0
 11
1198172.056374324
 21
161777.9862517842
 31
0.0
  0
INSERT
  5
111
330
17
100
AcDbEntity
  8
WINDOW
  6
ByBlock
100
AcDbBlockReference
 66
1
  2
$DorLib2D$00000114
 10
1199572.056374324
 20
161377.9862517842
 30
0.0
 41
700.0
 42
-700.0
 43
700.0
 50
180.0
  0
ATTRIB
  5
112
330
111
100
AcDbEntity
  8
WINDOW_TEXT
  6
ByBlock
100
AcDbText
 10
1198804.056374324
 20
159681.7362517842
 30
0.0
 40
892.5
  1

  7
_TCH_WINDOW
 41
0.5647058823529412
100
AcDbAttribute
  2
A
 70
0
 71
1
 72
0
  0
SEQEND
  5
113
330
111
100
AcDbEntity
  8
WINDOW
  6
ByBlock
  0
LINE
  5
114
330
17
100
AcDbEntity
  8
WINDOW
  6
ByBlock
100
AcDbLine
 10
1199922.056374324
 20
161777.9862517842
 30
0.0
 11
1199222.056374324
 21
161777.9862517842
 31
0.0
  0
LINE
  5
115
330
17
100
AcDbEntity
  8
WINDOW
  6
ByBlock
100
AcDbLine
 10
1199922.056374324
 20
160977.9862517842
 30
0.0
 11
1199222.056374324
 21
160977.9862517842
 31
0.0
  0
LINE
  5
116
330
17
100
AcDbEntity
  8
WALL
100
AcDbLine
 10
1200972.056374324
 20
151827.9862517769
 30
0.0
 11
1199622.056374326
 21
151827.9862517842
 31
0.0
  0
LINE
  5
117
330
17
100
AcDbEntity
  8
WALL
100
AcDbLine
 10
1200972.056374324
 20
152127.9862517773
 30
0.0
 11
1199622.056374326
 21
152127.9862517842
 31
0.0
  0
LINE
  5
118
330
17
100
AcDbEntity
  8
WALL
100
AcDbLine
 10
1197972.05637432
 20
156777.9862517859
 30
0.0
 11
1197422.056374321
 21
156777.9862517898
 31
0.0
  0
LINE
  5
119
330
17
100
AcDbEntity
  8
WALL
100
AcDbLine
 10
1197422.056374321
 20
156777.9862517898
 30
0.0
 11
1197422.056374321
 21
156577.9862517773
 31
0.0
  0
LINE
  5
11A
330
17
100
AcDbEntity
  8
WALL
100
AcDbLine
 10
1197422.056374321
 20
156577.9862517773
 30
0.0
 11
1197972.05637432
 21
156577.9862517859
 31
0.0
  0
LINE
  5
11B
330
17
100
AcDbEntity
  8
WALL
100
AcDbLine
 10
1195472.056374324
 20
156577.9862517842
 30
0.0
 11
1196022.056374321
 21
156577.9862517764
 31
0.0
  0
LINE
  5
11C
330
17
100
AcDbEntity
  8
WALL
100
AcDbLine
 10
1196022.056374321
 20
156577.9862517764
 30
0.0
 11
1196022.056374321
 21
156777.9862517889
 31
0.0
  0
LINE
  5
11D
330
17
100
AcDbEntity
  8
WALL
100
AcDbLine
 10
1196022.056374321
 20
156777.9862517889
 30
0.0
 11
1195472.056374324
 21
156777.9862517842
 31
0.0
  0
LINE
  5
11E
330
17
100
AcDbEntity
  8
WALL
100
AcDbLine
 10
1195472.056374324
 20
156777.9862517842
 30
0.0
 11
1195472.056374324
 21
156577.9862517842
 31
0.0
  0
INSERT
  5
11F
330
17
100
AcDbEntity
  8
WINDOW
  6
ByBlock
100
AcDbBlockReference
 66
1
  2
$DORLIB2D$00000127
 10
1196722.056374324
 20
156677.9862517842
 30
0.0
 41
-1400.0
 42
200.0
 43
-1400.0
 50
180.0
  0
ATTRIB
  5
120
330
11F
100
AcDbEntity
  8
WINDOW_TEXT
  6
ByBlock
100
AcDbText
 10
1195954.056374331
 20
154851.3115859169
 30
0.0
 40
892.5
  1

  7
_TCH_WINDOW
 41
0.5647058823529412
100
AcDbAttribute
  2
A
 70
0
 71
1
 72
0
  0
SEQEND
  5
121
330
11F
100
AcDbEntity
  8
WINDOW
  6
ByBlock
  0
LINE
  5
122
330
17
100
AcDbEntity
  8
WALL
100
AcDbLine
 10
1195472.056374324
 20
147777.9862517842
 30
0.0
 11
1196022.056374321
 21
147777.986251785
 31
0.0
  0
LINE
  5
123
330
17
100
AcDbEntity
  8
WALL
100
AcDbLine
 10
1196022.056374321
 20
147777.986251785
 30
0.0
 11
1196022.056374321
 21
147977.986251779
 31
0.0
  0
LINE
  5
124
330
17
100
AcDbEntity
  8
WALL
100
AcDbLine
 10
1196022.056374321
 20
147977.986251779
 30
0.0
 11
1195472.056374324
 21
147977.9862517842
 31
0.0
  0
LINE
  5
125
330
17
100
AcDbEntity
  8
WALL
100
AcDbLine
 10
1195472.056374324
 20
147977.9862517842
 30
0.0
 11
1195472.056374324
 21
147777.9862517842
 31
0.0
  0
LINE
  5
126
330
17
100
AcDbEntity
  8
WALL
100
AcDbLine
 10
1197972.056374314
 20
147977.9862517745
 30
0.0
 11
1197422.056374321
 21
147977.9862517736
 31
0.0
  0
LINE
  5
127
330
17
100
AcDbEntity
  8
WALL
100
AcDbLine
 10
1197422.056374321
 20
147977.9862517736
 30
0.0
 11
1197422.056374321
 21
147777.9862517859
 31
0.0
  0
LINE
  5
128
330
17
100
AcDbEntity
  8
WALL
100
AcDbLine
 10
1197422.056374321
 20
147777.9862517859
 30
0.0
 11
1197972.056374314
 21
147777.9862517858
 31
0.0
  0
INSERT
  5
129
330
17
100
AcDbEntity
  8
WINDOW
  6
ByBlock
100
AcDbBlockReference
 66
1
  2
$DORLIB2D$00000127
 10
1196722.056374324
 20
147877.9862517842
 30
0.0
 41
1400.0
 42
-200.0
 43
1400.0
  0
ATTRIB
  5
12A
330
129
100
AcDbEntity
  8
WINDOW_TEXT
  6
ByBlock
100
AcDbText
 10
1195954.056374331
 20
146825.3115859169
 30
0.0
 40
892.5
  1

  7
_TCH_WINDOW
 41
0.5647058823529412
100
AcDbAttribute
  2
A
 70
0
 71
1
 72
0
  0
SEQEND
  5
12B
330
129
100
AcDbEntity
  8
WINDOW
  6
ByBlock
  0
LINE
  5
12C
330
17
100
AcDbEntity
  8
WALL
100
AcDbLine
 10
1198272.056374337
 20
151827.98625178
 30
0.0
 11
1198272.056374324
 21
150577.9862517842
 31
0.0
  0
LINE
  5
12D
330
17
100
AcDbEntity
  8
WALL
100
AcDbLine
 10
1197972.056374324
 20
151977.9862517842
 30
0.0
 11
1197972.056374324
 21
150577.9862517842
 31
0.0
  0
LINE
  5
12E
330
17
100
AcDbEntity
  8
WALL
100
AcDbLine
 10
1197972.056374324
 20
158477.9862517842
 30
0.0
 11
1197972.056374325
 21
158177.9862517802
 31
0.0
  0
LINE
  5
12F
330
17
100
AcDbEntity
  8
WALL
100
AcDbLine
 10
1197972.056374325
 20
158177.9862517802
 30
0.0
 11
1198272.056374325
 21
158177.9862517802
 31
0.0
  0
LINE
  5
130
330
17
100
AcDbEntity
  8
WALL
100
AcDbLine
 10
1198272.056374325
 20
158177.9862517802
 30
0.0
 11
1198272.056374324
 21
158477.9862517842
 31
0.0
  0
LINE
  5
131
330
17
100
AcDbEntity
  8
WALL
100
AcDbLine
 10
1198272.056374324
 20
156677.9862517842
 30
0.0
 11
1198272.056374325
 21
156977.9862517802
 31
0.0
  0
LINE
  5
132
330
17
100
AcDbEntity
  8
WALL
100
AcDbLine
 10
1198272.056374325
 20
156977.9862517802
 30
0.0
 11
1197972.056374325
 21
156977.9862517802
 31
0.0
  0
LINE
  5
133
330
17
100
AcDbEntity
  8
WALL
100
AcDbLine
 10
1197972.056374325
 20
156977.9862517802
 30
0.0
 11
1197972.056374324
 21
156677.9862517842
 31
0.0
  0
INSERT
  5
134
330
17
100
AcDbEntity
  8
WINDOW
100
AcDbBlockReference
 66
1
  2
$DorLib2D$00000002
 10
1198122.056374324
 20
157577.9862517796
 30
0.0
 41
-1200.0
 42
-1200.0
 43
-1200.0
 50
270.0
  0
ATTRIB
  5
135
330
134
100
AcDbEntity
  8
WINDOW_TEXT
100
AcDbText
 10
1199260.529195485
 20
157421.9862517796
 30
0.0
 40
297.5
  1

 50
90.0
  7
_TCH_WINDOW
 41
0.5647058823529412
100
AcDbAttribute
  2
A
 70
0
 71
1
 72
0
  0
SEQEND
  5
136
330
134
100
AcDbEntity
  8
WINDOW
  0
LINE
  5
137
330
17
100
AcDbEntity
  8
WALL
100
AcDbLine
 10
1200972.056374324
 20
158377.9862517842
 30
0.0
 11
1199572.056374324
 21
158377.9862517842
 31
0.0
  0
LINE
  5
138
330
17
100
AcDbEntity
  8
WALL
100
AcDbLine
 10
1200972.056374324
 20
158577.9862517842
 30
0.0
 11
1199672.056374321
 21
158577.9862517875
 31
0.0
  0
LINE
  5
139
330
17
100
AcDbEntity
  8
WALL
100
AcDbLine
 10
1200972.056374324
 20
158377.9862517842
 30
0.0
 11
1200972.056374324
 21
158577.9862517842
 31
0.0
  0
LINE
  5
13A
330
17
100
AcDbEntity
  8
WALL
100
AcDbLine
 10
1198272.056374324
 20
156677.9862517842
 30
0.0
 11
1198272.056374324
 21
153977.9862517842
 31
0.0
  0
LINE
  5
13B
330
17
100
AcDbEntity
  8
WALL
100
AcDbLine
 10
1197972.056374324
 20
156677.9862517842
 30
0.0
 11
1197972.056374324
 21
153977.9862517842
 31
0.0
  0
LINE
  5
13C
330
17
100
AcDbEntity
  8
WALL
100
AcDbLine
 10
1198272.056374324
 20
153977.9862517842
 30
0.0
 11
1198272.056374313
 21
152127.9862517796
 31
0.0
  0
LINE
  5
13D
330
17
100
AcDbEntity
  8
WALL
100
AcDbLine
 10
1197972.056374324
 20
153977.9862517842
 30
0.0
 11
1197972.056374324
 21
151977.9862517842
 31
0.0
  0
LINE
  5
13E
330
17
100
AcDbEntity
  8
WALL
100
AcDbLine
 10
1198272.056374324
 20
145477.9862517833
 30
0.0
 11
1198272.056374324
 21
144677.9862517833
 31
0.0
  0
LINE
  5
13F
330
17
100
AcDbEntity
  8
WALL
100
AcDbLine
 10
1197972.056374324
 20
145477.9862517833
 30
0.0
 11
1197972.056374324
 21
144677.9862517833
 31
0.0
  0
LINE
  5
140
330
17
100
AcDbEntity
  8
WALL
100
AcDbLine
 10
1198272.056374325
 20
160977.986251789
 30
0.0
 11
1198272.056374324
 21
160227.9862517609
 31
0.0
  0
LINE
  5
141
330
17
100
AcDbEntity
  8
WALL
100
AcDbLine
 10
1197972.056374333
 20
160977.9862517784
 30
0.0
 11
1197972.056374324
 21
160227.9862517609
 31
0.0
  0
LINE
  5
142
330
17
100
AcDbEntity
  8
WALL
100
AcDbLine
 10
1197972.05637432
 20
153877.9862517859
 30
0.0
 11
1195472.056374324
 21
153877.9862517842
 31
0.0
  0
LINE
  5
143
330
17
100
AcDbEntity
  8
WALL
100
AcDbLine
 10
1197972.05637432
 20
154077.9862517859
 30
0.0
 11
1195472.056374324
 21
154077.9862517842
 31
0.0
  0
LINE
  5
144
330
17
100
AcDbEntity
  8
WALL
100
AcDbLine
 10
1195472.056374324
 20
153877.9862517842
 30
0.0
 11
1195472.056374324
 21
154077.9862517842
 31
0.0
  0
LINE
  5
145
330
17
100
AcDbEntity
  8
WALL
100
AcDbLine
 10
1200972.056374324
 20
145377.9862517833
 30
0.0
 11
1199672.056374321
 21
145377.9862517842
 31
0.0
  0
LINE
  5
146
330
17
100
AcDbEntity
  8
WALL
100
AcDbLine
 10
1200972.056374324
 20
145577.9862517833
 30
0.0
 11
1199572.056374361
 21
145577.9862517842
 31
0.0
  0
LINE
  5
147
330
17
100
AcDbEntity
  8
WALL
100
AcDbLine
 10
1200972.056374324
 20
145377.9862517833
 30
0.0
 11
1200972.056374324
 21
145577.9862517833
 31
0.0
  0
INSERT
  5
148
330
17
100
AcDbEntity
  8
WINDOW
  6
ByBlock
100
AcDbBlockReference
 66
1
  2
$DorLib2D$00000114
 10
1195322.056374324
 20
151527.9862517772
 30
0.0
 41
-700.0
 42
-700.0
 43
-700.0
 50
270.0
  0
ATTRIB
  5
149
330
148
100
AcDbEntity
  8
WINDOW_TEXT
  6
ByBlock
100
AcDbText
 10
1195768.306374331
 20
151059.9862517787
 30
0.0
 40
892.5
  1

 50
90.0
  7
_TCH_WINDOW
 41
0.5647058823529412
100
AcDbAttribute
  2
A
 70
0
 71
1
 72
0
  0
SEQEND
  5
14A
330
148
100
AcDbEntity
  8
WINDOW
  6
ByBlock
  0
LINE
  5
14B
330
17
100
AcDbEntity
  8
WINDOW
  6
ByBlock
100
AcDbLine
 10
1195172.056374324
 20
151877.9862517772
 30
0.0
 11
1195172.056374324
 21
151177.9862517772
 31
0.0
  0
LINE
  5
14C
330
17
100
AcDbEntity
  8
WINDOW
  6
ByBlock
100
AcDbLine
 10
1195472.056374324
 20
151877.9862517772
 30
0.0
 11
1195472.056374324
 21
151177.9862517772
 31
0.0
  0
LINE
  5
14D
330
17
100
AcDbEntity
  8
WALL
100
AcDbLine
 10
1198172.056374324
 20
142177.9862517842
 30
0.0
 11
1195172.056374344
 21
142177.9862517784
 31
0.0
  0
LINE
  5
14E
330
17
100
AcDbEntity
  8
WALL
100
AcDbLine
 10
1197972.056374316
 20
142977.9862517784
 30
0.0
 11
1195472.05637434
 21
142977.9862517784
 31
0.0
  0
LINE
  5
14F
330
17
100
AcDbEntity
  8
WALL
100
AcDbLine
 10
1197972.056374324
 20
151877.9862517842
 30
0.0
 11
1195472.056374324
 21
151877.9862517842
 31
0.0
  0
LINE
  5
150
330
17
100
AcDbEntity
  8
WALL
100
AcDbLine
 10
1197972.056374324
 20
152077.9862517842
 30
0.0
 11
1195472.056374324
 21
152077.9862517842
 31
0.0
  0
LINE
  5
151
330
17
100
AcDbEntity
  8
WALL
100
AcDbLine
 10
1197972.056374324
 20
151877.9862517842
 30
0.0
 11
1197972.056374324
 21
152077.9862517842
 31
0.0
  0
LINE
  5
152
330
17
100
AcDbEntity
  8
WALL
100
AcDbLine
 10
1195472.056374324
 20
151877.9862517842
 30
0.0
 11
1195472.056374324
 21
152077.9862517842
 31
0.0
  0
LINE
  5
153
330
17
100
AcDbEntity
  8
WALL
100
AcDbLine
 10
1195472.056374324
 20
150677.9862517842
 30
0.0
 11
1197972.056374316
 21
150677.9862517859
 31
0.0
  0
LINE
  5
154
330
17
100
AcDbEntity
  8
WALL
100
AcDbLine
 10
1195472.056374324
 20
150477.9862517842
 30
0.0
 11
1197972.056374316
 21
150477.9862517859
 31
0.0
  0
LINE
  5
155
330
17
100
AcDbEntity
  8
WALL
100
AcDbLine
 10
1195472.056374324
 20
150677.9862517842
 30
0.0
 11
1195472.056374324
 21
150477.9862517842
 31
0.0
  0
LINE
  5
156
330
17
100
AcDbEntity
  8
WALL
100
AcDbLine
 10
1201772.056374324
 20
151977.9862517842
 30
0.0
 11
1201772.056374324
 21
142177.986251789
 31
0.0
  0
LINE
  5
157
330
17
100
AcDbEntity
  8
WALL
100
AcDbLine
 10
1200972.056374324
 20
151827.9862517769
 30
0.0
 11
1200972.056374324
 21
142977.986251789
 31
0.0
  0
INSERT
  5
158
330
17
100
AcDbEntity
  8
WINDOW
100
AcDbBlockReference
 66
1
  2
$DorLib2D$00000002
 10
1198122.056374324
 20
146377.9862517842
 30
0.0
 41
1200.0
 42
-1200.0
 43
1200.0
 50
270.0
  0
ATTRIB
  5
159
330
158
100
AcDbEntity
  8
WINDOW_TEXT
100
AcDbText
 10
1198928.242764046
 20
146221.9862517852
 30
0.0
 40
297.5
  1

 50
90.0
  7
_TCH_WINDOW
 41
0.5647058823529412
100
AcDbAttribute
  2
A
 70
0
 71
1
 72
0
  0
SEQEND
  5
15A
330
158
100
AcDbEntity
  8
WINDOW
  0
LINE
  5
15B
330
17
100
AcDbEntity
  8
WALL
100
AcDbLine
 10
1199472.056374321
 20
145377.9862517906
 30
0.0
 11
1198272.056374326
 21
145377.9862517898
 31
0.0
  0
LINE
  5
15C
330
17
100
AcDbEntity
  8
WALL
100
AcDbLine
 10
1199572.056374361
 20
145577.9862517842
 30
0.0
 11
1198272.056374326
 21
145577.9862517844
 31
0.0
  0
LINE
  5
15D
330
17
100
AcDbEntity
  8
WALL
100
AcDbLine
 10
1200972.056374324
 20
144577.9862517833
 30
0.0
 11
1199572.056374324
 21
144577.9862517833
 31
0.0
  0
LINE
  5
15E
330
17
100
AcDbEntity
  8
WALL
100
AcDbLine
 10
1200972.056374324
 20
144777.9862517833
 30
0.0
 11
1199672.056374321
 21
144777.9862517875
 31
0.0
  0
LINE
  5
15F
330
17
100
AcDbEntity
  8
WALL
100
AcDbLine
 10
1200972.056374324
 20
144577.9862517833
 30
0.0
 11
1200972.056374324
 21
144777.9862517833
 31
0.0
  0
LINE
  5
160
330
17
100
AcDbEntity
  8
WALL
100
AcDbLine
 10
1199472.056374321
 20
144777.9862517657
 30
0.0
 11
1199472.056374321
 21
145377.9862517906
 31
0.0
  0
LINE
  5
161
330
17
100
AcDbEntity
  8
WALL
100
AcDbLine
 10
1199672.056374321
 20
144777.9862517875
 30
0.0
 11
1199672.056374321
 21
145377.9862517842
 31
0.0
  0
LINE
  5
162
330
17
100
AcDbEntity
  8
WALL
100
AcDbLine
 10
1199472.056374321
 20
158577.9862517875
 30
0.0
 11
1199472.056374321
 21
159177.9862517657
 31
0.0
  0
LINE
  5
163
330
17
100
AcDbEntity
  8
WALL
100
AcDbLine
 10
1199672.056374321
 20
158577.9862517875
 30
0.0
 11
1199672.056374321
 21
159177.9862517875
 31
0.0
  0
LINE
  5
164
330
17
100
AcDbEntity
  8
WALL
100
AcDbLine
 10
1199572.056374324
 20
158377.9862517842
 30
0.0
 11
1198272.056374326
 21
158377.9862517875
 31
0.0
  0
LINE
  5
165
330
17
100
AcDbEntity
  8
WALL
100
AcDbLine
 10
1199472.056374321
 20
158577.9862517875
 30
0.0
 11
1198272.056374326
 21
158577.9862517875
 31
0.0
  0
LINE
  5
166
330
17
100
AcDbEntity
  8
WALL
100
AcDbLine
 10
1200972.056374324
 20
159177.9862517842
 30
0.0
 11
1199672.056374321
 21
159177.9862517875
 31
0.0
  0
LINE
  5
167
330
17
100
AcDbEntity
  8
WALL
100
AcDbLine
 10
1200972.056374324
 20
159377.9862517842
 30
0.0
 11
1199572.056374324
 21
159377.9862517842
 31
0.0
  0
LINE
  5
168
330
17
100
AcDbEntity
  8
WALL
100
AcDbLine
 10
1200972.056374324
 20
159177.9862517842
 30
0.0
 11
1200972.056374324
 21
159377.9862517842
 31
0.0
  0
LINE
  5
169
330
17
100
AcDbEntity
  8
WALL
100
AcDbLine
 10
1195472.05637433
 20
160977.9862517784
 30
0.0
 11
1195472.056374324
 21
160227.9862517609
 31
0.0
  0
LINE
  5
16A
330
17
100
AcDbEntity
  8
WALL
100
AcDbLine
 10
1195172.056374302
 20
161777.9862517784
 30
0.0
 11
1195172.056374324
 21
160227.9862517609
 31
0.0
  0
INSERT
  5
16B
330
17
100
AcDbEntity
  8
WINDOW
  6
ByBlock
100
AcDbBlockReference
 66
1
  2
$DorLib2D$00000114
 10
1195322.056374324
 20
152427.9862517901
 30
0.0
 41
700.0
 42
-700.0
 43
700.0
 50
270.0
  0
ATTRIB
  5
16C
330
16B
100
AcDbEntity
  8
WINDOW_TEXT
  6
ByBlock
100
AcDbText
 10
1195768.306374339
 20
151959.9862517815
 30
0.0
 40
892.5
  1

 50
90.0
  7
_TCH_WINDOW
 41
0.5647058823529412
100
AcDbAttribute
  2
A
 70
0
 71
1
 72
0
  0
SEQEND
  5
16D
330
16B
100
AcDbEntity
  8
WINDOW
  6
ByBlock
  0
LINE
  5
16E
330
17
100
AcDbEntity
  8
WINDOW
  6
ByBlock
100
AcDbLine
 10
1195172.056374324
 20
152777.9862517901
 30
0.0
 11
1195172.056374324
 21
152077.9862517901
 31
0.0
  0
LINE
  5
16F
330
17
100
AcDbEntity
  8
WINDOW
  6
ByBlock
100
AcDbLine
 10
1195472.056374324
 20
152777.9862517901
 30
0.0
 11
1195472.056374324
 21
152077.9862517901
 31
0.0
  0
LINE
  5
170
330
17
100
AcDbEntity
  8
WALL
100
AcDbLine
 10
1198272.056374324
 20
159277.9862517842
 30
0.0
 11
1198272.056374324
 21
158477.9862517842
 31
0.0
  0
LINE
  5
171
330
17
100
AcDbEntity
  8
WALL
100
AcDbLine
 10
1197972.056374324
 20
159277.9862517842
 30
0.0
 11
1197972.056374324
 21
158477.9862517842
 31
0.0
  0
LINE
  5
172
330
17
100
AcDbEntity
  8
WALL
100
AcDbLine
 10
1199472.056374321
 20
159177.9862517657
 30
0.0
 11
1198272.056374326
 21
159177.9862517657
 31
0.0
  0
LINE
  5
173
330
17
100
AcDbEntity
  8
WALL
100
AcDbLine
 10
1199572.056374324
 20
159377.9862517842
 30
0.0
 11
1198272.056374326
 21
159377.9862517875
 31
0.0
  0
LINE
  5
174
330
17
100
AcDbEntity
  8
WALL
100
AcDbLine
 10
1198272.056374324
 20
144677.9862517833
 30
0.0
 11
1198272.056374324
 21
143677.9862517953
 31
0.0
  0
LINE
  5
175
330
17
100
AcDbEntity
  8
WALL
100
AcDbLine
 10
1197972.056374324
 20
144677.9862517833
 30
0.0
 11
1197972.056374324
 21
143677.9862517953
 31
0.0
  0
LINE
  5
176
330
17
100
AcDbEntity
  8
WALL
100
AcDbLine
 10
1199572.056374324
 20
144577.9862517833
 30
0.0
 11
1198272.056374323
 21
144577.9862517875
 31
0.0
  0
LINE
  5
177
330
17
100
AcDbEntity
  8
WALL
100
AcDbLine
 10
1199472.056374321
 20
144777.9862517657
 30
0.0
 11
1198272.056374323
 21
144777.9862517657
 31
0.0
  0
LINE
  5
178
330
17
100
AcDbEntity
  8
WALL
100
AcDbLine
 10
1195472.05637434
 20
143777.9862517995
 30
0.0
 11
1197972.056374316
 21
143777.9862517995
 31
0.0
  0
LINE
  5
179
330
17
100
AcDbEntity
  8
WALL
100
AcDbLine
 10
1195472.05637434
 20
143577.9862517995
 30
0.0
 11
1197972.056374316
 21
143577.9862517995
 31
0.0
  0
LINE
  5
17A
330
17
100
AcDbEntity
  8
WALL
100
AcDbLine
 10
1188972.056374318
 20
154627.9862517784
 30
0.0
 11
1188972.056374324
 21
152327.9862517786
 31
0.0
  0
LINE
  5
17B
330
17
100
AcDbEntity
  8
WALL
100
AcDbLine
 10
1188672.05637433
 20
154627.9862517784
 30
0.0
 11
1188672.056374324
 21
152327.9862517786
 31
0.0
  0
LINE
  5
17C
330
17
100
AcDbEntity
  8
WALL
100
AcDbLine
 10
1188972.056374324
 20
151977.9862517786
 30
0.0
 11
1188972.056374324
 21
149927.9862513529
 31
0.0
  0
LINE
  5
17D
330
17
100
AcDbEntity
  8
WALL
100
AcDbLine
 10
1188672.056374331
 20
151827.9862517802
 30
0.0
 11
1188672.056374324
 21
149927.9862513529
 31
0.0
  0
LINE
  5
17E
330
17
100
AcDbEntity
  8
WALL
100
AcDbLine
 10
1185772.056374324
 20
142177.9862517786
 30
0.0
 11
1182172.05637432
 21
142177.9862517785
 31
0.0
  0
LINE
  5
17F
330
17
100
AcDbEntity
  8
WALL
100
AcDbLine
 10
1185772.056374324
 20
142977.9862517786
 30
0.0
 11
1182972.05637432
 21
142977.9862517785
 31
0.0
  0
LINE
  5
180
330
17
100
AcDbEntity
  8
WALL
100
AcDbLine
 10
1188672.056374324
 20
142177.9862517786
 30
0.0
 11
1185772.056374324
 21
142177.9862517786
 31
0.0
  0
LINE
  5
181
330
17
100
AcDbEntity
  8
WALL
100
AcDbLine
 10
1188672.056374324
 20
142977.9862517786
 30
0.0
 11
1185772.056374324
 21
142977.9862517786
 31
0.0
  0
LINE
  5
182
330
17
100
AcDbEntity
  8
WALL
100
AcDbLine
 10
1188672.056374324
 20
160977.9862517786
 30
0.0
 11
1185772.056374324
 21
160977.9862517786
 31
0.0
  0
LINE
  5
183
330
17
100
AcDbEntity
  8
WALL
100
AcDbLine
 10
1188672.056374324
 20
161777.9862517786
 30
0.0
 11
1185772.056374324
 21
161777.9862517786
 31
0.0
  0
LINE
  5
184
330
17
100
AcDbEntity
  8
WALL
100
AcDbLine
 10
1185772.056374324
 20
160977.9862517786
 30
0.0
 11
1182972.056374331
 21
160977.9862517785
 31
0.0
  0
LINE
  5
185
330
17
100
AcDbEntity
  8
WALL
100
AcDbLine
 10
1185772.056374324
 20
161777.9862517786
 30
0.0
 11
1182172.05637432
 21
161777.9862517785
 31
0.0
  0
LINE
  5
186
330
17
100
AcDbEntity
  8
WALL
100
AcDbLine
 10
1197972.056374333
 20
160977.9862517784
 30
0.0
 11
1195472.05637433
 21
160977.9862517784
 31
0.0
  0
LINE
  5
187
330
17
100
AcDbEntity
  8
WALL
100
AcDbLine
 10
1198172.056374324
 20
161777.9862517842
 30
0.0
 11
1195172.056374302
 21
161777.9862517784
 31
0.0
  0
LINE
  5
188
330
17
100
AcDbEntity
  8
WALL
100
AcDbLine
 10
1195472.05637433
 20
160327.9862517574
 30
0.0
 11
1197972.056374319
 21
160327.9862517574
 31
0.0
  0
LINE
  5
189
330
17
100
AcDbEntity
  8
WALL
100
AcDbLine
 10
1195472.05637433
 20
160127.9862517679
 30
0.0
 11
1197972.056374319
 21
160127.9862517679
 31
0.0
  0
LINE
  5
18A
330
17
100
AcDbEntity
  8
WALL
100
AcDbLine
 10
1195472.056374324
 20
160227.9862517609
 30
0.0
 11
1195472.056374324
 21
158377.9862517786
 31
0.0
  0
LINE
  5
18B
330
17
100
AcDbEntity
  8
WALL
100
AcDbLine
 10
1195172.056374324
 20
160227.9862517609
 30
0.0
 11
1195172.056374324
 21
158377.9862517786
 31
0.0
  0
INSERT
  5
18C
330
17
100
AcDbEntity
  8
WINDOW
100
AcDbBlockReference
 66
1
  2
$DorLib2D$00000002
 10
1195322.056374324
 20
157577.9862517775
 30
0.0
 41
-1200.0
 42
-1200.0
 43
-1200.0
 50
270.0
  0
ATTRIB
  5
18D
330
18C
100
AcDbEntity
  8
WINDOW_TEXT
100
AcDbText
 10
1196589.529195488
 20
157421.9862517775
 30
0.0
 40
297.5
  1

 50
90.0
  7
_TCH_WINDOW
 41
0.5647058823529412
100
AcDbAttribute
  2
A
 70
0
 71
1
 72
0
  0
SEQEND
  5
18E
330
18C
100
AcDbEntity
  8
WINDOW
  0
LINE
  5
18F
330
17
100
AcDbEntity
  8
WALL
100
AcDbLine
 10
1198272.056374324
 20
160227.9862517609
 30
0.0
 11
1198272.056374324
 21
159277.9862517842
 31
0.0
  0
LINE
  5
190
330
17
100
AcDbEntity
  8
WALL
100
AcDbLine
 10
1197972.056374324
 20
160227.9862517609
 30
0.0
 11
1197972.056374324
 21
159277.9862517842
 31
0.0
  0
LINE
  5
191
330
17
100
AcDbEntity
  8
WALL
100
AcDbLine
 10
1188772.056374324
 20
154827.9862517786
 30
0.0
 11
1187972.056371041
 21
154827.9862517802
 31
0.0
  0
LINE
  5
192
330
17
100
AcDbEntity
  8
WALL
100
AcDbLine
 10
1187972.056371041
 20
154827.9862517802
 30
0.0
 11
1187972.056371041
 21
154627.9862517814
 31
0.0
  0
LINE
  5
193
330
17
100
AcDbEntity
  8
WALL
100
AcDbLine
 10
1187972.056371041
 20
154627.9862517814
 30
0.0
 11
1188772.056374324
 21
154627.9862517786
 31
0.0
  0
LINE
  5
194
330
17
100
AcDbEntity
  8
WALL
100
AcDbLine
 10
1185872.056374323
 20
154627.9862517802
 30
0.0
 11
1186572.056371078
 21
154627.9862517822
 31
0.0
  0
LINE
  5
195
330
17
100
AcDbEntity
  8
WALL
100
AcDbLine
 10
1186572.056371078
 20
154627.9862517822
 30
0.0
 11
1186572.056371079
 21
154827.9862517802
 31
0.0
  0
LINE
  5
196
330
17
100
AcDbEntity
  8
WALL
100
AcDbLine
 10
1186572.056371079
 20
154827.9862517802
 30
0.0
 11
1185772.056374324
 21
154827.9862517786
 31
0.0
  0
INSERT
  5
197
330
17
100
AcDbEntity
  8
WINDOW
  6
ByBlock
100
AcDbBlockReference
 66
1
  2
$DORLIB2D$00000127
 10
1187272.056371053
 20
154727.9862517786
 30
0.0
 41
-1400.0
 42
200.0
 43
-1400.0
 50
180.0
  0
ATTRIB
  5
198
330
197
100
AcDbEntity
  8
WINDOW_TEXT
  6
ByBlock
100
AcDbText
 10
1186504.056371061
 20
153769.0964409594
 30
0.0
 40
892.5
  1

  7
_TCH_WINDOW
 41
0.5647058823529412
100
AcDbAttribute
  2
A
 70
0
 71
1
 72
0
  0
SEQEND
  5
199
330
197
100
AcDbEntity
  8
WINDOW
  6
ByBlock
  0
LINE
  5
19A
330
17
100
AcDbEntity
  8
WALL
100
AcDbLine
 10
1188772.056374331
 20
149327.986251353
 30
0.0
 11
1187972.056382446
 21
149327.9862514615
 31
0.0
  0
LINE
  5
19B
330
17
100
AcDbEntity
  8
WALL
100
AcDbLine
 10
1187972.056382446
 20
149327.9862514615
 30
0.0
 11
1187972.056382417
 21
149127.9862514579
 31
0.0
  0
LINE
  5
19C
330
17
100
AcDbEntity
  8
WALL
100
AcDbLine
 10
1187972.056382417
 20
149127.9862514579
 30
0.0
 11
1188772.056374302
 21
149127.986251353
 31
0.0
  0
LINE
  5
19D
330
17
100
AcDbEntity
  8
WALL
100
AcDbLine
 10
1185772.05637431
 20
149127.9862517786
 30
0.0
 11
1186572.056382417
 21
149127.9862516565
 31
0.0
  0
LINE
  5
19E
330
17
100
AcDbEntity
  8
WALL
100
AcDbLine
 10
1186572.056382417
 20
149127.9862516565
 30
0.0
 11
1186572.056382446
 21
149327.9862516612
 31
0.0
  0
LINE
  5
19F
330
17
100
AcDbEntity
  8
WALL
100
AcDbLine
 10
1186572.056382446
 20
149327.9862516612
 30
0.0
 11
1185872.056374323
 21
149327.9862517665
 31
0.0
  0
INSERT
  5
1A0
330
17
100
AcDbEntity
  8
WINDOW
  6
ByBlock
100
AcDbBlockReference
 66
1
  2
$DORLIB2D$00000127
 10
1187272.056382415
 20
149227.9862515658
 30
0.0
 41
-1400.0
 42
-200.0
 43
-1400.0
 50
179.9999999918714
  0
ATTRIB
  5
1A1
330
1A0
100
AcDbEntity
  8
WINDOW_TEXT
  6
ByBlock
100
AcDbText
 10
1186504.056382359
 20
149388.1609249851
 30
0.0
 40
892.5
  1

 50
359.9999999918714
  7
_TCH_WINDOW
 41
0.5647058823529412
100
AcDbAttribute
  2
A
 70
0
 71
1
 72
0
  0
SEQEND
  5
1A2
330
1A0
100
AcDbEntity
  8
WINDOW
  6
ByBlock
  0
LINE
  5
1A3
330
17
100
AcDbEntity
  8
WALL
100
AcDbLine
 10
1204172.056369566
 20
139877.9862517768
 30
0.0
 11
1204172.056369566
 21
140271.8432735825
 31
0.0
  0
LINE
  5
1A4
330
17
100
AcDbEntity
  8
WALL
100
AcDbLine
 10
1204172.056369566
 20
140271.8432735825
 30
0.0
 11
1203972.056369566
 21
140271.8432735825
 31
0.0
  0
LINE
  5
1A5
330
17
100
AcDbEntity
  8
WALL
100
AcDbLine
 10
1203972.056369566
 20
140271.8432735825
 30
0.0
 11
1203972.056369566
 21
140077.9862517778
 31
0.0
  0
LINE
  5
1A6
330
17
100
AcDbEntity
  8
WALL
100
AcDbLine
 10
1203972.056369564
 20
148577.9862548538
 30
0.0
 11
1203972.056369566
 21
142071.8432735825
 31
0.0
  0
LINE
  5
1A7
330
17
100
AcDbEntity
  8
WALL
100
AcDbLine
 10
1203972.056369566
 20
142071.8432735825
 30
0.0
 11
1204172.056369566
 21
142071.8432735825
 31
0.0
  0
LINE
  5
1A8
330
17
100
AcDbEntity
  8
WALL
100
AcDbLine
 10
1204172.056369566
 20
142071.8432735825
 30
0.0
 11
1204172.056369566
 21
148477.9862548521
 31
0.0
  0
INSERT
  5
1A9
330
17
100
AcDbEntity
  8
WINDOW
100
AcDbBlockReference
 66
1
  2
$DorLib2D$00000002
 10
1204072.056369564
 20
141171.8432735823
 30
0.0
 41
1800.0
 42
1800.0
 43
1800.0
 50
90.0
  0
ATTRIB
  5
1AA
330
1A9
100
AcDbEntity
  8
WINDOW_TEXT
100
AcDbText
 10
1206743.926998935
 20
140235.8432735822
 30
0.0
 40
1785.0
  1

 50
90.0
  7
_TCH_WINDOW
 41
0.5647058823529412
100
AcDbAttribute
  2
A
 70
0
 71
1
 72
0
  0
SEQEND
  5
1AB
330
1A9
100
AcDbEntity
  8
WINDOW
  0
LINE
  5
1AC
330
17
100
AcDbEntity
  8
WALL
100
AcDbLine
 10
1216299.234236611
 20
144150.5646359309
 30
0.0
 11
1213272.056374342
 21
147569.6394057329
 31
0.0
  0
LINE
  5
1AD
330
17
100
AcDbEntity
  8
WALL
100
AcDbLine
 10
1216448.976770804
 20
144283.1435688489
 30
0.0
 11
1213472.056374333
 21
147645.4545668734
 31
0.0
  0
LINE
  5
1AE
330
17
100
AcDbEntity
  8
WALL
100
AcDbLine
 10
1216299.234236611
 20
144150.5646359309
 30
0.0
 11
1216448.976770804
 21
144283.1435688489
 31
0.0
  0
LINE
  5
1AF
330
17
100
AcDbEntity
  8
WALL
100
AcDbLine
 10
1211672.056374326
 20
136677.9862551982
 30
0.0
 11
1211672.056374326
 21
132477.9862548885
 31
0.0
  0
LINE
  5
1B0
330
17
100
AcDbEntity
  8
WALL
100
AcDbLine
 10
1211472.056374326
 20
136477.986255152
 30
0.0
 11
1211472.056374326
 21
132477.9862548871
 31
0.0
  0
LINE
  5
1B1
330
17
100
AcDbEntity
  8
WALL
100
AcDbLine
 10
1183072.056374329
 20
132277.9862548726
 30
0.0
 11
1170501.882384555
 21
132277.9862551087
 31
0.0
  0
LINE
  5
1B2
330
17
100
AcDbEntity
  8
WALL
100
AcDbLine
 10
1182872.056374328
 20
132477.9862548775
 30
0.0
 11
1170407.848998057
 21
132477.9862551104
 31
0.0
  0
LINE
  5
1B3
330
17
100
AcDbEntity
  8
WALL
100
AcDbLine
 10
1170501.882384555
 20
132277.9862551087
 30
0.0
 11
1170407.848998057
 21
132477.9862551104
 31
0.0
  0
INSERT
  5
1B4
330
17
100
AcDbEntity
  8
WINDOW
100
AcDbBlockReference
 66
1
  2
$DorLib2D$00000002
 10
1170080.12103034
 20
134654.6179440214
 30
0.0
 41
-2100.0
 42
-2100.0
 43
-2100.0
 50
276.6364452571644
  0
ATTRIB
  5
1B5
330
1B4
100
AcDbEntity
  8
WINDOW_TEXT
100
AcDbText
 10
1169204.456122148
 20
135023.8925664905
 30
0.0
 40
892.5
  1

 50
276.6364452571644
  7
_TCH_WINDOW
 41
0.5647058823529412
100
AcDbAttribute
  2
A
 70
0
 71
1
 72
0
  0
SEQEND
  5
1B6
330
1B4
100
AcDbEntity
  8
WINDOW
  0
LINE
  5
1B7
330
17
100
AcDbEntity
  8
WALL
100
AcDbLine
 10
1191872.056374326
 20
136477.9862517802
 30
0.0
 11
1192072.056374324
 21
136477.9862517897
 31
0.0
  0
LINE
  5
1B8
330
17
100
AcDbEntity
  8
WALL
100
AcDbLine
 10
1192072.056374317
 20
129777.9862159899
 30
0.0
 11
1192072.056374326
 21
132277.9862517929
 31
0.0
  0
LINE
  5
1B9
330
17
100
AcDbEntity
  8
WALL
100
AcDbLine
 10
1192072.056374326
 20
132277.9862517929
 30
0.0
 11
1191872.056374326
 21
132277.9862517929
 31
0.0
  0
LINE
  5
1BA
330
17
100
AcDbEntity
  8
WALL
100
AcDbLine
 10
1191872.056374326
 20
132277.9862517929
 30
0.0
 11
1191872.056374332
 21
129777.9862159899
 31
0.0
  0
INSERT
  5
1BB
330
17
100
AcDbEntity
  8
WINDOW
100
AcDbBlockReference
 66
1
  2
$DorLib2D$00000002
 10
1191972.056374325
 20
133327.9862517804
 30
0.0
 41
2100.0
 42
-2100.0
 43
2100.0
 50
270.0
  0
ATTRIB
  5
1BC
330
1BB
100
AcDbEntity
  8
WINDOW_TEXT
100
AcDbText
 10
1194090.806374323
 20
132547.9862517803
 30
0.0
 40
1487.5
  1

 50
90.0
  7
_TCH_WINDOW
 41
0.5647058823529412
100
AcDbAttribute
  2
A
 70
0
 71
1
 72
0
  0
SEQEND
  5
1BD
330
1BB
100
AcDbEntity
  8
WINDOW
  0
INSERT
  5
1BE
330
17
100
AcDbEntity
  8
WINDOW
100
AcDbBlockReference
 66
1
  2
$DorLib2D$00000002
 10
1191972.056374325
 20
135427.9862517804
 30
0.0
 41
2100.0
 42
-2100.0
 43
2100.0
 50
270.0
  0
ATTRIB
  5
1BF
330
1BE
100
AcDbEntity
  8
WINDOW_TEXT
100
AcDbText
 10
1194090.806374326
 20
134647.9862517803
 30
0.0
 40
1487.5
  1

 50
90.0
  7
_TCH_WINDOW
 41
0.5647058823529412
100
AcDbAttribute
  2
A
 70
0
 71
1
 72
0
  0
SEQEND
  5
1C0
330
1BE
100
AcDbEntity
  8
WINDOW
  0
LINE
  5
1C1
330
17
100
AcDbEntity
  8
WALL
100
AcDbLine
 10
1191872.056374326
 20
136477.9862517802
 30
0.0
 11
1183072.056374329
 21
136477.9862517802
 31
0.0
  0
LINE
  5
1C2
330
17
100
AcDbEntity
  8
WALL
100
AcDbLine
 10
1191972.056374325
 20
136677.9862517784
 30
0.0
 11
1182972.05637433
 21
136677.9862517784
 31
0.0
  0
LINE
  5
1C3
330
17
100
AcDbEntity
  8
WALL
100
AcDbLine
 10
1204172.056369566
 20
139877.9862517768
 30
0.0
 11
1198472.056374328
 21
139877.9862517767
 31
0.0
  0
LINE
  5
1C4
330
17
100
AcDbEntity
  8
WALL
100
AcDbLine
 10
1203972.056369566
 20
140077.9862517778
 30
0.0
 11
1198272.056374326
 21
140077.9862517778
 31
0.0
  0
LINE
  5
1C5
330
17
100
AcDbEntity
  8
WALL
100
AcDbLine
 10
1212484.446395433
 20
132477.9862548885
 30
0.0
 11
1216307.816037008
 21
135863.1184302288
 31
0.0
  0
LINE
  5
1C6
330
17
100
AcDbEntity
  8
WALL
100
AcDbLine
 10
1212560.261556946
 20
132277.986254905
 30
0.0
 11
1216440.394970407
 21
135713.3758964623
 31
0.0
  0
LINE
  5
1C7
330
17
100
AcDbEntity
  8
WALL
100
AcDbLine
 10
1216307.816037008
 20
135863.1184302288
 30
0.0
 11
1216440.394970407
 21
135713.3758964623
 31
0.0
  0
LINE
  5
1C8
330
17
100
AcDbEntity
  8
WALL
100
AcDbLine
 10
1213272.056374342
 20
147569.6394057329
 30
0.0
 11
1213272.056374342
 21
148477.9862548521
 31
0.0
  0
LINE
  5
1C9
330
17
100
AcDbEntity
  8
WALL
100
AcDbLine
 10
1213472.056374333
 20
147645.4545668734
 30
0.0
 11
1213472.056374323
 21
148577.9862548538
 31
0.0
  0
LINE
  5
1CA
330
17
100
AcDbEntity
  8
WALL
100
AcDbLine
 10
1169292.532056531
 20
161777.9862517786
 30
0.0
 11
1182172.056374324
 21
161777.9862517786
 31
0.0
  0
LINE
  5
1CB
330
17
100
AcDbEntity
  8
WALL
100
AcDbLine
 10
1169279.571593021
 20
161577.9862517786
 30
0.0
 11
1182172.056374324
 21
161577.9862517786
 31
0.0
  0
LINE
  5
1CC
330
17
100
AcDbEntity
  8
WALL
100
AcDbLine
 10
1169292.532056531
 20
161777.9862517786
 30
0.0
 11
1169279.571593021
 21
161577.9862517786
 31
0.0
  0
LINE
  5
1CD
330
17
100
AcDbEntity
  8
WALL
100
AcDbLine
 10
1182172.056374324
 20
161777.9862517786
 30
0.0
 11
1182172.056374324
 21
161577.9862517786
 31
0.0
  0
LINE
  5
1CE
330
17
100
AcDbEntity
  8
WALL
100
AcDbLine
 10
1211472.056374326
 20
136477.986255152
 30
0.0
 11
1200472.056374326
 21
136477.9862526088
 31
0.0
  0
LINE
  5
1CF
330
17
100
AcDbEntity
  8
WALL
100
AcDbLine
 10
1211672.056374326
 20
136677.9862551982
 30
0.0
 11
1200372.056374302
 21
136677.9862525862
 31
0.0
  0
INSERT
  5
1D0
330
17
100
AcDbEntity
  8
WINDOW
100
AcDbBlockReference
 66
1
  2
$DorLib2D$00000002
 10
1191972.056374883
 20
164777.9862517878
 30
0.0
 41
-2000.0
 42
-2000.0
 43
-2000.0
 50
269.9999999999976
  0
ATTRIB
  5
1D1
330
1D0
100
AcDbEntity
  8
WINDOW_TEXT
100
AcDbText
 10
1193350.033148625
 20
164309.9862517878
 30
0.0
 40
892.5
  1

 50
89.99999999999761
  7
_TCH_WINDOW
 41
0.5647058823529412
100
AcDbAttribute
  2
A
 70
0
 71
1
 72
0
  0
SEQEND
  5
1D2
330
1D0
100
AcDbEntity
  8
WINDOW
  0
LINE
  5
1D3
330
17
100
AcDbEntity
  8
WALL
100
AcDbLine
 10
1216374.105503708
 20
161577.9862517826
 30
0.0
 11
1213472.056374324
 21
161577.9862517821
 31
0.0
  0
LINE
  5
1D4
330
17
100
AcDbEntity
  8
WALL
100
AcDbLine
 10
1216374.105503708
 20
161777.9862517826
 30
0.0
 11
1213372.056374325
 21
161777.9862517826
 31
0.0
  0
LINE
  5
1D5
330
17
100
AcDbEntity
  8
WALL
100
AcDbLine
 10
1216374.105503708
 20
161577.9862517826
 30
0.0
 11
1216374.105503708
 21
161777.9862517826
 31
0.0
  0
INSERT
  5
1D6
330
17
100
AcDbEntity
  8
WINDOW
100
AcDbBlockReference
 66
1
  2
$DorLib2D$00000002
 10
1191972.056374883
 20
162777.9862517878
 30
0.0
 41
-2000.0
 42
-2000.0
 43
-2000.0
 50
269.9999999999976
  0
ATTRIB
  5
1D7
330
1D6
100
AcDbEntity
  8
WINDOW_TEXT
100
AcDbText
 10
1193350.033148625
 20
162309.9862517878
 30
0.0
 40
892.5
  1

 50
89.99999999999761
  7
_TCH_WINDOW
 41
0.5647058823529412
100
AcDbAttribute
  2
A
 70
0
 71
1
 72
0
  0
SEQEND
  5
1D8
330
1D6
100
AcDbEntity
  8
WINDOW
  0
LINE
  5
1D9
330
17
100
AcDbEntity
  8
WALL
100
AcDbLine
 10
1191872.056374877
 20
172777.9862517775
 30
0.0
 11
1191872.056374873
 21
171827.9862517825
 31
0.0
  0
LINE
  5
1DA
330
17
100
AcDbEntity
  8
WALL
100
AcDbLine
 10
1191872.056374873
 20
171827.9862517825
 30
0.0
 11
1192072.056374883
 21
171827.9862517825
 31
0.0
  0
LINE
  5
1DB
330
17
100
AcDbEntity
  8
WALL
100
AcDbLine
 10
1192072.056374883
 20
171827.9862517825
 30
0.0
 11
1192072.056374885
 21
172977.986251781
 31
0.0
  0
LINE
  5
1DC
330
17
100
AcDbEntity
  8
WALL
100
AcDbLine
 10
1192072.056374883
 20
168677.9862517796
 30
0.0
 11
1192072.056374882
 21
169727.9862517825
 31
0.0
  0
LINE
  5
1DD
330
17
100
AcDbEntity
  8
WALL
100
AcDbLine
 10
1192072.056374882
 20
169727.9862517825
 30
0.0
 11
1191872.056374873
 21
169727.9862517825
 31
0.0
  0
LINE
  5
1DE
330
17
100
AcDbEntity
  8
WALL
100
AcDbLine
 10
1191872.056374873
 20
169727.9862517825
 30
0.0
 11
1191872.056374877
 21
168777.9862517801
 31
0.0
  0
INSERT
  5
1DF
330
17
100
AcDbEntity
  8
WINDOW
100
AcDbBlockReference
 66
1
  2
$DorLib2D$00000002
 10
1191972.056374883
 20
170777.9862517787
 30
0.0
 41
2100.0
 42
2100.0
 43
2100.0
 50
269.9999999999968
  0
ATTRIB
  5
1E0
330
1DF
100
AcDbEntity
  8
WINDOW_TEXT
100
AcDbText
 10
1191493.306374883
 20
170309.9862517786
 30
0.0
 40
892.5
  1

 50
89.99999999999685
  7
_TCH_WINDOW
 41
0.5647058823529412
100
AcDbAttribute
  2
A
 70
0
 71
1
 72
0
  0
SEQEND
  5
1E1
330
1DF
100
AcDbEntity
  8
WINDOW
  0
LINE
  5
1E2
330
17
100
AcDbEntity
  8
WALL
100
AcDbLine
 10
1182912.056374875
 20
168777.9862517724
 30
0.0
 11
1182912.05637488
 21
169777.9862522507
 31
0.0
  0
LINE
  5
1E3
330
17
100
AcDbEntity
  8
WALL
100
AcDbLine
 10
1182912.05637488
 20
169777.9862522507
 30
0.0
 11
1182712.056374883
 21
169777.9862522507
 31
0.0
  0
LINE
  5
1E4
330
17
100
AcDbEntity
  8
WALL
100
AcDbLine
 10
1182712.056374883
 20
169777.9862522507
 30
0.0
 11
1182712.056374882
 21
168577.9862517724
 31
0.0
  0
LINE
  5
1E5
330
17
100
AcDbEntity
  8
WALL
100
AcDbLine
 10
1182712.056374882
 20
172977.9862517729
 30
0.0
 11
1182712.056374883
 21
171877.9862522507
 31
0.0
  0
LINE
  5
1E6
330
17
100
AcDbEntity
  8
WALL
100
AcDbLine
 10
1182712.056374883
 20
171877.9862522507
 30
0.0
 11
1182912.05637488
 21
171877.9862522507
 31
0.0
  0
LINE
  5
1E7
330
17
100
AcDbEntity
  8
WALL
100
AcDbLine
 10
1182912.05637488
 20
171877.9862522507
 30
0.0
 11
1182912.056374875
 21
172777.9862517699
 31
0.0
  0
INSERT
  5
1E8
330
17
100
AcDbEntity
  8
WINDOW
100
AcDbBlockReference
 66
1
  2
$DorLib2D$00000002
 10
1191972.056374883
 20
166777.986251796
 30
0.0
 41
-2000.0
 42
-2000.0
 43
-2000.0
 50
269.9999999999976
  0
ATTRIB
  5
1E9
330
1E8
100
AcDbEntity
  8
WINDOW_TEXT
100
AcDbText
 10
1193450.033148625
 20
166309.9862517959
 30
0.0
 40
892.5
  1

 50
89.99999999999761
  7
_TCH_WINDOW
 41
0.5647058823529412
100
AcDbAttribute
  2
A
 70
0
 71
1
 72
0
  0
SEQEND
  5
1EA
330
1E8
100
AcDbEntity
  8
WINDOW
  0
INSERT
  5
1EB
330
17
100
AcDbEntity
  8
WINDOW
100
AcDbBlockReference
 66
1
  2
$DorLib2D$00000002
 10
1195322.056374324
 20
144720.6288761403
 30
0.0
 41
1200.0
 42
-1200.0
 43
1200.0
 50
270.0
  0
ATTRIB
  5
1EC
330
1EB
100
AcDbEntity
  8
WINDOW_TEXT
100
AcDbText
 10
1197845.806374324
 20
144564.6288761404
 30
0.0
 40
297.5
  1

 50
90.0
  7
_TCH_WINDOW
 41
0.5647058823529412
100
AcDbAttribute
  2
A
 70
0
 71
1
 72
0
  0
SEQEND
  5
1ED
330
1EB
100
AcDbEntity
  8
WINDOW
  0
LINE
  5
1EE
330
17
100
AcDbEntity
  8
WALL
100
AcDbLine
 10
1191772.05637432
 20
160977.9862517615
 30
0.0
 11
1191772.05637432
 21
158477.9862518181
 31
0.0
  0
LINE
  5
1EF
330
17
100
AcDbEntity
  8
WALL
100
AcDbLine
 10
1191572.056374331
 20
160977.9862517615
 30
0.0
 11
1191572.056374331
 21
158477.9862517726
 31
0.0
  0
LINE
  5
1F0
330
17
100
AcDbEntity
  8
WALL
100
AcDbLine
 10
1191772.056374331
 20
145477.9862517975
 30
0.0
 11
1191772.056374331
 21
142977.9862517858
 31
0.0
  0
LINE
  5
1F1
330
17
100
AcDbEntity
  8
WALL
100
AcDbLine
 10
1191572.05637432
 20
145477.9862517767
 30
0.0
 11
1191572.05637432
 21
142977.9862517858
 31
0.0
  0
LINE
  5
1F2
330
17
100
AcDbEntity
  8
WALL
100
AcDbLine
 10
1191672.056374323
 20
160977.9862517786
 30
0.0
 11
1188672.056374324
 21
160977.9862517786
 31
0.0
  0
LINE
  5
1F3
330
17
100
AcDbEntity
  8
WALL
100
AcDbLine
 10
1191672.056374323
 20
161777.9862517786
 30
0.0
 11
1188672.056374324
 21
161777.9862517786
 31
0.0
  0
LINE
  5
1F4
330
17
100
AcDbEntity
  8
WALL
100
AcDbLine
 10
1191572.056374331
 20
158477.9862517726
 30
0.0
 11
1190872.056371078
 21
158477.9862517743
 31
0.0
  0
LINE
  5
1F5
330
17
100
AcDbEntity
  8
WALL
100
AcDbLine
 10
1190872.056371078
 20
158477.9862517743
 30
0.0
 11
1190872.056371078
 21
158277.9862517827
 31
0.0
  0
LINE
  5
1F6
330
17
100
AcDbEntity
  8
WALL
100
AcDbLine
 10
1190872.056371078
 20
158277.9862517827
 30
0.0
 11
1191672.056374323
 21
158277.9862517786
 31
0.0
  0
LINE
  5
1F7
330
17
100
AcDbEntity
  8
WALL
100
AcDbLine
 10
1188672.056374324
 20
158277.9862517786
 30
0.0
 11
1189472.056371041
 21
158277.9862517827
 31
0.0
  0
LINE
  5
1F8
330
17
100
AcDbEntity
  8
WALL
100
AcDbLine
 10
1189472.056371041
 20
158277.9862517827
 30
0.0
 11
1189472.056371041
 21
158477.9862517743
 31
0.0
  0
LINE
  5
1F9
330
17
100
AcDbEntity
  8
WALL
100
AcDbLine
 10
1189472.056371041
 20
158477.9862517743
 30
0.0
 11
1188772.056374331
 21
158477.9862517726
 31
0.0
  0
LINE
  5
1FA
330
17
100
AcDbEntity
  8
WALL
100
AcDbLine
 10
1191672.056374323
 20
145677.9862517786
 30
0.0
 11
1190872.056379051
 21
145677.9862517768
 31
0.0
  0
LINE
  5
1FB
330
17
100
AcDbEntity
  8
WALL
100
AcDbLine
 10
1190872.056379051
 20
145677.9862517768
 30
0.0
 11
1190872.056379051
 21
145477.9862517754
 31
0.0
  0
LINE
  5
1FC
330
17
100
AcDbEntity
  8
WALL
100
AcDbLine
 10
1190872.056379051
 20
145477.9862517754
 30
0.0
 11
1191572.05637432
 21
145477.9862517767
 31
0.0
  0
LINE
  5
1FD
330
17
100
AcDbEntity
  8
WALL
100
AcDbLine
 10
1188772.056374319
 20
145477.9862517767
 30
0.0
 11
1189472.056379013
 21
145477.9862517754
 31
0.0
  0
LINE
  5
1FE
330
17
100
AcDbEntity
  8
WALL
100
AcDbLine
 10
1189472.056379013
 20
145477.9862517754
 30
0.0
 11
1189472.056379013
 21
145677.9862517768
 31
0.0
  0
LINE
  5
1FF
330
17
100
AcDbEntity
  8
WALL
100
AcDbLine
 10
1189472.056379013
 20
145677.9862517768
 30
0.0
 11
1188672.056374324
 21
145677.9862517786
 31
0.0
  0
LINE
  5
200
330
17
100
AcDbEntity
  8
WALL
100
AcDbLine
 10
1191672.056374323
 20
142177.9862517786
 30
0.0
 11
1188672.056374324
 21
142177.9862517786
 31
0.0
  0
LINE
  5
201
330
17
100
AcDbEntity
  8
WALL
100
AcDbLine
 10
1191672.056374323
 20
142977.9862517786
 30
0.0
 11
1188672.056374324
 21
142977.9862517786
 31
0.0
  0
LINE
  5
202
330
17
100
AcDbEntity
  8
WALL
100
AcDbLine
 10
1188672.056374331
 20
151827.9862517802
 30
0.0
 11
1185772.056374324
 21
151827.9862517786
 31
0.0
  0
LINE
  5
203
330
17
100
AcDbEntity
  8
WALL
100
AcDbLine
 10
1188672.056374274
 20
152127.9862517802
 30
0.0
 11
1185772.056374324
 21
152127.9862517786
 31
0.0
  0
LINE
  5
204
330
17
100
AcDbEntity
  8
WALL
100
AcDbLine
 10
1195572.056374322
 20
168477.986251793
 30
0.0
 11
1216374.105503708
 21
168477.9862517725
 31
0.0
  0
LINE
  5
205
330
17
100
AcDbEntity
  8
WALL
100
AcDbLine
 10
1195372.056374325
 20
168277.9862517936
 30
0.0
 11
1216374.105503708
 21
168277.9862517725
 31
0.0
  0
LINE
  5
206
330
17
100
AcDbEntity
  8
WALL
100
AcDbLine
 10
1216374.105503708
 20
168477.9862517725
 30
0.0
 11
1216374.105503708
 21
168277.9862517725
 31
0.0
  0
LINE
  5
207
330
17
100
AcDbEntity
  8
WALL
100
AcDbLine
 10
1192172.056374329
 20
158277.9862517677
 30
0.0
 11
1191672.056374323
 21
158277.9862517786
 31
0.0
  0
LINE
  5
208
330
17
100
AcDbEntity
  8
WALL
100
AcDbLine
 10
1192172.056374329
 20
158477.9862518181
 30
0.0
 11
1191772.05637432
 21
158477.9862518181
 31
0.0
  0
LINE
  5
209
330
17
100
AcDbEntity
  8
WALL
100
AcDbLine
 10
1195172.056374324
 20
158377.9862517786
 30
0.0
 11
1195172.056374323
 21
158177.9862517802
 31
0.0
  0
LINE
  5
20A
330
17
100
AcDbEntity
  8
WALL
100
AcDbLine
 10
1195172.056374323
 20
158177.9862517802
 30
0.0
 11
1195472.056374324
 21
158177.9862517802
 31
0.0
  0
LINE
  5
20B
330
17
100
AcDbEntity
  8
WALL
100
AcDbLine
 10
1195472.056374324
 20
158177.9862517802
 30
0.0
 11
1195472.056374324
 21
158377.9862517786
 31
0.0
  0
LINE
  5
20C
330
17
100
AcDbEntity
  8
WALL
100
AcDbLine
 10
1195472.056374324
 20
143677.9862517953
 30
0.0
 11
1195472.056374324
 21
144120.6288761393
 31
0.0
  0
LINE
  5
20D
330
17
100
AcDbEntity
  8
WALL
100
AcDbLine
 10
1195472.056374324
 20
144120.6288761393
 30
0.0
 11
1195172.056374323
 21
144120.6288761393
 31
0.0
  0
LINE
  5
20E
330
17
100
AcDbEntity
  8
WALL
100
AcDbLine
 10
1195172.056374323
 20
144120.6288761393
 30
0.0
 11
1195172.056374324
 21
143677.9862517953
 31
0.0
  0
LINE
  5
20F
330
17
100
AcDbEntity
  8
WALL
100
AcDbLine
 10
1195172.056374323
 20
156977.9862517802
 30
0.0
 11
1195172.056374323
 21
152777.9862518056
 31
0.0
  0
LINE
  5
210
330
17
100
AcDbEntity
  8
WALL
100
AcDbLine
 10
1195172.056374323
 20
152777.9862518056
 30
0.0
 11
1195472.056374324
 21
152777.9862518056
 31
0.0
  0
LINE
  5
211
330
17
100
AcDbEntity
  8
WALL
100
AcDbLine
 10
1195472.056374324
 20
152777.9862518056
 30
0.0
 11
1195472.056374324
 21
156977.9862517802
 31
0.0
  0
LINE
  5
212
330
17
100
AcDbEntity
  8
WALL
100
AcDbLine
 10
1195472.056374324
 20
156977.9862517802
 30
0.0
 11
1195172.056374323
 21
156977.9862517802
 31
0.0
  0
LINE
  5
213
330
17
100
AcDbEntity
  8
WALL
100
AcDbLine
 10
1195172.056374323
 20
152077.9862517802
 30
0.0
 11
1195172.056374323
 21
151877.9862517802
 31
0.0
  0
LINE
  5
214
330
17
100
AcDbEntity
  8
WALL
100
AcDbLine
 10
1195172.056374323
 20
151877.9862517802
 30
0.0
 11
1195472.056374324
 21
151877.9862517802
 31
0.0
  0
LINE
  5
215
330
17
100
AcDbEntity
  8
WALL
100
AcDbLine
 10
1195472.056374324
 20
151877.9862517802
 30
0.0
 11
1195472.056374324
 21
152077.9862517802
 31
0.0
  0
LINE
  5
216
330
17
100
AcDbEntity
  8
WALL
100
AcDbLine
 10
1195472.056374324
 20
152077.9862517802
 30
0.0
 11
1195172.056374323
 21
152077.9862517802
 31
0.0
  0
LINE
  5
217
330
17
100
AcDbEntity
  8
WALL
100
AcDbLine
 10
1195172.056374323
 20
151177.9862517802
 30
0.0
 11
1195172.056374323
 21
145320.6288761393
 31
0.0
  0
LINE
  5
218
330
17
100
AcDbEntity
  8
WALL
100
AcDbLine
 10
1195172.056374323
 20
145320.6288761393
 30
0.0
 11
1195472.056374324
 21
145320.6288761393
 31
0.0
  0
LINE
  5
219
330
17
100
AcDbEntity
  8
WALL
100
AcDbLine
 10
1195472.056374324
 20
145320.6288761393
 30
0.0
 11
1195472.056374324
 21
151177.9862517802
 31
0.0
  0
LINE
  5
21A
330
17
100
AcDbEntity
  8
WALL
100
AcDbLine
 10
1195472.056374324
 20
151177.9862517802
 30
0.0
 11
1195172.056374323
 21
151177.9862517802
 31
0.0
  0
LINE
  5
21B
330
17
100
AcDbEntity
  8
WALL
100
AcDbLine
 10
1192472.056374324
 20
158377.9862517786
 30
0.0
 11
1192472.056374324
 21
158277.9862517786
 31
0.0
  0
LINE
  5
21C
330
17
100
AcDbEntity
  8
WALL
100
AcDbLine
 10
1192172.056374324
 20
158377.9862517786
 30
0.0
 11
1192172.056374324
 21
158277.9862517786
 31
0.0
  0
LINE
  5
21D
330
17
100
AcDbEntity
  8
WALL
100
AcDbLine
 10
1192472.056374324
 20
158277.9862517786
 30
0.0
 11
1192172.056374324
 21
158277.9862517786
 31
0.0
  0
LINE
  5
21E
330
17
100
AcDbEntity
  8
WALL
100
AcDbLine
 10
1204172.056369563
 20
148677.9862548547
 30
0.0
 11
1204172.056369563
 21
154227.9862533188
 31
0.0
  0
LINE
  5
21F
330
17
100
AcDbEntity
  8
WALL
100
AcDbLine
 10
1204172.056369563
 20
154227.9862533188
 30
0.0
 11
1203972.056369565
 21
154227.9862533188
 31
0.0
  0
LINE
  5
220
330
17
100
AcDbEntity
  8
WALL
100
AcDbLine
 10
1203972.056369565
 20
154227.9862533188
 30
0.0
 11
1203972.056369564
 21
148577.9862548538
 31
0.0
  0
LINE
  5
221
330
17
100
AcDbEntity
  8
WALL
100
AcDbLine
 10
1203972.056369563
 20
161777.9862517826
 30
0.0
 11
1203972.056369565
 21
156027.9862533188
 31
0.0
  0
LINE
  5
222
330
17
100
AcDbEntity
  8
WALL
100
AcDbLine
 10
1203972.056369565
 20
156027.9862533188
 30
0.0
 11
1204172.056369563
 21
156027.9862533188
 31
0.0
  0
LINE
  5
223
330
17
100
AcDbEntity
  8
WALL
100
AcDbLine
 10
1204172.056369563
 20
156027.9862533188
 30
0.0
 11
1204172.056369563
 21
161577.9862517832
 31
0.0
  0
INSERT
  5
224
330
17
100
AcDbEntity
  8
WINDOW
100
AcDbBlockReference
 66
1
  2
$DorLib2D$00000002
 10
1204072.056369564
 20
155127.9862533182
 30
0.0
 41
1800.0
 42
1800.0
 43
1800.0
 50
90.0
  0
ATTRIB
  5
225
330
224
100
AcDbEntity
  8
WINDOW_TEXT
100
AcDbText
 10
1206743.926998935
 20
154191.9862533182
 30
0.0
 40
1785.0
  1

 50
90.0
  7
_TCH_WINDOW
 41
0.5647058823529412
100
AcDbAttribute
  2
A
 70
0
 71
1
 72
0
  0
SEQEND
  5
226
330
224
100
AcDbEntity
  8
WINDOW
  0
LINE
  5
227
330
17
100
AcDbEntity
  8
WALL
100
AcDbLine
 10
1179772.056374322
 20
176434.8635982302
 30
0.0
 11
1179772.056374325
 21
171477.9862524136
 31
0.0
  0
LINE
  5
228
330
17
100
AcDbEntity
  8
WALL
100
AcDbLine
 10
1179572.056374322
 20
176434.8635982302
 30
0.0
 11
1179572.056374318
 21
171677.9862523799
 31
0.0
  0
LINE
  5
229
330
17
100
AcDbEntity
  8
WALL
100
AcDbLine
 10
1179772.056374322
 20
176434.8635982302
 30
0.0
 11
1179572.056374322
 21
176434.8635982302
 31
0.0
  0
LINE
  5
22A
330
17
100
AcDbEntity
  8
WALL
100
AcDbLine
 10
1195572.056374325
 20
176434.8635982302
 30
0.0
 11
1195572.056374322
 21
168477.986251793
 31
0.0
  0
LINE
  5
22B
330
17
100
AcDbEntity
  8
WALL
100
AcDbLine
 10
1195372.056374325
 20
176434.8635982302
 30
0.0
 11
1195372.056374325
 21
168277.9862517936
 31
0.0
  0
LINE
  5
22C
330
17
100
AcDbEntity
  8
WALL
100
AcDbLine
 10
1195572.056374325
 20
176434.8635982302
 30
0.0
 11
1195372.056374325
 21
176434.8635982302
 31
0.0
  0
LINE
  5
22D
330
17
100
AcDbEntity
  8
WALL
100
AcDbLine
 10
1195472.056374324
 20
143677.9862517953
 30
0.0
 11
1195472.05637434
 21
142977.9862517784
 31
0.0
  0
LINE
  5
22E
330
17
100
AcDbEntity
  8
WALL
100
AcDbLine
 10
1195172.056374324
 20
143677.9862517953
 30
0.0
 11
1195172.056374344
 21
142177.9862517784
 31
0.0
  0
LINE
  5
22F
330
17
100
AcDbEntity
  8
WALL
100
AcDbLine
 10
1198272.056374324
 20
143677.9862517953
 30
0.0
 11
1198272.056374312
 21
142977.986251789
 31
0.0
  0
LINE
  5
230
330
17
100
AcDbEntity
  8
WALL
100
AcDbLine
 10
1197972.056374324
 20
143677.9862517953
 30
0.0
 11
1197972.056374316
 21
142977.9862517784
 31
0.0
  0
LINE
  5
231
330
17
100
AcDbEntity
  8
WALL
100
AcDbLine
 10
1191772.056374337
 20
149127.986250895
 30
0.0
 11
1188772.056374301
 21
149127.9862513529
 31
0.0
  0
LINE
  5
232
330
17
100
AcDbEntity
  8
WALL
100
AcDbLine
 10
1191572.056374337
 20
149327.9862509248
 30
0.0
 11
1188772.056374332
 21
149327.9862513529
 31
0.0
  0
LINE
  5
233
330
17
100
AcDbEntity
  8
WALL
100
AcDbLine
 10
1191572.056374334
 20
154627.9862517784
 30
0.0
 11
1191572.056374332
 21
154227.9862524796
 31
0.0
  0
LINE
  5
234
330
17
100
AcDbEntity
  8
WALL
100
AcDbLine
 10
1191572.056374332
 20
154227.9862524796
 30
0.0
 11
1191772.056374322
 21
154227.9862524796
 31
0.0
  0
LINE
  5
235
330
17
100
AcDbEntity
  8
WALL
100
AcDbLine
 10
1191772.056374322
 20
154227.9862524796
 30
0.0
 11
1191772.056374321
 21
154827.9862517784
 31
0.0
  0
LINE
  5
236
330
17
100
AcDbEntity
  8
WALL
100
AcDbLine
 10
1191772.056374324
 20
152327.9862517786
 30
0.0
 11
1191772.056374323
 21
152827.9862524414
 31
0.0
  0
LINE
  5
237
330
17
100
AcDbEntity
  8
WALL
100
AcDbLine
 10
1191772.056374323
 20
152827.9862524414
 30
0.0
 11
1191572.056374332
 21
152827.9862524414
 31
0.0
  0
LINE
  5
238
330
17
100
AcDbEntity
  8
WALL
100
AcDbLine
 10
1191572.056374332
 20
152827.9862524414
 30
0.0
 11
1191572.056374334
 21
152427.9862517784
 31
0.0
  0
INSERT
  5
239
330
17
100
AcDbEntity
  8
WINDOW
100
AcDbBlockReference
 66
1
  2
$DORLIB2D$00000127
 10
1191672.056374324
 20
153527.9862524546
 30
0.0
 41
1400.0
 42
-200.0
 43
1400.0
 50
270.0
  0
ATTRIB
  5
23A
330
239
100
AcDbEntity
  8
WINDOW_TEXT
100
AcDbText
 10
1191319.556374324
 20
153215.9862521291
 30
0.0
 40
595.0
  1

 50
90.0
  7
_TCH_WINDOW
 41
0.5647058823529412
100
AcDbAttribute
  2
A
 70
0
 71
1
 72
0
  0
SEQEND
  5
23B
330
239
100
AcDbEntity
  8
WINDOW
  0
LINE
  5
23C
330
17
100
AcDbEntity
  8
WALL
100
AcDbLine
 10
1191572.056374334
 20
154627.9862517784
 30
0.0
 11
1188772.056374324
 21
154627.9862517786
 31
0.0
  0
LINE
  5
23D
330
17
100
AcDbEntity
  8
WALL
100
AcDbLine
 10
1191772.056374321
 20
154827.9862517784
 30
0.0
 11
1188772.056374324
 21
154827.9862517786
 31
0.0
  0
LINE
  5
23E
330
17
100
AcDbEntity
  8
WALL
100
AcDbLine
 10
1191572.056374322
 20
152227.9862517784
 30
0.0
 11
1188972.056374361
 21
152227.9862517784
 31
0.0
  0
LINE
  5
23F
330
17
100
AcDbEntity
  8
WALL
100
AcDbLine
 10
1191572.056374334
 20
152427.9862517784
 30
0.0
 11
1188972.056374361
 21
152427.9862517784
 31
0.0
  0
LINE
  5
240
330
17
100
AcDbEntity
  8
WALL
100
AcDbLine
 10
1191572.056374337
 20
149827.986250934
 30
0.0
 11
1188972.056374351
 21
149827.9862513273
 31
0.0
  0
LINE
  5
241
330
17
100
AcDbEntity
  8
WALL
100
AcDbLine
 10
1191572.056374322
 20
150027.9862509335
 30
0.0
 11
1188972.056374351
 21
150027.9862513268
 31
0.0
  0
LINE
  5
242
330
17
100
AcDbEntity
  8
WALL
100
AcDbLine
 10
1191572.056374322
 20
152227.9862517784
 30
0.0
 11
1191572.056374328
 21
151827.9862511063
 31
0.0
  0
LINE
  5
243
330
17
100
AcDbEntity
  8
WALL
100
AcDbLine
 10
1191572.056374328
 20
151827.9862511063
 30
0.0
 11
1191772.056374326
 21
151827.9862511063
 31
0.0
  0
LINE
  5
244
330
17
100
AcDbEntity
  8
WALL
100
AcDbLine
 10
1191772.056374326
 20
151827.9862511063
 30
0.0
 11
1191772.056374324
 21
152327.9862517786
 31
0.0
  0
LINE
  5
245
330
17
100
AcDbEntity
  8
WALL
100
AcDbLine
 10
1191772.056374324
 20
149927.9862509142
 30
0.0
 11
1191772.056374326
 21
150427.9862510681
 31
0.0
  0
LINE
  5
246
330
17
100
AcDbEntity
  8
WALL
100
AcDbLine
 10
1191772.056374326
 20
150427.9862510681
 30
0.0
 11
1191572.056374328
 21
150427.9862510681
 31
0.0
  0
LINE
  5
247
330
17
100
AcDbEntity
  8
WALL
100
AcDbLine
 10
1191572.056374328
 20
150427.9862510681
 30
0.0
 11
1191572.056374322
 21
150027.9862509335
 31
0.0
  0
INSERT
  5
248
330
17
100
AcDbEntity
  8
WINDOW
100
AcDbBlockReference
 66
1
  2
$DORLIB2D$00000127
 10
1191672.056374324
 20
151127.9862511025
 30
0.0
 41
-1400.0
 42
-200.0
 43
-1400.0
 50
270.0
  0
ATTRIB
  5
249
330
248
100
AcDbEntity
  8
WINDOW_TEXT
100
AcDbText
 10
1191319.556374324
 20
150815.986251428
 30
0.0
 40
595.0
  1

 50
90.0
  7
_TCH_WINDOW
 41
0.5647058823529412
100
AcDbAttribute
  2
A
 70
0
 71
1
 72
0
  0
SEQEND
  5
24A
330
248
100
AcDbEntity
  8
WINDOW
  0
LINE
  5
24B
330
17
100
AcDbEntity
  8
WALL
100
AcDbLine
 10
1191772.056374324
 20
149927.9862509142
 30
0.0
 11
1191772.056374337
 21
149127.986250895
 31
0.0
  0
LINE
  5
24C
330
17
100
AcDbEntity
  8
WALL
100
AcDbLine
 10
1191572.056374337
 20
149827.986250934
 30
0.0
 11
1191572.056374337
 21
149327.9862509248
 31
0.0
  0
LINE
  5
24D
330
17
100
AcDbEntity
  8
WALL
100
AcDbLine
 10
1188972.056374324
 20
152327.9862517786
 30
0.0
 11
1188972.056374324
 21
151977.9862517786
 31
0.0
  0
LINE
  5
24E
330
17
100
AcDbEntity
  8
WALL
100
AcDbLine
 10
1188672.056374324
 20
152327.9862517786
 30
0.0
 11
1188672.056374274
 21
152127.9862517802
 31
0.0
  0
LINE
  5
24F
330
17
100
AcDbEntity
  8
WALL
100
AcDbLine
 10
1188972.056374324
 20
149927.9862513529
 30
0.0
 11
1188972.056374351
 21
149327.9862513267
 31
0.0
  0
LINE
  5
250
330
17
100
AcDbEntity
  8
WALL
100
AcDbLine
 10
1188672.056374324
 20
149927.9862513529
 30
0.0
 11
1188672.056374299
 21
149327.9862513692
 31
0.0
  0
LINE
  5
251
330
17
100
AcDbEntity
  8
STAIR
100
AcDbLine
 10
1198272.056374326
 20
156807.9862517861
 30
0.0
 11
1198272.056374329
 21
155390.7393760969
 31
0.0
  0
LINE
  5
252
330
17
100
AcDbEntity
  8
STAIR
100
AcDbLine
 10
1198272.056374329
 20
155279.6209570665
 30
0.0
 11
1198272.056374324
 21
153687.9862517861
 31
0.0
  0
LINE
  5
253
330
17
100
AcDbEntity
  8
STAIR
100
AcDbLine
 10
1199472.056374317
 20
156807.9862517784
 30
0.0
 11
1198272.056374326
 21
156807.9862517861
 31
0.0
  0
LINE
  5
254
330
17
100
AcDbEntity
  8
STAIR
100
AcDbLine
 10
1199472.056374317
 20
156547.9862517784
 30
0.0
 11
1198272.056374326
 21
156547.9862517861
 31
0.0
  0
LINE
  5
255
330
17
100
AcDbEntity
  8
STAIR
100
AcDbLine
 10
1199472.056374317
 20
156287.9862517784
 30
0.0
 11
1198272.056374325
 21
156287.9862517861
 31
0.0
  0
LINE
  5
256
330
17
100
AcDbEntity
  8
STAIR
100
AcDbLine
 10
1199472.056374317
 20
156027.9862517784
 30
0.0
 11
1198272.056374325
 21
156027.9862517861
 31
0.0
  0
LINE
  5
257
330
17
100
AcDbEntity
  8
STAIR
100
AcDbLine
 10
1199472.056374317
 20
155767.9862518028
 30
0.0
 11
1199280.055632217
 21
155767.9862517873
 31
0.0
  0
LINE
  5
258
330
17
100
AcDbEntity
  8
STAIR
100
AcDbLine
 10
1199050.704191647
 20
155767.9862517841
 30
0.0
 11
1198272.056374325
 21
155767.9862517861
 31
0.0
  0
LINE
  5
259
330
17
100
AcDbEntity
  8
STAIR
100
AcDbLine
 10
1199472.056374317
 20
155507.9862518028
 30
0.0
 11
1198743.408556988
 21
155507.9862517816
 31
0.0
  0
LINE
  5
25A
330
17
100
AcDbEntity
  8
STAIR
100
AcDbLine
 10
1198514.057116293
 20
155507.9862517785
 30
0.0
 11
1198272.056374325
 21
155507.9862517861
 31
0.0
  0
LINE
  5
25B
330
17
100
AcDbEntity
  8
STAIR
100
AcDbLine
 10
1199472.056374316
 20
155247.9862517784
 30
0.0
 11
1198272.056374325
 21
155247.9862517861
 31
0.0
  0
LINE
  5
25C
330
17
100
AcDbEntity
  8
STAIR
100
AcDbLine
 10
1199472.056374316
 20
154987.9862517784
 30
0.0
 11
1198272.056374325
 21
154987.9862517861
 31
0.0
  0
LINE
  5
25D
330
17
100
AcDbEntity
  8
STAIR
100
AcDbLine
 10
1199472.056374316
 20
154727.9862518028
 30
0.0
 11
1198272.056374325
 21
154727.9862517861
 31
0.0
  0
LINE
  5
25E
330
17
100
AcDbEntity
  8
STAIR
100
AcDbLine
 10
1199472.056374316
 20
154467.9862517784
 30
0.0
 11
1198272.056374325
 21
154467.9862517861
 31
0.0
  0
LINE
  5
25F
330
17
100
AcDbEntity
  8
STAIR
100
AcDbLine
 10
1199472.056374316
 20
154207.9862517784
 30
0.0
 11
1198272.056374325
 21
154207.9862517861
 31
0.0
  0
LINE
  5
260
330
17
100
AcDbEntity
  8
STAIR
100
AcDbLine
 10
1199472.056374316
 20
153947.9862517784
 30
0.0
 11
1198272.056374324
 21
153947.9862517861
 31
0.0
  0
LINE
  5
261
330
17
100
AcDbEntity
  8
STAIR
100
AcDbLine
 10
1199472.056374316
 20
153687.9862518028
 30
0.0
 11
1198272.056374324
 21
153687.9862517861
 31
0.0
  0
LINE
  5
262
330
17
100
AcDbEntity
  8
STAIR
100
AcDbLine
 10
1199522.056374326
 20
156807.9862517856
 30
0.0
 11
1199522.05637433
 21
155996.3515465068
 31
0.0
  0
LINE
  5
263
330
17
100
AcDbEntity
  8
STAIR
100
AcDbLine
 10
1199522.05637433
 20
155885.2331275425
 30
0.0
 11
1199522.056374324
 21
153687.9862517856
 31
0.0
  0
LINE
  5
264
330
17
100
AcDbEntity
  8
STAIR
100
AcDbLine
 10
1199522.056374329
 20
155885.2331275273
 30
0.0
 11
1198987.648458806
 21
155626.3179774039
 31
0.0
  0
LINE
  5
265
330
17
100
AcDbEntity
  8
STAIR
100
AcDbLine
 10
1199522.056374329
 20
155996.3515465215
 30
0.0
 11
1198968.16109156
 21
155727.994966999
 31
0.0
  0
LINE
  5
266
330
17
100
AcDbEntity
  8
STAIR
100
AcDbLine
 10
1198968.16109156
 20
155727.994966999
 30
0.0
 11
1199001.747871169
 21
155552.7530980916
 31
0.0
  0
LINE
  5
267
330
17
100
AcDbEntity
  8
STAIR
100
AcDbLine
 10
1199001.747871169
 20
155552.7530980916
 30
0.0
 11
1198808.755958375
 21
155740.1040100017
 31
0.0
  0
LINE
  5
268
330
17
100
AcDbEntity
  8
STAIR
100
AcDbLine
 10
1198808.755958375
 20
155740.1040100017
 30
0.0
 11
1198843.911166215
 21
155556.6787344072
 31
0.0
  0
LINE
  5
269
330
17
100
AcDbEntity
  8
STAIR
100
AcDbLine
 10
1198843.911166215
 20
155556.6787344072
 30
0.0
 11
1198272.056374329
 21
155279.6209570427
 31
0.0
  0
LINE
  5
26A
330
17
100
AcDbEntity
  8
STAIR
100
AcDbLine
 10
1198824.423798968
 20
155658.3557240033
 30
0.0
 11
1198272.056374329
 21
155390.7393760469
 31
0.0
  0
LINE
  5
26B
330
17
100
AcDbEntity
  8
STAIR
100
AcDbLine
 10
1200972.056374324
 20
153427.9862517856
 30
0.0
 11
1200972.056374324
 21
156807.9862517856
 31
0.0
  0
LINE
  5
26C
330
17
100
AcDbEntity
  8
STAIR
100
AcDbLine
 10
1199772.056374325
 20
153427.9862517823
 30
0.0
 11
1200972.056374324
 21
153427.9862517856
 31
0.0
  0
LINE
  5
26D
330
17
100
AcDbEntity
  8
STAIR
100
AcDbLine
 10
1199772.056374325
 20
153687.9862517823
 30
0.0
 11
1200972.056374324
 21
153687.9862517856
 31
0.0
  0
LINE
  5
26E
330
17
100
AcDbEntity
  8
STAIR
100
AcDbLine
 10
1199772.056374325
 20
153947.9862517822
 30
0.0
 11
1200972.056374324
 21
153947.9862517856
 31
0.0
  0
LINE
  5
26F
330
17
100
AcDbEntity
  8
STAIR
100
AcDbLine
 10
1199772.056374325
 20
154207.9862517823
 30
0.0
 11
1200972.056374324
 21
154207.9862517856
 31
0.0
  0
LINE
  5
270
330
17
100
AcDbEntity
  8
STAIR
100
AcDbLine
 10
1199772.056374325
 20
154467.9862518067
 30
0.0
 11
1200972.056374324
 21
154467.9862517856
 31
0.0
  0
LINE
  5
271
330
17
100
AcDbEntity
  8
STAIR
100
AcDbLine
 10
1199772.056374325
 20
154727.9862517822
 30
0.0
 11
1200972.056374324
 21
154727.9862517856
 31
0.0
  0
LINE
  5
272
330
17
100
AcDbEntity
  8
STAIR
100
AcDbLine
 10
1199772.056374325
 20
154987.9862517822
 30
0.0
 11
1200972.056374324
 21
154987.9862517856
 31
0.0
  0
LINE
  5
273
330
17
100
AcDbEntity
  8
STAIR
100
AcDbLine
 10
1199772.056374325
 20
155247.9862517823
 30
0.0
 11
1200972.056374324
 21
155247.9862517856
 31
0.0
  0
LINE
  5
274
330
17
100
AcDbEntity
  8
STAIR
100
AcDbLine
 10
1199772.056374325
 20
155507.9862517823
 30
0.0
 11
1200972.056374324
 21
155507.9862517856
 31
0.0
  0
LINE
  5
275
330
17
100
AcDbEntity
  8
STAIR
100
AcDbLine
 10
1199772.056374325
 20
155767.9862518066
 30
0.0
 11
1200972.056374324
 21
155767.9862517856
 31
0.0
  0
LINE
  5
276
330
17
100
AcDbEntity
  8
STAIR
100
AcDbLine
 10
1199772.056374325
 20
156027.9862517823
 30
0.0
 11
1200972.056374324
 21
156027.9862517856
 31
0.0
  0
LINE
  5
277
330
17
100
AcDbEntity
  8
STAIR
100
AcDbLine
 10
1199772.056374326
 20
156287.9862517823
 30
0.0
 11
1200972.056374324
 21
156287.9862517856
 31
0.0
  0
LINE
  5
278
330
17
100
AcDbEntity
  8
STAIR
100
AcDbLine
 10
1199772.056374326
 20
156547.9862517823
 30
0.0
 11
1200972.056374324
 21
156547.9862517856
 31
0.0
  0
LINE
  5
279
330
17
100
AcDbEntity
  8
STAIR
100
AcDbLine
 10
1199772.056374326
 20
156807.9862517822
 30
0.0
 11
1200972.056374324
 21
156807.9862517856
 31
0.0
  0
LINE
  5
27A
330
17
100
AcDbEntity
  8
STAIR
100
AcDbLine
 10
1199722.056374324
 20
153427.9862517856
 30
0.0
 11
1199722.056374324
 21
156807.9862517856
 31
0.0
  0
LINE
  5
27B
330
17
100
AcDbEntity
  8
STAIR
100
AcDbLine
 10
1199722.056374324
 20
156907.9862517783
 30
0.0
 11
1199522.056374323
 21
156907.9862517783
 31
0.0
  0
LINE
  5
27C
330
17
100
AcDbEntity
  8
STAIR
100
AcDbLine
 10
1199522.056374323
 20
156907.9862517783
 30
0.0
 11
1199522.056374321
 21
155996.3515465028
 31
0.0
  0
LINE
  5
27D
330
17
100
AcDbEntity
  8
STAIR
100
AcDbLine
 10
1199522.056374321
 20
155885.2331275385
 30
0.0
 11
1199522.056374322
 21
153327.9862517959
 31
0.0
  0
LINE
  5
27E
330
17
100
AcDbEntity
  8
STAIR
100
AcDbLine
 10
1199522.056374322
 20
153327.9862517959
 30
0.0
 11
1199722.056374323
 21
153327.9862517959
 31
0.0
  0
LINE
  5
27F
330
17
100
AcDbEntity
  8
STAIR
100
AcDbLine
 10
1199722.056374323
 20
153327.9862517959
 30
0.0
 11
1199722.056374324
 21
156907.9862517783
 31
0.0
  0
LINE
  5
280
330
17
100
AcDbEntity
  8
STAIR
100
AcDbLine
 10
1199772.056374324
 20
156957.9862517783
 30
0.0
 11
1199472.056374323
 21
156957.9862517784
 31
0.0
  0
LINE
  5
281
330
17
100
AcDbEntity
  8
STAIR
100
AcDbLine
 10
1199472.056374323
 20
156957.9862517784
 30
0.0
 11
1199472.056374317
 21
155972.1270596823
 31
0.0
  0
LINE
  5
282
330
17
100
AcDbEntity
  8
STAIR
100
AcDbLine
 10
1199472.056374317
 20
155861.0086407162
 30
0.0
 11
1199472.056374322
 21
153277.9862517959
 31
0.0
  0
LINE
  5
283
330
17
100
AcDbEntity
  8
STAIR
100
AcDbLine
 10
1199472.056374322
 20
153277.9862517959
 30
0.0
 11
1199772.056374323
 21
153277.9862517958
 31
0.0
  0
LINE
  5
284
330
17
100
AcDbEntity
  8
STAIR
100
AcDbLine
 10
1199772.056374323
 20
153277.9862517958
 30
0.0
 11
1199772.056374324
 21
156957.9862517783
 31
0.0
  0
LINE
  5
285
330
17
100
AcDbEntity
  8
STAIR
100
AcDbLine
 10
1198272.056374324
 20
153687.9862517861
 30
0.0
 11
1198272.056374324
 21
152127.9862517861
 31
0.0
  0
LINE
  5
286
330
17
100
AcDbEntity
  8
STAIR
100
AcDbLine
 10
1198272.056374324
 20
152127.9862517861
 30
0.0
 11
1200972.056374324
 21
152127.9862517851
 31
0.0
  0
LINE
  5
287
330
17
100
AcDbEntity
  8
STAIR
100
AcDbLine
 10
1200972.056374324
 20
152127.9862517851
 30
0.0
 11
1200972.056374324
 21
153427.9862517851
 31
0.0
  0
LINE
  5
288
330
17
100
AcDbEntity
  8
STAIR
100
AcDbLine
 10
1200972.056374324
 20
153427.9862517851
 30
0.0
 11
1199772.056374324
 21
153427.9862517795
 31
0.0
  0
LINE
  5
289
330
17
100
AcDbEntity
  8
STAIR
100
AcDbLine
 10
1199722.056374328
 20
153427.9862517795
 30
0.0
 11
1199522.056374324
 21
153427.9862517856
 31
0.0
  0
LINE
  5
28A
330
17
100
AcDbEntity
  8
STAIR
100
AcDbLine
 10
1199472.056374316
 20
153687.9862518028
 30
0.0
 11
1198272.056374324
 21
153687.9862517861
 31
0.0
  0
LINE
  5
28B
330
17
100
AcDbEntity
  8
STAIR
100
AcDbLine
 10
1199522.056374324
 20
153427.9862517856
 30
0.0
 11
1199522.056374324
 21
153687.9862517856
 31
0.0
  0
LINE
  5
28C
330
17
100
AcDbEntity
  8
STAIR
100
AcDbLine
 10
1199522.056374326
 20
156807.9862517856
 30
0.0
 11
1199722.056374324
 21
156807.9862517856
 31
0.0
  0
TEXT
  5
28D
330
17
100
AcDbEntity
  8
PUB_TEXT
100
AcDbText
 10
1198740.673395603
 20
157045.4862517854
 30
0.0
 40
506.3829787234042
  1
上
  7
_TCH_DIM
100
AcDbText
  0
LWPOLYLINE
  5
28E
330
17
100
AcDbEntity
  8
DIM_SYMB
100
AcDbPolyline
 90
3
 70
0
 10
1198897.056374327
 20
156887.9862517854
 10
1198897.056374327
 20
156167.9862517854
 40
120.0
 41
0.0
 10
1198897.056374327
 20
155717.9862517854
  0
LINE
  5
28F
330
17
100
AcDbEntity
  8
STAIR
100
AcDbLine
 10
1198272.056374326
 20
147147.9862517823
 30
0.0
 11
1198272.056374324
 21
147959.6209570359
 31
0.0
  0
LINE
  5
290
330
17
100
AcDbEntity
  8
STAIR
100
AcDbLine
 10
1198272.056374323
 20
148070.7393760559
 30
0.0
 11
1198272.056374324
 21
150267.9862517823
 31
0.0
  0
LINE
  5
291
330
17
100
AcDbEntity
  8
STAIR
100
AcDbLine
 10
1198272.056374326
 20
147147.9862517823
 30
0.0
 11
1199472.056374329
 21
147147.9862517861
 31
0.0
  0
LINE
  5
292
330
17
100
AcDbEntity
  8
STAIR
100
AcDbLine
 10
1198272.056374326
 20
147407.9862517823
 30
0.0
 11
1199472.056374329
 21
147407.9862517861
 31
0.0
  0
LINE
  5
293
330
17
100
AcDbEntity
  8
STAIR
100
AcDbLine
 10
1198272.056374325
 20
147667.9862517823
 30
0.0
 11
1199472.056374329
 21
147667.9862517861
 31
0.0
  0
LINE
  5
294
330
17
100
AcDbEntity
  8
STAIR
100
AcDbLine
 10
1198272.056374325
 20
147927.9862517823
 30
0.0
 11
1199472.056374329
 21
147927.9862517861
 31
0.0
  0
LINE
  5
295
330
17
100
AcDbEntity
  8
STAIR
100
AcDbLine
 10
1198272.056374325
 20
148187.9862517823
 30
0.0
 11
1198514.057116402
 21
148187.9862517892
 31
0.0
  0
LINE
  5
296
330
17
100
AcDbEntity
  8
STAIR
100
AcDbLine
 10
1198743.408557047
 20
148187.98625179
 30
0.0
 11
1199472.056374329
 21
148187.9862517861
 31
0.0
  0
LINE
  5
297
330
17
100
AcDbEntity
  8
STAIR
100
AcDbLine
 10
1198272.056374325
 20
148447.9862517823
 30
0.0
 11
1199050.704191598
 21
148447.9862517901
 31
0.0
  0
LINE
  5
298
330
17
100
AcDbEntity
  8
STAIR
100
AcDbLine
 10
1199280.055632258
 20
148447.9862517909
 30
0.0
 11
1199472.056374329
 21
148447.9862517861
 31
0.0
  0
LINE
  5
299
330
17
100
AcDbEntity
  8
STAIR
100
AcDbLine
 10
1198272.056374325
 20
148707.9862517823
 30
0.0
 11
1199472.056374329
 21
148707.9862517861
 31
0.0
  0
LINE
  5
29A
330
17
100
AcDbEntity
  8
STAIR
100
AcDbLine
 10
1198272.056374325
 20
148967.9862517823
 30
0.0
 11
1199472.056374329
 21
148967.9862517861
 31
0.0
  0
LINE
  5
29B
330
17
100
AcDbEntity
  8
STAIR
100
AcDbLine
 10
1198272.056374325
 20
149227.9862517823
 30
0.0
 11
1199472.056374329
 21
149227.9862517861
 31
0.0
  0
LINE
  5
29C
330
17
100
AcDbEntity
  8
STAIR
100
AcDbLine
 10
1198272.056374325
 20
149487.9862517823
 30
0.0
 11
1199472.056374328
 21
149487.9862517861
 31
0.0
  0
LINE
  5
29D
330
17
100
AcDbEntity
  8
STAIR
100
AcDbLine
 10
1198272.056374325
 20
149747.9862517823
 30
0.0
 11
1199472.056374328
 21
149747.9862517861
 31
0.0
  0
LINE
  5
29E
330
17
100
AcDbEntity
  8
STAIR
100
AcDbLine
 10
1198272.056374324
 20
150007.9862517823
 30
0.0
 11
1199472.056374328
 21
150007.9862517617
 31
0.0
  0
LINE
  5
29F
330
17
100
AcDbEntity
  8
STAIR
100
AcDbLine
 10
1198272.056374324
 20
150267.9862517823
 30
0.0
 11
1199472.056374328
 21
150267.9862517861
 31
0.0
  0
LINE
  5
2A0
330
17
100
AcDbEntity
  8
STAIR
100
AcDbLine
 10
1199522.056374326
 20
147147.9862517828
 30
0.0
 11
1199522.056374323
 21
148565.2331275094
 31
0.0
  0
LINE
  5
2A1
330
17
100
AcDbEntity
  8
STAIR
100
AcDbLine
 10
1199522.056374323
 20
148676.3515465318
 30
0.0
 11
1199522.056374324
 21
150267.9862517828
 31
0.0
  0
LINE
  5
2A2
330
17
100
AcDbEntity
  8
STAIR
100
AcDbLine
 10
1198272.056374323
 20
148070.7393760551
 30
0.0
 11
1198806.464290128
 21
148329.6545263025
 31
0.0
  0
LINE
  5
2A3
330
17
100
AcDbEntity
  8
STAIR
100
AcDbLine
 10
1198272.056374324
 20
147959.6209570366
 30
0.0
 11
1198825.951657374
 21
148227.977536709
 31
0.0
  0
LINE
  5
2A4
330
17
100
AcDbEntity
  8
STAIR
100
AcDbLine
 10
1198825.951657374
 20
148227.977536709
 30
0.0
 11
1198792.364877481
 21
148403.2194054767
 31
0.0
  0
LINE
  5
2A5
330
17
100
AcDbEntity
  8
STAIR
100
AcDbLine
 10
1198792.364877481
 20
148403.2194054767
 30
0.0
 11
1198985.356790275
 21
148215.8684935668
 31
0.0
  0
LINE
  5
2A6
330
17
100
AcDbEntity
  8
STAIR
100
AcDbLine
 10
1198985.356790275
 20
148215.8684935668
 30
0.0
 11
1198950.201582436
 21
148399.293769159
 31
0.0
  0
LINE
  5
2A7
330
17
100
AcDbEntity
  8
STAIR
100
AcDbLine
 10
1198950.201582436
 20
148399.293769159
 30
0.0
 11
1199522.056374323
 21
148676.3515465174
 31
0.0
  0
LINE
  5
2A8
330
17
100
AcDbEntity
  8
STAIR
100
AcDbLine
 10
1198969.688949682
 20
148297.6167795652
 30
0.0
 11
1199522.056374324
 21
148565.2331274952
 31
0.0
  0
LINE
  5
2A9
330
17
100
AcDbEntity
  8
STAIR
100
AcDbLine
 10
1200972.056374324
 20
150527.9862517833
 30
0.0
 11
1200972.056374326
 21
147147.9862517833
 31
0.0
  0
LINE
  5
2AA
330
17
100
AcDbEntity
  8
STAIR
100
AcDbLine
 10
1200972.056374324
 20
150527.9862517833
 30
0.0
 11
1199772.056374328
 21
150527.9862517862
 31
0.0
  0
LINE
  5
2AB
330
17
100
AcDbEntity
  8
STAIR
100
AcDbLine
 10
1200972.056374324
 20
150267.9862517833
 30
0.0
 11
1199772.056374328
 21
150267.9862517862
 31
0.0
  0
LINE
  5
2AC
330
17
100
AcDbEntity
  8
STAIR
100
AcDbLine
 10
1200972.056374325
 20
150007.9862517833
 30
0.0
 11
1199772.056374328
 21
150007.9862517862
 31
0.0
  0
LINE
  5
2AD
330
17
100
AcDbEntity
  8
STAIR
100
AcDbLine
 10
1200972.056374325
 20
149747.9862517833
 30
0.0
 11
1199772.056374328
 21
149747.9862517618
 31
0.0
  0
LINE
  5
2AE
330
17
100
AcDbEntity
  8
STAIR
100
AcDbLine
 10
1200972.056374325
 20
149487.9862517833
 30
0.0
 11
1199772.056374328
 21
149487.9862517618
 31
0.0
  0
LINE
  5
2AF
330
17
100
AcDbEntity
  8
STAIR
100
AcDbLine
 10
1200972.056374325
 20
149227.9862517833
 30
0.0
 11
1199772.056374329
 21
149227.9862517862
 31
0.0
  0
LINE
  5
2B0
330
17
100
AcDbEntity
  8
STAIR
100
AcDbLine
 10
1200972.056374325
 20
148967.9862517833
 30
0.0
 11
1199772.056374329
 21
148967.9862517862
 31
0.0
  0
LINE
  5
2B1
330
17
100
AcDbEntity
  8
STAIR
100
AcDbLine
 10
1200972.056374325
 20
148707.9862517833
 30
0.0
 11
1199772.056374329
 21
148707.9862517862
 31
0.0
  0
LINE
  5
2B2
330
17
100
AcDbEntity
  8
STAIR
100
AcDbLine
 10
1200972.056374325
 20
148447.9862517833
 30
0.0
 11
1199772.056374329
 21
148447.9862517862
 31
0.0
  0
LINE
  5
2B3
330
17
100
AcDbEntity
  8
STAIR
100
AcDbLine
 10
1200972.056374325
 20
148187.9862517833
 30
0.0
 11
1199772.056374329
 21
148187.9862517862
 31
0.0
  0
LINE
  5
2B4
330
17
100
AcDbEntity
  8
STAIR
100
AcDbLine
 10
1200972.056374325
 20
147927.9862517833
 30
0.0
 11
1199772.056374329
 21
147927.9862517618
 31
0.0
  0
LINE
  5
2B5
330
17
100
AcDbEntity
  8
STAIR
100
AcDbLine
 10
1200972.056374325
 20
147667.9862517833
 30
0.0
 11
1199772.056374329
 21
147667.9862517862
 31
0.0
  0
LINE
  5
2B6
330
17
100
AcDbEntity
  8
STAIR
100
AcDbLine
 10
1200972.056374326
 20
147407.9862517833
 30
0.0
 11
1199772.056374329
 21
147407.9862517862
 31
0.0
  0
LINE
  5
2B7
330
17
100
AcDbEntity
  8
STAIR
100
AcDbLine
 10
1200972.056374326
 20
147147.9862517833
 30
0.0
 11
1199772.056374329
 21
147147.9862517862
 31
0.0
  0
LINE
  5
2B8
330
17
100
AcDbEntity
  8
STAIR
100
AcDbLine
 10
1199722.056374324
 20
150527.9862517828
 30
0.0
 11
1199722.056374326
 21
147147.9862517828
 31
0.0
  0
LINE
  5
2B9
330
17
100
AcDbEntity
  8
STAIR
100
AcDbLine
 10
1199772.056374327
 20
146997.9862517442
 30
0.0
 11
1199472.056374327
 21
146997.9862517441
 31
0.0
  0
LINE
  5
2BA
330
17
100
AcDbEntity
  8
STAIR
100
AcDbLine
 10
1199472.056374327
 20
146997.9862517441
 30
0.0
 11
1199472.056374329
 21
148541.0086406948
 31
0.0
  0
LINE
  5
2BB
330
17
100
AcDbEntity
  8
STAIR
100
AcDbLine
 10
1199472.056374329
 20
148652.1270597164
 30
0.0
 11
1199472.056374326
 21
150677.9862517441
 31
0.0
  0
LINE
  5
2BC
330
17
100
AcDbEntity
  8
STAIR
100
AcDbLine
 10
1199472.056374326
 20
150677.9862517441
 30
0.0
 11
1199772.056374326
 21
150677.9862517442
 31
0.0
  0
LINE
  5
2BD
330
17
100
AcDbEntity
  8
STAIR
100
AcDbLine
 10
1199772.056374326
 20
150677.9862517442
 30
0.0
 11
1199772.056374327
 21
146997.9862517442
 31
0.0
  0
LINE
  5
2BE
330
17
100
AcDbEntity
  8
STAIR
100
AcDbLine
 10
1199722.056374327
 20
147047.9862518663
 30
0.0
 11
1199522.056374327
 21
147047.9862518662
 31
0.0
  0
LINE
  5
2BF
330
17
100
AcDbEntity
  8
STAIR
100
AcDbLine
 10
1199522.056374327
 20
147047.9862518662
 30
0.0
 11
1199522.056374331
 21
148565.2331275132
 31
0.0
  0
LINE
  5
2C0
330
17
100
AcDbEntity
  8
STAIR
100
AcDbLine
 10
1199522.056374331
 20
148676.3515465356
 30
0.0
 11
1199522.056374326
 21
150627.9862517441
 31
0.0
  0
LINE
  5
2C1
330
17
100
AcDbEntity
  8
STAIR
100
AcDbLine
 10
1199522.056374326
 20
150627.9862517441
 30
0.0
 11
1199722.056374326
 21
150627.9862517442
 31
0.0
  0
LINE
  5
2C2
330
17
100
AcDbEntity
  8
STAIR
100
AcDbLine
 10
1199722.056374326
 20
150627.9862517442
 30
0.0
 11
1199722.056374327
 21
147047.9862518663
 31
0.0
  0
LINE
  5
2C3
330
17
100
AcDbEntity
  8
STAIR
100
AcDbLine
 10
1200972.056374324
 20
150527.9862517833
 30
0.0
 11
1200972.056374324
 21
151827.9862517833
 31
0.0
  0
LINE
  5
2C4
330
17
100
AcDbEntity
  8
STAIR
100
AcDbLine
 10
1200972.056374324
 20
151827.9862517833
 30
0.0
 11
1198272.056374324
 21
151827.9862517823
 31
0.0
  0
LINE
  5
2C5
330
17
100
AcDbEntity
  8
STAIR
100
AcDbLine
 10
1198272.056374324
 20
151827.9862517823
 30
0.0
 11
1198272.056374324
 21
150267.9862517823
 31
0.0
  0
LINE
  5
2C6
330
17
100
AcDbEntity
  8
STAIR
100
AcDbLine
 10
1198272.056374324
 20
150267.9862517823
 30
0.0
 11
1199472.056374328
 21
150267.9862517861
 31
0.0
  0
LINE
  5
2C7
330
17
100
AcDbEntity
  8
STAIR
100
AcDbLine
 10
1199522.056374324
 20
150527.9862517828
 30
0.0
 11
1199722.05637432
 21
150527.9862517984
 31
0.0
  0
LINE
  5
2C8
330
17
100
AcDbEntity
  8
STAIR
100
AcDbLine
 10
1199772.056374328
 20
150527.9862517985
 30
0.0
 11
1200972.056374324
 21
150527.9862517833
 31
0.0
  0
LINE
  5
2C9
330
17
100
AcDbEntity
  8
STAIR
100
AcDbLine
 10
1199522.056374324
 20
150267.9862517828
 30
0.0
 11
1199522.056374324
 21
150527.9862517828
 31
0.0
  0
LINE
  5
2CA
330
17
100
AcDbEntity
  8
STAIR
100
AcDbLine
 10
1199522.056374326
 20
147147.9862517828
 30
0.0
 11
1199722.056374326
 21
147147.9862517828
 31
0.0
  0
TEXT
  5
2CB
330
17
100
AcDbEntity
  8
PUB_TEXT
100
AcDbText
 10
1198740.673395604
 20
146335.486251783
 30
0.0
 40
506.3829787234042
  1
上
  7
_TCH_DIM
100
AcDbText
  0
LWPOLYLINE
  5
2CC
330
17
100
AcDbEntity
  8
DIM_SYMB
100
AcDbPolyline
 90
3
 70
0
 10
1198897.056374328
 20
147017.986251783
 10
1198897.056374328
 20
147737.986251783
 40
120.0
 41
0.0
 10
1198897.056374328
 20
148187.986251783
  0
INSERT
  5
2CD
330
17
100
AcDbEntity
  8
WINDOW
100
AcDbBlockReference
 66
1
  2
$DorLib2D$00000002
 10
1209725.06390358
 20
132377.9862548873
 30
0.0
 41
2100.0
 42
2100.0
 43
2100.0
 50
180.0000000000076
  0
ATTRIB
  5
2CE
330
2CD
100
AcDbEntity
  8
WINDOW_TEXT
100
AcDbText
 10
1209257.063903579
 20
133741.8031935474
 30
0.0
 40
892.5
  1

 50
7.6333e-12
  7
_TCH_WINDOW
 41
0.5647058823529412
100
AcDbAttribute
  2
A
 70
0
 71
1
 72
0
  0
SEQEND
  5
2CF
330
2CD
100
AcDbEntity
  8
WINDOW
  0
LINE
  5
2D0
330
17
100
AcDbEntity
  8
WALL
100
AcDbLine
 10
1213272.056374324
 20
148677.9862548547
 30
0.0
 11
1213272.056374326
 21
161577.9862517832
 31
0.0
  0
LINE
  5
2D1
330
17
100
AcDbEntity
  8
WALL
100
AcDbLine
 10
1213472.056374323
 20
148577.9862548537
 30
0.0
 11
1213472.056374324
 21
161577.9862517821
 31
0.0
  0
INSERT
  5
2D2
330
17
100
AcDbEntity
  8
WINDOW
100
AcDbBlockReference
 66
1
  2
$DorLib2D$00000002
 10
1169172.072536854
 20
146577.5379096905
 30
0.0
 41
-1800.0
 42
-1800.0
 43
-1800.0
 50
272.0646794735469
  0
ATTRIB
  5
2D3
330
2D2
100
AcDbEntity
  8
WINDOW_TEXT
100
AcDbText
 10
1168421.156747546
 20
146784.618611896
 30
0.0
 40
446.25
  1

 50
272.0646794735469
  7
_TCH_WINDOW
 41
0.5647058823529412
100
AcDbAttribute
  2
A
 70
0
 71
1
 72
0
  0
SEQEND
  5
2D4
330
2D2
100
AcDbEntity
  8
WINDOW
  0
INSERT
  5
2D5
330
17
100
AcDbEntity
  8
WINDOW
100
AcDbBlockReference
 66
1
  2
$DorLib2D$00000002
 10
1169118.032424246
 20
148376.3885547898
 30
0.0
 41
-1800.0
 42
-1800.0
 43
-1800.0
 50
271.3767840393933
  0
ATTRIB
  5
2D6
330
2D5
100
AcDbEntity
  8
WINDOW_TEXT
100
AcDbText
 10
1168369.656914181
 20
148592.4696409414
 30
0.0
 40
446.25
  1

 50
271.3767840393933
  7
_TCH_WINDOW
 41
0.5647058823529412
100
AcDbAttribute
  2
A
 70
0
 71
1
 72
0
  0
SEQEND
  5
2D7
330
2D5
100
AcDbEntity
  8
WINDOW
  0
INSERT
  5
2D8
330
17
100
AcDbEntity
  8
WINDOW
100
AcDbBlockReference
 66
1
  2
$DorLib2D$00000002
 10
1169117.969815224
 20
155576.9779909669
 30
0.0
 41
-1800.0
 42
-1800.0
 43
-1800.0
 50
268.6242123325654
  0
ATTRIB
  5
2D9
330
2D8
100
AcDbEntity
  8
WINDOW_TEXT
100
AcDbText
 10
1168815.719420281
 20
155350.1695543158
 30
0.0
 40
446.25
  1

 50
88.6242123325654
  7
_TCH_WINDOW
 41
0.5647058823529412
100
AcDbAttribute
  2
A
 70
0
 71
1
 72
0
  0
SEQEND
  5
2DA
330
2D8
100
AcDbEntity
  8
WINDOW
  0
INSERT
  5
2DB
330
17
100
AcDbEntity
  8
WINDOW
100
AcDbBlockReference
 66
1
  2
$DorLib2D$00000002
 10
1169171.93181879
 20
157374.5298814965
 30
0.0
 41
-1800.0
 42
-1800.0
 43
-1800.0
 50
267.9368140074482
  0
ATTRIB
  5
2DC
330
2DB
100
AcDbEntity
  8
WINDOW_TEXT
100
AcDbText
 10
1168866.98213795
 20
157151.3638887147
 30
0.0
 40
446.25
  1

 50
87.93681400744819
  7
_TCH_WINDOW
 41
0.5647058823529412
100
AcDbAttribute
  2
A
 70
0
 71
1
 72
0
  0
SEQEND
  5
2DD
330
2DB
100
AcDbEntity
  8
WINDOW
  0
ARC
  5
2DE
330
17
100
AcDbEntity
  8
CURTWALL
100
AcDbCircle
 10
1174073.346310904
 20
134079.2761882938
 30
0.0
 40
3900.000000076039
100
AcDbArc
 50
187.0418279387404
 51
204.241724758568
  0
ARC
  5
2DF
330
17
100
AcDbEntity
  8
CURTWALL
100
AcDbCircle
 10
1174073.346310904
 20
134079.276188294
 30
0.0
 40
3800.000000076189
100
AcDbArc
 50
187.0418279387463
 51
204.9225070398732
  0
ARC
  5
2E0
330
17
100
AcDbEntity
  8
CURTWALL
100
AcDbCircle
 10
1174073.346310904
 20
134079.2761882941
 30
0.0
 40
4000.000000076218
100
AcDbArc
 50
187.0418279387406
 51
203.5983400116982
  0
LINE
  5
2E1
330
17
100
AcDbEntity
  8
WALL
100
AcDbLine
 10
1170501.882385825
 20
171677.9862509286
 30
0.0
 11
1179572.056374318
 21
171677.9862523799
 31
0.0
  0
LINE
  5
2E2
330
17
100
AcDbEntity
  8
WALL
100
AcDbLine
 10
1170407.84899915
 20
171477.9862509136
 30
0.0
 11
1179772.056374325
 21
171477.9862524136
 31
0.0
  0
LINE
  5
2E3
330
17
100
AcDbEntity
  8
WALL
100
AcDbLine
 10
1170501.882385825
 20
171677.9862509286
 30
0.0
 11
1170407.84899915
 21
171477.9862509136
 31
0.0
  0
LINE
  5
2E4
330
17
100
AcDbEntity
  8
CURTWALL
100
AcDbLine
 10
1169859.441198127
 20
135686.0251875508
 30
0.0
 11
1170058.105962831
 21
135709.1395548992
 31
0.0
  0
LINE
  5
2E5
330
17
100
AcDbEntity
  8
CURTWALL
100
AcDbLine
 10
1170300.800865806
 20
133623.2107008702
 30
0.0
 11
1170102.1361011
 21
133600.0963335219
 31
0.0
  0
LINE
  5
2E6
330
17
100
AcDbEntity
  8
WALL
100
AcDbLine
 10
1204172.056369563
 20
148677.9862548547
 30
0.0
 11
1213272.056374324
 21
148677.9862548547
 31
0.0
  0
LINE
  5
2E7
330
17
100
AcDbEntity
  8
WALL
100
AcDbLine
 10
1204172.056369566
 20
148477.9862548521
 30
0.0
 11
1213272.056374342
 21
148477.9862548521
 31
0.0
  0
LINE
  5
2E8
330
17
100
AcDbEntity
  8
WALL
100
AcDbLine
 10
1213272.056374326
 20
161577.9862517832
 30
0.0
 11
1204172.056369563
 21
161577.9862517832
 31
0.0
  0
LINE
  5
2E9
330
17
100
AcDbEntity
  8
WALL
100
AcDbLine
 10
1213372.056374325
 20
161777.9862517826
 30
0.0
 11
1203972.056369563
 21
161777.9862517826
 31
0.0
  0
LINE
  5
2EA
330
17
100
AcDbEntity
  8
WALL
100
AcDbLine
 10
1211472.056374326
 20
132477.9862548871
 30
0.0
 11
1210775.06390358
 21
132477.9862548902
 31
0.0
  0
LINE
  5
2EB
330
17
100
AcDbEntity
  8
WALL
100
AcDbLine
 10
1210775.06390358
 20
132477.9862548902
 30
0.0
 11
1210775.06390358
 21
132277.9862548858
 31
0.0
  0
LINE
  5
2EC
330
17
100
AcDbEntity
  8
WALL
100
AcDbLine
 10
1210775.06390358
 20
132277.9862548858
 30
0.0
 11
1211472.056374326
 21
132277.9862548871
 31
0.0
  0
LINE
  5
2ED
330
17
100
AcDbEntity
  8
WALL
100
AcDbLine
 10
1208172.056374326
 20
132277.9862548866
 30
0.0
 11
1208675.06390358
 21
132277.9862548855
 31
0.0
  0
LINE
  5
2EE
330
17
100
AcDbEntity
  8
WALL
100
AcDbLine
 10
1208675.06390358
 20
132277.9862548855
 30
0.0
 11
1208675.06390358
 21
132477.9862548902
 31
0.0
  0
LINE
  5
2EF
330
17
100
AcDbEntity
  8
WALL
100
AcDbLine
 10
1208675.06390358
 20
132477.9862548902
 30
0.0
 11
1208072.056374325
 21
132477.9862548871
 31
0.0
  0
LINE
  5
2F0
330
17
100
AcDbEntity
  8
WALL
100
AcDbLine
 10
1212560.261556946
 20
132277.986254905
 30
0.0
 11
1211672.056374326
 21
132277.9862549049
 31
0.0
  0
LINE
  5
2F1
330
17
100
AcDbEntity
  8
WALL
100
AcDbLine
 10
1212484.446395433
 20
132477.9862548885
 30
0.0
 11
1211672.056374326
 21
132477.9862548885
 31
0.0
  0
INSERT
  5
2F2
330
17
100
AcDbEntity
  8
COLUMN
100
AcDbBlockReference
  2
_FZH
 10
1172372.05637309
 20
174627.9862160074
 30
0.0
 41
900.0
 42
900.0
 43
900.0
  0
INSERT
  5
2F4
330
17
100
AcDbEntity
  8
COLUMN
100
AcDbBlockReference
  2
_FZH
 10
1182972.056374325
 20
174627.9862160074
 30
0.0
 41
900.0
 42
900.0
 43
900.0
  0
INSERT
  5
2F6
330
17
100
AcDbEntity
  8
COLUMN
100
AcDbBlockReference
  2
_FZH
 10
1191972.056374325
 20
174627.9862160086
 30
0.0
 41
900.0
 42
900.0
 43
900.0
  0
INSERT
  5
2F8
330
17
100
AcDbEntity
  8
COLUMN
100
AcDbBlockReference
  2
_FZH
 10
1200972.056374325
 20
174627.9862160086
 30
0.0
 41
900.0
 42
900.0
 43
900.0
  0
INSERT
  5
2FA
330
17
100
AcDbEntity
  8
COLUMN
100
AcDbBlockReference
  2
_FZH
 10
1211572.056374325
 20
174627.9862160086
 30
0.0
 41
900.0
 42
900.0
 43
900.0
  0
INSERT
  5
2FC
330
17
100
AcDbEntity
  8
COLUMN
100
AcDbBlockReference
  2
_FZH
 10
1214622.05637309
 20
171577.9862160074
 30
0.0
 41
900.0
 42
900.0
 43
900.0
  0
INSERT
  5
2FE
330
17
100
AcDbEntity
  8
COLUMN
100
AcDbBlockReference
  2
_FZH
 10
1214622.05637309
 20
160977.9862517711
 30
0.0
 41
900.0
 42
900.0
 43
900.0
  0
INSERT
  5
300
330
17
100
AcDbEntity
  8
COLUMN
100
AcDbBlockReference
  2
_FZH
 10
1214622.05637309
 20
151977.9862517711
 30
0.0
 41
900.0
 42
900.0
 43
900.0
  0
INSERT
  5
302
330
17
100
AcDbEntity
  8
COLUMN
100
AcDbBlockReference
  2
_FZH
 10
1214622.05637309
 20
142977.986146703
 30
0.0
 41
900.0
 42
900.0
 43
900.0
  0
INSERT
  5
304
330
17
100
AcDbEntity
  8
COLUMN
100
AcDbBlockReference
  2
_FZH
 10
1214622.05637309
 20
132377.9862160086
 30
0.0
 41
900.0
 42
900.0
 43
900.0
  0
INSERT
  5
306
330
17
100
AcDbEntity
  8
COLUMN
100
AcDbBlockReference
  2
_FZH
 10
1211572.05637437
 20
129327.9862160086
 30
0.0
 41
900.0
 42
900.0
 43
900.0
  0
INSERT
  5
308
330
17
100
AcDbEntity
  8
COLUMN
100
AcDbBlockReference
  2
_FZH
 10
1200972.056374325
 20
129327.9862160086
 30
0.0
 41
900.0
 42
900.0
 43
900.0
  0
INSERT
  5
30A
330
17
100
AcDbEntity
  8
COLUMN
100
AcDbBlockReference
  2
_FZH
 10
1191972.056374325
 20
129327.9862160086
 30
0.0
 41
900.0
 42
900.0
 43
900.0
  0
INSERT
  5
30C
330
17
100
AcDbEntity
  8
COLUMN
100
AcDbBlockReference
  2
_FZH
 10
1182972.056374325
 20
129327.9862160086
 30
0.0
 41
900.0
 42
900.0
 43
900.0
  0
INSERT
  5
30E
330
17
100
AcDbEntity
  8
COLUMN
100
AcDbBlockReference
  2
_FZH
 10
1172372.05637309
 20
129327.9862160086
 30
0.0
 41
900.0
 42
900.0
 43
900.0
  0
LINE
  5
310
330
17
100
AcDbEntity
  8
WALL
100
AcDbLine
 10
1192072.056374328
 20
128877.9862160238
 30
0.0
 11
1192072.056374325
 21
127805.4768364066
 31
0.0
  0
LINE
  5
311
330
17
100
AcDbEntity
  8
WALL
100
AcDbLine
 10
1191872.056374311
 20
128877.9862160238
 30
0.0
 11
1191872.056374325
 21
127805.4768364066
 31
0.0
  0
LINE
  5
312
330
17
100
AcDbEntity
  8
WALL
100
AcDbLine
 10
1192072.056374325
 20
127805.4768364066
 30
0.0
 11
1191872.056374325
 21
127805.4768364066
 31
0.0
  0
LWPOLYLINE
  5
313
330
17
100
AcDbEntity
  8
DIM_SYMB
100
AcDbPolyline
 90
6
 70
0
 10
1217838.442745627
 20
176434.8635982302
 10
1192035.57815836
 20
176434.8635982302
 10
1191882.710659968
 20
176014.8635982302
 10
1191734.595996173
 20
176854.8635982302
 10
1191585.57815836
 20
176434.8635982302
 10
1165782.713571093
 20
176434.8635982302
  0
LWPOLYLINE
  5
314
330
17
100
AcDbEntity
  8
DIM_SYMB
100
AcDbPolyline
 90
6
 70
0
 10
1216374.105503708
 20
126802.3717049427
 10
1216374.105503708
 20
152059.4866684064
 10
1215954.105503708
 20
152212.3541667982
 10
1216794.105503708
 20
152360.4688305934
 10
1216374.105503708
 20
152509.4866684064
 10
1216374.105503708
 20
177766.6016318702
  0
LWPOLYLINE
  5
315
330
17
100
AcDbEntity
  8
DIM_SYMB
100
AcDbPolyline
 90
6
 70
0
 10
1217480.282268352
 20
127805.4768364066
 10
1192735.528757987
 20
127805.4768364066
 10
1192582.661259595
 20
127385.4768364066
 10
1192434.5465958
 20
128225.4768364066
 10
1192285.528757987
 20
127805.4768364066
 10
1167540.775247621
 20
127805.4768364066
  0
LINE
  5
316
330
17
100
AcDbEntity
  8
CURTWALL
100
AcDbLine
 10
1169104.396291869
 20
158277.5466658681
 30
0.0
 11
1169304.27024084
 21
158270.3462146717
 31
0.0
  0
LINE
  5
317
330
17
100
AcDbEntity
  8
CURTWALL
100
AcDbLine
 10
1169304.434309351
 20
145681.7250263742
 30
0.0
 11
1169104.560548137
 21
145674.5193652339
 31
0.0
  0
LINE
  5
318
330
17
100
AcDbEntity
  8
CURTWALL
100
AcDbLine
 10
1168996.43510082
 20
149273.7259780532
 30
0.0
 11
1169196.380966185
 21
149278.5314851008
 31
0.0
  0
LINE
  5
319
330
17
100
AcDbEntity
  8
CURTWALL
100
AcDbLine
 10
1169196.334045391
 20
154674.8364232713
 30
0.0
 11
1168996.388096489
 21
154679.6384532655
 31
0.0
  0
LINE
  5
31A
330
17
100
AcDbEntity
  8
DIM_ELEV
100
AcDbLine
 10
1165706.24187278
 20
152868.9433241837
 30
0.0
 11
1165106.24187278
 21
153468.9433241837
 31
0.0
  0
LINE
  5
31B
330
17
100
AcDbEntity
  8
DIM_ELEV
100
AcDbLine
 10
1165706.24187278
 20
152868.9433241837
 30
0.0
 11
1166306.24187278
 21
153468.9433241837
 31
0.0
  0
LINE
  5
31C
330
17
100
AcDbEntity
  8
DIM_ELEV
100
AcDbLine
 10
1165106.24187278
 20
153468.9433241837
 30
0.0
 11
1167961.294199953
 21
153468.9433241837
 31
0.0
  0
TEXT
  5
31D
330
17
100
AcDbEntity
  8
PUB_TEXT
100
AcDbText
 10
1165781.294199953
 20
153648.9433241837
 30
0.0
 40
600.0
  1
-0.150
  7
H-Z
 41
0.7
100
AcDbText
  0
TEXT
  5
31E
330
17
100
AcDbEntity
  8
房间名
100
AcDbText
 10
1192544.035147172
 20
151823.8967629175
 30
0.0
 40
771.6312056737588
  1
电梯厅
  7
_TCH_SPACE
100
AcDbText
  0
LINE
  5
31F
330
17
100
AcDbEntity
  8
CURTWALL
100
AcDbLine
 10
1171315.62986394
 20
172634.4127616125
 30
0.0
 11
1170351.00301343
 21
173599.0396121199
 31
0.0
  0
LINE
  5
320
330
17
100
AcDbEntity
  8
CURTWALL
100
AcDbLine
 10
1167522.575888764
 20
176427.4667367949
 30
0.0
 11
1167515.179027324
 21
176434.8635982302
 31
0.0
  0
LINE
  5
321
330
17
100
AcDbEntity
  8
CURTWALL
100
AcDbLine
 10
1171457.981784967
 20
172633.4821968232
 30
0.0
 11
1170421.713691589
 21
173669.7502901954
 31
0.0
  0
LINE
  5
322
330
17
100
AcDbEntity
  8
CURTWALL
100
AcDbLine
 10
1170421.713691589
 20
173669.7502901954
 30
0.0
 11
1170280.292335354
 21
173528.3289339603
 31
0.0
  0
LINE
  5
323
330
17
100
AcDbEntity
  8
CURTWALL
100
AcDbLine
 10
1170280.292335354
 20
173528.3289339603
 30
0.0
 11
1171175.092529336
 21
172633.5287399796
 31
0.0
  0
LINE
  5
324
330
17
100
AcDbEntity
  8
CURTWALL
100
AcDbLine
 10
1167444.468349205
 20
176364.1529201116
 30
0.0
 11
1167451.865210609
 21
176356.7560587065
 31
0.0
  0
LINE
  5
325
330
17
100
AcDbEntity
  8
CURTWALL
100
AcDbLine
 10
1167451.865210609
 20
176356.7560587065
 30
0.0
 11
1167593.286566844
 21
176498.1774149415
 31
0.0
  0
LINE
  5
326
330
17
100
AcDbEntity
  8
CURTWALL
100
AcDbLine
 10
1167593.286566844
 20
176498.1774149415
 30
0.0
 11
1167585.889705442
 21
176505.5742763489
 31
0.0
  0
LINE
  5
327
330
17
100
AcDbEntity
  8
CURTWALL
100
AcDbLine
 10
1167585.889705442
 20
176505.5742763489
 30
0.0
 11
1167444.468349205
 21
176364.1529201116
 31
0.0
  0
INSERT
  5
328
330
17
100
AcDbEntity
  8
WINDOW
100
AcDbBlockReference
 66
1
  2
$DorLib2D$00000002
 10
1168229.682669917
 20
175720.3599556371
 30
0.0
 41
-2000.0
 42
2000.0
 43
-2000.0
 50
134.9999999999908
  0
ATTRIB
  5
329
330
328
100
AcDbEntity
  8
WINDOW_TEXT
100
AcDbText
 10
1167979.452167223
 20
177014.4506630541
 30
0.0
 40
2082.5
  1

 50
314.9999999999908
  7
_TCH_WINDOW
 41
0.5647058823529412
100
AcDbAttribute
  2
A
 70
0
 71
1
 72
0
  0
SEQEND
  5
32A
330
328
100
AcDbEntity
  8
WINDOW
  0
INSERT
  5
32B
330
17
100
AcDbEntity
  8
WINDOW
100
AcDbBlockReference
 66
1
  2
$DorLib2D$00000002
 10
1169643.89623229
 20
174306.1463932636
 30
0.0
 41
-2000.0
 42
2000.0
 43
-2000.0
 50
134.9999999999908
  0
ATTRIB
  5
32C
330
32B
100
AcDbEntity
  8
WINDOW_TEXT
100
AcDbText
 10
1169395.660718862
 20
175602.2320899466
 30
0.0
 40
2082.5
  1

 50
314.9999999999908
  7
_TCH_WINDOW
 41
0.5647058823529412
100
AcDbAttribute
  2
A
 70
0
 71
1
 72
0
  0
SEQEND
  5
32D
330
32B
100
AcDbEntity
  8
WINDOW
  0
ARC
  5
32E
330
17
100
AcDbEntity
  8
CURTWALL
100
AcDbCircle
 10
1174073.346310834
 20
169876.6963152449
 30
0.0
 40
3900.000000004135
100
AcDbArc
 50
135.0000000054602
 51
152.4922095928126
  0
ARC
  5
32F
330
17
100
AcDbEntity
  8
CURTWALL
100
AcDbCircle
 10
1174073.346310834
 20
169876.6963152449
 30
0.0
 40
3800.000000004239
100
AcDbArc
 50
133.4920422513724
 51
151.7041998775559
  0
ARC
  5
330
330
17
100
AcDbEntity
  8
CURTWALL
100
AcDbCircle
 10
1174073.346310834
 20
169876.6963152459
 30
0.0
 40
4000.000000003565
100
AcDbArc
 50
136.4325437429028
 51
153.235623934787
  0
LINE
  5
331
330
17
100
AcDbEntity
  8
WALL
100
AcDbLine
 10
1182912.056374875
 20
168777.9862517724
 30
0.0
 11
1191872.056374877
 21
168777.9862517801
 31
0.0
  0
LINE
  5
332
330
17
100
AcDbEntity
  8
WALL
100
AcDbLine
 10
1182712.056374882
 20
168577.9862517724
 30
0.0
 11
1191872.056374885
 21
168577.9862517802
 31
0.0
  0
LINE
  5
333
330
17
100
AcDbEntity
  8
WALL
100
AcDbLine
 10
1191872.056374885
 20
168577.9862517802
 30
0.0
 11
1191872.056374887
 21
167777.9862517929
 31
0.0
  0
LINE
  5
334
330
17
100
AcDbEntity
  8
WALL
100
AcDbLine
 10
1191872.056374887
 20
167777.9862517929
 30
0.0
 11
1192072.056374885
 21
167777.9862517929
 31
0.0
  0
LINE
  5
335
330
17
100
AcDbEntity
  8
WALL
100
AcDbLine
 10
1192072.056374885
 20
167777.9862517929
 30
0.0
 11
1192072.056374883
 21
168677.9862517796
 31
0.0
  0
LINE
  5
336
330
17
100
AcDbEntity
  8
WALL
100
AcDbLine
 10
1191872.056374883
 20
161777.9862517781
 30
0.0
 11
1192072.056374883
 21
161777.9862517781
 31
0.0
  0
LINE
  5
337
330
17
100
AcDbEntity
  8
WALL
100
AcDbLine
 10
1200272.056374326
 20
129977.9862548887
 30
0.0
 11
1200272.056374326
 21
132277.9862548722
 31
0.0
  0
LINE
  5
338
330
17
100
AcDbEntity
  8
WALL
100
AcDbLine
 10
1200472.056374326
 20
130177.9862548848
 30
0.0
 11
1200472.056374326
 21
132277.9862548865
 31
0.0
  0
LINE
  5
339
330
17
100
AcDbEntity
  8
WALL
100
AcDbLine
 10
1183072.056374329
 20
132277.9862548726
 30
0.0
 11
1183072.05637433
 21
133427.9862517929
 31
0.0
  0
LINE
  5
33A
330
17
100
AcDbEntity
  8
WALL
100
AcDbLine
 10
1183072.05637433
 20
133427.9862517929
 30
0.0
 11
1182872.056374323
 21
133427.9862517929
 31
0.0
  0
LINE
  5
33B
330
17
100
AcDbEntity
  8
WALL
100
AcDbLine
 10
1182872.056374323
 20
133427.9862517929
 30
0.0
 11
1182872.056374328
 21
132477.9862548775
 31
0.0
  0
LINE
  5
33C
330
17
100
AcDbEntity
  8
WALL
100
AcDbLine
 10
1182872.056374328
 20
136477.9862517785
 30
0.0
 11
1182872.056374323
 21
135527.9862517929
 31
0.0
  0
LINE
  5
33D
330
17
100
AcDbEntity
  8
WALL
100
AcDbLine
 10
1182872.056374323
 20
135527.9862517929
 30
0.0
 11
1183072.05637433
 21
135527.9862517929
 31
0.0
  0
LINE
  5
33E
330
17
100
AcDbEntity
  8
WALL
100
AcDbLine
 10
1183072.05637433
 20
135527.9862517929
 30
0.0
 11
1183072.056374329
 21
136477.9862517802
 31
0.0
  0
LINE
  5
33F
330
17
100
AcDbEntity
  8
WALL
100
AcDbLine
 10
1182872.056374328
 20
136477.9862517785
 30
0.0
 11
1169976.116832325
 21
136477.9862517784
 31
0.0
  0
LINE
  5
340
330
17
100
AcDbEntity
  8
WALL
100
AcDbLine
 10
1182972.05637433
 20
136677.9862517784
 30
0.0
 11
1169955.44656185
 21
136677.9862517784
 31
0.0
  0
INSERT
  5
341
330
17
100
AcDbEntity
  8
WINDOW
100
AcDbBlockReference
 66
1
  2
$DorLib2D$00000002
 10
1182972.056374328
 20
134477.9862517886
 30
0.0
 41
2100.0
 42
-2100.0
 43
2100.0
 50
90.0
  0
ATTRIB
  5
342
330
341
100
AcDbEntity
  8
WINDOW_TEXT
100
AcDbText
 10
1183793.306374328
 20
134009.9862517885
 30
0.0
 40
892.5
  1

 50
90.0
  7
_TCH_WINDOW
 41
0.5647058823529412
100
AcDbAttribute
  2
A
 70
0
 71
1
 72
0
  0
SEQEND
  5
343
330
341
100
AcDbEntity
  8
WINDOW
  0
LINE
  5
344
330
17
100
AcDbEntity
  8
WALL
100
AcDbLine
 10
1199522.056374321
 20
152127.9862517796
 30
0.0
 11
1199522.056374328
 21
157007.9862517804
 31
0.0
  0
LINE
  5
345
330
17
100
AcDbEntity
  8
WALL
100
AcDbLine
 10
1199722.056374327
 20
152127.9862517796
 30
0.0
 11
1199722.056374333
 21
156807.9862517798
 31
0.0
  0
LINE
  5
346
330
17
100
AcDbEntity
  8
WALL
100
AcDbLine
 10
1200972.056374328
 20
157007.9862517832
 30
0.0
 11
1200972.056374328
 21
156807.9862517832
 31
0.0
  0
LINE
  5
347
330
17
100
AcDbEntity
  8
WALL
100
AcDbLine
 10
1199722.056374333
 20
156807.9862517798
 30
0.0
 11
1199972.056374321
 21
156807.9862517945
 31
0.0
  0
LINE
  5
348
330
17
100
AcDbEntity
  8
WALL
100
AcDbLine
 10
1199972.056374321
 20
156807.9862517945
 30
0.0
 11
1199972.056374321
 21
157007.9862517946
 31
0.0
  0
LINE
  5
349
330
17
100
AcDbEntity
  8
WALL
100
AcDbLine
 10
1199972.056374321
 20
157007.9862517946
 30
0.0
 11
1199522.056374328
 21
157007.9862517804
 31
0.0
  0
INSERT
  5
34A
330
17
100
AcDbEntity
  8
WINDOW
100
AcDbBlockReference
 66
1
  2
$DorLib2D$00000001
 10
1200472.056374324
 20
156907.9862517832
 30
0.0
 41
-1000.0
 42
-1000.0
 43
-1000.0
 50
180.0
  0
ATTRIB
  5
34B
330
34A
100
AcDbEntity
  8
WINDOW_TEXT
100
AcDbText
 10
1200160.056374324
 20
155960.4862517832
 30
0.0
 40
595.0
  1

  7
_TCH_WINDOW
 41
0.5647058823529412
100
AcDbAttribute
  2
A
 70
0
 71
1
 72
0
  0
SEQEND
  5
34C
330
34A
100
AcDbEntity
  8
WINDOW
  0
LINE
  5
34D
330
17
100
AcDbEntity
  8
WALL
100
AcDbLine
 10
1199722.056374332
 20
151827.9862517769
 30
0.0
 11
1199722.056374338
 21
147147.9862517707
 31
0.0
  0
LINE
  5
34E
330
17
100
AcDbEntity
  8
WALL
100
AcDbLine
 10
1199522.056374326
 20
151827.9862517769
 30
0.0
 11
1199522.056374332
 21
146947.9862517701
 31
0.0
  0
LINE
  5
34F
330
17
100
AcDbEntity
  8
WALL
100
AcDbLine
 10
1200972.056374328
 20
147147.9862517852
 30
0.0
 11
1200972.056374328
 21
146947.9862517852
 31
0.0
  0
LINE
  5
350
330
17
100
AcDbEntity
  8
WALL
100
AcDbLine
 10
1199522.056374332
 20
146947.9862517701
 30
0.0
 11
1199972.056374321
 21
146947.9862517893
 31
0.0
  0
LINE
  5
351
330
17
100
AcDbEntity
  8
WALL
100
AcDbLine
 10
1199972.056374321
 20
146947.9862517893
 30
0.0
 11
1199972.056374321
 21
147147.9862517865
 31
0.0
  0
LINE
  5
352
330
17
100
AcDbEntity
  8
WALL
100
AcDbLine
 10
1199972.056374321
 20
147147.9862517865
 30
0.0
 11
1199722.056374338
 21
147147.9862517707
 31
0.0
  0
INSERT
  5
353
330
17
100
AcDbEntity
  8
WINDOW
100
AcDbBlockReference
 66
1
  2
$DorLib2D$00000001
 10
1200472.056374324
 20
147047.9862517852
 30
0.0
 41
-1000.0
 42
1000.0
 43
-1000.0
 50
180.0
  0
ATTRIB
  5
354
330
353
100
AcDbEntity
  8
WINDOW_TEXT
100
AcDbText
 10
1200160.056374324
 20
147400.4862517852
 30
0.0
 40
595.0
  1

  7
_TCH_WINDOW
 41
0.5647058823529412
100
AcDbAttribute
  2
A
 70
0
 71
1
 72
0
  0
SEQEND
  5
355
330
353
100
AcDbEntity
  8
WINDOW
  0
LINE
  5
356
330
17
100
AcDbEntity
  8
WALL
100
AcDbLine
 10
1199622.056374326
 20
151827.9862517842
 30
0.0
 11
1198272.056374337
 21
151827.98625178
 31
0.0
  0
LINE
  5
357
330
17
100
AcDbEntity
  8
WALL
100
AcDbLine
 10
1199622.056374326
 20
152127.9862517842
 30
0.0
 11
1198272.056374313
 21
152127.9862517796
 31
0.0
  0
TEXT
  5
358
330
17
100
AcDbEntity
  8
PUB_TEXT
100
AcDbText
 10
1200204.636161562
 20
146495.6882198065
 30
0.0
 40
506.3829787234042
  1
下
  7
_TCH_DIM
100
AcDbText
  0
LWPOLYLINE
  5
359
330
17
100
AcDbEntity
  8
DIM_SYMB
100
AcDbPolyline
 90
3
 70
0
 10
1200347.056374328
 20
147178.1882198065
 10
1200347.056374328
 20
149847.9862517874
 40
120.0
 41
0.0
 10
1200347.056374328
 20
150297.9862517874
  0
TEXT
  5
35A
330
17
100
AcDbEntity
  8
PUB_TEXT
100
AcDbText
 10
1200204.636161546
 20
156965.4862518166
 30
0.0
 40
506.3829787234042
  1
下
  7
_TCH_DIM
100
AcDbText
  0
LWPOLYLINE
  5
35B
330
17
100
AcDbEntity
  8
DIM_SYMB
100
AcDbPolyline
 90
3
 70
0
 10
1200347.056374312
 20
156807.9862518166
 10
1200347.056374312
 20
154138.1882198356
 40
120.0
 41
0.0
 10
1200347.056374312
 20
153688.1882198356
  0
LINE
  5
35C
330
17
100
AcDbEntity
  8
WALL
100
AcDbLine
 10
1211472.056374326
 20
130177.9862548909
 30
0.0
 11
1210775.06390358
 21
130177.9862548897
 31
0.0
  0
LINE
  5
35D
330
17
100
AcDbEntity
  8
WALL
100
AcDbLine
 10
1210775.06390358
 20
130177.9862548897
 30
0.0
 11
1210775.06390358
 21
129977.9862548939
 31
0.0
  0
LINE
  5
35E
330
17
100
AcDbEntity
  8
WALL
100
AcDbLine
 10
1210775.06390358
 20
129977.9862548939
 30
0.0
 11
1211672.056374326
 21
129977.9862548909
 31
0.0
  0
LINE
  5
35F
330
17
100
AcDbEntity
  8
WALL
100
AcDbLine
 10
1208072.056374325
 20
129977.9862548871
 30
0.0
 11
1208675.06390358
 21
129977.9862548917
 31
0.0
  0
LINE
  5
360
330
17
100
AcDbEntity
  8
WALL
100
AcDbLine
 10
1208675.06390358
 20
129977.9862548917
 30
0.0
 11
1208675.06390358
 21
130177.9862548894
 31
0.0
  0
LINE
  5
361
330
17
100
AcDbEntity
  8
WALL
100
AcDbLine
 10
1208675.06390358
 20
130177.9862548894
 30
0.0
 11
1208172.056374326
 21
130177.9862548904
 31
0.0
  0
INSERT
  5
362
330
17
100
AcDbEntity
  8
WINDOW
100
AcDbBlockReference
 66
1
  2
$DorLib2D$00000002
 10
1209725.06390358
 20
130077.9862548873
 30
0.0
 41
2100.0
 42
2100.0
 43
2100.0
 50
180.0000000000074
  0
ATTRIB
  5
363
330
362
100
AcDbEntity
  8
WINDOW_TEXT
100
AcDbText
 10
1209257.06390358
 20
131441.8031935474
 30
0.0
 40
892.5
  1

 50
7.3789e-12
  7
_TCH_WINDOW
 41
0.5647058823529412
100
AcDbAttribute
  2
A
 70
0
 71
1
 72
0
  0
SEQEND
  5
364
330
362
100
AcDbEntity
  8
WINDOW
  0
LINE
  5
365
330
17
100
AcDbEntity
  8
WALL
100
AcDbLine
 10
1200472.056374326
 20
132477.9862548865
 30
0.0
 11
1200472.056374321
 21
132869.1275039291
 31
0.0
  0
LINE
  5
366
330
17
100
AcDbEntity
  8
WALL
100
AcDbLine
 10
1200472.056374321
 20
132869.1275039291
 30
0.0
 11
1200272.05637433
 21
132869.1275039291
 31
0.0
  0
LINE
  5
367
330
17
100
AcDbEntity
  8
WALL
100
AcDbLine
 10
1200272.05637433
 20
132869.1275039291
 30
0.0
 11
1200272.056374325
 21
132477.9862548874
 31
0.0
  0
LINE
  5
368
330
17
100
AcDbEntity
  8
WALL
100
AcDbLine
 10
1200272.056374325
 20
136477.9862525558
 30
0.0
 11
1200272.05637433
 21
134969.127503891
 31
0.0
  0
LINE
  5
369
330
17
100
AcDbEntity
  8
WALL
100
AcDbLine
 10
1200272.05637433
 20
134969.127503891
 30
0.0
 11
1200472.056374321
 21
134969.127503891
 31
0.0
  0
LINE
  5
36A
330
17
100
AcDbEntity
  8
WALL
100
AcDbLine
 10
1200472.056374321
 20
134969.127503891
 30
0.0
 11
1200472.056374326
 21
136477.9862526088
 31
0.0
  0
LINE
  5
36B
330
17
100
AcDbEntity
  8
WALL
100
AcDbLine
 10
1211672.056374326
 20
132277.9862549049
 30
0.0
 11
1211672.056374326
 21
129977.9862548909
 31
0.0
  0
LINE
  5
36C
330
17
100
AcDbEntity
  8
WALL
100
AcDbLine
 10
1211472.056374326
 20
132277.9862548871
 30
0.0
 11
1211472.056374326
 21
130177.9862548909
 31
0.0
  0
LINE
  5
36D
330
17
100
AcDbEntity
  8
WALL
100
AcDbLine
 10
1208172.056374326
 20
132277.9862548866
 30
0.0
 11
1208172.056374326
 21
130177.9862548904
 31
0.0
  0
LINE
  5
36E
330
17
100
AcDbEntity
  8
WALL
100
AcDbLine
 10
1207972.056374326
 20
132277.9862548875
 30
0.0
 11
1207972.056374326
 21
130177.9862548857
 31
0.0
  0
LINE
  5
36F
330
17
100
AcDbEntity
  8
WALL
100
AcDbLine
 10
1207972.056374326
 20
132277.9862548875
 30
0.0
 11
1200472.056374326
 21
132277.9862548865
 31
0.0
  0
LINE
  5
370
330
17
100
AcDbEntity
  8
WALL
100
AcDbLine
 10
1208072.056374325
 20
132477.9862548871
 30
0.0
 11
1200472.056374326
 21
132477.9862548865
 31
0.0
  0
LINE
  5
371
330
17
100
AcDbEntity
  8
WALL
100
AcDbLine
 10
1208072.056374325
 20
129977.9862548871
 30
0.0
 11
1200272.056374326
 21
129977.9862548887
 31
0.0
  0
LINE
  5
372
330
17
100
AcDbEntity
  8
WALL
100
AcDbLine
 10
1207972.056374326
 20
130177.9862548857
 30
0.0
 11
1200472.056374326
 21
130177.9862548848
 31
0.0
  0
INSERT
  5
373
330
17
100
AcDbEntity
  8
WINDOW
100
AcDbBlockReference
 66
1
  2
$DorLib2D$00000002
 10
1198372.056374325
 20
133919.1275039229
 30
0.0
 41
2100.0
 42
2100.0
 43
2100.0
 50
90.0
  0
ATTRIB
  5
374
330
373
100
AcDbEntity
  8
WINDOW_TEXT
100
AcDbText
 10
1199798.201479218
 20
133451.1275039232
 30
0.0
 40
892.5
  1

 50
90.0
  7
_TCH_WINDOW
 41
0.5647058823529412
100
AcDbAttribute
  2
A
 70
0
 71
1
 72
0
  0
SEQEND
  5
375
330
373
100
AcDbEntity
  8
WINDOW
  0
LINE
  5
376
330
17
100
AcDbEntity
  8
WALL
100
AcDbLine
 10
1195872.056374326
 20
136677.9862521632
 30
0.0
 11
1195872.056374324
 21
142177.9862517842
 31
0.0
  0
LINE
  5
377
330
17
100
AcDbEntity
  8
WALL
100
AcDbLine
 10
1196072.05637432
 20
136477.9862521828
 30
0.0
 11
1196072.056374324
 21
142177.9862517842
 31
0.0
  0
LINE
  5
378
330
17
100
AcDbEntity
  8
WALL
100
AcDbLine
 10
1195872.056374324
 20
142177.9862517842
 30
0.0
 11
1196072.056374324
 21
142177.9862517842
 31
0.0
  0
LINE
  5
379
330
17
100
AcDbEntity
  8
WALL
100
AcDbLine
 10
1198472.056374322
 20
132477.9862548872
 30
0.0
 11
1198472.056374318
 21
132869.1275039291
 31
0.0
  0
LINE
  5
37A
330
17
100
AcDbEntity
  8
WALL
100
AcDbLine
 10
1198472.056374318
 20
132869.1275039291
 30
0.0
 11
1198272.056374324
 21
132869.1275039291
 31
0.0
  0
LINE
  5
37B
330
17
100
AcDbEntity
  8
WALL
100
AcDbLine
 10
1198272.056374324
 20
132869.1275039291
 30
0.0
 11
1198272.056374321
 21
132277.9862548719
 31
0.0
  0
LINE
  5
37C
330
17
100
AcDbEntity
  8
WALL
100
AcDbLine
 10
1198272.056374325
 20
136577.9862521238
 30
0.0
 11
1198272.056374326
 21
134969.127503891
 31
0.0
  0
LINE
  5
37D
330
17
100
AcDbEntity
  8
WALL
100
AcDbLine
 10
1198272.056374326
 20
134969.127503891
 30
0.0
 11
1198472.056374318
 21
134969.127503891
 31
0.0
  0
LINE
  5
37E
330
17
100
AcDbEntity
  8
WALL
100
AcDbLine
 10
1198472.056374318
 20
134969.127503891
 30
0.0
 11
1198472.056374322
 21
136477.9862521396
 31
0.0
  0
LINE
  5
37F
330
17
100
AcDbEntity
  8
WALL
100
AcDbLine
 10
1196072.05637432
 20
136477.9862521828
 30
0.0
 11
1192072.056374324
 21
136477.9862517897
 31
0.0
  0
LINE
  5
380
330
17
100
AcDbEntity
  8
WALL
100
AcDbLine
 10
1195872.056374326
 20
136677.9862521632
 30
0.0
 11
1191972.056374315
 21
136677.9862517784
 31
0.0
  0
LINE
  5
381
330
17
100
AcDbEntity
  8
WALL
100
AcDbLine
 10
1198272.056374325
 20
136577.9862521238
 30
0.0
 11
1198272.056374326
 21
140077.9862517778
 31
0.0
  0
LINE
  5
382
330
17
100
AcDbEntity
  8
WALL
100
AcDbLine
 10
1198472.056374328
 20
136677.9862521549
 30
0.0
 11
1198472.056374328
 21
139877.9862517767
 31
0.0
  0
LINE
  5
383
330
17
100
AcDbEntity
  8
WALL
100
AcDbLine
 10
1200272.056374325
 20
136477.9862525558
 30
0.0
 11
1198472.056374322
 21
136477.9862521396
 31
0.0
  0
LINE
  5
384
330
17
100
AcDbEntity
  8
WALL
100
AcDbLine
 10
1200372.056374302
 20
136677.9862525862
 30
0.0
 11
1198472.056374328
 21
136677.9862521549
 31
0.0
  0
LINE
  5
385
330
17
100
AcDbEntity
  8
WALL
100
AcDbLine
 10
1200272.056374326
 20
132277.9862548722
 30
0.0
 11
1198272.056374321
 21
132277.9862548719
 31
0.0
  0
LINE
  5
386
330
17
100
AcDbEntity
  8
WALL
100
AcDbLine
 10
1200272.056374325
 20
132477.9862548874
 30
0.0
 11
1198472.056374322
 21
132477.9862548872
 31
0.0
  0
TEXT
  5
387
330
17
100
AcDbEntity
  8
房间名
100
AcDbText
 10
1208923.778985976
 20
130610.4192496214
 30
0.0
 40
771.6312056737588
  1
前室
  7
_TCH_SPACE
100
AcDbText
  0
TEXT
  5
388
330
17
100
AcDbEntity
  8
房间名
100
AcDbText
 10
1198449.769661073
 20
133618.8764737502
 30
0.0
 40
771.6312056737588
  1
前室
  7
_TCH_SPACE
100
AcDbText
  0
ENDSEC
  0
SECTION
  2
OBJECTS
  0
DICTIONARY
  5
A
330
0
100
AcDbDictionary
281
1
  3
ACAD_COLOR
350
B
  3
ACAD_GROUP
350
C
  3
ACAD_LAYOUT
350
D
  3
ACAD_MATERIAL
350
E
  3
ACAD_MLEADERSTYLE
350
F
  3
ACAD_MLINESTYLE
350
10
  3
ACAD_PLOTSETTINGS
350
11
  3
ACAD_PLOTSTYLENAME
350
12
  3
ACAD_SCALELIST
350
14
  3
ACAD_TABLESTYLE
350
15
  3
ACAD_VISUALSTYLE
350
16
  3
EZDXF_META
350
2D
  0
DICTIONARY
  5
B
330
A
100
AcDbDictionary
281
1
  0
DICTIONARY
  5
C
330
A
100
AcDbDictionary
281
1
  0
DICTIONARY
  5
D
330
A
100
AcDbDictionary
281
1
  3
Model
350
1A
  3
Layout1
350
1E
  0
DICTIONARY
  5
E
330
A
100
AcDbDictionary
281
1
  3
ByBlock
350
1F
  3
ByLayer
350
20
  3
Global
350
21
  0
DICTIONARY
  5
F
330
A
100
AcDbDictionary
281
1
  3
Standard
350
2C
  0
DICTIONARY
  5
10
330
A
100
AcDbDictionary
281
1
  3
Standard
350
22
  0
DICTIONARY
  5
11
330
A
100
AcDbDictionary
281
1
  0
ACDBDICTIONARYWDFLT
  5
12
330
A
100
AcDbDictionary
281
1
  3
Normal
350
13
100
AcDbDictionaryWithDefault
340
13
  0
ACDBPLACEHOLDER
  5
13
330
12
  0
DICTIONARY
  5
14
330
A
100
AcDbDictionary
281
1
  0
DICTIONARY
  5
15
330
A
100
AcDbDictionary
281
1
  0
DICTIONARY
  5
16
330
A
100
AcDbDictionary
281
1
  0
LAYOUT
  5
1A
330
D
100
AcDbPlotSettings
  1

  4
A3
  6

 40
7.5
 41
20.0
 42
7.5
 43
20.0
 44
420.0
 45
297.0
 46
0.0
 47
0.0
 48
0.0
 49
0.0
140
0.0
141
0.0
142
1.0
143
1.0
 70
1024
 72
1
 73
0
 74
5
  7

 75
16
 76
0
 77
2
 78
300
147
1.0
148
0.0
149
0.0
100
AcDbLayout
  1
Model
 70
1
 71
0
 10
0.0
 20
0.0
 11
420.0
 21
297.0
 12
0.0
 22
0.0
 32
0.0
 14
1e+20
 24
1e+20
 34
1e+20
 15
-1e+20
 25
-1e+20
 35
-1e+20
146
0.0
 13
0.0
 23
0.0
 33
0.0
 16
1.0
 26
0.0
 36
0.0
 17
0.0
 27
1.0
 37
0.0
 76
1
330
17
  0
LAYOUT
  5
1E
330
D
100
AcDbPlotSettings
  1

  4
A3
  6

 40
7.5
 41
20.0
 42
7.5
 43
20.0
 44
420.0
 45
297.0
 46
0.0
 47
0.0
 48
0.0
 49
0.0
140
0.0
141
0.0
142
1.0
143
1.0
 70
0
 72
1
 73
0
 74
5
  7

 75
16
 76
0
 77
2
 78
300
147
1.0
148
0.0
149
0.0
100
AcDbLayout
  1
Layout1
 70
1
 71
1
 10
0.0
 20
0.0
 11
420.0
 21
297.0
 12
0.0
 22
0.0
 32
0.0
 14
1e+20
 24
1e+20
 34
1e+20
 15
-1e+20
 25
-1e+20
 35
-1e+20
146
0.0
 13
0.0
 23
0.0
 33
0.0
 16
1.0
 26
0.0
 36
0.0
 17
0.0
 27
1.0
 37
0.0
 76
1
330
1B
  0
MATERIAL
  5
1F
102
{ACAD_REACTORS
330
E
102
}
330
E
100
AcDbMaterial
  1
ByBlock
  2

 70
0
 40
1.0
 71
1
 41
1.0
 91
-1023410177
 42
1.0
 72
1
  3

 73
1
 74
1
 75
1
 44
0.5
 73
0
 45
1.0
 46
1.0
 77
1
  4

 78
1
 79
1
170
1
 48
1.0
171
1
  6

172
1
173
1
174
1
140
1.0
141
1.0
175
1
  7

176
1
177
1
178
1
143
1.0
179
1
  8

270
1
271
1
272
1
145
1.0
146
1.0
273
1
  9

274
1
275
1
276
1
 42
1.0
 72
1
  3

 73
1
 74
1
 75
1
 94
63
  0
MATERIAL
  5
20
102
{ACAD_REACTORS
330
E
102
}
330
E
100
AcDbMaterial
  1
ByLayer
  2

 70
0
 40
1.0
 71
1
 41
1.0
 91
-1023410177
 42
1.0
 72
1
  3

 73
1
 74
1
 75
1
 44
0.5
 73
0
 45
1.0
 46
1.0
 77
1
  4

 78
1
 79
1
170
1
 48
1.0
171
1
  6

172
1
173
1
174
1
140
1.0
141
1.0
175
1
  7

176
1
177
1
178
1
143
1.0
179
1
  8

270
1
271
1
272
1
145
1.0
146
1.0
273
1
  9

274
1
275
1
276
1
 42
1.0
 72
1
  3

 73
1
 74
1
 75
1
 94
63
  0
MATERIAL
  5
21
102
{ACAD_REACTORS
330
E
102
}
330
E
100
AcDbMaterial
  1
Global
  2

 70
0
 40
1.0
 71
1
 41
1.0
 91
-1023410177
 42
1.0
 72
1
  3

 73
1
 74
1
 75
1
 44
0.5
 73
0
 45
1.0
 46
1.0
 77
1
  4

 78
1
 79
1
170
1
 48
1.0
171
1
  6

172
1
173
1
174
1
140
1.0
141
1.0
175
1
  7

176
1
177
1
178
1
143
1.0
179
1
  8

270
1
271
1
272
1
145
1.0
146
1.0
273
1
  9

274
1
275
1
276
1
 42
1.0
 72
1
  3

 73
1
 74
1
 75
1
 94
63
  0
MLINESTYLE
  5
22
102
{ACAD_REACTORS
330
10
102
}
330
10
100
AcDbMlineStyle
  2
Standard
 70
0
  3

 62
256
 51
90.0
 52
90.0
 71
2
 49
0.5
 62
256
  6
BYLAYER
 49
-0.5
 62
256
  6
BYLAYER
  0
MLEADERSTYLE
  5
2C
102
{ACAD_REACTORS
330
F
102
}
330
F
100
AcDbMLeaderStyle
179
2
170
2
171
1
172
0
 90
2
 40
0.0
 41
0.0
173
1
 91
-1056964608
 92
-2
290
1
 42
2.0
291
1
 43
8.0
  3
Standard
 44
4.0
300

342
29
174
1
175
1
176
0
178
1
 93
-1056964608
 45
4.0
292
0
297
0
 46
4.0
 94
-1056964608
 47
1.0
 49
1.0
140
1.0
294
1
141
0.0
177
0
142
1.0
295
0
296
0
143
3.75
271
0
272
9
273
9
  0
DICTIONARY
  5
2D
330
A
100
AcDbDictionary
280
1
281
1
  3
CREATED_BY_EZDXF
350
2E
  3
WRITTEN_BY_EZDXF
350
3F2
  0
DICTIONARYVAR
  5
2E
330
2D
100
DictionaryVariables
280
0
  1
1.4.4 @ 2026-08-12T07:31:06.193685+00:00
  0
DICTIONARYVAR
  5
3F2
330
2D
100
DictionaryVariables
280
0
  1
1.4.4 @ 2026-08-12T07:31:06.208414+00:00
  0
ENDSEC
  0
EOF
