  0
SECTION
  2
HEADER
  9
$ACADVER
  1
AC1032
  9
$ACADMAINTVER
 90
4
  9
$DWGCODEPAGE
  3
ANSI_1252
  9
$LASTSAVEDBY
  1
ezdxf
  9
$REQUIREDVERSIONS
160
0
  9
$INSBASE
 10
0.0
 20
0.0
 30
0.0
  9
$EXTMIN
 10
1e+20
 20
1e+20
 30
1e+20
  9
$EXTMAX
 10
-1e+20
 20
-1e+20
 30
-1e+20
  9
$LIMMIN
 10
0.0
 20
0.0
  9
$LIMMAX
 10
420.0
 20
297.0
  9
$ORTHOMODE
 70
0
  9
$REGENMODE
 70
1
  9
$FILLMODE
 70
1
  9
$QTEXTMODE
 70
0
  9
$MIRRTEXT
 70
1
  9
$LTSCALE
 40
1.0
  9
$ATTMODE
 70
1
  9
$TEXTSIZE
 40
2.5
  9
$TRACEWID
 40
1.0
  9
$TEXTSTYLE
  7
Standard
  9
$CLAYER
  8
0
  9
$CELTYPE
  6
ByLayer
  9
$CECOLOR
 62
256
  9
$CELTSCALE
 40
1.0
  9
$DISPSILH
 70
0
  9
$DIMSCALE
 40
1.0
  9
$DIMASZ
 40
2.5
  9
$DIMEXO
 40
0.625
  9
$DIMDLI
 40
3.75
  9
$DIMRND
 40
0.0
  9
$DIMDLE
 40
0.0
  9
$DIMEXE
 40
1.25
  9
$DIMTP
 40
0.0
  9
$DIMTM
 40
0.0
  9
$DIMTXT
 40
2.5
  9
$DIMCEN
 40
2.5
  9
$DIMTSZ
 40
0.0
  9
$DIMTOL
 70
0
  9
$DIMLIM
 70
0
  9
$DIMTIH
 70
0
  9
$DIMTOH
 70
0
  9
$DIMSE1
 70
0
  9
$DIMSE2
 70
0
  9
$DIMTAD
 70
1
  9
$DIMZIN
 70
8
  9
$DIMBLK
  1

  9
$DIMASO
 70
1
  9
$DIMSHO
 70
1
  9
$DIMPOST
  1

  9
$DIMAPOST
  1

  9
$DIMALT
 70
0
  9
$DIMALTD
 70
3
  9
$DIMALTF
 40
0.03937007874
  9
$DIMLFAC
 40
1.0
  9
$DIMTOFL
 70
1
  9
$DIMTVP
 40
0.0
  9
$DIMTIX
 70
0
  9
$DIMSOXD
 70
0
  9
$DIMSAH
 70
0
  9
$DIMBLK1
  1

  9
$DIMBLK2
  1

  9
$DIMSTYLE
  2
ISO-25
  9
$DIMCLRD
 70
0
  9
$DIMCLRE
 70
0
  9
$DIMCLRT
 70
0
  9
$DIMTFAC
 40
1.0
  9
$DIMGAP
 40
0.625
  9
$DIMJUST
 70
0
  9
$DIMSD1
 70
0
  9
$DIMSD2
 70
0
  9
$DIMTOLJ
 70
0
  9
$DIMTZIN
 70
8
  9
$DIMALTZ
 70
0
  9
$DIMALTTZ
 70
0
  9
$DIMUPT
 70
0
  9
$DIMDEC
 70
2
  9
$DIMTDEC
 70
2
  9
$DIMALTU
 70
2
  9
$DIMALTTD
 70
3
  9
$DIMTXSTY
  7
Standard
  9
$DIMAUNIT
 70
0
  9
$DIMADEC
 70
0
  9
$DIMALTRND
 40
0.0
  9
$DIMAZIN
 70
0
  9
$DIMDSEP
 70
44
  9
$DIMATFIT
 70
3
  9
$DIMFRAC
 70
0
  9
$DIMLDRBLK
  1

  9
$DIMLUNIT
 70
2
  9
$DIMLWD
 70
-2
  9
$DIMLWE
 70
-2
  9
$DIMTMOVE
 70
0
  9
$DIMFXL
 40
1.0
  9
$DIMFXLON
 70
0
  9
$DIMJOGANG
 40
0.785398163397
  9
$DIMTFILL
 70
0
  9
$DIMTFILLCLR
 70
0
  9
$DIMARCSYM
 70
0
  9
$DIMLTYPE
  6

  9
$DIMLTEX1
  6

  9
$DIMLTEX2
  6

  9
$DIMTXTDIRECTION
 70
0
  9
$LUNITS
 70
2
  9
$LUPREC
 70
4
  9
$SKETCHINC
 40
1.0
  9
$FILLETRAD
 40
10.0
  9
$AUNITS
 70
0
  9
$AUPREC
 70
2
  9
$MENU
  1
.
  9
$ELEVATION
 40
0.0
  9
$PELEVATION
 40
0.0
  9
$THICKNESS
 40
0.0
  9
$LIMCHECK
 70
0
  9
$CHAMFERA
 40
0.0
  9
$CHAMFERB
 40
0.0
  9
$CHAMFERC
 40
0.0
  9
$CHAMFERD
 40
0.0
  9
$SKPOLY
 70
0
  9
$TDCREATE
 40
2461265.6465625
  9
$TDUCREATE
 40
2458532.153996898
  9
$TDUPDATE
 40
2461265.6465625
  9
$TDUUPDATE
 40
2458532.1544311
  9
$TDINDWG
 40
0.0
  9
$TDUSRTIMER
 40
0.0
  9
$USRTIMER
 70
1
  9
$ANGBASE
 50
0.0
  9
$ANGDIR
 70
0
  9
$PDMODE
 70
0
  9
$PDSIZE
 40
0.0
  9
$PLINEWID
 40
0.0
  9
$SPLFRAME
 70
0
  9
$SPLINETYPE
 70
6
  9
$SPLINESEGS
 70
8
  9
$HANDSEED
  5
46D
  9
$SURFTAB1
 70
6
  9
$SURFTAB2
 70
6
  9
$SURFTYPE
 70
6
  9
$SURFU
 70
6
  9
$SURFV
 70
6
  9
$UCSBASE
  2

  9
$UCSNAME
  2

  9
$UCSORG
 10
0.0
 20
0.0
 30
0.0
  9
$UCSXDIR
 10
1.0
 20
0.0
 30
0.0
  9
$UCSYDIR
 10
0.0
 20
1.0
 30
0.0
  9
$UCSORTHOREF
  2

  9
$UCSORTHOVIEW
 70
0
  9
$UCSORGTOP
 10
0.0
 20
0.0
 30
0.0
  9
$UCSORGBOTTOM
 10
0.0
 20
0.0
 30
0.0
  9
$UCSORGLEFT
 10
0.0
 20
0.0
 30
0.0
  9
$UCSORGRIGHT
 10
0.0
 20
0.0
 30
0.0
  9
$UCSORGFRONT
 10
0.0
 20
0.0
 30
0.0
  9
$UCSORGBACK
 10
0.0
 20
0.0
 30
0.0
  9
$PUCSBASE
  2

  9
$PUCSNAME
  2

  9
$PUCSORG
 10
0.0
 20
0.0
 30
0.0
  9
$PUCSXDIR
 10
1.0
 20
0.0
 30
0.0
  9
$PUCSYDIR
 10
0.0
 20
1.0
 30
0.0
  9
$PUCSORTHOREF
  2

  9
$PUCSORTHOVIEW
 70
0
  9
$PUCSORGTOP
 10
0.0
 20
0.0
 30
0.0
  9
$PUCSORGBOTTOM
 10
0.0
 20
0.0
 30
0.0
  9
$PUCSORGLEFT
 10
0.0
 20
0.0
 30
0.0
  9
$PUCSORGRIGHT
 10
0.0
 20
0.0
 30
0.0
  9
$PUCSORGFRONT
 10
0.0
 20
0.0
 30
0.0
  9
$PUCSORGBACK
 10
0.0
 20
0.0
 30
0.0
  9
$USERI1
 70
0
  9
$USERI2
 70
0
  9
$USERI3
 70
0
  9
$USERI4
 70
0
  9
$USERI5
 70
0
  9
$USERR1
 40
0.0
  9
$USERR2
 40
0.0
  9
$USERR3
 40
0.0
  9
$USERR4
 40
0.0
  9
$USERR5
 40
0.0
  9
$WORLDVIEW
 70
1
  9
$SHADEDGE
 70
3
  9
$SHADEDIF
 70
70
  9
$TILEMODE
 70
1
  9
$MAXACTVP
 70
64
  9
$PINSBASE
 10
0.0
 20
0.0
 30
0.0
  9
$PLIMCHECK
 70
0
  9
$PEXTMIN
 10
1e+20
 20
1e+20
 30
1e+20
  9
$PEXTMAX
 10
-1e+20
 20
-1e+20
 30
-1e+20
  9
$PLIMMIN
 10
0.0
 20
0.0
  9
$PLIMMAX
 10
420.0
 20
297.0
  9
$UNITMODE
 70
0
  9
$VISRETAIN
 70
1
  9
$PLINEGEN
 70
0
  9
$PSLTSCALE
 70
1
  9
$TREEDEPTH
 70
3020
  9
$CMLSTYLE
  2
Standard
  9
$CMLJUST
 70
0
  9
$CMLSCALE
 40
20.0
  9
$PROXYGRAPHICS
 70
1
  9
$MEASUREMENT
 70
1
  9
$CELWEIGHT
370
-1
  9
$ENDCAPS
280
0
  9
$JOINSTYLE
280
0
  9
$LWDISPLAY
290
0
  9
$INSUNITS
 70
4
  9
$HYPERLINKBASE
  1

  9
$STYLESHEET
  1

  9
$XEDIT
290
1
  9
$CEPSNTYPE
380
0
  9
$PSTYLEMODE
290
1
  9
$FINGERPRINTGUID
  2
{2FF2A0AE-8EDD-4BB7-9A0A-3A25F41568F0}
  9
$VERSIONGUID
  2
{5F6BC9F9-6C04-403A-9FC6-561295F0C681}
  9
$EXTNAMES
290
1
  9
$PSVPSCALE
 40
0.0
  9
$OLESTARTUP
290
0
  9
$SORTENTS
280
127
  9
$INDEXCTL
280
0
  9
$HIDETEXT
280
1
  9
$XCLIPFRAME
280
1
  9
$HALOGAP
280
0
  9
$OBSCOLOR
 70
257
  9
$OBSLTYPE
280
0
  9
$INTERSECTIONDISPLAY
280
0
  9
$INTERSECTIONCOLOR
 70
257
  9
$DIMASSOC
280
2
  9
$PROJECTNAME
  1

  9
$CAMERADISPLAY
290
0
  9
$LENSLENGTH
 40
50.0
  9
$CAMERAHEIGHT
 40
0.0
  9
$STEPSPERSEC
 40
24.0
  9
$STEPSIZE
 40
100.0
  9
$3DDWFPREC
 40
2.0
  9
$PSOLWIDTH
 40
0.005
  9
$PSOLHEIGHT
 40
0.08
  9
$LOFTANG1
 40
1.570796326795
  9
$LOFTANG2
 40
1.570796326795
  9
$LOFTMAG1
 40
0.0
  9
$LOFTMAG2
 40
0.0
  9
$LOFTPARAM
 70
7
  9
$LOFTNORMALS
280
1
  9
$LATITUDE
 40
37.795
  9
$LONGITUDE
 40
-122.394
  9
$NORTHDIRECTION
 40
0.0
  9
$TIMEZONE
 70
-8000
  9
$LIGHTGLYPHDISPLAY
280
1
  9
$TILEMODELIGHTSYNCH
280
1
  9
$CMATERIAL
347
20
  9
$SOLIDHIST
280
0
  9
$SHOWHIST
280
1
  9
$DWFFRAME
280
2
  9
$DGNFRAME
280
2
  9
$REALWORLDSCALE
290
1
  9
$INTERFERECOLOR
 62
256
  9
$CSHADOW
280
0
  9
$SHADOWPLANELOCATION
 40
0.0
  0
ENDSEC
  0
SECTION
  2
CLASSES
  0
CLASS
  1
ACDBDICTIONARYWDFLT
  2
AcDbDictionaryWithDefault
  3
ObjectDBX Classes
 90
0
 91
0
280
0
281
0
  0
CLASS
  1
SUN
  2
AcDbSun
  3
SCENEOE
 90
1153
 91
0
280
0
281
0
  0
CLASS
  1
VISUALSTYLE
  2
AcDbVisualStyle
  3
ObjectDBX Classes
 90
4095
 91
0
280
0
281
0
  0
CLASS
  1
MATERIAL
  2
AcDbMaterial
  3
ObjectDBX Classes
 90
1153
 91
0
280
0
281
0
  0
CLASS
  1
SCALE
  2
AcDbScale
  3
ObjectDBX Classes
 90
1153
 91
0
280
0
281
0
  0
CLASS
  1
TABLESTYLE
  2
AcDbTableStyle
  3
ObjectDBX Classes
 90
4095
 91
0
280
0
281
0
  0
CLASS
  1
MLEADERSTYLE
  2
AcDbMLeaderStyle
  3
ACDB_MLEADERSTYLE_CLASS
 90
4095
 91
0
280
0
281
0
  0
CLASS
  1
DICTIONARYVAR
  2
AcDbDictionaryVar
  3
ObjectDBX Classes
 90
0
 91
0
280
0
281
0
  0
CLASS
  1
CELLSTYLEMAP
  2
AcDbCellStyleMap
  3
ObjectDBX Classes
 90
1152
 91
0
280
0
281
0
  0
CLASS
  1
MENTALRAYRENDERSETTINGS
  2
AcDbMentalRayRenderSettings
  3
SCENEOE
 90
1024
 91
0
280
0
281
0
  0
CLASS
  1
ACDBDETAILVIEWSTYLE
  2
AcDbDetailViewStyle
  3
ObjectDBX Classes
 90
1025
 91
0
280
0
281
0
  0
CLASS
  1
ACDBSECTIONVIEWSTYLE
  2
AcDbSectionViewStyle
  3
ObjectDBX Classes
 90
1025
 91
0
280
0
281
0
  0
CLASS
  1
RASTERVARIABLES
  2
AcDbRasterVariables
  3
ISM
 90
0
 91
0
280
0
281
0
  0
CLASS
  1
LAYOUT
  2
AcDbLayout
  3
ObjectDBX Classes
 90
0
 91
0
280
0
281
0
  0
CLASS
  1
ACDBPLACEHOLDER
  2
AcDbPlaceHolder
  3
ObjectDBX Classes
 90
0
 91
0
280
0
281
0
  0
ENDSEC
  0
SECTION
  2
TABLES
  0
TABLE
  2
VPORT
  5
8
330
0
100
AcDbSymbolTable
 70
1
  0
VPORT
  5
23
330
8
100
AcDbSymbolTableRecord
100
AcDbViewportTableRecord
  2
*Active
 70
0
 10
0.0
 20
0.0
 11
1.0
 21
1.0
 12
0.0
 22
0.0
 13
0.0
 23
0.0
 14
0.5
 24
0.5
 15
0.5
 25
0.5
 16
0.0
 26
0.0
 36
1.0
 17
0.0
 27
0.0
 37
0.0
 40
1000.0
 41
1.34
 42
50.0
 43
0.0
 44
0.0
 50
0.0
 51
0.0
 71
0
 72
1000
 73
1
 74
3
 75
0
 76
0
 77
0
 78
0
281
0
 65
0
146
0.0
  0
ENDTAB
  0
TABLE
  2
LTYPE
  5
2
330
0
100
AcDbSymbolTable
 70
5
  0
LTYPE
  5
24
330
2
100
AcDbSymbolTableRecord
100
AcDbLinetypeTableRecord
  2
ByBlock
 70
0
  3

 72
65
 73
0
 40
0.0
  0
LTYPE
  5
25
330
2
100
AcDbSymbolTableRecord
100
AcDbLinetypeTableRecord
  2
ByLayer
 70
0
  3

 72
65
 73
0
 40
0.0
  0
LTYPE
  5
26
330
2
100
AcDbSymbolTableRecord
100
AcDbLinetypeTableRecord
  2
Continuous
 70
0
  3

 72
65
 73
0
 40
0.0
  0
LTYPE
  5
466
330
2
100
AcDbSymbolTableRecord
100
AcDbLinetypeTableRecord
  2
1-12商铺首层$0$DASH
 70
0
  3
__ __ __ __ __ __ __ __ __ __ __ __ __ __ __ __
 72
65
 73
2
 40
0.35
 49
0.25
 74
0
 49
-0.1
 74
0
  0
LTYPE
  5
467
330
2
100
AcDbSymbolTableRecord
100
AcDbLinetypeTableRecord
  2
DOTE
 70
0
  3
____ . ____ . ____ . ____ . ____ . ____ . ____ 
 72
65
 73
4
 40
2.42
 49
2.0
 74
0
 49
-0.2
 74
0
 49
0.02
 74
0
 49
-0.2
 74
0
  0
ENDTAB
  0
TABLE
  2
LAYER
  5
1
330
0
100
AcDbSymbolTable
 70
18
  0
LAYER
  5
27
330
1
100
AcDbSymbolTableRecord
100
AcDbLayerTableRecord
  2
0
 70
0
 62
7
  6
Continuous
370
-3
390
13
347
21
  0
LAYER
  5
28
330
1
100
AcDbSymbolTableRecord
100
AcDbLayerTableRecord
  2
Defpoints
 70
0
 62
7
  6
Continuous
290
0
370
-3
390
13
347
21
  0
LAYER
  5
2F
330
1
100
AcDbSymbolTableRecord
100
AcDbLayerTableRecord
  2
PUB_TEXT
 70
0
 62
7
  6
Continuous
370
-3
390
13
347
21
  0
LAYER
  5
30
330
1
100
AcDbSymbolTableRecord
100
AcDbLayerTableRecord
  2
DIM_SYMB
 70
0
 62
7
  6
Continuous
370
-3
390
13
347
21
  0
LAYER
  5
31
330
1
100
AcDbSymbolTableRecord
100
AcDbLayerTableRecord
  2
WALL
 70
0
 62
7
  6
Continuous
370
-3
390
13
347
21
  0
LAYER
  5
32
330
1
100
AcDbSymbolTableRecord
100
AcDbLayerTableRecord
  2
STAIR
 70
0
 62
7
  6
Continuous
370
-3
390
13
347
21
  0
LAYER
  5
33
330
1
100
AcDbSymbolTableRecord
100
AcDbLayerTableRecord
  2
WINDOW
 70
0
 62
7
  6
Continuous
370
-3
390
13
347
21
  0
LAYER
  5
34
330
1
100
AcDbSymbolTableRecord
100
AcDbLayerTableRecord
  2
房间名
 70
0
 62
7
  6
Continuous
370
-3
390
13
347
21
  0
LAYER
  5
35
330
1
100
AcDbSymbolTableRecord
100
AcDbLayerTableRecord
  2
A-LIFT
 70
0
 62
7
  6
Continuous
370
-3
390
13
347
21
  0
LAYER
  5
36
330
1
100
AcDbSymbolTableRecord
100
AcDbLayerTableRecord
  2
3T_GLASS
 70
0
 62
7
  6
Continuous
370
-3
390
13
347
21
  0
LAYER
  5
37
330
1
100
AcDbSymbolTableRecord
100
AcDbLayerTableRecord
  2
J-厨卫
 70
0
 62
7
  6
Continuous
370
-3
390
13
347
21
  0
LAYER
  5
38
330
1
100
AcDbSymbolTableRecord
100
AcDbLayerTableRecord
  2
家具
 70
0
 62
7
  6
Continuous
370
-3
390
13
347
21
  0
LAYER
  5
39
330
1
100
AcDbSymbolTableRecord
100
AcDbLayerTableRecord
  2
CURTWALL
 70
0
 62
7
  6
Continuous
370
-3
390
13
347
21
  0
LAYER
  5
3A
330
1
100
AcDbSymbolTableRecord
100
AcDbLayerTableRecord
  2
cc
 70
0
 62
7
  6
Continuous
370
-3
390
13
347
21
  0
LAYER
  5
3B
330
1
100
AcDbSymbolTableRecord
100
AcDbLayerTableRecord
  2
变形线
 70
0
 62
7
  6
Continuous
370
-3
390
13
347
21
  0
LAYER
  5
463
330
1
100
AcDbSymbolTableRecord
100
AcDbLayerTableRecord
  2
PUB_HATCH
 70
0
 62
252
  6
Continuous
370
-3
390
13
347
21
348
0
  0
LAYER
  5
464
330
1
100
AcDbSymbolTableRecord
100
AcDbLayerTableRecord
  2
DOTE
 70
0
 62
16
  6
DOTE
370
-3
390
13
347
21
348
0
  0
LAYER
  5
465
330
1
100
AcDbSymbolTableRecord
100
AcDbLayerTableRecord
  2
COLUMN
 70
0
 62
9
  6
Continuous
370
-3
390
9
347
C
348
0
  0
ENDTAB
  0
TABLE
  2
STYLE
  5
5
330
0
100
AcDbSymbolTable
 70
3
  0
STYLE
  5
29
330
5
100
AcDbSymbolTableRecord
100
AcDbTextStyleTableRecord
  2
Standard
 70
0
 40
0.0
 41
1.0
 50
0.0
 71
0
 42
2.5
  3
txt
  4

  0
STYLE
  5
468
330
5
100
AcDbSymbolTableRecord
100
AcDbTextStyleTableRecord
  2
_TCH_DIM
 70
0
 40
0.0
 41
1.0
 50
0.0
 71
0
 42
350.0
  3
SIMPLEX
  4
GBCBIG
  0
STYLE
  5
469
330
5
100
AcDbSymbolTableRecord
100
AcDbTextStyleTableRecord
  2
_TCH_SPACE
 70
0
 40
5.0
 41
1.0
 50
0.0
 71
0
 42
350.0
  3
SIMPLEX
  4
GBCBIG
  0
ENDTAB
  0
TABLE
  2
VIEW
  5
7
330
0
100
AcDbSymbolTable
 70
0
  0
ENDTAB
  0
TABLE
  2
UCS
  5
6
330
0
100
AcDbSymbolTable
 70
0
  0
ENDTAB
  0
TABLE
  2
APPID
  5
3
330
0
100
AcDbSymbolTable
 70
3
  0
APPID
  5
2A
330
3
100
AcDbSymbolTableRecord
100
AcDbRegAppTableRecord
  2
ACAD
 70
0
  0
APPID
  5
46A
330
3
100
AcDbSymbolTableRecord
100
AcDbRegAppTableRecord
  2
HATCHBACKGROUNDCOLOR
 70
0
  0
APPID
  5
46B
330
3
100
AcDbSymbolTableRecord
100
AcDbRegAppTableRecord
  2
EZDXF
 70
0
  0
ENDTAB
  0
TABLE
  2
DIMSTYLE
  5
4
330
0
100
AcDbSymbolTable
 70
1
100
AcDbDimStyleTable
  0
DIMSTYLE
105
2B
330
4
100
AcDbSymbolTableRecord
100
AcDbDimStyleTableRecord
  2
Standard
 70
0
 40
1.0
 41
2.5
 42
0.625
 43
3.75
 44
1.25
 45
0.0
 46
0.0
 47
0.0
 48
0.0
 49
2.5
140
2.5
141
2.5
142
0.0
143
0.03937007874
144
1.0
145
0.0
146
1.0
147
0.625
148
0.0
 69
0
 70
0
 71
0
 72
0
 73
0
 74
0
 75
0
 76
0
 77
1
 78
8
 79
3
170
0
171
3
172
1
173
0
174
0
175
0
176
0
177
0
178
0
179
2
271
2
272
2
273
2
274
3
275
0
276
0
277
2
278
44
279
0
280
0
281
0
282
0
283
0
284
8
285
0
286
0
288
0
289
3
290
0
371
-2
372
-2
  0
ENDTAB
  0
TABLE
  2
BLOCK_RECORD
  5
9
330
0
100
AcDbSymbolTable
 70
12
  0
BLOCK_RECORD
  5
17
330
9
100
AcDbSymbolTableRecord
100
AcDbBlockTableRecord
  2
*Model_Space
340
1A
 70
0
280
1
281
0
  0
BLOCK_RECORD
  5
1B
330
9
100
AcDbSymbolTableRecord
100
AcDbBlockTableRecord
  2
*Paper_Space
340
1E
 70
0
280
1
281
0
  0
BLOCK_RECORD
  5
3F1
330
9
100
AcDbSymbolTableRecord
100
AcDbBlockTableRecord
  2
224
340
0
 70
0
280
1
281
0
  0
BLOCK_RECORD
  5
3F9
330
9
100
AcDbSymbolTableRecord
100
AcDbBlockTableRecord
  2
A$C4F7F3484
340
0
 70
0
280
1
281
0
  0
BLOCK_RECORD
  5
41D
330
9
100
AcDbSymbolTableRecord
100
AcDbBlockTableRecord
  2
$lvtry$00000219
340
0
 70
0
280
1
281
0
  0
BLOCK_RECORD
  5
42B
330
9
100
AcDbSymbolTableRecord
100
AcDbBlockTableRecord
  2
$DorLib2D$00000001
340
0
 70
0
280
1
281
0
  0
BLOCK_RECORD
  5
433
330
9
100
AcDbSymbolTableRecord
100
AcDbBlockTableRecord
  2
$TCHSYS$APDOOR2D
340
0
 70
0
280
1
281
0
  0
BLOCK_RECORD
  5
438
330
9
100
AcDbSymbolTableRecord
100
AcDbBlockTableRecord
  2
$DorLib2D$00000114
340
0
 70
0
280
1
281
0
  0
BLOCK_RECORD
  5
43D
330
9
100
AcDbSymbolTableRecord
100
AcDbBlockTableRecord
  2
$DORLIB2D$00000127
340
0
 70
0
280
1
281
0
  0
BLOCK_RECORD
  5
449
330
9
100
AcDbSymbolTableRecord
100
AcDbBlockTableRecord
  2
$DorLib2D$00000002
340
0
 70
0
280
1
281
0
  0
BLOCK_RECORD
  5
456
330
9
100
AcDbSymbolTableRecord
100
AcDbBlockTableRecord
  2
_YZH
340
0
 70
0
280
1
281
0
  0
BLOCK_RECORD
  5
45E
330
9
100
AcDbSymbolTableRecord
100
AcDbBlockTableRecord
  2
_FZH
340
0
 70
0
280
1
281
0
  0
ENDTAB
  0
ENDSEC
  0
SECTION
  2
BLOCKS
  0
BLOCK
  5
18
330
17
100
AcDbEntity
  8
0
100
AcDbBlockBegin
  2
*Model_Space
 70
0
 10
0.0
 20
0.0
 30
0.0
  3
*Model_Space
  1

  0
ENDBLK
  5
19
330
17
100
AcDbEntity
  8
0
100
AcDbBlockEnd
  0
BLOCK
  5
1C
330
1B
100
AcDbEntity
  8
0
100
AcDbBlockBegin
  2
*Paper_Space
 70
0
 10
0.0
 20
0.0
 30
0.0
  3
*Paper_Space
  1

  0
ENDBLK
  5
1D
330
1B
100
AcDbEntity
  8
0
100
AcDbBlockEnd
  0
BLOCK
  5
3F2
330
3F1
100
AcDbEntity
  8
0
100
AcDbBlockBegin
  2
224
 70
0
 10
0.0
 20
0.0
 30
0.0
  3
224
  1

  0
LINE
  5
3F4
330
3F1
100
AcDbEntity
  8
A-LIFT
100
AcDbLine
 10
-949.9998986683786
 20
-1675.000354647637
 30
0.0
 11
949.9998986721039
 21
-175.0005573034286
 31
0.0
  0
LINE
  5
3F5
330
3F1
100
AcDbEntity
  8
A-LIFT
100
AcDbLine
 10
949.9998986758292
 20
-1675.000354647637
 30
0.0
 11
-949.9998986721039
 21
-175.0005573034286
 31
0.0
  0
LWPOLYLINE
  5
3F6
330
3F1
100
AcDbEntity
  8
A-LIFT
100
AcDbPolyline
 90
4
 70
1
 10
1000.0
 20
-125.0004559755325
 10
1000.0
 20
-1725.000455975533
 10
-999.9999999962747
 20
-1725.000455975533
 10
-999.9999999962747
 20
-125.0004559755325
  0
LWPOLYLINE
  5
3F7
330
3F1
100
AcDbEntity
  8
A-LIFT
100
AcDbPolyline
 90
4
 70
1
 10
-949.9998986683786
 20
-1675.000354647637
 10
-949.9998986683786
 20
-175.0005573034286
 10
949.9998986721039
 20
-175.0005573034286
 10
949.9998986721039
 20
-1675.000354647637
  0
LWPOLYLINE
  5
3F8
330
3F1
100
AcDbEntity
  8
A-LIFT
100
AcDbPolyline
 90
4
 70
1
 10
699.9993920326233
 20
100.0
 10
699.9993920326233
 20
-50.00030398368835
 10
-699.9993920326233
 20
-50.00030398368835
 10
-699.9993920326233
 20
100.0
  0
ENDBLK
  5
3F3
330
3F1
100
AcDbEntity
  8
0
100
AcDbBlockEnd
  0
BLOCK
  5
3FA
330
3F9
100
AcDbEntity
  8
0
100
AcDbBlockBegin
  2
A$C4F7F3484
 70
0
 10
0.0
 20
0.0
 30
0.0
  3
A$C4F7F3484
  1

  0
LWPOLYLINE
  5
3FC
330
3F9
100
AcDbEntity
  8
DOTE
  6
1-12商铺首层$0$DASH
 62
1
 48
3.0
100
AcDbPolyline
 90
9
 70
0
 10
30868.53773646034
 20
27389.08568167326
 42
0.3439193699172574
 10
27389.08568166592
 20
30868.53773646744
 42
0.0615290114541297
 10
-9389.085681665456
 20
30868.53773646744
 42
0.343919369917245
 10
-12868.53773645987
 20
27389.08568167332
 42
0.0615290114541444
 10
-12868.53773646173
 20
-9389.085681666911
 42
0.3439193699172813
 10
-9389.085681667319
 20
-12868.53773646156
 42
0.0615290114541364
 10
27389.08568166825
 20
-12868.53773646162
 42
0.3439193699172776
 10
30868.53773646266
 20
-9389.08568166697
 42
0.0615290114541443
 10
30868.5377364608
 20
27389.08568167326
  0
INSERT
  5
3FD
330
3F9
100
AcDbEntity
  8
COLUMN
 62
1
100
AcDbBlockReference
  2
_YZH
 10
28600.00000000047
 20
-10599.99999999977
 30
0.0
 41
1600.0
 42
1600.0
 43
1600.0
  0
INSERT
  5
3FF
330
3F9
100
AcDbEntity
  8
COLUMN
 62
1
100
AcDbBlockReference
  2
_FZH
 10
17999.99999999558
 20
-12400.0
 30
0.0
 41
1200.0
 42
1200.0
 43
1200.0
 50
270.0
  0
INSERT
  5
401
330
3F9
100
AcDbEntity
  8
COLUMN
 62
1
100
AcDbBlockReference
  2
_FZH
 10
8999.999999995576
 20
-12400.0
 30
0.0
 41
1200.0
 42
1200.0
 43
1200.0
 50
270.0
  0
INSERT
  5
403
330
3F9
100
AcDbEntity
  8
COLUMN
 62
1
100
AcDbBlockReference
  2
_FZH
 10
-4.4237822e-09
 20
-12400.0
 30
0.0
 41
1200.0
 42
1200.0
 43
1200.0
 50
270.0
  0
INSERT
  5
405
330
3F9
100
AcDbEntity
  8
COLUMN
 62
1
100
AcDbBlockReference
  2
_YZH
 10
-10600.0
 20
-10600.0
 30
0.0
 41
1600.0
 42
1600.0
 43
1600.0
  0
INSERT
  5
407
330
3F9
100
AcDbEntity
  8
COLUMN
 62
1
100
AcDbBlockReference
  2
_FZH
 10
-12400.00000000023
 20
9000.0
 30
0.0
 41
1200.0
 42
1200.0
 43
1200.0
 50
270.0
  0
INSERT
  5
409
330
3F9
100
AcDbEntity
  8
COLUMN
 62
1
100
AcDbBlockReference
  2
_FZH
 10
-12400.00000000023
 20
18000.00000000047
 30
0.0
 41
1200.0
 42
1200.0
 43
1200.0
 50
270.0
  0
INSERT
  5
40B
330
3F9
100
AcDbEntity
  8
COLUMN
 62
1
100
AcDbBlockReference
  2
_YZH
 10
-10600.0
 20
28599.99999999884
 30
0.0
 41
1600.0
 42
1600.0
 43
1600.0
  0
INSERT
  5
40D
330
3F9
100
AcDbEntity
  8
COLUMN
 62
1
100
AcDbBlockReference
  2
_FZH
 10
-12400.0
 20
-1.1641532e-09
 30
0.0
 41
1200.0
 42
1200.0
 43
1200.0
 50
270.0
  0
INSERT
  5
40F
330
3F9
100
AcDbEntity
  8
COLUMN
 62
1
100
AcDbBlockReference
  2
_FZH
 10
17999.99999999558
 20
30400.0
 30
0.0
 41
1200.0
 42
1200.0
 43
1200.0
 50
270.0
  0
INSERT
  5
411
330
3F9
100
AcDbEntity
  8
COLUMN
 62
1
100
AcDbBlockReference
  2
_FZH
 10
8999.999999995576
 20
30400.0
 30
0.0
 41
1200.0
 42
1200.0
 43
1200.0
 50
270.0
  0
INSERT
  5
413
330
3F9
100
AcDbEntity
  8
COLUMN
 62
1
100
AcDbBlockReference
  2
_FZH
 10
-2.328306e-10
 20
30399.99999999884
 30
0.0
 41
1200.0
 42
1200.0
 43
1200.0
 50
270.0
  0
INSERT
  5
415
330
3F9
100
AcDbEntity
  8
COLUMN
 62
1
100
AcDbBlockReference
  2
_FZH
 10
30400.0
 20
8999.999999998836
 30
0.0
 41
1200.0
 42
1200.0
 43
1200.0
 50
270.0
  0
INSERT
  5
417
330
3F9
100
AcDbEntity
  8
COLUMN
 62
1
100
AcDbBlockReference
  2
_FZH
 10
30400.0
 20
17999.99999999884
 30
0.0
 41
1200.0
 42
1200.0
 43
1200.0
 50
270.0
  0
INSERT
  5
419
330
3F9
100
AcDbEntity
  8
COLUMN
 62
1
100
AcDbBlockReference
  2
_FZH
 10
30400.0
 20
-1.1641532e-09
 30
0.0
 41
1200.0
 42
1200.0
 43
1200.0
 50
270.0
  0
INSERT
  5
41B
330
3F9
100
AcDbEntity
  8
COLUMN
 62
1
100
AcDbBlockReference
  2
_YZH
 10
28600.0
 20
28599.99999999884
 30
0.0
 41
1600.0
 42
1600.0
 43
1600.0
  0
ENDBLK
  5
3FB
330
3F9
100
AcDbEntity
  8
0
100
AcDbBlockEnd
  0
BLOCK
  5
41E
330
41D
100
AcDbEntity
  8
0
100
AcDbBlockBegin
  2
$lvtry$00000219
 70
0
 10
0.0
 20
0.0
 30
0.0
  3
$lvtry$00000219
  1

  0
LWPOLYLINE
  5
420
330
41D
100
AcDbEntity
  8
0
 62
0
100
AcDbPolyline
 90
8
 70
1
 10
69.28203258273788
 20
-230.5818162813212
 42
-0.5773502691893553
 10
-69.28203202274017
 20
-230.5818163136828
 10
-161.8924622367413
 20
-88.44343865486917
 42
-0.1453776039613215
 10
-170.0
 20
-61.14835470659818
 10
-170.0
 20
0.0
 10
170.0
 20
0.0
 10
170.0
 20
-61.14835534217309
 42
-0.14537760380397
 10
161.8924622535669
 20
-88.44343926462352
  0
ARC
  5
421
330
41D
100
AcDbEntity
  8
0
 62
0
100
AcDbCircle
 10
2.706583473e-07
 20
-190.5818163002696
 30
0.0
 40
49.99999999860439
100
AcDbArc
 50
210.0000000103258
 51
330.0000000105899
  0
LINE
  5
422
330
41D
100
AcDbEntity
  8
0
 62
0
100
AcDbLine
 10
-115.7951361627565
 20
-76.0
 30
0.0
 11
115.7951365941481
 21
-76.0
 31
0.0
  0
ARC
  5
423
330
41D
100
AcDbEntity
  8
0
 62
0
100
AcDbCircle
 10
-115.7951361627565
 20
-86.0
 30
0.0
 40
10.0
100
AcDbArc
 50
90.0
 51
213.0863027744279
  0
LINE
  5
424
330
41D
100
AcDbEntity
  8
0
 62
0
100
AcDbLine
 10
-124.1736286101077
 20
-91.45901678963855
 30
0.0
 11
-43.30126991269935
 21
-215.5818163076256
 31
0.0
  0
ARC
  5
425
330
41D
100
AcDbEntity
  8
0
 62
0
100
AcDbCircle
 10
115.7951365941481
 20
-86.0
 30
0.0
 40
10.0
100
AcDbArc
 50
326.9136972608397
 51
90.0
  0
POINT
  5
426
330
41D
100
AcDbEntity
  8
0
 62
0
100
AcDbPoint
 10
2.156957635e-07
 20
-176.9798452330579
 30
0.0
  0
LINE
  5
427
330
41D
100
AcDbEntity
  8
0
 62
0
100
AcDbLine
 10
43.301270463322
 20
-215.5818162915166
 30
0.0
 11
124.1736290448607
 21
-91.45901678448718
 31
0.0
  0
CIRCLE
  5
428
330
41D
100
AcDbEntity
  8
0
 62
0
100
AcDbCircle
 10
2.156957635e-07
 20
-176.9798452330579
 30
0.0
 40
20.0
  0
POINT
  5
429
330
41D
100
AcDbEntity
  8
0
 62
0
100
AcDbPoint
 10
0.0
 20
-38.0
 30
0.0
  0
CIRCLE
  5
42A
330
41D
100
AcDbEntity
  8
0
 62
0
100
AcDbCircle
 10
0.0
 20
-38.0
 30
0.0
 40
17.66628609890358
  0
ENDBLK
  5
41F
330
41D
100
AcDbEntity
  8
0
100
AcDbBlockEnd
  0
BLOCK
  5
42C
330
42B
100
AcDbEntity
  8
0
100
AcDbBlockBegin
  2
$DorLib2D$00000001
 70
0
 10
0.0
 20
0.0
 30
0.0
  3
$DorLib2D$00000001
  1

  0
LINE
  5
42E
330
42B
100
AcDbEntity
  8
0
100
AcDbLine
 10
0.45
 20
0.9750000000000001
 30
0.0
 11
0.5000000000000002
 21
0.9750000000000001
 31
0.0
  0
LINE
  5
42F
330
42B
100
AcDbEntity
  8
0
100
AcDbLine
 10
0.5
 20
0.0
 30
0.0
 11
0.45
 21
0.0
 31
0.0
  0
ARC
  5
430
330
42B
100
AcDbEntity
  8
0
370
13
100
AcDbCircle
 10
0.475
 20
0.0
 30
0.0
 40
0.975
100
AcDbArc
 50
91.4692835813538
 51
180.0
  0
LINE
  5
431
330
42B
100
AcDbEntity
  8
0
100
AcDbLine
 10
0.5
 20
0.0
 30
0.0
 11
0.5
 21
0.9750000000000001
 31
0.0
  0
LINE
  5
432
330
42B
100
AcDbEntity
  8
0
100
AcDbLine
 10
0.45
 20
0.0
 30
0.0
 11
0.45
 21
0.9750000000000001
 31
0.0
  0
ENDBLK
  5
42D
330
42B
100
AcDbEntity
  8
0
100
AcDbBlockEnd
  0
BLOCK
  5
434
330
433
100
AcDbEntity
  8
0
100
AcDbBlockBegin
  2
$TCHSYS$APDOOR2D
 70
0
 10
0.0
 20
0.0
 30
0.0
  3
$TCHSYS$APDOOR2D
  1

  0
LINE
  5
436
330
433
100
AcDbEntity
  8
0
100
AcDbLine
 10
0.5
 20
0.0
 30
0.0
 11
9e-16
 21
0.8660254037844392
 31
0.0
  0
ARC
  5
437
330
433
100
AcDbEntity
  8
0
370
13
100
AcDbCircle
 10
0.5
 20
0.0
 30
0.0
 40
1.0
100
AcDbArc
 50
120.0
 51
180.0
  0
ENDBLK
  5
435
330
433
100
AcDbEntity
  8
0
100
AcDbBlockEnd
  0
BLOCK
  5
439
330
438
100
AcDbEntity
  8
0
100
AcDbBlockBegin
  2
$DorLib2D$00000114
 70
0
 10
0.0
 20
0.0
 30
0.0
  3
$DorLib2D$00000114
  1

  0
ARC
  5
43B
330
438
100
AcDbEntity
  8
0
 62
0
100
AcDbCircle
 10
0.5000000000013856
 20
-1.1546e-12
 30
0.0
 40
1.000000000001696
100
AcDbArc
 50
135.0
 51
180.0
  0
LINE
  5
43C
330
438
100
AcDbEntity
  8
0
 62
0
100
AcDbLine
 10
0.4999999999999964
 20
3.6e-15
 30
0.0
 11
-0.2071067811864751
 21
0.7071067811864857
 31
0.0
  0
ENDBLK
  5
43A
330
438
100
AcDbEntity
  8
0
100
AcDbBlockEnd
  0
BLOCK
  5
43E
330
43D
100
AcDbEntity
  8
0
100
AcDbBlockBegin
  2
$DORLIB2D$00000127
 70
0
 10
0.0
 20
0.0
 30
0.0
  3
$DORLIB2D$00000127
  1

  0
LWPOLYLINE
  5
440
330
43D
100
AcDbEntity
  8
0
 62
0
100
AcDbPolyline
 90
2
 70
0
 10
0.5333333333328483
 20
0.7948983154366971
 10
0.0333333333328483
 20
0.7948983154366971
  0
LWPOLYLINE
  5
441
330
43D
100
AcDbEntity
  8
0
 62
0
100
AcDbPolyline
 90
2
 70
0
 10
0.5333333333328483
 20
0.6904056441872372
 10
0.0333333333328483
 20
0.6904056441872372
  0
LWPOLYLINE
  5
442
330
43D
100
AcDbEntity
  8
0
 62
0
100
AcDbPolyline
 90
2
 70
0
 10
-0.5333333333328483
 20
0.7948983154366971
 10
-0.5333333333328483
 20
0.6904056441872372
  0
LWPOLYLINE
  5
443
330
43D
100
AcDbEntity
  8
0
 62
0
100
AcDbPolyline
 90
2
 70
0
 10
0.5333333333328483
 20
0.7948983154366971
 10
0.5333333333328483
 20
0.6904056441872372
  0
LWPOLYLINE
  5
444
330
43D
100
AcDbEntity
  8
0
 62
0
100
AcDbPolyline
 90
2
 70
0
 10
-0.0333333333328483
 20
0.7948983154366971
 10
-0.0333333333328483
 20
0.6904056441872372
  0
LWPOLYLINE
  5
445
330
43D
100
AcDbEntity
  8
0
 62
0
100
AcDbPolyline
 90
2
 70
0
 10
-0.0333333333328483
 20
0.6904056441872372
 10
-0.5333333333328483
 20
0.6904056441872372
  0
LWPOLYLINE
  5
446
330
43D
100
AcDbEntity
  8
0
 62
0
100
AcDbPolyline
 90
2
 70
0
 10
-0.0333333333328483
 20
0.7948983154366971
 10
-0.5333333333328483
 20
0.7948983154366971
  0
LWPOLYLINE
  5
447
330
43D
100
AcDbEntity
  8
0
 62
0
100
AcDbPolyline
 90
2
 70
0
 10
0.0333333333328483
 20
0.7948983154366971
 10
0.0333333333328483
 20
0.6904056441872372
  0
LWPOLYLINE
  5
448
330
43D
100
AcDbEntity
  8
0
 62
0
100
AcDbPolyline
 90
2
 70
0
 10
0.5
 20
0.4999999999999858
 10
-0.5
 20
0.4999999999999858
  0
ENDBLK
  5
43F
330
43D
100
AcDbEntity
  8
0
100
AcDbBlockEnd
  0
BLOCK
  5
44A
330
449
100
AcDbEntity
  8
0
100
AcDbBlockBegin
  2
$DorLib2D$00000002
 70
0
 10
0.0
 20
0.0
 30
0.0
  3
$DorLib2D$00000002
  1

  0
LINE
  5
44C
330
449
100
AcDbEntity
  8
0
100
AcDbLine
 10
-0.5
 20
-1e-16
 30
0.0
 11
-0.5000000000000007
 21
0.4875
 31
0.0
  0
LINE
  5
44D
330
449
100
AcDbEntity
  8
0
100
AcDbLine
 10
-0.475
 20
0.0
 30
0.0
 11
-0.4750000000000007
 21
0.4875
 31
0.0
  0
LINE
  5
44E
330
449
100
AcDbEntity
  8
0
100
AcDbLine
 10
-0.5
 20
-1e-16
 30
0.0
 11
-0.475
 21
0.0
 31
0.0
  0
LINE
  5
44F
330
449
100
AcDbEntity
  8
0
100
AcDbLine
 10
-0.4750000000000007
 20
0.4875
 30
0.0
 11
-0.5000000000000007
 21
0.4875
 31
0.0
  0
ARC
  5
450
330
449
100
AcDbEntity
  8
0
370
13
100
AcDbCircle
 10
-0.4875
 20
0.0
 30
0.0
 40
0.4875
100
AcDbArc
 50
0.0
 51
88.53071641864632
  0
ARC
  5
451
330
449
100
AcDbEntity
  8
0
370
13
100
AcDbCircle
 10
0.4875
 20
0.0
 30
0.0
 40
0.4875
100
AcDbArc
 50
91.46928358135371
 51
180.0
  0
LINE
  5
452
330
449
100
AcDbEntity
  8
0
100
AcDbLine
 10
0.475
 20
0.0
 30
0.0
 11
0.4750000000000007
 21
0.4875
 31
0.0
  0
LINE
  5
453
330
449
100
AcDbEntity
  8
0
100
AcDbLine
 10
0.5
 20
-1e-16
 30
0.0
 11
0.5000000000000007
 21
0.4875
 31
0.0
  0
LINE
  5
454
330
449
100
AcDbEntity
  8
0
100
AcDbLine
 10
0.4750000000000007
 20
0.4875
 30
0.0
 11
0.5000000000000007
 21
0.4875
 31
0.0
  0
LINE
  5
455
330
449
100
AcDbEntity
  8
0
100
AcDbLine
 10
0.5
 20
-1e-16
 30
0.0
 11
0.475
 21
0.0
 31
0.0
  0
ENDBLK
  5
44B
330
449
100
AcDbEntity
  8
0
100
AcDbBlockEnd
  0
BLOCK
  5
457
330
456
100
AcDbEntity
  8
0
100
AcDbBlockBegin
  2
_YZH
 70
0
 10
0.0
 20
0.0
 30
0.0
  3
_YZH
  1

  0
POLYLINE
  5
459
330
456
100
AcDbEntity
  8
PUB_HATCH
100
AcDb2dPolyline
 66
1
 10
0.0
 20
0.0
 30
0.0
 70
1
 40
0.5
 41
0.5
  0
VERTEX
  5
45A
330
459
100
AcDbEntity
  8
PUB_HATCH
100
AcDbVertex
100
AcDb2dVertex
 10
-0.25
 20
0.0
 30
0.0
 42
1.0
 70
0
  0
VERTEX
  5
45B
330
459
100
AcDbEntity
  8
PUB_HATCH
100
AcDbVertex
100
AcDb2dVertex
 10
0.25
 20
0.0
 30
0.0
 42
1.0
 70
0
  0
SEQEND
  5
45C
330
459
100
AcDbEntity
  8
PUB_HATCH
  0
CIRCLE
  5
45D
330
456
100
AcDbEntity
  8
0
100
AcDbCircle
 10
0.0
 20
0.0
 30
0.0
 40
0.5
  0
ENDBLK
  5
458
330
456
100
AcDbEntity
  8
0
100
AcDbBlockEnd
  0
BLOCK
  5
45F
330
45E
100
AcDbEntity
  8
0
100
AcDbBlockBegin
  2
_FZH
 70
0
 10
0.0
 20
0.0
 30
0.0
  3
_FZH
  1

  0
SOLID
  5
461
330
45E
100
AcDbEntity
  8
PUB_HATCH
100
AcDbTrace
 10
-0.5
 20
-0.5
 30
0.0
 11
0.5
 21
-0.5
 31
0.0
 12
-0.5
 22
0.5
 32
0.0
 13
0.5
 23
0.5
 33
0.0
  0
LWPOLYLINE
  5
462
330
45E
100
AcDbEntity
  8
0
100
AcDbPolyline
 90
4
 70
1
 10
-0.5
 20
-0.5
 10
0.5
 20
-0.5
 10
0.5
 20
0.5
 10
-0.5
 20
0.5
  0
ENDBLK
  5
460
330
45E
100
AcDbEntity
  8
0
100
AcDbBlockEnd
  0
ENDSEC
  0
SECTION
  2
ENTITIES
  0
LINE
  5
3C
330
17
100
AcDbEntity
  8
家具
100
AcDbLine
 10
1554072.056374322
 20
148527.9862517836
 30
0.0
 11
1552272.056374323
 21
148527.986251783
 31
0.0
  0
LWPOLYLINE
  5
3D
330
17
100
AcDbEntity
  8
家具
100
AcDbPolyline
 90
3
 70
0
 10
1549622.056374323
 20
147377.9862517791
 10
1549622.056374323
 20
148577.9862517726
 10
1552172.056374323
 20
148577.9862517669
  0
LINE
  5
3E
330
17
100
AcDbEntity
  8
家具
100
AcDbLine
 10
1559572.056374327
 20
146277.9862517269
 30
0.0
 11
1556072.056374347
 21
146277.9862517857
 31
0.0
  0
LWPOLYLINE
  5
3F
330
17
100
AcDbEntity
  8
cc
100
AcDbPolyline
 90
3
 70
0
 10
1582774.105503708
 20
142777.9862517655
 10
1581089.657210026
 20
142777.9862517701
 10
1581089.657210026
 20
142777.9862517701
  0
LWPOLYLINE
  5
40
330
17
100
AcDbEntity
  8
cc
100
AcDbPolyline
 90
2
 70
0
 10
1582774.105503708
 20
142977.9862517656
 10
1581101.812935933
 20
142977.9862517701
  0
LINE
  5
41
330
17
100
AcDbEntity
  8
cc
100
AcDbLine
 10
1537575.092529575
 20
172633.5287402419
 30
0.0
 11
1533773.757671573
 21
176434.8635982406
 31
0.0
  0
LINE
  5
42
330
17
100
AcDbEntity
  8
cc
100
AcDbLine
 10
1537716.513885811
 20
172774.95009648
 30
0.0
 11
1534056.600384048
 21
176434.8635982405
 31
0.0
  0
LINE
  5
43
330
17
100
AcDbEntity
  8
WALL
100
AcDbLine
 10
1581881.59656316
 20
166118.1206686029
 30
0.0
 11
1581749.518578239
 21
166267.2974023777
 31
0.0
  0
LINE
  5
44
330
17
100
AcDbEntity
  8
WALL
100
AcDbLine
 10
1582031.339097371
 20
166250.6996014905
 30
0.0
 11
1581931.904897728
 21
166363.0065021234
 31
0.0
  0
LINE
  5
45
330
17
100
AcDbEntity
  8
WALL
 62
46
100
AcDbLine
 10
1581956.467830267
 20
166184.4101350482
 30
0.0
 11
1581790.744164196
 21
166371.5883027687
 31
0.0
  0
ARC
  5
46
330
17
100
AcDbEntity
  8
WINDOW
100
AcDbCircle
 10
1582938.380551995
 20
165075.3794910133
 30
0.0
 40
731.2499999999999
100
AcDbArc
 50
102.9822765193028
 51
131.5210117963005
  0
ARC
  5
47
330
17
100
AcDbEntity
  8
WINDOW
100
AcDbCircle
 10
1581968.897105226
 20
166170.3717724654
 30
0.0
 40
731.2499999999999
100
AcDbArc
 50
311.5210117963005
 51
40.05172821501156
  0
LINE
  5
48
330
17
100
AcDbEntity
  8
WINDOW
100
AcDbLine
 10
1581981.326380184
 20
166156.3334098827
 30
0.0
 11
1582528.82252091
 21
166641.0751332675
 31
0.0
  0
LINE
  5
49
330
17
100
AcDbEntity
  8
WINDOW
100
AcDbLine
 10
1581956.467830267
 20
166184.4101350482
 30
0.0
 11
1582503.963970993
 21
166669.1518584329
 31
0.0
  0
LINE
  5
4A
330
17
100
AcDbEntity
  8
WINDOW
100
AcDbLine
 10
1582528.82252091
 20
166641.0751332675
 30
0.0
 11
1582503.963970993
 21
166669.1518584329
 31
0.0
  0
LINE
  5
4B
330
17
100
AcDbEntity
  8
WINDOW
100
AcDbLine
 10
1581956.467830267
 20
166184.4101350482
 30
0.0
 11
1581981.326380184
 21
166156.3334098827
 31
0.0
  0
LINE
  5
4C
330
17
100
AcDbEntity
  8
WALL
100
AcDbLine
 10
1582031.339097371
 20
166250.6996014906
 30
0.0
 11
1581881.59656316
 21
166118.1206686029
 31
0.0
  0
INSERT
  5
4D
330
17
100
AcDbEntity
  8
A-LIFT
100
AcDbBlockReference
  2
224
 10
1563122.056374331
 20
154527.9862517871
 30
0.0
 50
180.0
  0
INSERT
  5
4F
330
17
100
AcDbEntity
  8
A-LIFT
100
AcDbBlockReference
  2
224
 10
1563122.056374331
 20
150027.9862517869
 30
0.0
 41
-1.0
  0
INSERT
  5
51
330
17
100
AcDbEntity
  8
A-LIFT
100
AcDbBlockReference
  2
224
 10
1556572.056374324
 20
143427.9862517814
 30
0.0
 50
180.0
  0
INSERT
  5
53
330
17
100
AcDbEntity
  8
A-LIFT
100
AcDbBlockReference
  2
224
 10
1550772.056374324
 20
143427.9862517814
 30
0.0
 50
180.0
  0
INSERT
  5
55
330
17
100
AcDbEntity
  8
A-LIFT
100
AcDbBlockReference
  2
224
 10
1553672.056374324
 20
143427.9862517814
 30
0.0
 50
180.0
  0
INSERT
  5
57
330
17
100
AcDbEntity
  8
A-LIFT
100
AcDbBlockReference
  2
224
 10
1556572.056374324
 20
160527.9862517814
 30
0.0
 41
-1.0
  0
INSERT
  5
59
330
17
100
AcDbEntity
  8
A-LIFT
100
AcDbBlockReference
  2
224
 10
1553672.056374324
 20
160527.9862517814
 30
0.0
 41
-1.0
  0
INSERT
  5
5B
330
17
100
AcDbEntity
  8
A-LIFT
100
AcDbBlockReference
  2
224
 10
1550772.056374324
 20
160527.9862517814
 30
0.0
 41
-1.0
  0
INSERT
  5
5D
330
17
100
AcDbEntity
  8
A-LIFT
100
AcDbBlockReference
  2
224
 10
1553672.056374324
 20
152577.9862517814
 30
0.0
 50
180.0
  0
INSERT
  5
5F
330
17
100
AcDbEntity
  8
A-LIFT
100
AcDbBlockReference
  2
224
 10
1550772.056374324
 20
152577.9862517814
 30
0.0
 50
180.0
  0
INSERT
  5
61
330
17
100
AcDbEntity
  8
A-LIFT
100
AcDbBlockReference
  2
224
 10
1553672.056374324
 20
151377.9862517814
 30
0.0
 41
-1.0
  0
INSERT
  5
63
330
17
100
AcDbEntity
  8
A-LIFT
100
AcDbBlockReference
  2
224
 10
1550772.056374324
 20
151377.9862517814
 30
0.0
 41
-1.0
  0
INSERT
  5
65
330
17
100
AcDbEntity
  8
3T_GLASS
 62
4
100
AcDbBlockReference
  2
A$C4F7F3484
 10
1549372.056374319
 20
142977.986251762
 30
0.0
  0
LWPOLYLINE
  5
67
330
17
100
AcDbEntity
  8
变形线
100
AcDbPolyline
 90
20
 70
1
 10
1582774.105503708
 20
176434.8635982405
 10
1533773.757671573
 20
176434.8635982405
 10
1537575.092529576
 20
172633.5287402406
 42
-0.1735870986849399
 10
1539982.970692654
 20
173846.5239882294
 42
-0.0289004631700823
 10
1557272.05637432
 20
174973.9528642069
 10
1557272.05637432
 20
174177.9862160215
 10
1559472.056374334
 20
174177.9862517946
 10
1559472.056374334
 20
174973.9528642067
 42
-0.0289004631700568
 10
1576761.142055985
 20
173846.5239882294
 42
-0.3439193699172801
 10
1580240.59411078
 20
170367.0719334354
 42
-0.0065392992780898
 10
1580670.615852898
 20
166467.2974024434
 10
1580572.056373087
 20
166467.2974024434
 10
1580572.056373087
 20
156077.9862517554
 10
1581316.012571293
 20
156077.9862517554
 42
-0.0050008764181784
 10
1581368.022986759
 20
153077.9862517648
 10
1580572.056374333
 20
153077.9862517667
 10
1580572.056374404
 20
150877.9862517388
 10
1581368.022986759
 20
150877.9862517388
 42
-0.0135104352479789
 10
1581089.657210027
 20
142777.9862517701
 10
1582774.105503708
 20
142777.9862517655
  0
ARC
  5
68
330
17
100
AcDbEntity
  8
CURTWALL
100
AcDbCircle
 10
1575480.92822298
 20
151977.9862517104
 30
0.0
 40
149900.0000002428
100
AcDbArc
 50
172.9581720612249
 51
178.2797214823593
  0
ARC
  5
69
330
17
100
AcDbEntity
  8
CURTWALL
100
AcDbCircle
 10
1575480.92822298
 20
151977.9862517127
 30
0.0
 40
149800.0000002426
100
AcDbArc
 50
172.9581720612258
 51
178.2797214823601
  0
ARC
  5
6A
330
17
100
AcDbEntity
  8
CURTWALL
100
AcDbCircle
 10
1575480.92822298
 20
151977.9862517132
 30
0.0
 40
150000.0000002424
100
AcDbArc
 50
172.9581720612259
 51
178.2797214823603
  0
ARC
  5
6B
330
17
100
AcDbEntity
  8
CURTWALL
100
AcDbCircle
 10
1575480.92822301
 20
151977.9862517508
 30
0.0
 40
149900.0000002713
100
AcDbArc
 50
180.4586769166265
 51
181.7202785176103
  0
ARC
  5
6C
330
17
100
AcDbEntity
  8
CURTWALL
100
AcDbCircle
 10
1575480.928223011
 20
151977.9862517392
 30
0.0
 40
149800.0000002717
100
AcDbArc
 50
180.497232632349
 51
181.7202785176059
  0
ARC
  5
6D
330
17
100
AcDbEntity
  8
CURTWALL
100
AcDbCircle
 10
1575480.92822301
 20
151977.9862517424
 30
0.0
 40
150000.0000002711
100
AcDbArc
 50
180.4201728158144
 51
181.7202785176071
  0
LINE
  5
6E
330
17
100
AcDbEntity
  8
WALL
100
AcDbLine
 10
1546372.056374072
 20
163977.9862381777
 30
0.0
 11
1546372.056374074
 21
158177.9862517929
 31
0.0
  0
LINE
  5
6F
330
17
100
AcDbEntity
  8
WALL
100
AcDbLine
 10
1546372.056374074
 20
158177.9862517929
 30
0.0
 11
1546572.056374072
 21
158177.9862517929
 31
0.0
  0
LINE
  5
70
330
17
100
AcDbEntity
  8
WALL
100
AcDbLine
 10
1546572.056374072
 20
158177.9862517929
 30
0.0
 11
1546572.056374072
 21
163777.9862381748
 31
0.0
  0
LINE
  5
71
330
17
100
AcDbEntity
  8
WALL
100
AcDbLine
 10
1546572.056374071
 20
156477.9862517846
 30
0.0
 11
1546572.056374071
 21
156677.9862518311
 31
0.0
  0
LINE
  5
72
330
17
100
AcDbEntity
  8
WALL
100
AcDbLine
 10
1546572.056374071
 20
156677.9862518311
 30
0.0
 11
1546372.056374074
 21
156677.9862518311
 31
0.0
  0
LINE
  5
73
330
17
100
AcDbEntity
  8
WALL
100
AcDbLine
 10
1546372.056374074
 20
156677.9862518311
 30
0.0
 11
1546372.056374072
 21
156577.9862517842
 31
0.0
  0
LINE
  5
74
330
17
100
AcDbEntity
  8
WALL
100
AcDbLine
 10
1581747.990185477
 20
166467.2974024001
 30
0.0
 11
1582707.816037257
 21
167317.1072969089
 31
0.0
  0
LINE
  5
75
330
17
100
AcDbEntity
  8
WALL
100
AcDbLine
 10
1581823.805346622
 20
166267.2974023992
 30
0.0
 11
1582840.394970158
 21
167167.3647627014
 31
0.0
  0
LINE
  5
76
330
17
100
AcDbEntity
  8
WALL
100
AcDbLine
 10
1582707.816037257
 20
167317.1072969089
 30
0.0
 11
1582840.394970158
 21
167167.3647627014
 31
0.0
  0
LINE
  5
77
330
17
100
AcDbEntity
  8
J-厨卫
  6
ByBlock
100
AcDbLine
 10
1555022.056374332
 20
148727.9862517461
 30
0.0
 11
1555022.056374333
 21
149127.9862517461
 31
0.0
  0
LINE
  5
78
330
17
100
AcDbEntity
  8
J-厨卫
  6
ByBlock
100
AcDbLine
 10
1555052.056374332
 20
148727.9862517461
 30
0.0
 11
1555052.056374333
 21
149127.9862517461
 31
0.0
  0
LINE
  5
79
330
17
100
AcDbEntity
  8
J-厨卫
  6
ByBlock
100
AcDbLine
 10
1555022.056374332
 20
148727.9862517461
 30
0.0
 11
1555052.056374332
 21
148727.9862517461
 31
0.0
  0
LINE
  5
7A
330
17
100
AcDbEntity
  8
J-厨卫
  6
ByBlock
100
AcDbLine
 10
1555022.056374333
 20
149127.9862517461
 30
0.0
 11
1555052.056374333
 21
149127.9862517461
 31
0.0
  0
INSERT
  5
7B
330
17
100
AcDbEntity
  8
J-厨卫
  6
ByBlock
100
AcDbBlockReference
  2
$lvtry$00000219
 10
1554587.056374332
 20
149127.9862517461
 30
0.0
 50
6.7314e-12
  0
INSERT
  5
7D
330
17
100
AcDbEntity
  8
J-厨卫
  6
ByBlock
100
AcDbBlockReference
  2
$lvtry$00000219
 10
1555487.056374332
 20
149127.9862517461
 30
0.0
 42
-1.0
 50
179.9999999999933
  0
TEXT
  5
7F
330
17
100
AcDbEntity
  8
房间名
100
AcDbText
 10
1551203.126178647
 20
156019.254413004
 30
0.0
 40
771.6312056737588
  1
低区电梯厅
  7
_TCH_SPACE
100
AcDbText
  0
LINE
  5
80
330
17
100
AcDbEntity
  8
WALL
100
AcDbLine
 10
1561672.056374326
 20
147677.9862517594
 30
0.0
 11
1561172.056374321
 21
147677.9862517555
 31
0.0
  0
LINE
  5
81
330
17
100
AcDbEntity
  8
WALL
100
AcDbLine
 10
1561172.056374321
 20
147677.9862517555
 30
0.0
 11
1561172.056374321
 21
147477.9862517583
 31
0.0
  0
LINE
  5
82
330
17
100
AcDbEntity
  8
WALL
100
AcDbLine
 10
1561172.056374321
 20
147477.9862517583
 30
0.0
 11
1561672.056374326
 21
147477.9862517594
 31
0.0
  0
LINE
  5
83
330
17
100
AcDbEntity
  8
WALL
100
AcDbLine
 10
1561672.056374326
 20
147477.9862517594
 30
0.0
 11
1561672.056374326
 21
147677.9862517594
 31
0.0
  0
LINE
  5
84
330
17
100
AcDbEntity
  8
WALL
100
AcDbLine
 10
1559772.056374339
 20
147477.9862517586
 30
0.0
 11
1560272.056374321
 21
147477.9862517579
 31
0.0
  0
LINE
  5
85
330
17
100
AcDbEntity
  8
WALL
100
AcDbLine
 10
1560272.056374321
 20
147477.9862517579
 30
0.0
 11
1560272.056374321
 21
147677.9862517552
 31
0.0
  0
LINE
  5
86
330
17
100
AcDbEntity
  8
WALL
100
AcDbLine
 10
1560272.056374321
 20
147677.9862517552
 30
0.0
 11
1559772.056374325
 21
147677.9862517588
 31
0.0
  0
INSERT
  5
87
330
17
100
AcDbEntity
  8
WINDOW
  6
ByBlock
100
AcDbBlockReference
 66
1
  2
$DorLib2D$00000001
 10
1560722.056374326
 20
147577.9862517594
 30
0.0
 41
-900.0
 42
900.0
 43
-900.0
 50
180.0
  0
ATTRIB
  5
88
330
87
100
AcDbEntity
  8
WINDOW_TEXT
  6
ByBlock
100
AcDbText
 10
1560410.056374326
 20
148030.4862517332
 30
0.0
 40
595.0
  1

  7
_TCH_WINDOW
 41
0.5647058823529412
100
AcDbAttribute
  2
A
 70
0
 71
1
 72
0
  0
SEQEND
  5
89
330
87
100
AcDbEntity
  8
WINDOW
  6
ByBlock
  0
TEXT
  5
8A
330
17
100
AcDbEntity
  8
房间名
100
AcDbText
 10
1556435.341500062
 20
147345.1531848951
 30
0.0
 40
771.6312056737588
  1
女卫
  7
_TCH_SPACE
100
AcDbText
  0
TEXT
  5
8B
330
17
100
AcDbEntity
  8
房间名
100
AcDbText
 10
1553432.457149048
 20
147413.857194082
 30
0.0
 40
771.6312056737588
  1
男卫
  7
_TCH_SPACE
100
AcDbText
  0
LINE
  5
8C
330
17
100
AcDbEntity
  8
WALL
100
AcDbLine
 10
1552172.056374315
 20
147377.9862517738
 30
0.0
 11
1551972.056374321
 21
147377.9862517745
 31
0.0
  0
LINE
  5
8D
330
17
100
AcDbEntity
  8
WALL
100
AcDbLine
 10
1551972.056374321
 20
147377.9862517745
 30
0.0
 11
1551972.056374321
 21
147177.9862517689
 31
0.0
  0
LINE
  5
8E
330
17
100
AcDbEntity
  8
WALL
100
AcDbLine
 10
1551972.056374321
 20
147177.9862517689
 30
0.0
 11
1552072.056374314
 21
147177.9862517738
 31
0.0
  0
LINE
  5
8F
330
17
100
AcDbEntity
  8
WALL
100
AcDbLine
 10
1548872.05637433
 20
147177.9862517738
 30
0.0
 11
1551072.056374321
 21
147177.9862517689
 31
0.0
  0
LINE
  5
90
330
17
100
AcDbEntity
  8
WALL
100
AcDbLine
 10
1551072.056374321
 20
147177.9862517689
 30
0.0
 11
1551072.056374321
 21
147377.9862517745
 31
0.0
  0
LINE
  5
91
330
17
100
AcDbEntity
  8
WALL
100
AcDbLine
 10
1551072.056374321
 20
147377.9862517745
 30
0.0
 11
1549072.056374314
 21
147377.9862517738
 31
0.0
  0
INSERT
  5
92
330
17
100
AcDbEntity
  8
WINDOW
  6
ByBlock
100
AcDbBlockReference
 66
1
  2
$DorLib2D$00000001
 10
1551522.056374323
 20
147277.9862517739
 30
0.0
 41
-900.0
 42
-900.0
 43
-900.0
 50
180.0
  0
ATTRIB
  5
93
330
92
100
AcDbEntity
  8
WINDOW_TEXT
  6
ByBlock
100
AcDbText
 10
1551210.056374323
 20
146380.4862517731
 30
0.0
 40
595.0
  1

  7
_TCH_WINDOW
 41
0.5647058823529412
100
AcDbAttribute
  2
A
 70
0
 71
1
 72
0
  0
SEQEND
  5
94
330
92
100
AcDbEntity
  8
WINDOW
  6
ByBlock
  0
LINE
  5
95
330
17
100
AcDbEntity
  8
WALL
100
AcDbLine
 10
1552272.056374323
 20
149127.986251774
 30
0.0
 11
1552272.056374323
 21
147277.9862517739
 31
0.0
  0
LINE
  5
96
330
17
100
AcDbEntity
  8
WALL
100
AcDbLine
 10
1552172.056374323
 20
149127.986251774
 30
0.0
 11
1552172.056374315
 21
147377.9862517738
 31
0.0
  0
LINE
  5
97
330
17
100
AcDbEntity
  8
WALL
100
AcDbLine
 10
1552272.056374323
 20
149127.986251774
 30
0.0
 11
1552172.056374323
 21
149127.986251774
 31
0.0
  0
LINE
  5
98
330
17
100
AcDbEntity
  8
WALL
100
AcDbLine
 10
1549072.056374323
 20
149127.9862517739
 30
0.0
 11
1549072.056374314
 21
147377.9862517738
 31
0.0
  0
LINE
  5
99
330
17
100
AcDbEntity
  8
WALL
100
AcDbLine
 10
1548872.056374323
 20
149127.9862517739
 30
0.0
 11
1548872.05637433
 21
147177.9862517738
 31
0.0
  0
LINE
  5
9A
330
17
100
AcDbEntity
  8
WALL
100
AcDbLine
 10
1549072.056374323
 20
149127.9862517739
 30
0.0
 11
1548872.056374323
 21
149127.9862517739
 31
0.0
  0
TEXT
  5
9B
330
17
100
AcDbEntity
  8
房间名
100
AcDbText
 10
1549666.308989611
 20
147658.1508320046
 30
0.0
 40
771.6312056737588
  1
茶水间
  7
_TCH_SPACE
100
AcDbText
  0
TEXT
  5
9C
330
17
100
AcDbEntity
  8
房间名
100
AcDbText
 10
1558680.729258242
 20
152714.9233001769
 30
0.0
 40
771.6312056737588
  1
空调机房
  7
_TCH_SPACE
100
AcDbText
  0
LINE
  5
9D
330
17
100
AcDbEntity
  8
WALL
100
AcDbLine
 10
1561672.056374326
 20
150177.9862517739
 30
0.0
 11
1559772.056374326
 21
150177.9862517662
 31
0.0
  0
LINE
  5
9E
330
17
100
AcDbEntity
  8
WALL
100
AcDbLine
 10
1561672.056374326
 20
150377.9862517739
 30
0.0
 11
1559672.056374329
 21
150377.9862517739
 31
0.0
  0
LINE
  5
9F
330
17
100
AcDbEntity
  8
WALL
100
AcDbLine
 10
1561672.056374326
 20
150177.9862517739
 30
0.0
 11
1561672.056374326
 21
150377.9862517739
 31
0.0
  0
LINE
  5
A0
330
17
100
AcDbEntity
  8
J-厨卫
  6
ByBlock
100
AcDbLine
 10
1555972.056374321
 20
147177.9862517633
 30
0.0
 11
1555814.556374359
 21
147177.9862517863
 31
0.0
  0
LINE
  5
A1
330
17
100
AcDbEntity
  8
J-厨卫
  6
ByBlock
100
AcDbLine
 10
1555814.556374359
 20
147177.9862517863
 30
0.0
 11
1555814.556374359
 21
147147.9862517801
 31
0.0
  0
LINE
  5
A2
330
17
100
AcDbEntity
  8
J-厨卫
  6
ByBlock
100
AcDbLine
 10
1555814.556374359
 20
147147.9862517801
 30
0.0
 11
1555942.05637432
 21
147147.9862517972
 31
0.0
  0
LINE
  5
A3
330
17
100
AcDbEntity
  8
J-厨卫
  6
ByBlock
100
AcDbLine
 10
1555072.056374316
 20
147147.9862517972
 30
0.0
 11
1555214.556374359
 21
147147.9862517801
 31
0.0
  0
LINE
  5
A4
330
17
100
AcDbEntity
  8
J-厨卫
  6
ByBlock
100
AcDbLine
 10
1555214.556374359
 20
147147.9862517801
 30
0.0
 11
1555214.556374359
 21
147177.986251802
 31
0.0
  0
LINE
  5
A5
330
17
100
AcDbEntity
  8
J-厨卫
  6
ByBlock
100
AcDbLine
 10
1555214.556374359
 20
147177.986251802
 30
0.0
 11
1555072.05637432
 21
147177.9862517868
 31
0.0
  0
INSERT
  5
A6
330
17
100
AcDbEntity
  8
J-厨卫
  6
ByBlock
100
AcDbBlockReference
 66
1
  2
$TCHSYS$APDOOR2D
 10
1555514.556374313
 20
147162.9862517868
 30
0.0
 41
600.0
 42
600.0
 43
30.0
 50
180.0
  0
ATTRIB
  5
A7
330
A6
100
AcDbEntity
  8
WINDOW_TEXT
  6
ByBlock
100
AcDbText
 10
1555580.556374328
 20
147085.3612518306
 30
0.0
 40
446.25
  1

  7
_TCH_WINDOW
 41
0.5647058823529412
100
AcDbAttribute
  2
A
 70
0
 71
1
 72
0
  0
SEQEND
  5
A8
330
A6
100
AcDbEntity
  8
J-厨卫
  6
ByBlock
  0
LINE
  5
A9
330
17
100
AcDbEntity
  8
J-厨卫
  6
ByBlock
100
AcDbLine
 10
1555942.056374319
 20
145677.9862517952
 30
0.0
 11
1555942.05637432
 21
147147.9862517972
 31
0.0
  0
LINE
  5
AA
330
17
100
AcDbEntity
  8
J-厨卫
  6
ByBlock
100
AcDbLine
 10
1555972.056374319
 20
145677.9862517952
 30
0.0
 11
1555972.056374321
 21
147177.9862517633
 31
0.0
  0
LINE
  5
AB
330
17
100
AcDbEntity
  8
J-厨卫
  6
ByBlock
100
AcDbLine
 10
1555942.056374319
 20
145677.9862517952
 30
0.0
 11
1555972.056374319
 21
145677.9862517952
 31
0.0
  0
LINE
  5
AC
330
17
100
AcDbEntity
  8
J-厨卫
  6
ByBlock
100
AcDbLine
 10
1554142.056374319
 20
145677.9862517952
 30
0.0
 11
1554142.056374331
 21
147177.9862517972
 31
0.0
  0
LINE
  5
AD
330
17
100
AcDbEntity
  8
J-厨卫
  6
ByBlock
100
AcDbLine
 10
1554172.056374319
 20
145677.9862517952
 30
0.0
 11
1554172.056374331
 21
147147.9862517633
 31
0.0
  0
LINE
  5
AE
330
17
100
AcDbEntity
  8
J-厨卫
  6
ByBlock
100
AcDbLine
 10
1554142.056374319
 20
145677.9862517952
 30
0.0
 11
1554172.056374319
 21
145677.9862517952
 31
0.0
  0
LINE
  5
AF
330
17
100
AcDbEntity
  8
J-厨卫
  6
ByBlock
100
AcDbLine
 10
1555042.056374319
 20
145677.9862517952
 30
0.0
 11
1555042.056374316
 21
147147.9862517633
 31
0.0
  0
LINE
  5
B0
330
17
100
AcDbEntity
  8
J-厨卫
  6
ByBlock
100
AcDbLine
 10
1555072.056374319
 20
145677.9862517952
 30
0.0
 11
1555072.056374316
 21
147147.9862517972
 31
0.0
  0
LINE
  5
B1
330
17
100
AcDbEntity
  8
J-厨卫
  6
ByBlock
100
AcDbLine
 10
1555042.056374319
 20
145677.9862517952
 30
0.0
 11
1555072.056374319
 21
145677.9862517952
 31
0.0
  0
INSERT
  5
B2
330
17
100
AcDbEntity
  8
J-厨卫
  6
ByBlock
100
AcDbBlockReference
 66
1
  2
$TCHSYS$APDOOR2D
 10
1554614.556374313
 20
147162.9862517868
 30
0.0
 41
600.0
 42
600.0
 43
30.0
 50
180.0
  0
ATTRIB
  5
B3
330
B2
100
AcDbEntity
  8
WINDOW_TEXT
  6
ByBlock
100
AcDbText
 10
1554680.556374328
 20
147085.3612518306
 30
0.0
 40
446.25
  1

  7
_TCH_WINDOW
 41
0.5647058823529412
100
AcDbAttribute
  2
A
 70
0
 71
1
 72
0
  0
SEQEND
  5
B4
330
B2
100
AcDbEntity
  8
J-厨卫
  6
ByBlock
  0
LINE
  5
B5
330
17
100
AcDbEntity
  8
J-厨卫
  6
ByBlock
100
AcDbLine
 10
1555072.05637432
 20
147177.9862517868
 30
0.0
 11
1554914.556374359
 21
147177.986251781
 31
0.0
  0
LINE
  5
B6
330
17
100
AcDbEntity
  8
J-厨卫
  6
ByBlock
100
AcDbLine
 10
1554914.556374359
 20
147177.986251781
 30
0.0
 11
1554914.556374359
 21
147147.9862517686
 31
0.0
  0
LINE
  5
B7
330
17
100
AcDbEntity
  8
J-厨卫
  6
ByBlock
100
AcDbLine
 10
1554914.556374359
 20
147147.9862517686
 30
0.0
 11
1555042.056374316
 21
147147.9862517633
 31
0.0
  0
LINE
  5
B8
330
17
100
AcDbEntity
  8
J-厨卫
  6
ByBlock
100
AcDbLine
 10
1554172.056374331
 20
147147.9862517633
 30
0.0
 11
1554314.556374359
 21
147147.9862517686
 31
0.0
  0
LINE
  5
B9
330
17
100
AcDbEntity
  8
J-厨卫
  6
ByBlock
100
AcDbLine
 10
1554314.556374359
 20
147147.9862517686
 30
0.0
 11
1554314.556374359
 21
147177.9862517877
 31
0.0
  0
LINE
  5
BA
330
17
100
AcDbEntity
  8
J-厨卫
  6
ByBlock
100
AcDbLine
 10
1554314.556374359
 20
147177.9862517877
 30
0.0
 11
1554142.056374331
 21
147177.9862517972
 31
0.0
  0
LINE
  5
BB
330
17
100
AcDbEntity
  8
WALL
100
AcDbLine
 10
1554172.056374328
 20
149227.9862517738
 30
0.0
 11
1554172.056374328
 21
148527.9862517836
 31
0.0
  0
LINE
  5
BC
330
17
100
AcDbEntity
  8
WALL
100
AcDbLine
 10
1554072.056374328
 20
149227.9862517738
 30
0.0
 11
1554072.056374328
 21
148527.9862517836
 31
0.0
  0
LINE
  5
BD
330
17
100
AcDbEntity
  8
WALL
100
AcDbLine
 10
1554172.056374328
 20
149227.9862517738
 30
0.0
 11
1554072.056374328
 21
149227.9862517738
 31
0.0
  0
LINE
  5
BE
330
17
100
AcDbEntity
  8
WALL
100
AcDbLine
 10
1554172.056374328
 20
148527.9862517836
 30
0.0
 11
1554072.056374328
 21
148527.9862517836
 31
0.0
  0
INSERT
  5
BF
330
17
100
AcDbEntity
  8
WINDOW
  6
ByBlock
100
AcDbBlockReference
 66
1
  2
$DorLib2D$00000001
 10
1552172.056374323
 20
146227.9862517602
 30
0.0
 41
900.0
 42
900.0
 43
900.0
 50
270.0
  0
ATTRIB
  5
C0
330
BF
100
AcDbEntity
  8
WINDOW_TEXT
  6
ByBlock
100
AcDbText
 10
1551919.556374324
 20
145915.9862517601
 30
0.0
 40
595.0
  1

 50
90.0
  7
_TCH_WINDOW
 41
0.5647058823529412
100
AcDbAttribute
  2
A
 70
0
 71
1
 72
0
  0
SEQEND
  5
C1
330
BF
100
AcDbEntity
  8
WINDOW
  6
ByBlock
  0
LINE
  5
C2
330
17
100
AcDbEntity
  8
WALL
100
AcDbLine
 10
1552072.056374314
 20
147177.9862517738
 30
0.0
 11
1552072.056374306
 21
146677.9862517548
 31
0.0
  0
LINE
  5
C3
330
17
100
AcDbEntity
  8
WALL
100
AcDbLine
 10
1552072.056374306
 20
146677.9862517548
 30
0.0
 11
1552272.056374329
 21
146677.9862517548
 31
0.0
  0
LINE
  5
C4
330
17
100
AcDbEntity
  8
WALL
100
AcDbLine
 10
1552272.056374329
 20
146677.9862517548
 30
0.0
 11
1552272.056374323
 21
147277.9862517739
 31
0.0
  0
LINE
  5
C5
330
17
100
AcDbEntity
  8
WALL
100
AcDbLine
 10
1552272.056374332
 20
145677.9862517784
 30
0.0
 11
1552272.056374334
 21
145777.9862517929
 31
0.0
  0
LINE
  5
C6
330
17
100
AcDbEntity
  8
WALL
100
AcDbLine
 10
1552272.056374334
 20
145777.9862517929
 30
0.0
 11
1552072.056374306
 21
145777.9862517929
 31
0.0
  0
LINE
  5
C7
330
17
100
AcDbEntity
  8
WALL
100
AcDbLine
 10
1552072.056374306
 20
145777.9862517929
 30
0.0
 11
1552072.056374314
 21
145677.9862517784
 31
0.0
  0
TEXT
  5
C8
330
17
100
AcDbEntity
  8
房间名
100
AcDbText
 10
1559276.586975978
 20
148198.5437658223
 30
0.0
 40
771.6312056737588
  1
无障碍卫
  7
_TCH_SPACE
100
AcDbText
  0
LINE
  5
C9
330
17
100
AcDbEntity
  8
WALL
100
AcDbLine
 10
1556072.056374319
 20
150177.9862517684
 30
0.0
 11
1556072.056374326
 21
149227.9862512207
 31
0.0
  0
LINE
  5
CA
330
17
100
AcDbEntity
  8
WALL
100
AcDbLine
 10
1555972.056374313
 20
150177.9862517668
 30
0.0
 11
1555972.056374313
 21
149327.9862512341
 31
0.0
  0
LINE
  5
CB
330
17
100
AcDbEntity
  8
WALL
100
AcDbLine
 10
1559772.056374326
 20
150177.9862517662
 30
0.0
 11
1559772.056374325
 21
147677.9862517588
 31
0.0
  0
LINE
  5
CC
330
17
100
AcDbEntity
  8
WALL
100
AcDbLine
 10
1559572.056374327
 20
150177.986251789
 30
0.0
 11
1559572.056374329
 21
147577.9862517594
 31
0.0
  0
INSERT
  5
CD
330
17
100
AcDbEntity
  8
WINDOW
  6
ByBlock
100
AcDbBlockReference
 66
1
  2
$DorLib2D$00000001
 10
1559672.056374328
 20
146927.9862517819
 30
0.0
 41
-900.0
 42
-900.0
 43
-900.0
 50
269.9999999999866
  0
ATTRIB
  5
CE
330
CD
100
AcDbEntity
  8
WINDOW_TEXT
  6
ByBlock
100
AcDbText
 10
1560019.556374333
 20
146615.9862517817
 30
0.0
 40
595.0
  1

 50
89.99999999998667
  7
_TCH_WINDOW
 41
0.5647058823529412
100
AcDbAttribute
  2
A
 70
0
 71
1
 72
0
  0
SEQEND
  5
CF
330
CD
100
AcDbEntity
  8
WINDOW
  6
ByBlock
  0
LINE
  5
D0
330
17
100
AcDbEntity
  8
WALL
100
AcDbLine
 10
1559572.056374327
 20
150177.986251789
 30
0.0
 11
1558072.056374324
 21
150177.9862517739
 31
0.0
  0
LINE
  5
D1
330
17
100
AcDbEntity
  8
WALL
100
AcDbLine
 10
1559672.056374329
 20
150377.9862517739
 30
0.0
 11
1558172.056374314
 21
150377.9862517693
 31
0.0
  0
LINE
  5
D2
330
17
100
AcDbEntity
  8
WALL
100
AcDbLine
 10
1559572.056374329
 20
147577.9862517594
 30
0.0
 11
1559572.056374327
 21
147377.9862517577
 31
0.0
  0
LINE
  5
D3
330
17
100
AcDbEntity
  8
WALL
100
AcDbLine
 10
1559572.056374327
 20
147377.9862517577
 30
0.0
 11
1559772.056374332
 21
147377.9862517576
 31
0.0
  0
LINE
  5
D4
330
17
100
AcDbEntity
  8
WALL
100
AcDbLine
 10
1559772.056374332
 20
147377.9862517576
 30
0.0
 11
1559772.056374339
 21
147477.9862517586
 31
0.0
  0
LINE
  5
D5
330
17
100
AcDbEntity
  8
WALL
100
AcDbLine
 10
1559772.056374338
 20
145477.9862517807
 30
0.0
 11
1559772.056374332
 21
146477.9862517958
 31
0.0
  0
LINE
  5
D6
330
17
100
AcDbEntity
  8
WALL
100
AcDbLine
 10
1559772.056374332
 20
146477.9862517958
 30
0.0
 11
1559572.056374331
 21
146477.9862517958
 31
0.0
  0
LINE
  5
D7
330
17
100
AcDbEntity
  8
WALL
100
AcDbLine
 10
1559572.056374331
 20
146477.9862517958
 30
0.0
 11
1559572.056374337
 21
145677.98625178
 31
0.0
  0
LINE
  5
D8
330
17
100
AcDbEntity
  8
J-厨卫
  6
ByBlock
100
AcDbLine
 10
1559572.056374321
 20
148377.9862517619
 30
0.0
 11
1558102.056374324
 21
148377.9862517559
 31
0.0
  0
LINE
  5
D9
330
17
100
AcDbEntity
  8
J-厨卫
  6
ByBlock
100
AcDbLine
 10
1559572.056374321
 20
148407.9862517619
 30
0.0
 11
1558102.056374329
 21
148407.9862517764
 31
0.0
  0
LINE
  5
DA
330
17
100
AcDbEntity
  8
J-厨卫
  6
ByBlock
100
AcDbLine
 10
1559572.056374321
 20
148377.9862517619
 30
0.0
 11
1559572.056374321
 21
148407.9862517619
 31
0.0
  0
LINE
  5
DB
330
17
100
AcDbEntity
  8
J-厨卫
  6
ByBlock
100
AcDbLine
 10
1559572.05637432
 20
149277.9862517619
 30
0.0
 11
1558102.056374328
 21
149277.9862517609
 31
0.0
  0
LINE
  5
DC
330
17
100
AcDbEntity
  8
J-厨卫
  6
ByBlock
100
AcDbLine
 10
1559572.05637432
 20
149307.9862517619
 30
0.0
 11
1558102.056374337
 21
149307.986251761
 31
0.0
  0
LINE
  5
DD
330
17
100
AcDbEntity
  8
J-厨卫
  6
ByBlock
100
AcDbLine
 10
1559572.05637432
 20
149277.9862517619
 30
0.0
 11
1559572.05637432
 21
149307.9862517619
 31
0.0
  0
INSERT
  5
DE
330
17
100
AcDbEntity
  8
J-厨卫
  6
ByBlock
100
AcDbBlockReference
 66
1
  2
$TCHSYS$APDOOR2D
 10
1558087.056374329
 20
148850.486251755
 30
0.0
 41
600.0
 42
600.0
 43
30.0
 50
270.0000000000593
  0
ATTRIB
  5
DF
330
DE
100
AcDbEntity
  8
WINDOW_TEXT
  6
ByBlock
100
AcDbText
 10
1557564.681374285
 20
148916.4862517689
 30
0.0
 40
446.25
  1

 50
90.00000000005929
  7
_TCH_WINDOW
 41
0.5647058823529412
100
AcDbAttribute
  2
A
 70
0
 71
1
 72
0
  0
SEQEND
  5
E0
330
DE
100
AcDbEntity
  8
J-厨卫
  6
ByBlock
  0
LINE
  5
E1
330
17
100
AcDbEntity
  8
J-厨卫
  6
ByBlock
100
AcDbLine
 10
1558072.056374324
 20
150177.9862517739
 30
0.0
 11
1558072.056374333
 21
150050.4862517593
 31
0.0
  0
LINE
  5
E2
330
17
100
AcDbEntity
  8
J-厨卫
  6
ByBlock
100
AcDbLine
 10
1558072.056374333
 20
150050.4862517593
 30
0.0
 11
1558102.056374324
 21
150050.4862517595
 31
0.0
  0
LINE
  5
E3
330
17
100
AcDbEntity
  8
J-厨卫
  6
ByBlock
100
AcDbLine
 10
1558102.056374324
 20
150050.4862517595
 30
0.0
 11
1558102.056374324
 21
150177.9862517739
 31
0.0
  0
LINE
  5
E4
330
17
100
AcDbEntity
  8
J-厨卫
  6
ByBlock
100
AcDbLine
 10
1558102.056374324
 20
150177.9862517739
 30
0.0
 11
1558072.056374324
 21
150177.9862517739
 31
0.0
  0
LINE
  5
E5
330
17
100
AcDbEntity
  8
J-厨卫
  6
ByBlock
100
AcDbLine
 10
1558102.056374337
 20
149307.986251761
 30
0.0
 11
1558102.056374333
 21
149450.4862517595
 31
0.0
  0
LINE
  5
E6
330
17
100
AcDbEntity
  8
J-厨卫
  6
ByBlock
100
AcDbLine
 10
1558102.056374333
 20
149450.4862517595
 30
0.0
 11
1558072.056374336
 21
149450.4862517593
 31
0.0
  0
LINE
  5
E7
330
17
100
AcDbEntity
  8
J-厨卫
  6
ByBlock
100
AcDbLine
 10
1558072.056374336
 20
149450.4862517593
 30
0.0
 11
1558072.056374328
 21
149307.986251761
 31
0.0
  0
LINE
  5
E8
330
17
100
AcDbEntity
  8
J-厨卫
  6
ByBlock
100
AcDbLine
 10
1559572.056374309
 20
147447.9862517811
 30
0.0
 11
1558072.056374318
 21
147447.9862517802
 31
0.0
  0
LINE
  5
E9
330
17
100
AcDbEntity
  8
J-厨卫
  6
ByBlock
100
AcDbLine
 10
1559572.056374309
 20
147477.9862517811
 30
0.0
 11
1558072.056374318
 21
147477.9862517802
 31
0.0
  0
LINE
  5
EA
330
17
100
AcDbEntity
  8
J-厨卫
  6
ByBlock
100
AcDbLine
 10
1559572.056374309
 20
147447.9862517811
 30
0.0
 11
1559572.056374309
 21
147477.9862517811
 31
0.0
  0
LINE
  5
EB
330
17
100
AcDbEntity
  8
J-厨卫
  6
ByBlock
100
AcDbLine
 10
1558072.056374318
 20
147447.9862517802
 30
0.0
 11
1558072.056374318
 21
147477.9862517802
 31
0.0
  0
INSERT
  5
EC
330
17
100
AcDbEntity
  8
J-厨卫
  6
ByBlock
100
AcDbBlockReference
 66
1
  2
$TCHSYS$APDOOR2D
 10
1558087.056374317
 20
147950.4862517744
 30
0.0
 41
600.0
 42
600.0
 43
30.0
 50
270.0000000000593
  0
ATTRIB
  5
ED
330
EC
100
AcDbEntity
  8
WINDOW_TEXT
  6
ByBlock
100
AcDbText
 10
1557564.681374273
 20
148016.4862517882
 30
0.0
 40
446.25
  1

 50
90.00000000005929
  7
_TCH_WINDOW
 41
0.5647058823529412
100
AcDbAttribute
  2
A
 70
0
 71
1
 72
0
  0
SEQEND
  5
EE
330
EC
100
AcDbEntity
  8
J-厨卫
  6
ByBlock
  0
LINE
  5
EF
330
17
100
AcDbEntity
  8
J-厨卫
  6
ByBlock
100
AcDbLine
 10
1558072.056374317
 20
148407.9862517803
 30
0.0
 11
1558072.056374325
 21
148250.4862515624
 31
0.0
  0
LINE
  5
F0
330
17
100
AcDbEntity
  8
J-厨卫
  6
ByBlock
100
AcDbLine
 10
1558072.056374325
 20
148250.4862515624
 30
0.0
 11
1558102.056374345
 21
148250.4862515624
 31
0.0
  0
LINE
  5
F1
330
17
100
AcDbEntity
  8
J-厨卫
  6
ByBlock
100
AcDbLine
 10
1558102.056374345
 20
148250.4862515624
 30
0.0
 11
1558102.056374324
 21
148377.9862517559
 31
0.0
  0
LINE
  5
F2
330
17
100
AcDbEntity
  8
J-厨卫
  6
ByBlock
100
AcDbLine
 10
1558102.056374318
 20
147507.9862517803
 30
0.0
 11
1558102.05637434
 21
147650.4862515624
 31
0.0
  0
LINE
  5
F3
330
17
100
AcDbEntity
  8
J-厨卫
  6
ByBlock
100
AcDbLine
 10
1558102.05637434
 20
147650.4862515624
 30
0.0
 11
1558072.056374325
 21
147650.4862515624
 31
0.0
  0
LINE
  5
F4
330
17
100
AcDbEntity
  8
J-厨卫
  6
ByBlock
100
AcDbLine
 10
1558072.056374325
 20
147650.4862515624
 30
0.0
 11
1558072.056374318
 21
147507.9862517803
 31
0.0
  0
LINE
  5
F5
330
17
100
AcDbEntity
  8
J-厨卫
  6
ByBlock
100
AcDbLine
 10
1558072.056374318
 20
147507.9862517803
 30
0.0
 11
1558102.056374318
 21
147507.9862517803
 31
0.0
  0
LINE
  5
F6
330
17
100
AcDbEntity
  8
WALL
100
AcDbLine
 10
1579872.056374329
 20
166267.2974024094
 30
0.0
 11
1579872.056374329
 21
156277.9862517697
 31
0.0
  0
LINE
  5
F7
330
17
100
AcDbEntity
  8
WALL
100
AcDbLine
 10
1579672.056374329
 20
166467.2974024434
 30
0.0
 11
1579672.056374329
 21
156277.9862517738
 31
0.0
  0
LINE
  5
F8
330
17
100
AcDbEntity
  8
WALL
100
AcDbLine
 10
1570172.05637433
 20
140027.9862381846
 30
0.0
 11
1569422.056374321
 21
140027.9862381846
 31
0.0
  0
LINE
  5
F9
330
17
100
AcDbEntity
  8
WALL
100
AcDbLine
 10
1569422.056374321
 20
140027.9862381846
 30
0.0
 11
1569422.056374321
 21
139827.9862381745
 31
0.0
  0
LINE
  5
FA
330
17
100
AcDbEntity
  8
WALL
100
AcDbLine
 10
1569422.056374321
 20
139827.9862381745
 30
0.0
 11
1570372.056374329
 21
139827.9862381752
 31
0.0
  0
LINE
  5
FB
330
17
100
AcDbEntity
  8
WALL
100
AcDbLine
 10
1567472.056374313
 20
139827.9862381752
 30
0.0
 11
1567922.056374321
 21
139827.9862381745
 31
0.0
  0
LINE
  5
FC
330
17
100
AcDbEntity
  8
WALL
100
AcDbLine
 10
1567922.056374321
 20
139827.9862381745
 30
0.0
 11
1567922.056374321
 21
140027.9862381813
 31
0.0
  0
LINE
  5
FD
330
17
100
AcDbEntity
  8
WALL
100
AcDbLine
 10
1567922.056374321
 20
140027.9862381813
 30
0.0
 11
1567372.056374315
 21
140027.9862381785
 31
0.0
  0
LINE
  5
FE
330
17
100
AcDbEntity
  8
WALL
100
AcDbLine
 10
1570172.056374331
 20
163777.986238177
 30
0.0
 11
1570172.056374329
 21
157877.9862517548
 31
0.0
  0
LINE
  5
FF
330
17
100
AcDbEntity
  8
WALL
100
AcDbLine
 10
1570172.056374329
 20
157877.9862517548
 30
0.0
 11
1570372.056374325
 21
157877.9862517548
 31
0.0
  0
LINE
  5
100
330
17
100
AcDbEntity
  8
WALL
100
AcDbLine
 10
1570372.056374325
 20
157877.9862517548
 30
0.0
 11
1570372.056374328
 21
163977.9862381773
 31
0.0
  0
LINE
  5
101
330
17
100
AcDbEntity
  8
WALL
100
AcDbLine
 10
1570372.056374328
 20
156277.9862517739
 30
0.0
 11
1570372.056374325
 21
156377.9862517548
 31
0.0
  0
LINE
  5
102
330
17
100
AcDbEntity
  8
WALL
100
AcDbLine
 10
1570372.056374325
 20
156377.9862517548
 30
0.0
 11
1570172.056374329
 21
156377.9862517548
 31
0.0
  0
LINE
  5
103
330
17
100
AcDbEntity
  8
WALL
100
AcDbLine
 10
1570172.056374329
 20
156377.9862517548
 30
0.0
 11
1570172.05637433
 21
156177.9862517738
 31
0.0
  0
LINE
  5
104
330
17
100
AcDbEntity
  8
WALL
100
AcDbLine
 10
1570372.056374328
 20
163977.9862381773
 30
0.0
 11
1569422.056374321
 21
163977.9862381773
 31
0.0
  0
LINE
  5
105
330
17
100
AcDbEntity
  8
WALL
100
AcDbLine
 10
1569422.056374321
 20
163977.9862381773
 30
0.0
 11
1569422.056374321
 21
163777.9862381781
 31
0.0
  0
LINE
  5
106
330
17
100
AcDbEntity
  8
WALL
100
AcDbLine
 10
1569422.056374321
 20
163777.9862381781
 30
0.0
 11
1570172.056374331
 21
163777.986238177
 31
0.0
  0
LINE
  5
107
330
17
100
AcDbEntity
  8
WALL
100
AcDbLine
 10
1567472.056374297
 20
163777.986238177
 30
0.0
 11
1567922.056374321
 21
163777.9862381781
 31
0.0
  0
LINE
  5
108
330
17
100
AcDbEntity
  8
WALL
100
AcDbLine
 10
1567922.056374321
 20
163777.9862381781
 30
0.0
 11
1567922.056374321
 21
163977.9862381774
 31
0.0
  0
LINE
  5
109
330
17
100
AcDbEntity
  8
WALL
100
AcDbLine
 10
1567922.056374321
 20
163977.9862381774
 30
0.0
 11
1567472.056374333
 21
163977.9862381773
 31
0.0
  0
LINE
  5
10A
330
17
100
AcDbEntity
  8
WALL
100
AcDbLine
 10
1579672.056374329
 20
166467.2974024434
 30
0.0
 11
1580579.82334578
 21
166467.2974024109
 31
0.0
  0
LINE
  5
10B
330
17
100
AcDbEntity
  8
WALL
100
AcDbLine
 10
1579872.056374329
 20
166267.2974024094
 30
0.0
 11
1580579.82334578
 21
166267.2974024109
 31
0.0
  0
LINE
  5
10C
330
17
100
AcDbEntity
  8
WALL
100
AcDbLine
 10
1570372.056374328
 20
156277.9862517739
 30
0.0
 11
1579672.056374329
 21
156277.9862517738
 31
0.0
  0
LINE
  5
10D
330
17
100
AcDbEntity
  8
WALL
100
AcDbLine
 10
1570372.05637433
 20
156077.9862517738
 30
0.0
 11
1579772.056374329
 21
156077.9862517738
 31
0.0
  0
LINE
  5
10E
330
17
100
AcDbEntity
  8
WALL
100
AcDbLine
 10
1558872.056374325
 20
145677.9862517724
 30
0.0
 11
1559572.056374337
 21
145677.98625178
 31
0.0
  0
LINE
  5
10F
330
17
100
AcDbEntity
  8
WALL
100
AcDbLine
 10
1558872.056374325
 20
145477.9862517724
 30
0.0
 11
1559772.056374338
 21
145477.9862517807
 31
0.0
  0
LINE
  5
110
330
17
100
AcDbEntity
  8
WALL
100
AcDbLine
 10
1558872.056374325
 20
145677.9862517724
 30
0.0
 11
1558872.056374325
 21
145477.9862517724
 31
0.0
  0
ARC
  5
111
330
17
100
AcDbEntity
  8
CURTWALL
100
AcDbCircle
 10
1576270.766437807
 20
169876.6963152586
 30
0.0
 40
3900.000000000398
100
AcDbArc
 50
7.041827938781174
 51
82.95817206122493
  0
ARC
  5
112
330
17
100
AcDbEntity
  8
CURTWALL
100
AcDbCircle
 10
1576270.766437807
 20
169876.6963152586
 30
0.0
 40
3800.000000000476
100
AcDbArc
 50
7.041827938780289
 51
82.95817206122946
  0
ARC
  5
113
330
17
100
AcDbEntity
  8
CURTWALL
100
AcDbCircle
 10
1576270.766437807
 20
169876.6963152587
 30
0.0
 40
4000.000000000307
100
AcDbArc
 50
7.041827938778694
 51
82.9581720612272
  0
ARC
  5
114
330
17
100
AcDbEntity
  8
CURTWALL
100
AcDbCircle
 10
1540473.34631083
 20
169876.6963152597
 30
0.0
 40
3899.999999998914
100
AcDbArc
 50
97.0418279387778
 51
172.958172061221
  0
ARC
  5
115
330
17
100
AcDbEntity
  8
CURTWALL
100
AcDbCircle
 10
1540473.34631083
 20
169876.6963152596
 30
0.0
 40
3799.999999999013
100
AcDbArc
 50
97.04182793877678
 51
172.9581720612198
  0
ARC
  5
116
330
17
100
AcDbEntity
  8
CURTWALL
100
AcDbCircle
 10
1540473.34631083
 20
169876.69631526
 30
0.0
 40
3999.999999998687
100
AcDbArc
 50
97.04182793877567
 51
172.9581720612226
  0
ARC
  5
117
330
17
100
AcDbEntity
  8
CURTWALL
100
AcDbCircle
 10
1540473.346310829
 20
134079.2761882752
 30
0.0
 40
3900.000000000849
100
AcDbArc
 50
187.0418279387739
 51
262.9581720612257
  0
ARC
  5
118
330
17
100
AcDbEntity
  8
CURTWALL
100
AcDbCircle
 10
1540473.346310829
 20
134079.2761882752
 30
0.0
 40
3800.000000000887
100
AcDbArc
 50
187.0418279387725
 51
262.9581720612267
  0
ARC
  5
119
330
17
100
AcDbEntity
  8
CURTWALL
100
AcDbCircle
 10
1540473.34631083
 20
134079.2761882751
 30
0.0
 40
4000.000000000754
100
AcDbArc
 50
187.0418279387725
 51
262.9581720612212
  0
ARC
  5
11A
330
17
100
AcDbEntity
  8
CURTWALL
100
AcDbCircle
 10
1576270.766437808
 20
134079.2761882751
 30
0.0
 40
3900.000000000875
100
AcDbArc
 50
277.0418279387777
 51
352.9581720612455
  0
ARC
  5
11B
330
17
100
AcDbEntity
  8
CURTWALL
100
AcDbCircle
 10
1576270.766437809
 20
134079.2761882752
 30
0.0
 40
3800.000000000942
100
AcDbArc
 50
277.0418279387767
 51
352.9581720612454
  0
ARC
  5
11C
330
17
100
AcDbEntity
  8
CURTWALL
100
AcDbCircle
 10
1576270.766437809
 20
134079.276188275
 30
0.0
 40
4000.000000000799
100
AcDbArc
 50
277.0418279387753
 51
352.9581720612457
  0
LINE
  5
11D
330
17
100
AcDbEntity
  8
WALL
100
AcDbLine
 10
1581213.205595753
 20
156277.9862517738
 30
0.0
 11
1582774.105503708
 21
156277.9862517738
 31
0.0
  0
LINE
  5
11E
330
17
100
AcDbEntity
  8
WALL
100
AcDbLine
 10
1581213.205595753
 20
156077.9862517738
 30
0.0
 11
1582774.105503708
 21
156077.9862517738
 31
0.0
  0
LINE
  5
11F
330
17
100
AcDbEntity
  8
WALL
100
AcDbLine
 10
1582774.105503708
 20
156277.9862517738
 30
0.0
 11
1582774.105503708
 21
156077.9862517738
 31
0.0
  0
LINE
  5
120
330
17
100
AcDbEntity
  8
WALL
100
AcDbLine
 10
1580579.82334578
 20
166467.2974024109
 30
0.0
 11
1581747.990185477
 21
166467.2974024001
 31
0.0
  0
LINE
  5
121
330
17
100
AcDbEntity
  8
WALL
100
AcDbLine
 10
1580579.82334578
 20
166267.2974024109
 30
0.0
 11
1581823.805346622
 21
166267.2974023992
 31
0.0
  0
LINE
  5
122
330
17
100
AcDbEntity
  8
CURTWALL
100
AcDbLine
 10
1559572.05637432
 20
129082.7895308546
 30
0.0
 11
1559572.056374335
 21
129877.9862517421
 31
0.0
  0
LINE
  5
123
330
17
100
AcDbEntity
  8
CURTWALL
100
AcDbLine
 10
1559472.05637432
 20
128982.0196393244
 30
0.0
 11
1559472.056374336
 21
129777.9862517686
 31
0.0
  0
LINE
  5
124
330
17
100
AcDbEntity
  8
CURTWALL
100
AcDbLine
 10
1559672.05637432
 20
129183.6272124459
 30
0.0
 11
1559672.056374296
 21
129977.9862517665
 31
0.0
  0
LINE
  5
125
330
17
100
AcDbEntity
  8
CURTWALL
100
AcDbLine
 10
1557172.05637432
 20
129082.7895308543
 30
0.0
 11
1557172.056374306
 21
129877.9862517744
 31
0.0
  0
LINE
  5
126
330
17
100
AcDbEntity
  8
CURTWALL
100
AcDbLine
 10
1557072.05637432
 20
129183.6272124457
 30
0.0
 11
1557072.056374307
 21
129977.9862517495
 31
0.0
  0
LINE
  5
127
330
17
100
AcDbEntity
  8
CURTWALL
100
AcDbLine
 10
1557272.05637432
 20
128982.019639324
 30
0.0
 11
1557272.056374306
 21
129777.9862517485
 31
0.0
  0
LINE
  5
128
330
17
100
AcDbEntity
  8
CURTWALL
100
AcDbLine
 10
1559572.056374335
 20
129877.9862517421
 30
0.0
 11
1558372.056374314
 21
129877.9862517582
 31
0.0
  0
LINE
  5
129
330
17
100
AcDbEntity
  8
CURTWALL
100
AcDbLine
 10
1559472.056374336
 20
129777.9862517686
 30
0.0
 11
1558372.056374314
 21
129777.9862517582
 31
0.0
  0
LINE
  5
12A
330
17
100
AcDbEntity
  8
CURTWALL
100
AcDbLine
 10
1559672.056374296
 20
129977.9862517665
 30
0.0
 11
1558372.056374314
 21
129977.9862517582
 31
0.0
  0
LINE
  5
12B
330
17
100
AcDbEntity
  8
CURTWALL
100
AcDbLine
 10
1559572.05637432
 20
174873.1829726784
 30
0.0
 11
1559572.056374295
 21
174077.9862518025
 31
0.0
  0
LINE
  5
12C
330
17
100
AcDbEntity
  8
CURTWALL
100
AcDbLine
 10
1559672.05637432
 20
174772.345291087
 30
0.0
 11
1559672.056374295
 21
173977.9862517766
 31
0.0
  0
LINE
  5
12D
330
17
100
AcDbEntity
  8
CURTWALL
100
AcDbLine
 10
1559472.05637432
 20
174973.9528642087
 30
0.0
 11
1559472.056374334
 21
174177.9862517775
 31
0.0
  0
LINE
  5
12E
330
17
100
AcDbEntity
  8
CURTWALL
100
AcDbLine
 10
1557172.05637432
 20
174873.1829726783
 30
0.0
 11
1557172.056374304
 21
174077.9862517874
 31
0.0
  0
LINE
  5
12F
330
17
100
AcDbEntity
  8
CURTWALL
100
AcDbLine
 10
1557272.05637432
 20
174973.9528642086
 30
0.0
 11
1557272.056374304
 21
174177.9862518117
 31
0.0
  0
LINE
  5
130
330
17
100
AcDbEntity
  8
CURTWALL
100
AcDbLine
 10
1557072.05637432
 20
174772.345291087
 30
0.0
 11
1557072.056374343
 21
173977.9862517884
 31
0.0
  0
LINE
  5
131
330
17
100
AcDbEntity
  8
CURTWALL
100
AcDbLine
 10
1559572.056374295
 20
174077.9862518025
 30
0.0
 11
1558372.056374333
 21
174077.9862517907
 31
0.0
  0
LINE
  5
132
330
17
100
AcDbEntity
  8
CURTWALL
100
AcDbLine
 10
1559672.056374295
 20
173977.9862517766
 30
0.0
 11
1558372.056374333
 21
173977.9862517907
 31
0.0
  0
LINE
  5
133
330
17
100
AcDbEntity
  8
CURTWALL
100
AcDbLine
 10
1559472.056374334
 20
174177.9862517775
 30
0.0
 11
1558372.056374333
 21
174177.9862517907
 31
0.0
  0
LINE
  5
134
330
17
100
AcDbEntity
  8
CURTWALL
100
AcDbLine
 10
1535476.85965341
 20
153177.9862517648
 30
0.0
 11
1536272.056374322
 21
153177.9862517663
 31
0.0
  0
LINE
  5
135
330
17
100
AcDbEntity
  8
CURTWALL
100
AcDbLine
 10
1535577.697335001
 20
153277.9862517648
 30
0.0
 11
1536372.056374322
 21
153277.9862517658
 31
0.0
  0
LINE
  5
136
330
17
100
AcDbEntity
  8
CURTWALL
100
AcDbLine
 10
1535376.08976188
 20
153077.9862517648
 30
0.0
 11
1536172.05637431
 21
153077.9862517667
 31
0.0
  0
LINE
  5
137
330
17
100
AcDbEntity
  8
CURTWALL
100
AcDbLine
 10
1535476.85965341
 20
150777.9862517648
 30
0.0
 11
1536272.056374322
 21
150777.9862517393
 31
0.0
  0
LINE
  5
138
330
17
100
AcDbEntity
  8
CURTWALL
100
AcDbLine
 10
1535376.08976188
 20
150877.9862517648
 30
0.0
 11
1536172.05637431
 21
150877.986251777
 31
0.0
  0
LINE
  5
139
330
17
100
AcDbEntity
  8
CURTWALL
100
AcDbLine
 10
1535577.697335001
 20
150677.9862517648
 30
0.0
 11
1536372.056374322
 21
150677.9862517779
 31
0.0
  0
LINE
  5
13A
330
17
100
AcDbEntity
  8
CURTWALL
100
AcDbLine
 10
1536272.056374322
 20
153177.9862517663
 30
0.0
 11
1536272.056374322
 21
150777.9862517393
 31
0.0
  0
LINE
  5
13B
330
17
100
AcDbEntity
  8
CURTWALL
100
AcDbLine
 10
1536372.056374322
 20
153277.9862517658
 30
0.0
 11
1536372.056374322
 21
150677.9862517779
 31
0.0
  0
LINE
  5
13C
330
17
100
AcDbEntity
  8
CURTWALL
100
AcDbLine
 10
1536172.05637431
 20
153077.9862517667
 30
0.0
 11
1536172.05637431
 21
150877.986251777
 31
0.0
  0
LINE
  5
13D
330
17
100
AcDbEntity
  8
WALL
100
AcDbLine
 10
1564672.056374324
 20
150577.986251787
 30
0.0
 11
1564672.056374324
 21
147877.986251787
 31
0.0
  0
LINE
  5
13E
330
17
100
AcDbEntity
  8
WALL
100
AcDbLine
 10
1564372.056374324
 20
150577.986251787
 30
0.0
 11
1564372.056374324
 21
147877.986251787
 31
0.0
  0
LINE
  5
13F
330
17
100
AcDbEntity
  8
WALL
100
AcDbLine
 10
1568172.056374324
 20
161777.986251789
 30
0.0
 11
1568172.056374324
 21
151977.986251787
 31
0.0
  0
LINE
  5
140
330
17
100
AcDbEntity
  8
WALL
100
AcDbLine
 10
1567372.056374324
 20
160977.986251789
 30
0.0
 11
1567372.056374324
 21
152127.9862517784
 31
0.0
  0
LINE
  5
141
330
17
100
AcDbEntity
  8
WALL
100
AcDbLine
 10
1567372.056374321
 20
142977.986251789
 30
0.0
 11
1566322.056374321
 21
142977.9862517894
 31
0.0
  0
LINE
  5
142
330
17
100
AcDbEntity
  8
WALL
100
AcDbLine
 10
1566322.056374321
 20
142977.9862517894
 30
0.0
 11
1566322.056374321
 21
142177.9862517936
 31
0.0
  0
LINE
  5
143
330
17
100
AcDbEntity
  8
WALL
100
AcDbLine
 10
1566322.056374321
 20
142177.9862517936
 30
0.0
 11
1568172.056374324
 21
142177.986251789
 31
0.0
  0
LINE
  5
144
330
17
100
AcDbEntity
  8
WALL
100
AcDbLine
 10
1564572.056374324
 20
142177.986251787
 30
0.0
 11
1565622.056374321
 21
142177.9862517932
 31
0.0
  0
LINE
  5
145
330
17
100
AcDbEntity
  8
WALL
100
AcDbLine
 10
1565622.056374321
 20
142177.9862517932
 30
0.0
 11
1565622.056374321
 21
142977.9862517894
 31
0.0
  0
LINE
  5
146
330
17
100
AcDbEntity
  8
WALL
100
AcDbLine
 10
1565622.056374321
 20
142977.9862517894
 30
0.0
 11
1564672.05637432
 21
142977.986251789
 31
0.0
  0
INSERT
  5
147
330
17
100
AcDbEntity
  8
WINDOW
  6
ByBlock
100
AcDbBlockReference
 66
1
  2
$DorLib2D$00000114
 10
1565972.056374324
 20
142577.986251787
 30
0.0
 41
700.0
 42
700.0
 43
700.0
 50
180.0
  0
ATTRIB
  5
148
330
147
100
AcDbEntity
  8
WINDOW_TEXT
  6
ByBlock
100
AcDbText
 10
1565204.056374324
 20
143263.7362517861
 30
0.0
 40
892.5
  1

  7
_TCH_WINDOW
 41
0.5647058823529412
100
AcDbAttribute
  2
A
 70
0
 71
1
 72
0
  0
SEQEND
  5
149
330
147
100
AcDbEntity
  8
WINDOW
  6
ByBlock
  0
LINE
  5
14A
330
17
100
AcDbEntity
  8
WINDOW
  6
ByBlock
100
AcDbLine
 10
1566322.056374324
 20
142177.986251787
 30
0.0
 11
1565622.056374324
 21
142177.986251787
 31
0.0
  0
LINE
  5
14B
330
17
100
AcDbEntity
  8
WINDOW
  6
ByBlock
100
AcDbLine
 10
1566322.056374324
 20
142977.986251787
 30
0.0
 11
1565622.056374324
 21
142977.986251787
 31
0.0
  0
LINE
  5
14C
330
17
100
AcDbEntity
  8
WALL
100
AcDbLine
 10
1568172.056374324
 20
161777.986251789
 30
0.0
 11
1566322.056374321
 21
161777.9862517851
 31
0.0
  0
LINE
  5
14D
330
17
100
AcDbEntity
  8
WALL
100
AcDbLine
 10
1566322.056374321
 20
161777.9862517851
 30
0.0
 11
1566322.056374321
 21
160977.9862517943
 31
0.0
  0
LINE
  5
14E
330
17
100
AcDbEntity
  8
WALL
100
AcDbLine
 10
1566322.056374321
 20
160977.9862517943
 30
0.0
 11
1567372.056374324
 21
160977.986251789
 31
0.0
  0
LINE
  5
14F
330
17
100
AcDbEntity
  8
WALL
100
AcDbLine
 10
1564672.056374305
 20
160977.986251789
 30
0.0
 11
1565622.056374321
 21
160977.9862517943
 31
0.0
  0
LINE
  5
150
330
17
100
AcDbEntity
  8
WALL
100
AcDbLine
 10
1565622.056374321
 20
160977.9862517943
 30
0.0
 11
1565622.056374321
 21
161777.9862517847
 31
0.0
  0
LINE
  5
151
330
17
100
AcDbEntity
  8
WALL
100
AcDbLine
 10
1565622.056374321
 20
161777.9862517847
 30
0.0
 11
1564572.056374324
 21
161777.986251787
 31
0.0
  0
INSERT
  5
152
330
17
100
AcDbEntity
  8
WINDOW
  6
ByBlock
100
AcDbBlockReference
 66
1
  2
$DorLib2D$00000114
 10
1565972.056374324
 20
161377.986251787
 30
0.0
 41
700.0
 42
-700.0
 43
700.0
 50
180.0
  0
ATTRIB
  5
153
330
152
100
AcDbEntity
  8
WINDOW_TEXT
  6
ByBlock
100
AcDbText
 10
1565204.056374324
 20
159681.736251787
 30
0.0
 40
892.5
  1

  7
_TCH_WINDOW
 41
0.5647058823529412
100
AcDbAttribute
  2
A
 70
0
 71
1
 72
0
  0
SEQEND
  5
154
330
152
100
AcDbEntity
  8
WINDOW
  6
ByBlock
  0
LINE
  5
155
330
17
100
AcDbEntity
  8
WINDOW
  6
ByBlock
100
AcDbLine
 10
1566322.056374324
 20
161777.986251787
 30
0.0
 11
1565622.056374324
 21
161777.986251787
 31
0.0
  0
LINE
  5
156
330
17
100
AcDbEntity
  8
WINDOW
  6
ByBlock
100
AcDbLine
 10
1566322.056374324
 20
160977.986251787
 30
0.0
 11
1565622.056374324
 21
160977.986251787
 31
0.0
  0
TEXT
  5
157
330
17
100
AcDbEntity
  8
PUB_TEXT
100
AcDbText
 10
1565140.673395602
 20
157045.4862517886
 30
0.0
 40
506.3829787234042
  1
上
  7
_TCH_DIM
100
AcDbText
  0
LWPOLYLINE
  5
158
330
17
100
AcDbEntity
  8
DIM_SYMB
100
AcDbPolyline
 90
3
 70
0
 10
1565297.056374326
 20
156887.9862517886
 10
1565297.056374325
 20
156167.9862517886
 40
120.0
 41
0.0
 10
1565297.056374325
 20
155717.9862517886
  0
TEXT
  5
159
330
17
100
AcDbEntity
  8
PUB_TEXT
100
AcDbText
 10
1566604.636161558
 20
157045.4862517884
 30
0.0
 40
506.3829787234042
  1
下
  7
_TCH_DIM
100
AcDbText
  0
LWPOLYLINE
  5
15A
330
17
100
AcDbEntity
  8
DIM_SYMB
100
AcDbPolyline
 90
5
 70
0
 10
1566747.056374324
 20
156887.9862517884
 10
1566747.056374324
 20
152727.9862517881
 10
1565297.056374324
 20
152727.9862517887
 10
1565297.056374325
 20
155007.9862517886
 40
120.0
 41
0.0
 10
1565297.056374325
 20
155457.9862517886
  0
LINE
  5
15B
330
17
100
AcDbEntity
  8
STAIR
100
AcDbLine
 10
1564672.056374326
 20
156757.9862517889
 30
0.0
 11
1564672.056374319
 21
155316.4149477668
 31
0.0
  0
LINE
  5
15C
330
17
100
AcDbEntity
  8
STAIR
100
AcDbLine
 10
1564672.056374319
 20
155203.4777044013
 30
0.0
 11
1564672.056374324
 21
153637.9862517889
 31
0.0
  0
LINE
  5
15D
330
17
100
AcDbEntity
  8
STAIR
100
AcDbLine
 10
1565872.056374322
 20
156757.9862517725
 30
0.0
 11
1564672.056374326
 21
156757.9862517889
 31
0.0
  0
LINE
  5
15E
330
17
100
AcDbEntity
  8
STAIR
100
AcDbLine
 10
1565872.056374321
 20
156497.9862517725
 30
0.0
 11
1564672.056374326
 21
156497.9862517889
 31
0.0
  0
LINE
  5
15F
330
17
100
AcDbEntity
  8
STAIR
100
AcDbLine
 10
1565872.056374321
 20
156237.9862517969
 30
0.0
 11
1564672.056374325
 21
156237.9862517889
 31
0.0
  0
LINE
  5
160
330
17
100
AcDbEntity
  8
STAIR
100
AcDbLine
 10
1565872.056374321
 20
155977.9862517969
 30
0.0
 11
1564672.056374325
 21
155977.9862517889
 31
0.0
  0
LINE
  5
161
330
17
100
AcDbEntity
  8
STAIR
100
AcDbLine
 10
1565872.056374321
 20
155717.9862517725
 30
0.0
 11
1565652.326813816
 21
155717.9862517693
 31
0.0
  0
LINE
  5
162
330
17
100
AcDbEntity
  8
STAIR
100
AcDbLine
 10
1565437.152465841
 20
155717.9862517722
 30
0.0
 11
1564672.056374325
 21
155717.9862517889
 31
0.0
  0
LINE
  5
163
330
17
100
AcDbEntity
  8
STAIR
100
AcDbLine
 10
1565872.056374321
 20
155457.9862517969
 30
0.0
 11
1565156.960282891
 21
155457.9862517965
 31
0.0
  0
LINE
  5
164
330
17
100
AcDbEntity
  8
STAIR
100
AcDbLine
 10
1564941.785934939
 20
155457.9862517951
 30
0.0
 11
1564672.056374325
 21
155457.9862517889
 31
0.0
  0
LINE
  5
165
330
17
100
AcDbEntity
  8
STAIR
100
AcDbLine
 10
1565872.056374321
 20
155197.9862517969
 30
0.0
 11
1564672.056374325
 21
155197.9862517889
 31
0.0
  0
LINE
  5
166
330
17
100
AcDbEntity
  8
STAIR
100
AcDbLine
 10
1565872.056374321
 20
154937.9862517725
 30
0.0
 11
1564672.056374325
 21
154937.9862517889
 31
0.0
  0
LINE
  5
167
330
17
100
AcDbEntity
  8
STAIR
100
AcDbLine
 10
1565872.056374321
 20
154677.9862517725
 30
0.0
 11
1564672.056374325
 21
154677.9862517889
 31
0.0
  0
LINE
  5
168
330
17
100
AcDbEntity
  8
STAIR
100
AcDbLine
 10
1565872.056374321
 20
154417.9862517969
 30
0.0
 11
1564672.056374325
 21
154417.9862517889
 31
0.0
  0
LINE
  5
169
330
17
100
AcDbEntity
  8
STAIR
100
AcDbLine
 10
1565872.056374321
 20
154157.9862517969
 30
0.0
 11
1564672.056374325
 21
154157.9862517889
 31
0.0
  0
LINE
  5
16A
330
17
100
AcDbEntity
  8
STAIR
100
AcDbLine
 10
1565872.05637432
 20
153897.9862517725
 30
0.0
 11
1564672.056374324
 21
153897.9862517889
 31
0.0
  0
LINE
  5
16B
330
17
100
AcDbEntity
  8
STAIR
100
AcDbLine
 10
1565872.05637432
 20
153637.9862517969
 30
0.0
 11
1564672.056374324
 21
153637.9862517889
 31
0.0
  0
LINE
  5
16C
330
17
100
AcDbEntity
  8
STAIR
100
AcDbLine
 10
1565922.056374326
 20
156757.9862517884
 30
0.0
 11
1565922.05637432
 21
155972.4947991333
 31
0.0
  0
LINE
  5
16D
330
17
100
AcDbEntity
  8
STAIR
100
AcDbLine
 10
1565922.05637432
 20
155859.557555745
 30
0.0
 11
1565922.056374324
 21
153637.9862517884
 31
0.0
  0
LINE
  5
16E
330
17
100
AcDbEntity
  8
STAIR
100
AcDbLine
 10
1565922.05637432
 20
155859.557555781
 30
0.0
 11
1565387.976956413
 21
155579.2385596781
 31
0.0
  0
LINE
  5
16F
330
17
100
AcDbEntity
  8
STAIR
100
AcDbLine
 10
1565922.05637432
 20
155972.4947991404
 30
0.0
 11
1565365.228509483
 21
155680.2359649015
 31
0.0
  0
LINE
  5
170
330
17
100
AcDbEntity
  8
STAIR
100
AcDbLine
 10
1565365.228509483
 20
155680.2359649015
 30
0.0
 11
1565404.435810707
 21
155506.1653703327
 31
0.0
  0
LINE
  5
171
330
17
100
AcDbEntity
  8
STAIR
100
AcDbLine
 10
1565404.435810707
 20
155506.1653703327
 30
0.0
 11
1565205.516319822
 21
155687.2103336514
 31
0.0
  0
LINE
  5
172
330
17
100
AcDbEntity
  8
STAIR
100
AcDbLine
 10
1565205.516319822
 20
155687.2103336514
 30
0.0
 11
1565246.554515049
 21
155505.0110282316
 31
0.0
  0
LINE
  5
173
330
17
100
AcDbEntity
  8
STAIR
100
AcDbLine
 10
1565246.554515049
 20
155505.0110282316
 30
0.0
 11
1564672.056374319
 21
155203.4777044251
 31
0.0
  0
LINE
  5
174
330
17
100
AcDbEntity
  8
STAIR
100
AcDbLine
 10
1565223.80606812
 20
155606.008433455
 30
0.0
 11
1564672.056374319
 21
155316.4149477825
 31
0.0
  0
LINE
  5
175
330
17
100
AcDbEntity
  8
STAIR
100
AcDbLine
 10
1567372.056374324
 20
153377.9862517884
 30
0.0
 11
1567372.056374324
 21
156757.9862517884
 31
0.0
  0
LINE
  5
176
330
17
100
AcDbEntity
  8
STAIR
100
AcDbLine
 10
1566172.05637433
 20
153377.9862517822
 30
0.0
 11
1567372.056374324
 21
153377.9862517884
 31
0.0
  0
LINE
  5
177
330
17
100
AcDbEntity
  8
STAIR
100
AcDbLine
 10
1566172.05637433
 20
153637.9862518067
 30
0.0
 11
1567372.056374324
 21
153637.9862517884
 31
0.0
  0
LINE
  5
178
330
17
100
AcDbEntity
  8
STAIR
100
AcDbLine
 10
1566172.05637433
 20
153897.9862517822
 30
0.0
 11
1567372.056374324
 21
153897.9862517884
 31
0.0
  0
LINE
  5
179
330
17
100
AcDbEntity
  8
STAIR
100
AcDbLine
 10
1566172.05637433
 20
154157.9862517823
 30
0.0
 11
1567372.056374324
 21
154157.9862517884
 31
0.0
  0
LINE
  5
17A
330
17
100
AcDbEntity
  8
STAIR
100
AcDbLine
 10
1566172.05637433
 20
154417.9862517823
 30
0.0
 11
1567372.056374324
 21
154417.9862517884
 31
0.0
  0
LINE
  5
17B
330
17
100
AcDbEntity
  8
STAIR
100
AcDbLine
 10
1566172.05637433
 20
154677.9862517823
 30
0.0
 11
1567372.056374324
 21
154677.9862517884
 31
0.0
  0
LINE
  5
17C
330
17
100
AcDbEntity
  8
STAIR
100
AcDbLine
 10
1566172.05637433
 20
154937.9862518067
 30
0.0
 11
1567372.056374324
 21
154937.9862517884
 31
0.0
  0
LINE
  5
17D
330
17
100
AcDbEntity
  8
STAIR
100
AcDbLine
 10
1566172.05637433
 20
155197.9862517823
 30
0.0
 11
1567372.056374324
 21
155197.9862517884
 31
0.0
  0
LINE
  5
17E
330
17
100
AcDbEntity
  8
STAIR
100
AcDbLine
 10
1566172.056374331
 20
155457.9862517823
 30
0.0
 11
1567372.056374324
 21
155457.9862517884
 31
0.0
  0
LINE
  5
17F
330
17
100
AcDbEntity
  8
STAIR
100
AcDbLine
 10
1566172.056374331
 20
155717.9862517823
 30
0.0
 11
1567372.056374324
 21
155717.9862517884
 31
0.0
  0
LINE
  5
180
330
17
100
AcDbEntity
  8
STAIR
100
AcDbLine
 10
1566172.056374331
 20
155977.9862517823
 30
0.0
 11
1567372.056374324
 21
155977.9862517884
 31
0.0
  0
LINE
  5
181
330
17
100
AcDbEntity
  8
STAIR
100
AcDbLine
 10
1566172.056374331
 20
156237.9862518066
 30
0.0
 11
1567372.056374324
 21
156237.9862517884
 31
0.0
  0
LINE
  5
182
330
17
100
AcDbEntity
  8
STAIR
100
AcDbLine
 10
1566172.056374331
 20
156497.9862517823
 30
0.0
 11
1567372.056374324
 21
156497.9862517884
 31
0.0
  0
LINE
  5
183
330
17
100
AcDbEntity
  8
STAIR
100
AcDbLine
 10
1566172.056374331
 20
156757.9862517823
 30
0.0
 11
1567372.056374324
 21
156757.9862517884
 31
0.0
  0
LINE
  5
184
330
17
100
AcDbEntity
  8
STAIR
100
AcDbLine
 10
1566122.056374324
 20
153377.9862517884
 30
0.0
 11
1566122.056374324
 21
156757.9862517884
 31
0.0
  0
LINE
  5
185
330
17
100
AcDbEntity
  8
STAIR
100
AcDbLine
 10
1566122.056374326
 20
156757.9862517724
 30
0.0
 11
1565922.05637433
 21
156757.9862517725
 31
0.0
  0
LINE
  5
186
330
17
100
AcDbEntity
  8
STAIR
100
AcDbLine
 10
1565922.05637433
 20
156757.9862517725
 30
0.0
 11
1565922.05637433
 21
155972.4947991386
 31
0.0
  0
LINE
  5
187
330
17
100
AcDbEntity
  8
STAIR
100
AcDbLine
 10
1565922.05637433
 20
155859.5575557504
 30
0.0
 11
1565922.056374329
 21
153377.9862518327
 31
0.0
  0
LINE
  5
188
330
17
100
AcDbEntity
  8
STAIR
100
AcDbLine
 10
1565922.056374329
 20
153377.9862518327
 30
0.0
 11
1566122.056374325
 21
153377.9862518326
 31
0.0
  0
LINE
  5
189
330
17
100
AcDbEntity
  8
STAIR
100
AcDbLine
 10
1566122.056374325
 20
153377.9862518326
 30
0.0
 11
1566122.056374326
 21
156757.9862517724
 31
0.0
  0
LINE
  5
18A
330
17
100
AcDbEntity
  8
STAIR
100
AcDbLine
 10
1566172.056374326
 20
156807.9862517723
 30
0.0
 11
1565872.056374321
 21
156807.9862517725
 31
0.0
  0
LINE
  5
18B
330
17
100
AcDbEntity
  8
STAIR
100
AcDbLine
 10
1565872.056374321
 20
156807.9862517725
 30
0.0
 11
1565872.056374321
 21
155946.2516050796
 31
0.0
  0
LINE
  5
18C
330
17
100
AcDbEntity
  8
STAIR
100
AcDbLine
 10
1565872.056374321
 20
155833.3143616904
 30
0.0
 11
1565872.05637432
 21
153327.9862518327
 31
0.0
  0
LINE
  5
18D
330
17
100
AcDbEntity
  8
STAIR
100
AcDbLine
 10
1565872.05637432
 20
153327.9862518327
 30
0.0
 11
1566172.056374325
 21
153327.9862518326
 31
0.0
  0
LINE
  5
18E
330
17
100
AcDbEntity
  8
STAIR
100
AcDbLine
 10
1566172.056374325
 20
153327.9862518326
 30
0.0
 11
1566172.056374326
 21
156807.9862517723
 31
0.0
  0
LINE
  5
18F
330
17
100
AcDbEntity
  8
STAIR
100
AcDbLine
 10
1564672.056374324
 20
153637.9862517889
 30
0.0
 11
1564672.056374324
 21
152077.9862517889
 31
0.0
  0
LINE
  5
190
330
17
100
AcDbEntity
  8
STAIR
100
AcDbLine
 10
1564672.056374324
 20
152077.9862517889
 30
0.0
 11
1567372.056374324
 21
152077.9862517879
 31
0.0
  0
LINE
  5
191
330
17
100
AcDbEntity
  8
STAIR
100
AcDbLine
 10
1567372.056374324
 20
152077.9862517879
 30
0.0
 11
1567372.056374324
 21
153377.9862517879
 31
0.0
  0
LINE
  5
192
330
17
100
AcDbEntity
  8
STAIR
100
AcDbLine
 10
1567372.056374324
 20
153377.9862517879
 30
0.0
 11
1566172.05637433
 21
153377.9862517744
 31
0.0
  0
LINE
  5
193
330
17
100
AcDbEntity
  8
STAIR
100
AcDbLine
 10
1565872.05637432
 20
153637.9862517969
 30
0.0
 11
1564672.056374324
 21
153637.9862517889
 31
0.0
  0
LINE
  5
194
330
17
100
AcDbEntity
  8
STAIR
100
AcDbLine
 10
1565922.056374324
 20
153377.9862517884
 30
0.0
 11
1565922.056374324
 21
153637.9862517884
 31
0.0
  0
LINE
  5
195
330
17
100
AcDbEntity
  8
STAIR
100
AcDbLine
 10
1566122.056374562
 20
153377.9862517807
 30
0.0
 11
1565922.056374324
 21
153377.9862517884
 31
0.0
  0
LINE
  5
196
330
17
100
AcDbEntity
  8
STAIR
100
AcDbLine
 10
1565922.056374326
 20
156757.9862517884
 30
0.0
 11
1566122.056374324
 21
156757.9862517884
 31
0.0
  0
TEXT
  5
197
330
17
100
AcDbEntity
  8
PUB_TEXT
100
AcDbText
 10
1565140.673395602
 20
146385.4862517853
 30
0.0
 40
506.3829787234042
  1
上
  7
_TCH_DIM
100
AcDbText
  0
LWPOLYLINE
  5
198
330
17
100
AcDbEntity
  8
DIM_SYMB
100
AcDbPolyline
 90
3
 70
0
 10
1565297.056374326
 20
147067.9862517853
 10
1565297.056374325
 20
147787.9862517853
 40
120.0
 41
0.0
 10
1565297.056374325
 20
148237.9862517853
  0
TEXT
  5
199
330
17
100
AcDbEntity
  8
PUB_TEXT
100
AcDbText
 10
1566604.63616156
 20
146385.4862517859
 30
0.0
 40
506.3829787234042
  1
下
  7
_TCH_DIM
100
AcDbText
  0
LWPOLYLINE
  5
19A
330
17
100
AcDbEntity
  8
DIM_SYMB
100
AcDbPolyline
 90
5
 70
0
 10
1566747.056374326
 20
147067.9862517859
 10
1566747.056374324
 20
151227.9862517859
 10
1565297.056374324
 20
151227.9862517853
 10
1565297.056374325
 20
148947.9862517853
 40
120.0
 41
0.0
 10
1565297.056374325
 20
148497.9862517853
  0
LINE
  5
19B
330
17
100
AcDbEntity
  8
STAIR
100
AcDbLine
 10
1564672.056374326
 20
147197.9862517851
 30
0.0
 11
1564672.056374324
 21
147983.477704425
 31
0.0
  0
LINE
  5
19C
330
17
100
AcDbEntity
  8
STAIR
100
AcDbLine
 10
1564672.056374323
 20
148096.4149477952
 30
0.0
 11
1564672.056374324
 21
150317.9862517851
 31
0.0
  0
LINE
  5
19D
330
17
100
AcDbEntity
  8
STAIR
100
AcDbLine
 10
1564672.056374326
 20
147197.9862517851
 30
0.0
 11
1565872.056374327
 21
147197.986251792
 31
0.0
  0
LINE
  5
19E
330
17
100
AcDbEntity
  8
STAIR
100
AcDbLine
 10
1564672.056374326
 20
147457.9862517851
 30
0.0
 11
1565872.056374326
 21
147457.986251792
 31
0.0
  0
LINE
  5
19F
330
17
100
AcDbEntity
  8
STAIR
100
AcDbLine
 10
1564672.056374325
 20
147717.9862517851
 30
0.0
 11
1565872.056374326
 21
147717.986251792
 31
0.0
  0
LINE
  5
1A0
330
17
100
AcDbEntity
  8
STAIR
100
AcDbLine
 10
1564672.056374325
 20
147977.9862517851
 30
0.0
 11
1565872.056374326
 21
147977.9862517676
 31
0.0
  0
LINE
  5
1A1
330
17
100
AcDbEntity
  8
STAIR
100
AcDbLine
 10
1564672.056374325
 20
148237.9862517851
 30
0.0
 11
1564941.785934828
 21
148237.986251765
 31
0.0
  0
LINE
  5
1A2
330
17
100
AcDbEntity
  8
STAIR
100
AcDbLine
 10
1565156.960282777
 20
148237.9862517618
 30
0.0
 11
1565872.056374326
 21
148237.9862517676
 31
0.0
  0
LINE
  5
1A3
330
17
100
AcDbEntity
  8
STAIR
100
AcDbLine
 10
1564672.056374325
 20
148497.9862517851
 30
0.0
 11
1565437.152465806
 21
148497.986251775
 31
0.0
  0
LINE
  5
1A4
330
17
100
AcDbEntity
  8
STAIR
100
AcDbLine
 10
1565652.326813766
 20
148497.9862517763
 30
0.0
 11
1565872.056374326
 21
148497.986251792
 31
0.0
  0
LINE
  5
1A5
330
17
100
AcDbEntity
  8
STAIR
100
AcDbLine
 10
1564672.056374325
 20
148757.9862517851
 30
0.0
 11
1565872.056374326
 21
148757.986251792
 31
0.0
  0
LINE
  5
1A6
330
17
100
AcDbEntity
  8
STAIR
100
AcDbLine
 10
1564672.056374325
 20
149017.9862517851
 30
0.0
 11
1565872.056374326
 21
149017.986251792
 31
0.0
  0
LINE
  5
1A7
330
17
100
AcDbEntity
  8
STAIR
100
AcDbLine
 10
1564672.056374325
 20
149277.9862517851
 30
0.0
 11
1565872.056374326
 21
149277.986251792
 31
0.0
  0
LINE
  5
1A8
330
17
100
AcDbEntity
  8
STAIR
100
AcDbLine
 10
1564672.056374325
 20
149537.9862517851
 30
0.0
 11
1565872.056374326
 21
149537.9862517676
 31
0.0
  0
LINE
  5
1A9
330
17
100
AcDbEntity
  8
STAIR
100
AcDbLine
 10
1564672.056374325
 20
149797.9862517851
 30
0.0
 11
1565872.056374326
 21
149797.9862517676
 31
0.0
  0
LINE
  5
1AA
330
17
100
AcDbEntity
  8
STAIR
100
AcDbLine
 10
1564672.056374324
 20
150057.9862517851
 30
0.0
 11
1565872.056374326
 21
150057.986251792
 31
0.0
  0
LINE
  5
1AB
330
17
100
AcDbEntity
  8
STAIR
100
AcDbLine
 10
1564672.056374324
 20
150317.9862517851
 30
0.0
 11
1565872.056374325
 21
150317.986251792
 31
0.0
  0
LINE
  5
1AC
330
17
100
AcDbEntity
  8
STAIR
100
AcDbLine
 10
1565922.056374326
 20
147197.9862517856
 30
0.0
 11
1565922.056374323
 21
148639.5575557723
 31
0.0
  0
LINE
  5
1AD
330
17
100
AcDbEntity
  8
STAIR
100
AcDbLine
 10
1565922.056374323
 20
148752.4947991529
 30
0.0
 11
1565922.056374324
 21
150317.9862517856
 31
0.0
  0
LINE
  5
1AE
330
17
100
AcDbEntity
  8
STAIR
100
AcDbLine
 10
1564672.056374324
 20
148096.4149477931
 30
0.0
 11
1565206.135792272
 21
148376.733943905
 31
0.0
  0
LINE
  5
1AF
330
17
100
AcDbEntity
  8
STAIR
100
AcDbLine
 10
1564672.056374324
 20
147983.4777044337
 30
0.0
 11
1565228.884239201
 21
148275.7365386809
 31
0.0
  0
LINE
  5
1B0
330
17
100
AcDbEntity
  8
STAIR
100
AcDbLine
 10
1565228.884239201
 20
148275.7365386809
 30
0.0
 11
1565189.676937943
 21
148449.8071332412
 31
0.0
  0
LINE
  5
1B1
330
17
100
AcDbEntity
  8
STAIR
100
AcDbLine
 10
1565189.676937943
 20
148449.8071332412
 30
0.0
 11
1565388.596428829
 21
148268.7621699227
 31
0.0
  0
LINE
  5
1B2
330
17
100
AcDbEntity
  8
STAIR
100
AcDbLine
 10
1565388.596428829
 20
148268.7621699227
 30
0.0
 11
1565347.558233635
 21
148450.9614753513
 31
0.0
  0
LINE
  5
1B3
330
17
100
AcDbEntity
  8
STAIR
100
AcDbLine
 10
1565347.558233635
 20
148450.9614753513
 30
0.0
 11
1565922.056374323
 21
148752.4947991496
 31
0.0
  0
LINE
  5
1B4
330
17
100
AcDbEntity
  8
STAIR
100
AcDbLine
 10
1565370.306680564
 20
148349.9640701261
 30
0.0
 11
1565922.056374323
 21
148639.5575557771
 31
0.0
  0
LINE
  5
1B5
330
17
100
AcDbEntity
  8
STAIR
100
AcDbLine
 10
1567372.056374324
 20
150577.9862517861
 30
0.0
 11
1567372.056374326
 21
147197.9862517861
 31
0.0
  0
LINE
  5
1B6
330
17
100
AcDbEntity
  8
STAIR
100
AcDbLine
 10
1567372.056374324
 20
150577.9862517861
 30
0.0
 11
1566172.056374327
 21
150577.9862517921
 31
0.0
  0
LINE
  5
1B7
330
17
100
AcDbEntity
  8
STAIR
100
AcDbLine
 10
1567372.056374324
 20
150317.9862517861
 30
0.0
 11
1566172.056374327
 21
150317.9862517921
 31
0.0
  0
LINE
  5
1B8
330
17
100
AcDbEntity
  8
STAIR
100
AcDbLine
 10
1567372.056374325
 20
150057.9862517861
 30
0.0
 11
1566172.056374327
 21
150057.9862517921
 31
0.0
  0
LINE
  5
1B9
330
17
100
AcDbEntity
  8
STAIR
100
AcDbLine
 10
1567372.056374325
 20
149797.9862517861
 30
0.0
 11
1566172.056374327
 21
149797.9862517921
 31
0.0
  0
LINE
  5
1BA
330
17
100
AcDbEntity
  8
STAIR
100
AcDbLine
 10
1567372.056374325
 20
149537.9862517861
 30
0.0
 11
1566172.056374328
 21
149537.9862517921
 31
0.0
  0
LINE
  5
1BB
330
17
100
AcDbEntity
  8
STAIR
100
AcDbLine
 10
1567372.056374325
 20
149277.9862517861
 30
0.0
 11
1566172.056374328
 21
149277.9862517677
 31
0.0
  0
LINE
  5
1BC
330
17
100
AcDbEntity
  8
STAIR
100
AcDbLine
 10
1567372.056374325
 20
149017.9862517861
 30
0.0
 11
1566172.056374328
 21
149017.9862517921
 31
0.0
  0
LINE
  5
1BD
330
17
100
AcDbEntity
  8
STAIR
100
AcDbLine
 10
1567372.056374325
 20
148757.9862517861
 30
0.0
 11
1566172.056374328
 21
148757.9862517921
 31
0.0
  0
LINE
  5
1BE
330
17
100
AcDbEntity
  8
STAIR
100
AcDbLine
 10
1567372.056374325
 20
148497.9862517861
 30
0.0
 11
1566172.056374328
 21
148497.9862517921
 31
0.0
  0
LINE
  5
1BF
330
17
100
AcDbEntity
  8
STAIR
100
AcDbLine
 10
1567372.056374325
 20
148237.9862517861
 30
0.0
 11
1566172.056374328
 21
148237.9862517921
 31
0.0
  0
LINE
  5
1C0
330
17
100
AcDbEntity
  8
STAIR
100
AcDbLine
 10
1567372.056374325
 20
147977.9862517861
 30
0.0
 11
1566172.056374328
 21
147977.9862517921
 31
0.0
  0
LINE
  5
1C1
330
17
100
AcDbEntity
  8
STAIR
100
AcDbLine
 10
1567372.056374325
 20
147717.9862517861
 30
0.0
 11
1566172.056374328
 21
147717.9862517677
 31
0.0
  0
LINE
  5
1C2
330
17
100
AcDbEntity
  8
STAIR
100
AcDbLine
 10
1567372.056374326
 20
147457.9862517861
 30
0.0
 11
1566172.056374328
 21
147457.9862517677
 31
0.0
  0
LINE
  5
1C3
330
17
100
AcDbEntity
  8
STAIR
100
AcDbLine
 10
1567372.056374326
 20
147197.9862517861
 30
0.0
 11
1566172.056374329
 21
147197.9862517921
 31
0.0
  0
LINE
  5
1C4
330
17
100
AcDbEntity
  8
STAIR
100
AcDbLine
 10
1566122.056374324
 20
150577.9862517856
 30
0.0
 11
1566122.056374326
 21
147197.9862517856
 31
0.0
  0
LINE
  5
1C5
330
17
100
AcDbEntity
  8
STAIR
100
AcDbLine
 10
1566172.056374334
 20
147147.9862518295
 30
0.0
 11
1565872.056374325
 21
147147.9862518294
 31
0.0
  0
LINE
  5
1C6
330
17
100
AcDbEntity
  8
STAIR
100
AcDbLine
 10
1565872.056374325
 20
147147.9862518294
 30
0.0
 11
1565872.056374326
 21
148613.3143617197
 31
0.0
  0
LINE
  5
1C7
330
17
100
AcDbEntity
  8
STAIR
100
AcDbLine
 10
1565872.056374326
 20
148726.2516051002
 30
0.0
 11
1565872.056374324
 21
150627.9862517074
 31
0.0
  0
LINE
  5
1C8
330
17
100
AcDbEntity
  8
STAIR
100
AcDbLine
 10
1565872.056374324
 20
150627.9862517074
 30
0.0
 11
1566172.056374333
 21
150627.9862517074
 31
0.0
  0
LINE
  5
1C9
330
17
100
AcDbEntity
  8
STAIR
100
AcDbLine
 10
1566172.056374333
 20
150627.9862517074
 30
0.0
 11
1566172.056374334
 21
147147.9862518295
 31
0.0
  0
LINE
  5
1CA
330
17
100
AcDbEntity
  8
STAIR
100
AcDbLine
 10
1566122.056374325
 20
147197.9862517074
 30
0.0
 11
1565922.056374325
 21
147197.9862517074
 31
0.0
  0
LINE
  5
1CB
330
17
100
AcDbEntity
  8
STAIR
100
AcDbLine
 10
1565922.056374325
 20
147197.9862517074
 30
0.0
 11
1565922.05637432
 21
148639.5575557706
 31
0.0
  0
LINE
  5
1CC
330
17
100
AcDbEntity
  8
STAIR
100
AcDbLine
 10
1565922.05637432
 20
148752.4947991513
 30
0.0
 11
1565922.056374324
 21
150577.9862517074
 31
0.0
  0
LINE
  5
1CD
330
17
100
AcDbEntity
  8
STAIR
100
AcDbLine
 10
1565922.056374324
 20
150577.9862517074
 30
0.0
 11
1566122.056374324
 21
150577.9862517074
 31
0.0
  0
LINE
  5
1CE
330
17
100
AcDbEntity
  8
STAIR
100
AcDbLine
 10
1566122.056374324
 20
150577.9862517074
 30
0.0
 11
1566122.056374325
 21
147197.9862517074
 31
0.0
  0
LINE
  5
1CF
330
17
100
AcDbEntity
  8
STAIR
100
AcDbLine
 10
1567372.056374324
 20
150577.9862517861
 30
0.0
 11
1567372.056374324
 21
151877.9862517861
 31
0.0
  0
LINE
  5
1D0
330
17
100
AcDbEntity
  8
STAIR
100
AcDbLine
 10
1567372.056374324
 20
151877.9862517861
 30
0.0
 11
1564672.056374324
 21
151877.9862517851
 31
0.0
  0
LINE
  5
1D1
330
17
100
AcDbEntity
  8
STAIR
100
AcDbLine
 10
1564672.056374324
 20
151877.9862517851
 30
0.0
 11
1564672.056374324
 21
150317.9862517851
 31
0.0
  0
LINE
  5
1D2
330
17
100
AcDbEntity
  8
STAIR
100
AcDbLine
 10
1564672.056374324
 20
150317.9862517851
 30
0.0
 11
1565872.056374325
 21
150317.986251792
 31
0.0
  0
LINE
  5
1D3
330
17
100
AcDbEntity
  8
STAIR
100
AcDbLine
 10
1566172.056374327
 20
150577.9862517693
 30
0.0
 11
1567372.056374324
 21
150577.9862517861
 31
0.0
  0
LINE
  5
1D4
330
17
100
AcDbEntity
  8
STAIR
100
AcDbLine
 10
1565922.056374324
 20
150317.9862517856
 30
0.0
 11
1565922.056374324
 21
150577.9862517856
 31
0.0
  0
LINE
  5
1D5
330
17
100
AcDbEntity
  8
STAIR
100
AcDbLine
 10
1565922.056374324
 20
150577.9862517856
 30
0.0
 11
1566122.056374246
 21
150577.9862517761
 31
0.0
  0
LINE
  5
1D6
330
17
100
AcDbEntity
  8
STAIR
100
AcDbLine
 10
1565922.056374326
 20
147197.9862517856
 30
0.0
 11
1566122.056374326
 21
147197.9862517856
 31
0.0
  0
LINE
  5
1D7
330
17
100
AcDbEntity
  8
WALL
100
AcDbLine
 10
1567372.056374321
 20
151827.986251789
 30
0.0
 11
1564672.056374316
 21
151827.986251789
 31
0.0
  0
LINE
  5
1D8
330
17
100
AcDbEntity
  8
WALL
100
AcDbLine
 10
1567372.056374324
 20
152127.9862517784
 30
0.0
 11
1564672.056374329
 21
152127.9862517784
 31
0.0
  0
LINE
  5
1D9
330
17
100
AcDbEntity
  8
WALL
100
AcDbLine
 10
1564372.056374325
 20
156777.9862517859
 30
0.0
 11
1563822.056374321
 21
156777.9862517781
 31
0.0
  0
LINE
  5
1DA
330
17
100
AcDbEntity
  8
WALL
100
AcDbLine
 10
1563822.056374321
 20
156777.9862517781
 30
0.0
 11
1563822.056374321
 21
156577.9862517904
 31
0.0
  0
LINE
  5
1DB
330
17
100
AcDbEntity
  8
WALL
100
AcDbLine
 10
1563822.056374321
 20
156577.9862517904
 30
0.0
 11
1564372.056374325
 21
156577.9862517859
 31
0.0
  0
LINE
  5
1DC
330
17
100
AcDbEntity
  8
WALL
100
AcDbLine
 10
1561872.056374324
 20
156577.986251787
 30
0.0
 11
1562422.056374321
 21
156577.986251791
 31
0.0
  0
LINE
  5
1DD
330
17
100
AcDbEntity
  8
WALL
100
AcDbLine
 10
1562422.056374321
 20
156577.986251791
 30
0.0
 11
1562422.056374321
 21
156777.9862517787
 31
0.0
  0
LINE
  5
1DE
330
17
100
AcDbEntity
  8
WALL
100
AcDbLine
 10
1562422.056374321
 20
156777.9862517787
 30
0.0
 11
1561872.056374324
 21
156777.986251787
 31
0.0
  0
LINE
  5
1DF
330
17
100
AcDbEntity
  8
WALL
100
AcDbLine
 10
1561872.056374324
 20
156777.986251787
 30
0.0
 11
1561872.056374324
 21
156577.986251787
 31
0.0
  0
INSERT
  5
1E0
330
17
100
AcDbEntity
  8
WINDOW
  6
ByBlock
100
AcDbBlockReference
 66
1
  2
$DORLIB2D$00000127
 10
1563122.056374324
 20
156677.986251787
 30
0.0
 41
-1400.0
 42
200.0
 43
-1400.0
 50
180.0
  0
ATTRIB
  5
1E1
330
1E0
100
AcDbEntity
  8
WINDOW_TEXT
  6
ByBlock
100
AcDbText
 10
1562354.056374331
 20
154851.3115859197
 30
0.0
 40
892.5
  1

  7
_TCH_WINDOW
 41
0.5647058823529412
100
AcDbAttribute
  2
A
 70
0
 71
1
 72
0
  0
SEQEND
  5
1E2
330
1E0
100
AcDbEntity
  8
WINDOW
  6
ByBlock
  0
LINE
  5
1E3
330
17
100
AcDbEntity
  8
WALL
100
AcDbLine
 10
1561872.056374324
 20
147777.986251787
 30
0.0
 11
1562422.056374321
 21
147777.9862517844
 31
0.0
  0
LINE
  5
1E4
330
17
100
AcDbEntity
  8
WALL
100
AcDbLine
 10
1562422.056374321
 20
147777.9862517844
 30
0.0
 11
1562422.056374321
 21
147977.9862517848
 31
0.0
  0
LINE
  5
1E5
330
17
100
AcDbEntity
  8
WALL
100
AcDbLine
 10
1562422.056374321
 20
147977.9862517848
 30
0.0
 11
1561872.056374324
 21
147977.986251787
 31
0.0
  0
LINE
  5
1E6
330
17
100
AcDbEntity
  8
WALL
100
AcDbLine
 10
1561872.056374324
 20
147977.986251787
 30
0.0
 11
1561872.056374324
 21
147777.986251787
 31
0.0
  0
LINE
  5
1E7
330
17
100
AcDbEntity
  8
WALL
100
AcDbLine
 10
1564372.05637432
 20
147977.9862517859
 30
0.0
 11
1563822.056374321
 21
147977.9862517842
 31
0.0
  0
LINE
  5
1E8
330
17
100
AcDbEntity
  8
WALL
100
AcDbLine
 10
1563822.056374321
 20
147977.9862517842
 30
0.0
 11
1563822.056374321
 21
147777.9862517839
 31
0.0
  0
LINE
  5
1E9
330
17
100
AcDbEntity
  8
WALL
100
AcDbLine
 10
1563822.056374321
 20
147777.9862517839
 30
0.0
 11
1564372.05637432
 21
147777.9862517859
 31
0.0
  0
INSERT
  5
1EA
330
17
100
AcDbEntity
  8
WINDOW
  6
ByBlock
100
AcDbBlockReference
 66
1
  2
$DORLIB2D$00000127
 10
1563122.056374324
 20
147877.986251787
 30
0.0
 41
1400.0
 42
-200.0
 43
1400.0
  0
ATTRIB
  5
1EB
330
1EA
100
AcDbEntity
  8
WINDOW_TEXT
  6
ByBlock
100
AcDbText
 10
1562354.056374331
 20
146825.3115859197
 30
0.0
 40
892.5
  1

  7
_TCH_WINDOW
 41
0.5647058823529412
100
AcDbAttribute
  2
A
 70
0
 71
1
 72
0
  0
SEQEND
  5
1EC
330
1EA
100
AcDbEntity
  8
WINDOW
  6
ByBlock
  0
LINE
  5
1ED
330
17
100
AcDbEntity
  8
WALL
100
AcDbLine
 10
1564672.056374316
 20
151827.986251789
 30
0.0
 11
1564672.056374324
 21
150577.986251787
 31
0.0
  0
LINE
  5
1EE
330
17
100
AcDbEntity
  8
WALL
100
AcDbLine
 10
1564372.056374324
 20
151977.986251787
 30
0.0
 11
1564372.056374324
 21
150577.986251787
 31
0.0
  0
LINE
  5
1EF
330
17
100
AcDbEntity
  8
WALL
100
AcDbLine
 10
1564372.056374324
 20
158477.986251787
 30
0.0
 11
1564372.056374325
 21
158177.9862517802
 31
0.0
  0
LINE
  5
1F0
330
17
100
AcDbEntity
  8
WALL
100
AcDbLine
 10
1564372.056374325
 20
158177.9862517802
 30
0.0
 11
1564672.056374325
 21
158177.9862517802
 31
0.0
  0
LINE
  5
1F1
330
17
100
AcDbEntity
  8
WALL
100
AcDbLine
 10
1564672.056374325
 20
158177.9862517802
 30
0.0
 11
1564672.056374324
 21
158477.986251787
 31
0.0
  0
LINE
  5
1F2
330
17
100
AcDbEntity
  8
WALL
100
AcDbLine
 10
1564672.056374324
 20
156677.986251787
 30
0.0
 11
1564672.056374325
 21
156977.9862517802
 31
0.0
  0
LINE
  5
1F3
330
17
100
AcDbEntity
  8
WALL
100
AcDbLine
 10
1564672.056374325
 20
156977.9862517802
 30
0.0
 11
1564372.056374325
 21
156977.9862517802
 31
0.0
  0
LINE
  5
1F4
330
17
100
AcDbEntity
  8
WALL
100
AcDbLine
 10
1564372.056374325
 20
156977.9862517802
 30
0.0
 11
1564372.056374324
 21
156677.986251787
 31
0.0
  0
INSERT
  5
1F5
330
17
100
AcDbEntity
  8
WINDOW
100
AcDbBlockReference
 66
1
  2
$DorLib2D$00000002
 10
1564522.056374324
 20
157577.9862517825
 30
0.0
 41
-1200.0
 42
1200.0
 43
-1200.0
 50
270.0
  0
ATTRIB
  5
1F6
330
1F5
100
AcDbEntity
  8
WINDOW_TEXT
100
AcDbText
 10
1563681.083553163
 20
157421.9862517824
 30
0.0
 40
297.5
  1

 50
90.0
  7
_TCH_WINDOW
 41
0.5647058823529412
100
AcDbAttribute
  2
A
 70
0
 71
1
 72
0
  0
SEQEND
  5
1F7
330
1F5
100
AcDbEntity
  8
WINDOW
  0
TEXT
  5
1F8
330
17
100
AcDbEntity
  8
房间名
100
AcDbText
 10
1565687.764503448
 20
159870.206475791
 30
0.0
 40
680.0
  1
QD
  7
_TCH_SPACE
 41
0.7058823529411765
100
AcDbText
  0
LINE
  5
1F9
330
17
100
AcDbEntity
  8
WALL
100
AcDbLine
 10
1567372.056374324
 20
158377.986251787
 30
0.0
 11
1565972.056374324
 21
158377.986251787
 31
0.0
  0
LINE
  5
1FA
330
17
100
AcDbEntity
  8
WALL
100
AcDbLine
 10
1567372.056374324
 20
158577.986251787
 30
0.0
 11
1566072.056374321
 21
158577.9862517875
 31
0.0
  0
LINE
  5
1FB
330
17
100
AcDbEntity
  8
WALL
100
AcDbLine
 10
1567372.056374324
 20
158377.986251787
 30
0.0
 11
1567372.056374324
 21
158577.986251787
 31
0.0
  0
TEXT
  5
1FC
330
17
100
AcDbEntity
  8
房间名
100
AcDbText
 10
1565598.005044398
 20
143348.1136598547
 30
0.0
 40
680.0
  1
RD
  7
_TCH_SPACE
 41
0.7058823529411765
100
AcDbText
  0
LINE
  5
1FD
330
17
100
AcDbEntity
  8
WALL
100
AcDbLine
 10
1564672.056374324
 20
156677.986251787
 30
0.0
 11
1564672.056374324
 21
153977.986251787
 31
0.0
  0
LINE
  5
1FE
330
17
100
AcDbEntity
  8
WALL
100
AcDbLine
 10
1564372.056374324
 20
156677.986251787
 30
0.0
 11
1564372.056374324
 21
153977.986251787
 31
0.0
  0
LINE
  5
1FF
330
17
100
AcDbEntity
  8
WALL
100
AcDbLine
 10
1564672.056374324
 20
153977.986251787
 30
0.0
 11
1564672.056374329
 21
152127.9862517784
 31
0.0
  0
LINE
  5
200
330
17
100
AcDbEntity
  8
WALL
100
AcDbLine
 10
1564372.056374324
 20
153977.986251787
 30
0.0
 11
1564372.056374324
 21
151977.986251787
 31
0.0
  0
LINE
  5
201
330
17
100
AcDbEntity
  8
WALL
100
AcDbLine
 10
1564672.056374324
 20
145477.9862517861
 30
0.0
 11
1564672.056374324
 21
144677.9862517861
 31
0.0
  0
LINE
  5
202
330
17
100
AcDbEntity
  8
WALL
100
AcDbLine
 10
1564372.056374324
 20
145477.9862517861
 30
0.0
 11
1564372.056374324
 21
144677.9862517861
 31
0.0
  0
TEXT
  5
203
330
17
100
AcDbEntity
  8
房间名
100
AcDbText
 10
1562808.607151379
 20
152619.1812328195
 30
0.0
 40
680.0
  1
XF
  7
_TCH_SPACE
 41
0.7058823529411765
100
AcDbText
  0
LINE
  5
204
330
17
100
AcDbEntity
  8
WALL
100
AcDbLine
 10
1564672.056374305
 20
160977.986251789
 30
0.0
 11
1564672.056374324
 21
160227.9862517637
 31
0.0
  0
LINE
  5
205
330
17
100
AcDbEntity
  8
WALL
100
AcDbLine
 10
1564372.05637435
 20
160977.986251789
 30
0.0
 11
1564372.056374324
 21
160227.9862517637
 31
0.0
  0
LINE
  5
206
330
17
100
AcDbEntity
  8
WALL
100
AcDbLine
 10
1564372.056374313
 20
153877.9862517859
 30
0.0
 11
1561872.056374324
 21
153877.986251787
 31
0.0
  0
LINE
  5
207
330
17
100
AcDbEntity
  8
WALL
100
AcDbLine
 10
1564372.056374313
 20
154077.9862517972
 30
0.0
 11
1561872.056374324
 21
154077.986251787
 31
0.0
  0
LINE
  5
208
330
17
100
AcDbEntity
  8
WALL
100
AcDbLine
 10
1561872.056374324
 20
153877.986251787
 30
0.0
 11
1561872.056374324
 21
154077.986251787
 31
0.0
  0
LINE
  5
209
330
17
100
AcDbEntity
  8
WALL
100
AcDbLine
 10
1567372.056374324
 20
145377.9862517861
 30
0.0
 11
1566072.056374321
 21
145377.9862517803
 31
0.0
  0
LINE
  5
20A
330
17
100
AcDbEntity
  8
WALL
100
AcDbLine
 10
1567372.056374324
 20
145577.9862517861
 30
0.0
 11
1565972.056374361
 21
145577.986251787
 31
0.0
  0
LINE
  5
20B
330
17
100
AcDbEntity
  8
WALL
100
AcDbLine
 10
1567372.056374324
 20
145377.9862517861
 30
0.0
 11
1567372.056374324
 21
145577.9862517861
 31
0.0
  0
INSERT
  5
20C
330
17
100
AcDbEntity
  8
WINDOW
  6
ByBlock
100
AcDbBlockReference
 66
1
  2
$DorLib2D$00000114
 10
1561722.056374324
 20
151527.98625178
 30
0.0
 41
-700.0
 42
-700.0
 43
-700.0
 50
270.0
  0
ATTRIB
  5
20D
330
20C
100
AcDbEntity
  8
WINDOW_TEXT
  6
ByBlock
100
AcDbText
 10
1562168.306374331
 20
151059.9862517815
 30
0.0
 40
892.5
  1

 50
90.0
  7
_TCH_WINDOW
 41
0.5647058823529412
100
AcDbAttribute
  2
A
 70
0
 71
1
 72
0
  0
SEQEND
  5
20E
330
20C
100
AcDbEntity
  8
WINDOW
  6
ByBlock
  0
LINE
  5
20F
330
17
100
AcDbEntity
  8
WINDOW
  6
ByBlock
100
AcDbLine
 10
1561572.056374324
 20
151877.98625178
 30
0.0
 11
1561572.056374324
 21
151177.98625178
 31
0.0
  0
LINE
  5
210
330
17
100
AcDbEntity
  8
WINDOW
  6
ByBlock
100
AcDbLine
 10
1561872.056374324
 20
151877.98625178
 30
0.0
 11
1561872.056374324
 21
151177.98625178
 31
0.0
  0
LINE
  5
211
330
17
100
AcDbEntity
  8
WALL
100
AcDbLine
 10
1564572.056374324
 20
142177.986251787
 30
0.0
 11
1561572.056374326
 21
142177.986251789
 31
0.0
  0
LINE
  5
212
330
17
100
AcDbEntity
  8
WALL
100
AcDbLine
 10
1564372.056374324
 20
142977.986251789
 30
0.0
 11
1561872.056374322
 21
142977.986251789
 31
0.0
  0
LINE
  5
213
330
17
100
AcDbEntity
  8
WALL
100
AcDbLine
 10
1564372.056374324
 20
151877.986251787
 30
0.0
 11
1561872.056374324
 21
151877.986251787
 31
0.0
  0
LINE
  5
214
330
17
100
AcDbEntity
  8
WALL
100
AcDbLine
 10
1564372.056374324
 20
152077.986251787
 30
0.0
 11
1561872.056374324
 21
152077.986251787
 31
0.0
  0
LINE
  5
215
330
17
100
AcDbEntity
  8
WALL
100
AcDbLine
 10
1564372.056374324
 20
151877.986251787
 30
0.0
 11
1564372.056374324
 21
152077.986251787
 31
0.0
  0
LINE
  5
216
330
17
100
AcDbEntity
  8
WALL
100
AcDbLine
 10
1561872.056374324
 20
151877.986251787
 30
0.0
 11
1561872.056374324
 21
152077.986251787
 31
0.0
  0
LINE
  5
217
330
17
100
AcDbEntity
  8
WALL
100
AcDbLine
 10
1561872.056374324
 20
150677.986251787
 30
0.0
 11
1564372.05637432
 21
150677.9862517972
 31
0.0
  0
LINE
  5
218
330
17
100
AcDbEntity
  8
WALL
100
AcDbLine
 10
1561872.056374324
 20
150477.986251787
 30
0.0
 11
1564372.05637432
 21
150477.9862517859
 31
0.0
  0
LINE
  5
219
330
17
100
AcDbEntity
  8
WALL
100
AcDbLine
 10
1561872.056374324
 20
150677.986251787
 30
0.0
 11
1561872.056374324
 21
150477.986251787
 31
0.0
  0
TEXT
  5
21A
330
17
100
AcDbEntity
  8
房间名
100
AcDbText
 10
1562517.227262029
 20
157614.1531848951
 30
0.0
 40
771.6312056737588
  1
前室
  7
_TCH_SPACE
100
AcDbText
  0
TEXT
  5
21B
330
17
100
AcDbEntity
  8
房间名
100
AcDbText
 10
1562639.502095589
 20
148749.7009821997
 30
0.0
 40
771.6312056737588
  1
消防
  7
_TCH_SPACE
100
AcDbText
  0
TEXT
  5
21C
330
17
100
AcDbEntity
  8
房间名
100
AcDbText
 10
1562061.617682284
 20
154909.5070053578
 30
0.0
 40
771.6312056737588
  1
服务梯
  7
_TCH_SPACE
100
AcDbText
  0
LINE
  5
21D
330
17
100
AcDbEntity
  8
WALL
100
AcDbLine
 10
1568172.056374324
 20
151977.986251787
 30
0.0
 11
1568172.056374324
 21
142177.986251789
 31
0.0
  0
LINE
  5
21E
330
17
100
AcDbEntity
  8
WALL
100
AcDbLine
 10
1567372.056374321
 20
151827.986251789
 30
0.0
 11
1567372.056374321
 21
142977.986251789
 31
0.0
  0
TEXT
  5
21F
330
17
100
AcDbEntity
  8
房间名
100
AcDbText
 10
1562478.954168098
 20
145683.6283799426
 30
0.0
 40
771.6312056737588
  1
前室
  7
_TCH_SPACE
100
AcDbText
  0
LINE
  5
220
330
17
100
AcDbEntity
  8
WALL
100
AcDbLine
 10
1565872.056374321
 20
145377.9862517945
 30
0.0
 11
1564672.056374324
 21
145377.9862517937
 31
0.0
  0
LINE
  5
221
330
17
100
AcDbEntity
  8
WALL
100
AcDbLine
 10
1565972.056374361
 20
145577.986251787
 30
0.0
 11
1564672.056374324
 21
145577.9862517884
 31
0.0
  0
LINE
  5
222
330
17
100
AcDbEntity
  8
WALL
100
AcDbLine
 10
1567372.056374324
 20
144577.9862517861
 30
0.0
 11
1565972.056374324
 21
144577.9862517861
 31
0.0
  0
LINE
  5
223
330
17
100
AcDbEntity
  8
WALL
100
AcDbLine
 10
1567372.056374324
 20
144777.9862517861
 30
0.0
 11
1566072.056374321
 21
144777.9862517875
 31
0.0
  0
LINE
  5
224
330
17
100
AcDbEntity
  8
WALL
100
AcDbLine
 10
1567372.056374324
 20
144577.9862517861
 30
0.0
 11
1567372.056374324
 21
144777.9862517861
 31
0.0
  0
LINE
  5
225
330
17
100
AcDbEntity
  8
WALL
100
AcDbLine
 10
1565872.056374321
 20
144777.9862517875
 30
0.0
 11
1565872.056374321
 21
145377.9862517945
 31
0.0
  0
LINE
  5
226
330
17
100
AcDbEntity
  8
WALL
100
AcDbLine
 10
1566072.056374321
 20
144777.9862517875
 30
0.0
 11
1566072.056374321
 21
145377.9862517803
 31
0.0
  0
TEXT
  5
227
330
17
100
AcDbEntity
  8
房间名
100
AcDbText
 10
1564796.208067871
 20
144752.2317193837
 30
0.0
 40
680.0
  1
JY
  7
_TCH_SPACE
 41
0.7058823529411765
100
AcDbText
  0
TEXT
  5
228
330
17
100
AcDbEntity
  8
房间名
100
AcDbText
 10
1566314.298298708
 20
144741.543630514
 30
0.0
 40
680.0
  1
PY
  7
_TCH_SPACE
 41
0.7058823529411765
100
AcDbText
  0
LINE
  5
229
330
17
100
AcDbEntity
  8
WALL
100
AcDbLine
 10
1565872.056374321
 20
158577.9862517875
 30
0.0
 11
1565872.056374321
 21
159177.9862517875
 31
0.0
  0
LINE
  5
22A
330
17
100
AcDbEntity
  8
WALL
100
AcDbLine
 10
1566072.056374321
 20
158577.9862517875
 30
0.0
 11
1566072.056374321
 21
159177.9862517875
 31
0.0
  0
LINE
  5
22B
330
17
100
AcDbEntity
  8
WALL
100
AcDbLine
 10
1565972.056374324
 20
158377.986251787
 30
0.0
 11
1564672.056374326
 21
158377.9862517875
 31
0.0
  0
LINE
  5
22C
330
17
100
AcDbEntity
  8
WALL
100
AcDbLine
 10
1565872.056374321
 20
158577.9862517875
 30
0.0
 11
1564672.056374326
 21
158577.9862517875
 31
0.0
  0
LINE
  5
22D
330
17
100
AcDbEntity
  8
WALL
100
AcDbLine
 10
1567372.056374324
 20
159177.986251787
 30
0.0
 11
1566072.056374321
 21
159177.9862517875
 31
0.0
  0
LINE
  5
22E
330
17
100
AcDbEntity
  8
WALL
100
AcDbLine
 10
1567372.056374324
 20
159377.986251787
 30
0.0
 11
1565972.056374324
 21
159377.986251787
 31
0.0
  0
LINE
  5
22F
330
17
100
AcDbEntity
  8
WALL
100
AcDbLine
 10
1567372.056374324
 20
159177.986251787
 30
0.0
 11
1567372.056374324
 21
159377.986251787
 31
0.0
  0
TEXT
  5
230
330
17
100
AcDbEntity
  8
房间名
100
AcDbText
 10
1564836.030471997
 20
158486.990331731
 30
0.0
 40
680.0
  1
JY
  7
_TCH_SPACE
 41
0.7058823529411765
100
AcDbText
  0
TEXT
  5
231
330
17
100
AcDbEntity
  8
房间名
100
AcDbText
 10
1566405.840234064
 20
158529.6572648391
 30
0.0
 40
680.0
  1
PY
  7
_TCH_SPACE
 41
0.7058823529411765
100
AcDbText
  0
LINE
  5
232
330
17
100
AcDbEntity
  8
WALL
100
AcDbLine
 10
1561872.05637431
 20
160977.986251789
 30
0.0
 11
1561872.056374324
 21
160227.9862517637
 31
0.0
  0
LINE
  5
233
330
17
100
AcDbEntity
  8
WALL
100
AcDbLine
 10
1561572.056374319
 20
161777.986251789
 30
0.0
 11
1561572.056374324
 21
160227.9862517637
 31
0.0
  0
INSERT
  5
234
330
17
100
AcDbEntity
  8
WINDOW
  6
ByBlock
100
AcDbBlockReference
 66
1
  2
$DorLib2D$00000114
 10
1561722.056374324
 20
152427.986251793
 30
0.0
 41
700.0
 42
-700.0
 43
700.0
 50
270.0
  0
ATTRIB
  5
235
330
234
100
AcDbEntity
  8
WINDOW_TEXT
  6
ByBlock
100
AcDbText
 10
1562168.306374339
 20
151959.9862517843
 30
0.0
 40
892.5
  1

 50
90.0
  7
_TCH_WINDOW
 41
0.5647058823529412
100
AcDbAttribute
  2
A
 70
0
 71
1
 72
0
  0
SEQEND
  5
236
330
234
100
AcDbEntity
  8
WINDOW
  6
ByBlock
  0
LINE
  5
237
330
17
100
AcDbEntity
  8
WINDOW
  6
ByBlock
100
AcDbLine
 10
1561572.056374324
 20
152777.986251793
 30
0.0
 11
1561572.056374324
 21
152077.986251793
 31
0.0
  0
LINE
  5
238
330
17
100
AcDbEntity
  8
WINDOW
  6
ByBlock
100
AcDbLine
 10
1561872.056374324
 20
152777.986251793
 30
0.0
 11
1561872.056374324
 21
152077.986251793
 31
0.0
  0
LINE
  5
239
330
17
100
AcDbEntity
  8
WALL
100
AcDbLine
 10
1564672.056374324
 20
159277.986251787
 30
0.0
 11
1564672.056374324
 21
158477.986251787
 31
0.0
  0
LINE
  5
23A
330
17
100
AcDbEntity
  8
WALL
100
AcDbLine
 10
1564372.056374324
 20
159277.986251787
 30
0.0
 11
1564372.056374324
 21
158477.986251787
 31
0.0
  0
LINE
  5
23B
330
17
100
AcDbEntity
  8
WALL
100
AcDbLine
 10
1565872.056374321
 20
159177.9862517875
 30
0.0
 11
1564672.056374343
 21
159177.9862517875
 31
0.0
  0
LINE
  5
23C
330
17
100
AcDbEntity
  8
WALL
100
AcDbLine
 10
1565972.056374324
 20
159377.986251787
 30
0.0
 11
1564672.056374343
 21
159377.9862517875
 31
0.0
  0
LINE
  5
23D
330
17
100
AcDbEntity
  8
WALL
100
AcDbLine
 10
1564672.056374324
 20
144677.9862517861
 30
0.0
 11
1564672.056374324
 21
143677.9862517981
 31
0.0
  0
LINE
  5
23E
330
17
100
AcDbEntity
  8
WALL
100
AcDbLine
 10
1564372.056374324
 20
144677.9862517861
 30
0.0
 11
1564372.056374324
 21
143677.9862517981
 31
0.0
  0
LINE
  5
23F
330
17
100
AcDbEntity
  8
WALL
100
AcDbLine
 10
1565972.056374324
 20
144577.9862517861
 30
0.0
 11
1564672.056374352
 21
144577.9862517875
 31
0.0
  0
LINE
  5
240
330
17
100
AcDbEntity
  8
WALL
100
AcDbLine
 10
1565872.056374321
 20
144777.9862517875
 30
0.0
 11
1564672.056374352
 21
144777.9862517875
 31
0.0
  0
LINE
  5
241
330
17
100
AcDbEntity
  8
WALL
100
AcDbLine
 10
1561872.056374325
 20
143777.9862517995
 30
0.0
 11
1564372.056374318
 21
143777.9862517995
 31
0.0
  0
LINE
  5
242
330
17
100
AcDbEntity
  8
WALL
100
AcDbLine
 10
1561872.056374325
 20
143577.9862517995
 30
0.0
 11
1564372.056374318
 21
143577.9862517995
 31
0.0
  0
TEXT
  5
243
330
17
100
AcDbEntity
  8
房间名
100
AcDbText
 10
1562818.825172015
 20
142977.9862517877
 30
0.0
 40
680.0
  1
JY
  7
_TCH_SPACE
 41
0.7058823529411765
100
AcDbText
  0
TEXT
  5
244
330
17
100
AcDbEntity
  8
房间名
100
AcDbText
 10
1562720.103588972
 20
150994.6579059662
 30
0.0
 40
680.0
  1
SJ
  7
_TCH_SPACE
 41
0.7058823529411765
100
AcDbText
  0
LINE
  5
245
330
17
100
AcDbEntity
  8
WALL
100
AcDbLine
 10
1555372.056374321
 20
154627.9862517784
 30
0.0
 11
1555372.056374324
 21
152327.9862517814
 31
0.0
  0
LINE
  5
246
330
17
100
AcDbEntity
  8
WALL
100
AcDbLine
 10
1555072.056374334
 20
154627.9862517784
 30
0.0
 11
1555072.056374324
 21
152327.9862517814
 31
0.0
  0
LINE
  5
247
330
17
100
AcDbEntity
  8
WALL
100
AcDbLine
 10
1555372.056374324
 20
151977.9862517814
 30
0.0
 11
1555372.056374324
 21
150277.9862517739
 31
0.0
  0
LINE
  5
248
330
17
100
AcDbEntity
  8
WALL
100
AcDbLine
 10
1555072.056374321
 20
151827.9862517802
 30
0.0
 11
1555072.056374324
 21
150277.9862517739
 31
0.0
  0
LINE
  5
249
330
17
100
AcDbEntity
  8
WALL
100
AcDbLine
 10
1552172.056374324
 20
142177.9862517814
 30
0.0
 11
1548572.05637432
 21
142177.986251789
 31
0.0
  0
LINE
  5
24A
330
17
100
AcDbEntity
  8
WALL
100
AcDbLine
 10
1552172.056374324
 20
142977.9862517814
 30
0.0
 11
1549372.05637432
 21
142977.986251789
 31
0.0
  0
LINE
  5
24B
330
17
100
AcDbEntity
  8
WALL
100
AcDbLine
 10
1555072.056374324
 20
142177.9862517814
 30
0.0
 11
1552172.056374324
 21
142177.9862517814
 31
0.0
  0
LINE
  5
24C
330
17
100
AcDbEntity
  8
WALL
100
AcDbLine
 10
1555072.056374324
 20
142977.9862517814
 30
0.0
 11
1552172.056374324
 21
142977.9862517814
 31
0.0
  0
LINE
  5
24D
330
17
100
AcDbEntity
  8
WALL
100
AcDbLine
 10
1555072.056374324
 20
160977.9862517814
 30
0.0
 11
1552172.056374324
 21
160977.9862517814
 31
0.0
  0
LINE
  5
24E
330
17
100
AcDbEntity
  8
WALL
100
AcDbLine
 10
1555072.056374324
 20
161777.9862517814
 30
0.0
 11
1552172.056374324
 21
161777.9862517814
 31
0.0
  0
LINE
  5
24F
330
17
100
AcDbEntity
  8
WALL
100
AcDbLine
 10
1552172.056374324
 20
160977.9862517814
 30
0.0
 11
1549372.056374331
 21
160977.9862517785
 31
0.0
  0
LINE
  5
250
330
17
100
AcDbEntity
  8
WALL
100
AcDbLine
 10
1552172.056374324
 20
161777.9862517814
 30
0.0
 11
1548572.05637432
 21
161777.9862517785
 31
0.0
  0
LINE
  5
251
330
17
100
AcDbEntity
  8
WALL
100
AcDbLine
 10
1564372.05637435
 20
160977.986251789
 30
0.0
 11
1561872.05637431
 21
160977.986251789
 31
0.0
  0
LINE
  5
252
330
17
100
AcDbEntity
  8
WALL
100
AcDbLine
 10
1564572.056374324
 20
161777.986251787
 30
0.0
 11
1561572.056374319
 21
161777.986251789
 31
0.0
  0
LINE
  5
253
330
17
100
AcDbEntity
  8
WALL
100
AcDbLine
 10
1561872.056374324
 20
160327.9862517574
 30
0.0
 11
1564372.056374304
 21
160327.9862517574
 31
0.0
  0
LINE
  5
254
330
17
100
AcDbEntity
  8
WALL
100
AcDbLine
 10
1561872.056374324
 20
160127.9862517679
 30
0.0
 11
1564372.056374304
 21
160127.9862517679
 31
0.0
  0
TEXT
  5
255
330
17
100
AcDbEntity
  8
房间名
100
AcDbText
 10
1562851.727262029
 20
160244.201648039
 30
0.0
 40
680.0
  1
JY
  7
_TCH_SPACE
 41
0.7058823529411765
100
AcDbText
  0
LINE
  5
256
330
17
100
AcDbEntity
  8
WALL
100
AcDbLine
 10
1561872.056374324
 20
160227.9862517637
 30
0.0
 11
1561872.056374324
 21
154727.9862517814
 31
0.0
  0
LINE
  5
257
330
17
100
AcDbEntity
  8
WALL
100
AcDbLine
 10
1561572.056374324
 20
160227.9862517637
 30
0.0
 11
1561572.056374324
 21
154727.9862517814
 31
0.0
  0
LINE
  5
258
330
17
100
AcDbEntity
  8
WALL
100
AcDbLine
 10
1564672.056374324
 20
160227.9862517637
 30
0.0
 11
1564672.056374324
 21
159277.986251787
 31
0.0
  0
LINE
  5
259
330
17
100
AcDbEntity
  8
WALL
100
AcDbLine
 10
1564372.056374324
 20
160227.9862517637
 30
0.0
 11
1564372.056374324
 21
159277.986251787
 31
0.0
  0
LINE
  5
25A
330
17
100
AcDbEntity
  8
WALL
100
AcDbLine
 10
1555172.056374324
 20
154827.9862517814
 30
0.0
 11
1554372.056374321
 21
154827.9862517802
 31
0.0
  0
LINE
  5
25B
330
17
100
AcDbEntity
  8
WALL
100
AcDbLine
 10
1554372.056374321
 20
154827.9862517802
 30
0.0
 11
1554372.056374321
 21
154627.986251786
 31
0.0
  0
LINE
  5
25C
330
17
100
AcDbEntity
  8
WALL
100
AcDbLine
 10
1554372.056374321
 20
154627.986251786
 30
0.0
 11
1555172.056374324
 21
154627.9862517814
 31
0.0
  0
LINE
  5
25D
330
17
100
AcDbEntity
  8
WALL
100
AcDbLine
 10
1552272.056374323
 20
154627.9862517802
 30
0.0
 11
1552972.056374321
 21
154627.9862517854
 31
0.0
  0
LINE
  5
25E
330
17
100
AcDbEntity
  8
WALL
100
AcDbLine
 10
1552972.056374321
 20
154627.9862517854
 30
0.0
 11
1552972.056374321
 21
154827.9862517802
 31
0.0
  0
LINE
  5
25F
330
17
100
AcDbEntity
  8
WALL
100
AcDbLine
 10
1552972.056374321
 20
154827.9862517802
 30
0.0
 11
1552172.056374324
 21
154827.9862517814
 31
0.0
  0
LINE
  5
260
330
17
100
AcDbEntity
  8
WALL
100
AcDbLine
 10
1555172.056374302
 20
149127.9862513558
 30
0.0
 11
1552172.05637431
 21
149127.9862517814
 31
0.0
  0
LINE
  5
261
330
17
100
AcDbEntity
  8
WALL
100
AcDbLine
 10
1555172.056374331
 20
149327.9862513558
 30
0.0
 11
1552272.056374323
 21
149327.9862517664
 31
0.0
  0
LINE
  5
262
330
17
100
AcDbEntity
  8
WALL
100
AcDbLine
 10
1558172.05637432
 20
160977.9862517784
 30
0.0
 11
1558172.05637432
 21
158477.9862517968
 31
0.0
  0
LINE
  5
263
330
17
100
AcDbEntity
  8
WALL
100
AcDbLine
 10
1557972.056374319
 20
160977.9862517784
 30
0.0
 11
1557972.056374319
 21
158477.9862517871
 31
0.0
  0
LINE
  5
264
330
17
100
AcDbEntity
  8
WALL
100
AcDbLine
 10
1558172.05637432
 20
145477.9862517863
 30
0.0
 11
1558172.05637432
 21
142977.9862517941
 31
0.0
  0
LINE
  5
265
330
17
100
AcDbEntity
  8
WALL
100
AcDbLine
 10
1557972.05637432
 20
145477.9862517868
 30
0.0
 11
1557972.05637432
 21
142977.9862517941
 31
0.0
  0
LINE
  5
266
330
17
100
AcDbEntity
  8
WALL
100
AcDbLine
 10
1558072.056374322
 20
160977.9862517814
 30
0.0
 11
1555072.056374324
 21
160977.9862517814
 31
0.0
  0
LINE
  5
267
330
17
100
AcDbEntity
  8
WALL
100
AcDbLine
 10
1558072.056374322
 20
161777.9862517814
 30
0.0
 11
1555072.056374324
 21
161777.9862517814
 31
0.0
  0
LINE
  5
268
330
17
100
AcDbEntity
  8
WALL
100
AcDbLine
 10
1557972.056374319
 20
158477.9862517871
 30
0.0
 11
1557272.056374283
 21
158477.9862517897
 31
0.0
  0
LINE
  5
269
330
17
100
AcDbEntity
  8
WALL
100
AcDbLine
 10
1557272.056374283
 20
158477.9862517897
 30
0.0
 11
1557272.056374283
 21
158277.9862517768
 31
0.0
  0
LINE
  5
26A
330
17
100
AcDbEntity
  8
WALL
100
AcDbLine
 10
1557272.056374283
 20
158277.9862517768
 30
0.0
 11
1558072.056374322
 21
158277.9862517814
 31
0.0
  0
LINE
  5
26B
330
17
100
AcDbEntity
  8
WALL
100
AcDbLine
 10
1555072.056374324
 20
158277.9862517814
 30
0.0
 11
1555872.056374321
 21
158277.9862517768
 31
0.0
  0
LINE
  5
26C
330
17
100
AcDbEntity
  8
WALL
100
AcDbLine
 10
1555872.056374321
 20
158277.9862517768
 30
0.0
 11
1555872.056374321
 21
158477.9862517897
 31
0.0
  0
LINE
  5
26D
330
17
100
AcDbEntity
  8
WALL
100
AcDbLine
 10
1555872.056374321
 20
158477.9862517897
 30
0.0
 11
1555172.05637432
 21
158477.9862517871
 31
0.0
  0
LINE
  5
26E
330
17
100
AcDbEntity
  8
WALL
100
AcDbLine
 10
1557972.05637432
 20
145477.9862517868
 30
0.0
 11
1556072.056374324
 21
145477.9862517814
 31
0.0
  0
LINE
  5
26F
330
17
100
AcDbEntity
  8
WALL
100
AcDbLine
 10
1558072.056374322
 20
145677.9862517814
 30
0.0
 11
1556072.05637432
 21
145677.986251787
 31
0.0
  0
LINE
  5
270
330
17
100
AcDbEntity
  8
WALL
100
AcDbLine
 10
1558072.056374322
 20
142177.9862517814
 30
0.0
 11
1555072.056374324
 21
142177.9862517814
 31
0.0
  0
LINE
  5
271
330
17
100
AcDbEntity
  8
WALL
100
AcDbLine
 10
1558072.056374322
 20
142977.9862517814
 30
0.0
 11
1555072.056374324
 21
142977.9862517814
 31
0.0
  0
LINE
  5
272
330
17
100
AcDbEntity
  8
WALL
100
AcDbLine
 10
1555072.056374321
 20
151827.9862517802
 30
0.0
 11
1552172.056374324
 21
151827.9862517814
 31
0.0
  0
LINE
  5
273
330
17
100
AcDbEntity
  8
WALL
100
AcDbLine
 10
1555072.056374337
 20
152127.9862517802
 30
0.0
 11
1552172.056374324
 21
152127.9862517814
 31
0.0
  0
LINE
  5
274
330
17
100
AcDbEntity
  8
WALL
100
AcDbLine
 10
1558572.056374207
 20
158277.9862517975
 30
0.0
 11
1558072.056374322
 21
158277.9862517814
 31
0.0
  0
LINE
  5
275
330
17
100
AcDbEntity
  8
WALL
100
AcDbLine
 10
1558572.056374207
 20
158477.9862517968
 30
0.0
 11
1558172.05637432
 21
158477.9862517968
 31
0.0
  0
LINE
  5
276
330
17
100
AcDbEntity
  8
WALL
100
AcDbLine
 10
1558872.056374324
 20
158377.9862517814
 30
0.0
 11
1558872.056374324
 21
158277.9862517814
 31
0.0
  0
LINE
  5
277
330
17
100
AcDbEntity
  8
WALL
100
AcDbLine
 10
1558572.056374324
 20
158377.9862517814
 30
0.0
 11
1558572.056374324
 21
158277.9862517814
 31
0.0
  0
LINE
  5
278
330
17
100
AcDbEntity
  8
WALL
100
AcDbLine
 10
1558872.056374324
 20
158277.9862517814
 30
0.0
 11
1558572.056374324
 21
158277.9862517814
 31
0.0
  0
LINE
  5
279
330
17
100
AcDbEntity
  8
WALL
100
AcDbLine
 10
1561872.056374324
 20
143677.9862517982
 30
0.0
 11
1561872.056374322
 21
142977.986251789
 31
0.0
  0
LINE
  5
27A
330
17
100
AcDbEntity
  8
WALL
100
AcDbLine
 10
1561572.056374324
 20
143677.9862517982
 30
0.0
 11
1561572.056374326
 21
142177.986251789
 31
0.0
  0
LINE
  5
27B
330
17
100
AcDbEntity
  8
WALL
100
AcDbLine
 10
1564672.056374324
 20
143677.9862517981
 30
0.0
 11
1564672.05637432
 21
142977.986251789
 31
0.0
  0
LINE
  5
27C
330
17
100
AcDbEntity
  8
WALL
100
AcDbLine
 10
1564372.056374324
 20
143677.9862517981
 30
0.0
 11
1564372.056374324
 21
142977.986251789
 31
0.0
  0
LINE
  5
27D
330
17
100
AcDbEntity
  8
WALL
100
AcDbLine
 10
1558172.056374334
 20
154627.9862517802
 30
0.0
 11
1558172.056374324
 21
152327.9862517814
 31
0.0
  0
LINE
  5
27E
330
17
100
AcDbEntity
  8
WALL
100
AcDbLine
 10
1557972.056374321
 20
154627.9862517784
 30
0.0
 11
1557972.056374321
 21
152427.9862517784
 31
0.0
  0
LINE
  5
27F
330
17
100
AcDbEntity
  8
WALL
100
AcDbLine
 10
1561572.056374322
 20
154827.9862517802
 30
0.0
 11
1560772.056374321
 21
154827.9862517782
 31
0.0
  0
LINE
  5
280
330
17
100
AcDbEntity
  8
WALL
100
AcDbLine
 10
1560772.056374321
 20
154827.9862517782
 30
0.0
 11
1560772.056374321
 21
154627.9862517861
 31
0.0
  0
LINE
  5
281
330
17
100
AcDbEntity
  8
WALL
100
AcDbLine
 10
1560772.056374321
 20
154627.9862517861
 30
0.0
 11
1561572.056374322
 21
154627.9862517802
 31
0.0
  0
LINE
  5
282
330
17
100
AcDbEntity
  8
WALL
100
AcDbLine
 10
1558172.056374334
 20
154627.9862517802
 30
0.0
 11
1558972.056374321
 21
154627.9862517861
 31
0.0
  0
LINE
  5
283
330
17
100
AcDbEntity
  8
WALL
100
AcDbLine
 10
1558972.056374321
 20
154627.9862517861
 30
0.0
 11
1558972.056374321
 21
154827.9862517788
 31
0.0
  0
LINE
  5
284
330
17
100
AcDbEntity
  8
WALL
100
AcDbLine
 10
1558972.056374321
 20
154827.9862517788
 30
0.0
 11
1558072.056374324
 21
154827.9862517814
 31
0.0
  0
LINE
  5
285
330
17
100
AcDbEntity
  8
WALL
100
AcDbLine
 10
1557972.05637433
 20
152227.9862517784
 30
0.0
 11
1555372.056374337
 21
152227.9862517784
 31
0.0
  0
LINE
  5
286
330
17
100
AcDbEntity
  8
WALL
100
AcDbLine
 10
1557972.056374321
 20
152427.9862517784
 30
0.0
 11
1555372.056374337
 21
152427.9862517784
 31
0.0
  0
LINE
  5
287
330
17
100
AcDbEntity
  8
WALL
100
AcDbLine
 10
1558172.056374324
 20
152327.9862517814
 30
0.0
 11
1558172.056374314
 21
150377.9862517693
 31
0.0
  0
LINE
  5
288
330
17
100
AcDbEntity
  8
WALL
100
AcDbLine
 10
1557972.05637433
 20
152227.9862517784
 30
0.0
 11
1557972.05637433
 21
150377.9862517687
 31
0.0
  0
LINE
  5
289
330
17
100
AcDbEntity
  8
WALL
100
AcDbLine
 10
1555372.056374324
 20
152327.9862517814
 30
0.0
 11
1555372.056374324
 21
151977.9862517814
 31
0.0
  0
LINE
  5
28A
330
17
100
AcDbEntity
  8
WALL
100
AcDbLine
 10
1555072.056374324
 20
152327.9862517814
 30
0.0
 11
1555072.056374337
 21
152127.9862517802
 31
0.0
  0
INSERT
  5
28B
330
17
100
AcDbEntity
  8
WINDOW
100
AcDbBlockReference
 66
1
  2
$DorLib2D$00000002
 10
1564522.056374324
 20
146177.9862517664
 30
0.0
 41
1200.0
 42
1200.0
 43
1200.0
 50
270.0
  0
ATTRIB
  5
28C
330
28B
100
AcDbEntity
  8
WINDOW_TEXT
100
AcDbText
 10
1563681.083553163
 20
146021.9862517663
 30
0.0
 40
297.5
  1

 50
90.0
  7
_TCH_WINDOW
 41
0.5647058823529412
100
AcDbAttribute
  2
A
 70
0
 71
1
 72
0
  0
SEQEND
  5
28D
330
28B
100
AcDbEntity
  8
WINDOW
  0
LINE
  5
28E
330
17
100
AcDbEntity
  8
WALL
100
AcDbLine
 10
1549372.056374331
 20
160977.9862517785
 30
0.0
 11
1549372.056374331
 21
158277.9862517785
 31
0.0
  0
LINE
  5
28F
330
17
100
AcDbEntity
  8
WALL
100
AcDbLine
 10
1548572.05637432
 20
161777.9862517785
 30
0.0
 11
1548572.05637432
 21
158277.9862517785
 31
0.0
  0
LINE
  5
290
330
17
100
AcDbEntity
  8
WALL
100
AcDbLine
 10
1549372.056374331
 20
158277.9862517785
 30
0.0
 11
1548572.05637432
 21
158277.9862517785
 31
0.0
  0
LINE
  5
291
330
17
100
AcDbEntity
  8
WALL
100
AcDbLine
 10
1558872.056374319
 20
161777.9862517866
 30
0.0
 11
1558872.056374324
 21
158377.9862517814
 31
0.0
  0
LINE
  5
292
330
17
100
AcDbEntity
  8
WALL
100
AcDbLine
 10
1558572.056374331
 20
160977.9862517891
 30
0.0
 11
1558572.056374324
 21
158377.9862517814
 31
0.0
  0
LINE
  5
293
330
17
100
AcDbEntity
  8
WALL
100
AcDbLine
 10
1558572.056374331
 20
160977.9862517891
 30
0.0
 11
1558072.056374322
 21
160977.9862517814
 31
0.0
  0
LINE
  5
294
330
17
100
AcDbEntity
  8
WALL
100
AcDbLine
 10
1558872.056374319
 20
161777.9862517866
 30
0.0
 11
1558072.056374322
 21
161777.9862517814
 31
0.0
  0
LINE
  5
295
330
17
100
AcDbEntity
  8
WALL
100
AcDbLine
 10
1555072.05637432
 20
158477.9862517785
 30
0.0
 11
1555072.05637432
 21
160977.9862517784
 31
0.0
  0
LINE
  5
296
330
17
100
AcDbEntity
  8
WALL
100
AcDbLine
 10
1555172.05637432
 20
158477.9862517871
 30
0.0
 11
1555172.05637432
 21
160977.9862517784
 31
0.0
  0
LINE
  5
297
330
17
100
AcDbEntity
  8
WALL
100
AcDbLine
 10
1555072.05637432
 20
158477.9862517785
 30
0.0
 11
1554372.056374321
 21
158477.9862517766
 31
0.0
  0
LINE
  5
298
330
17
100
AcDbEntity
  8
WALL
100
AcDbLine
 10
1554372.056374321
 20
158477.9862517766
 30
0.0
 11
1554372.056374321
 21
158277.986251789
 31
0.0
  0
LINE
  5
299
330
17
100
AcDbEntity
  8
WALL
100
AcDbLine
 10
1554372.056374321
 20
158277.986251789
 30
0.0
 11
1555072.056374324
 21
158277.9862517814
 31
0.0
  0
LINE
  5
29A
330
17
100
AcDbEntity
  8
WALL
100
AcDbLine
 10
1552172.056374324
 20
158277.9862517814
 30
0.0
 11
1552972.056374321
 21
158277.986251789
 31
0.0
  0
LINE
  5
29B
330
17
100
AcDbEntity
  8
WALL
100
AcDbLine
 10
1552972.056374321
 20
158277.986251789
 30
0.0
 11
1552972.056374321
 21
158477.9862517766
 31
0.0
  0
LINE
  5
29C
330
17
100
AcDbEntity
  8
WALL
100
AcDbLine
 10
1552972.056374321
 20
158477.9862517766
 30
0.0
 11
1552272.05637432
 21
158477.9862517785
 31
0.0
  0
LINE
  5
29D
330
17
100
AcDbEntity
  8
WALL
100
AcDbLine
 10
1552172.05637432
 20
158477.9862517785
 30
0.0
 11
1552172.05637432
 21
160977.9862517785
 31
0.0
  0
LINE
  5
29E
330
17
100
AcDbEntity
  8
WALL
100
AcDbLine
 10
1552272.05637432
 20
158477.9862517785
 30
0.0
 11
1552272.05637432
 21
160977.9862517785
 31
0.0
  0
LINE
  5
29F
330
17
100
AcDbEntity
  8
WALL
100
AcDbLine
 10
1552172.05637432
 20
158477.9862517785
 30
0.0
 11
1551472.056374321
 21
158477.9862517792
 31
0.0
  0
LINE
  5
2A0
330
17
100
AcDbEntity
  8
WALL
100
AcDbLine
 10
1551472.056374321
 20
158477.9862517792
 30
0.0
 11
1551472.056374321
 21
158277.9862517861
 31
0.0
  0
LINE
  5
2A1
330
17
100
AcDbEntity
  8
WALL
100
AcDbLine
 10
1551472.056374321
 20
158277.9862517861
 30
0.0
 11
1552172.056374324
 21
158277.9862517814
 31
0.0
  0
LINE
  5
2A2
330
17
100
AcDbEntity
  8
WALL
100
AcDbLine
 10
1549372.056374331
 20
158277.9862517785
 30
0.0
 11
1550072.056374321
 21
158277.9862517846
 31
0.0
  0
LINE
  5
2A3
330
17
100
AcDbEntity
  8
WALL
100
AcDbLine
 10
1550072.056374321
 20
158277.9862517846
 30
0.0
 11
1550072.056374321
 21
158477.9862517792
 31
0.0
  0
LINE
  5
2A4
330
17
100
AcDbEntity
  8
WALL
100
AcDbLine
 10
1550072.056374321
 20
158477.9862517792
 30
0.0
 11
1549372.056374331
 21
158477.9862517785
 31
0.0
  0
LINE
  5
2A5
330
17
100
AcDbEntity
  8
WALL
100
AcDbLine
 10
1549372.056374323
 20
154827.986251789
 30
0.0
 11
1549372.056374323
 21
152127.9862517784
 31
0.0
  0
LINE
  5
2A6
330
17
100
AcDbEntity
  8
WALL
100
AcDbLine
 10
1548572.056374323
 20
154827.986251789
 30
0.0
 11
1548572.056374324
 21
151977.9862517814
 31
0.0
  0
LINE
  5
2A7
330
17
100
AcDbEntity
  8
WALL
100
AcDbLine
 10
1549372.056374323
 20
154827.986251789
 30
0.0
 11
1548572.056374323
 21
154827.986251789
 31
0.0
  0
LINE
  5
2A8
330
17
100
AcDbEntity
  8
WALL
100
AcDbLine
 10
1558872.056374331
 20
145677.9862517348
 30
0.0
 11
1558872.056374331
 21
142177.9862517966
 31
0.0
  0
LINE
  5
2A9
330
17
100
AcDbEntity
  8
WALL
100
AcDbLine
 10
1558572.05637432
 20
145677.9862517348
 30
0.0
 11
1558572.05637432
 21
142977.9862517941
 31
0.0
  0
LINE
  5
2AA
330
17
100
AcDbEntity
  8
WALL
100
AcDbLine
 10
1558872.056374331
 20
145677.9862517348
 30
0.0
 11
1558572.05637432
 21
145677.9862517348
 31
0.0
  0
LINE
  5
2AB
330
17
100
AcDbEntity
  8
WALL
100
AcDbLine
 10
1549372.05637432
 20
145677.9862517785
 30
0.0
 11
1549372.05637432
 21
142977.986251789
 31
0.0
  0
LINE
  5
2AC
330
17
100
AcDbEntity
  8
WALL
100
AcDbLine
 10
1548572.05637432
 20
145677.9862517785
 30
0.0
 11
1548572.05637432
 21
142177.986251789
 31
0.0
  0
LINE
  5
2AD
330
17
100
AcDbEntity
  8
WALL
100
AcDbLine
 10
1549372.05637432
 20
145677.9862517785
 30
0.0
 11
1548572.05637432
 21
145677.9862517785
 31
0.0
  0
LINE
  5
2AE
330
17
100
AcDbEntity
  8
WALL
100
AcDbLine
 10
1558872.056374331
 20
142177.9862517966
 30
0.0
 11
1558072.056374322
 21
142177.9862517814
 31
0.0
  0
LINE
  5
2AF
330
17
100
AcDbEntity
  8
WALL
100
AcDbLine
 10
1558572.05637432
 20
142977.9862517941
 30
0.0
 11
1558072.056374322
 21
142977.9862517814
 31
0.0
  0
LINE
  5
2B0
330
17
100
AcDbEntity
  8
WALL
100
AcDbLine
 10
1552172.056374323
 20
152127.9862517802
 30
0.0
 11
1552172.056374323
 21
154627.9862517784
 31
0.0
  0
LINE
  5
2B1
330
17
100
AcDbEntity
  8
WALL
100
AcDbLine
 10
1552272.056374323
 20
152127.9862517802
 30
0.0
 11
1552272.056374323
 21
154627.9862517802
 31
0.0
  0
LINE
  5
2B2
330
17
100
AcDbEntity
  8
WALL
100
AcDbLine
 10
1552172.056374324
 20
154827.9862517814
 30
0.0
 11
1551472.056374321
 21
154827.9862517849
 31
0.0
  0
LINE
  5
2B3
330
17
100
AcDbEntity
  8
WALL
100
AcDbLine
 10
1551472.056374321
 20
154827.9862517849
 30
0.0
 11
1551472.056374321
 21
154627.9862517766
 31
0.0
  0
LINE
  5
2B4
330
17
100
AcDbEntity
  8
WALL
100
AcDbLine
 10
1551472.056374321
 20
154627.9862517766
 30
0.0
 11
1552172.056374323
 21
154627.9862517784
 31
0.0
  0
LINE
  5
2B5
330
17
100
AcDbEntity
  8
WALL
100
AcDbLine
 10
1549372.056374323
 20
154627.9862517784
 30
0.0
 11
1550072.056374321
 21
154627.9862517766
 31
0.0
  0
LINE
  5
2B6
330
17
100
AcDbEntity
  8
WALL
100
AcDbLine
 10
1550072.056374321
 20
154627.9862517766
 30
0.0
 11
1550072.056374321
 21
154827.9862517887
 31
0.0
  0
LINE
  5
2B7
330
17
100
AcDbEntity
  8
WALL
100
AcDbLine
 10
1550072.056374321
 20
154827.9862517887
 30
0.0
 11
1549372.056374323
 21
154827.986251789
 31
0.0
  0
LINE
  5
2B8
330
17
100
AcDbEntity
  8
WALL
100
AcDbLine
 10
1552172.056374324
 20
151827.9862517814
 30
0.0
 11
1549372.056374323
 21
151827.9862517784
 31
0.0
  0
LINE
  5
2B9
330
17
100
AcDbEntity
  8
WALL
100
AcDbLine
 10
1552172.056374324
 20
152127.9862517814
 30
0.0
 11
1549372.056374323
 21
152127.9862517784
 31
0.0
  0
LINE
  5
2BA
330
17
100
AcDbEntity
  8
WALL
100
AcDbLine
 10
1552172.056374323
 20
149327.986251789
 30
0.0
 11
1552172.056374323
 21
151827.9862517784
 31
0.0
  0
LINE
  5
2BB
330
17
100
AcDbEntity
  8
WALL
100
AcDbLine
 10
1552272.056374323
 20
149327.9862517664
 30
0.0
 11
1552272.056374323
 21
151827.9862517784
 31
0.0
  0
LINE
  5
2BC
330
17
100
AcDbEntity
  8
WALL
100
AcDbLine
 10
1552172.056374324
 20
149127.9862517814
 30
0.0
 11
1549372.056374323
 21
149127.986251789
 31
0.0
  0
LINE
  5
2BD
330
17
100
AcDbEntity
  8
WALL
100
AcDbLine
 10
1552172.056374323
 20
149327.986251789
 30
0.0
 11
1549372.056374323
 21
149327.986251789
 31
0.0
  0
LINE
  5
2BE
330
17
100
AcDbEntity
  8
WALL
100
AcDbLine
 10
1555072.05637432
 20
142977.9862517785
 30
0.0
 11
1555072.05637432
 21
145477.986251789
 31
0.0
  0
LINE
  5
2BF
330
17
100
AcDbEntity
  8
WALL
100
AcDbLine
 10
1555172.056374331
 20
142977.9862517785
 30
0.0
 11
1555172.056374331
 21
145477.9862517633
 31
0.0
  0
LINE
  5
2C0
330
17
100
AcDbEntity
  8
WALL
100
AcDbLine
 10
1552172.056374331
 20
142977.986251789
 30
0.0
 11
1552172.056374331
 21
145477.9862517785
 31
0.0
  0
LINE
  5
2C1
330
17
100
AcDbEntity
  8
WALL
100
AcDbLine
 10
1552272.05637432
 20
142977.986251789
 30
0.0
 11
1552272.05637432
 21
145477.986251789
 31
0.0
  0
LINE
  5
2C2
330
17
100
AcDbEntity
  8
WALL
100
AcDbLine
 10
1549372.056374323
 20
151827.9862517784
 30
0.0
 11
1549372.056374323
 21
149127.986251789
 31
0.0
  0
LINE
  5
2C3
330
17
100
AcDbEntity
  8
WALL
100
AcDbLine
 10
1548572.056374324
 20
151977.9862517814
 30
0.0
 11
1548572.056374323
 21
149127.986251789
 31
0.0
  0
LINE
  5
2C4
330
17
100
AcDbEntity
  8
WALL
100
AcDbLine
 10
1549372.056374323
 20
149127.986251789
 30
0.0
 11
1548572.056374323
 21
149127.986251789
 31
0.0
  0
LINE
  5
2C5
330
17
100
AcDbEntity
  8
WALL
100
AcDbLine
 10
1555072.05637432
 20
145477.986251789
 30
0.0
 11
1552272.05637432
 21
145477.986251789
 31
0.0
  0
LINE
  5
2C6
330
17
100
AcDbEntity
  8
WALL
100
AcDbLine
 10
1555072.056374324
 20
145677.9862517814
 30
0.0
 11
1552272.056374332
 21
145677.9862517784
 31
0.0
  0
LINE
  5
2C7
330
17
100
AcDbEntity
  8
WALL
100
AcDbLine
 10
1558572.05637432
 20
145477.9862517863
 30
0.0
 11
1558172.05637432
 21
145477.9862517863
 31
0.0
  0
LINE
  5
2C8
330
17
100
AcDbEntity
  8
WALL
100
AcDbLine
 10
1558572.05637432
 20
145677.9862517348
 30
0.0
 11
1558072.056374322
 21
145677.9862517814
 31
0.0
  0
LINE
  5
2C9
330
17
100
AcDbEntity
  8
WALL
100
AcDbLine
 10
1552172.056374331
 20
145477.9862517785
 30
0.0
 11
1549372.05637432
 21
145477.9862517785
 31
0.0
  0
LINE
  5
2CA
330
17
100
AcDbEntity
  8
WALL
100
AcDbLine
 10
1552072.056374314
 20
145677.9862517784
 30
0.0
 11
1549372.05637432
 21
145677.9862517785
 31
0.0
  0
LINE
  5
2CB
330
17
100
AcDbEntity
  8
WALL
100
AcDbLine
 10
1564372.056374324
 20
147877.986251787
 30
0.0
 11
1564372.056374325
 21
146777.9862517548
 31
0.0
  0
LINE
  5
2CC
330
17
100
AcDbEntity
  8
WALL
100
AcDbLine
 10
1564372.056374325
 20
146777.9862517548
 30
0.0
 11
1564672.056374324
 21
146777.9862517548
 31
0.0
  0
LINE
  5
2CD
330
17
100
AcDbEntity
  8
WALL
100
AcDbLine
 10
1564672.056374324
 20
146777.9862517548
 30
0.0
 11
1564672.056374324
 21
147877.986251787
 31
0.0
  0
LINE
  5
2CE
330
17
100
AcDbEntity
  8
WALL
100
AcDbLine
 10
1564672.056374324
 20
145477.9862517861
 30
0.0
 11
1564672.056374324
 21
145577.9862517548
 31
0.0
  0
LINE
  5
2CF
330
17
100
AcDbEntity
  8
WALL
100
AcDbLine
 10
1564672.056374324
 20
145577.9862517548
 30
0.0
 11
1564372.056374325
 21
145577.9862517548
 31
0.0
  0
LINE
  5
2D0
330
17
100
AcDbEntity
  8
WALL
100
AcDbLine
 10
1564372.056374325
 20
145577.9862517548
 30
0.0
 11
1564372.056374324
 21
145477.9862517861
 31
0.0
  0
LINE
  5
2D1
330
17
100
AcDbEntity
  8
WALL
100
AcDbLine
 10
1557972.056374321
 20
154627.9862517784
 30
0.0
 11
1555172.056374324
 21
154627.9862517814
 31
0.0
  0
LINE
  5
2D2
330
17
100
AcDbEntity
  8
WALL
100
AcDbLine
 10
1558072.056374324
 20
154827.9862517814
 30
0.0
 11
1555172.056374324
 21
154827.9862517814
 31
0.0
  0
LINE
  5
2D3
330
17
100
AcDbEntity
  8
WALL
100
AcDbLine
 10
1561572.056374324
 20
154727.9862517814
 30
0.0
 11
1561572.056374322
 21
152777.9862517802
 31
0.0
  0
LINE
  5
2D4
330
17
100
AcDbEntity
  8
WALL
100
AcDbLine
 10
1561572.056374322
 20
152777.9862517802
 30
0.0
 11
1561872.056374325
 21
152777.9862517802
 31
0.0
  0
LINE
  5
2D5
330
17
100
AcDbEntity
  8
WALL
100
AcDbLine
 10
1561872.056374325
 20
152777.9862517802
 30
0.0
 11
1561872.056374324
 21
154727.9862517814
 31
0.0
  0
LINE
  5
2D6
330
17
100
AcDbEntity
  8
WALL
100
AcDbLine
 10
1561872.056374324
 20
143677.9862517982
 30
0.0
 11
1561872.056374325
 21
151177.9862517802
 31
0.0
  0
LINE
  5
2D7
330
17
100
AcDbEntity
  8
WALL
100
AcDbLine
 10
1561872.056374325
 20
151177.9862517802
 30
0.0
 11
1561572.056374322
 21
151177.9862517802
 31
0.0
  0
LINE
  5
2D8
330
17
100
AcDbEntity
  8
WALL
100
AcDbLine
 10
1561572.056374322
 20
151177.9862517802
 30
0.0
 11
1561572.056374324
 21
143677.9862517982
 31
0.0
  0
LINE
  5
2D9
330
17
100
AcDbEntity
  8
WALL
100
AcDbLine
 10
1561572.056374322
 20
152077.9862518056
 30
0.0
 11
1561572.056374322
 21
151877.9862517802
 31
0.0
  0
LINE
  5
2DA
330
17
100
AcDbEntity
  8
WALL
100
AcDbLine
 10
1561572.056374322
 20
151877.9862517802
 30
0.0
 11
1561872.056374325
 21
151877.9862517802
 31
0.0
  0
LINE
  5
2DB
330
17
100
AcDbEntity
  8
WALL
100
AcDbLine
 10
1561872.056374325
 20
151877.9862517802
 30
0.0
 11
1561872.056374325
 21
152077.9862518056
 31
0.0
  0
LINE
  5
2DC
330
17
100
AcDbEntity
  8
WALL
100
AcDbLine
 10
1561872.056374325
 20
152077.9862518056
 30
0.0
 11
1561572.056374322
 21
152077.9862518056
 31
0.0
  0
INSERT
  5
2DD
330
17
100
AcDbEntity
  8
WINDOW
100
AcDbBlockReference
 66
1
  2
$DorLib2D$00000002
 10
1559872.056374324
 20
154727.9862517814
 30
0.0
 41
-1800.0
 42
-1800.0
 43
-1800.0
 50
180.0
  0
ATTRIB
  5
2DE
330
2DD
100
AcDbEntity
  8
WINDOW_TEXT
100
AcDbText
 10
1559716.056374323
 20
154204.2362517838
 30
0.0
 40
297.5
  1

  7
_TCH_WINDOW
 41
0.5647058823529412
100
AcDbAttribute
  2
A
 70
0
 71
1
 72
0
  0
SEQEND
  5
2DF
330
2DD
100
AcDbEntity
  8
WINDOW
  0
TEXT
  5
2E0
330
17
100
AcDbEntity
  8
房间名
100
AcDbText
 10
1580129.541398103
 20
162803.9737112736
 30
0.0
 40
680.0
  1
IMAX
  7
_TCH_SPACE
 41
0.7058823529411765
100
AcDbText
  0
TEXT
  5
2E1
330
17
100
AcDbEntity
  8
房间名
100
AcDbText
 10
1581820.969969532
 20
162803.9737112736
 30
0.0
 40
771.6312056737588
  1
厅设备
  7
_TCH_SPACE
100
AcDbText
  0
LINE
  5
2E2
330
17
100
AcDbEntity
  8
WALL
100
AcDbLine
 10
1556072.056374324
 20
145477.9862517814
 30
0.0
 11
1555172.056374331
 21
145477.9862517633
 31
0.0
  0
LINE
  5
2E3
330
17
100
AcDbEntity
  8
WALL
100
AcDbLine
 10
1555972.056374322
 20
145677.9862517938
 30
0.0
 11
1555072.056374324
 21
145677.9862517814
 31
0.0
  0
LINE
  5
2E4
330
17
100
AcDbEntity
  8
WALL
100
AcDbLine
 10
1555972.056374323
 20
149127.9862512354
 30
0.0
 11
1555172.056374301
 21
149127.9862513558
 31
0.0
  0
LINE
  5
2E5
330
17
100
AcDbEntity
  8
WALL
100
AcDbLine
 10
1555972.056374313
 20
149327.9862512341
 30
0.0
 11
1555172.056374332
 21
149327.9862513558
 31
0.0
  0
LINE
  5
2E6
330
17
100
AcDbEntity
  8
WALL
100
AcDbLine
 10
1556072.056374326
 20
149227.9862512207
 30
0.0
 11
1556072.05637432
 21
145677.986251787
 31
0.0
  0
LINE
  5
2E7
330
17
100
AcDbEntity
  8
WALL
100
AcDbLine
 10
1555972.056374323
 20
149127.9862512354
 30
0.0
 11
1555972.056374322
 21
145677.9862517938
 31
0.0
  0
LINE
  5
2E8
330
17
100
AcDbEntity
  8
J-厨卫
  6
ByBlock
100
AcDbLine
 10
1558072.056374328
 20
149307.986251761
 30
0.0
 11
1558072.056374328
 21
149150.4862518167
 31
0.0
  0
LINE
  5
2E9
330
17
100
AcDbEntity
  8
J-厨卫
  6
ByBlock
100
AcDbLine
 10
1558072.056374328
 20
149150.4862518167
 30
0.0
 11
1558102.056374354
 21
149150.4862518167
 31
0.0
  0
LINE
  5
2EA
330
17
100
AcDbEntity
  8
J-厨卫
  6
ByBlock
100
AcDbLine
 10
1558102.056374354
 20
149150.4862518167
 30
0.0
 11
1558102.056374328
 21
149277.9862517609
 31
0.0
  0
LINE
  5
2EB
330
17
100
AcDbEntity
  8
J-厨卫
  6
ByBlock
100
AcDbLine
 10
1558102.056374329
 20
148407.9862517764
 30
0.0
 11
1558102.056374354
 21
148550.4862515624
 31
0.0
  0
LINE
  5
2EC
330
17
100
AcDbEntity
  8
J-厨卫
  6
ByBlock
100
AcDbLine
 10
1558102.056374354
 20
148550.4862515624
 30
0.0
 11
1558072.056374329
 21
148550.4862515624
 31
0.0
  0
LINE
  5
2ED
330
17
100
AcDbEntity
  8
J-厨卫
  6
ByBlock
100
AcDbLine
 10
1558072.056374329
 20
148550.4862515624
 30
0.0
 11
1558072.056374329
 21
148407.986251761
 31
0.0
  0
LINE
  5
2EE
330
17
100
AcDbEntity
  8
WALL
100
AcDbLine
 10
1555372.056374324
 20
150277.9862517739
 30
0.0
 11
1555372.056374329
 21
149327.9862513266
 31
0.0
  0
LINE
  5
2EF
330
17
100
AcDbEntity
  8
WALL
100
AcDbLine
 10
1555072.056374324
 20
150277.9862517739
 30
0.0
 11
1555072.056374326
 21
149327.9862513703
 31
0.0
  0
LINE
  5
2F0
330
17
100
AcDbEntity
  8
WALL
100
AcDbLine
 10
1558072.056374324
 20
150177.9862517739
 30
0.0
 11
1556072.056374319
 21
150177.9862517684
 31
0.0
  0
LINE
  5
2F1
330
17
100
AcDbEntity
  8
WALL
100
AcDbLine
 10
1557972.05637433
 20
150377.9862517687
 30
0.0
 11
1556072.056374327
 21
150377.9862517739
 31
0.0
  0
LINE
  5
2F2
330
17
100
AcDbEntity
  8
WALL
100
AcDbLine
 10
1555972.056374313
 20
150177.9862517668
 30
0.0
 11
1555372.056374329
 21
150177.9862517668
 31
0.0
  0
LINE
  5
2F3
330
17
100
AcDbEntity
  8
WALL
100
AcDbLine
 10
1556072.056374327
 20
150377.9862517739
 30
0.0
 11
1555372.056374329
 21
150377.9862517661
 31
0.0
  0
INSERT
  5
2F4
330
17
100
AcDbEntity
  8
J-厨卫
  6
ByBlock
100
AcDbBlockReference
 66
1
  2
$TCHSYS$APDOOR2D
 10
1558087.056374326
 20
149750.4862517397
 30
0.0
 41
600.0
 42
600.0
 43
30.0
 50
270.0000000002913
  0
ATTRIB
  5
2F5
330
2F4
100
AcDbEntity
  8
WINDOW_TEXT
  6
ByBlock
100
AcDbText
 10
1557564.681374293
 20
149816.4862517545
 30
0.0
 40
446.25
  1

 50
90.00000000029135
  7
_TCH_WINDOW
 41
0.5647058823529412
100
AcDbAttribute
  2
A
 70
0
 71
1
 72
0
  0
SEQEND
  5
2F6
330
2F4
100
AcDbEntity
  8
J-厨卫
  6
ByBlock
  0
TEXT
  5
2F7
330
17
100
AcDbEntity
  8
房间名
100
AcDbText
 10
1539203.696623908
 20
175027.2066410295
 30
0.0
 40
771.6312056737588
  1
屋顶花园
  7
_TCH_SPACE
100
AcDbText
  0
INSERT
  5
2F8
330
17
100
AcDbEntity
  8
WINDOW
  6
ByBlock
100
AcDbBlockReference
 66
1
  2
$DORLIB2D$00000127
 10
1556572.056374314
 20
158377.9862517814
 30
0.0
 41
-1400.0
 42
-200.0
 43
-1400.0
 50
180.0
  0
ATTRIB
  5
2F9
330
2F8
100
AcDbEntity
  8
WINDOW_TEXT
  6
ByBlock
100
AcDbText
 10
1556104.056374315
 20
158470.6609176489
 30
0.0
 40
892.5
  1

  7
_TCH_WINDOW
 41
0.5647058823529412
100
AcDbAttribute
  2
A
 70
0
 71
1
 72
0
  0
SEQEND
  5
2FA
330
2F8
100
AcDbEntity
  8
WINDOW
  6
ByBlock
  0
INSERT
  5
2FB
330
17
100
AcDbEntity
  8
WINDOW
  6
ByBlock
100
AcDbBlockReference
 66
1
  2
$DORLIB2D$00000127
 10
1553672.056374314
 20
158377.9862517814
 30
0.0
 41
-1400.0
 42
-200.0
 43
-1400.0
 50
180.0
  0
ATTRIB
  5
2FC
330
2FB
100
AcDbEntity
  8
WINDOW_TEXT
  6
ByBlock
100
AcDbText
 10
1553204.056374315
 20
158470.6609176489
 30
0.0
 40
892.5
  1

  7
_TCH_WINDOW
 41
0.5647058823529412
100
AcDbAttribute
  2
A
 70
0
 71
1
 72
0
  0
SEQEND
  5
2FD
330
2FB
100
AcDbEntity
  8
WINDOW
  6
ByBlock
  0
INSERT
  5
2FE
330
17
100
AcDbEntity
  8
WINDOW
  6
ByBlock
100
AcDbBlockReference
 66
1
  2
$DORLIB2D$00000127
 10
1550772.056374314
 20
158377.9862517814
 30
0.0
 41
-1400.0
 42
-200.0
 43
-1400.0
 50
180.0
  0
ATTRIB
  5
2FF
330
2FE
100
AcDbEntity
  8
WINDOW_TEXT
  6
ByBlock
100
AcDbText
 10
1550304.056374315
 20
158470.6609176489
 30
0.0
 40
892.5
  1

  7
_TCH_WINDOW
 41
0.5647058823529412
100
AcDbAttribute
  2
A
 70
0
 71
1
 72
0
  0
SEQEND
  5
300
330
2FE
100
AcDbEntity
  8
WINDOW
  6
ByBlock
  0
INSERT
  5
301
330
17
100
AcDbEntity
  8
WINDOW
  6
ByBlock
100
AcDbBlockReference
 66
1
  2
$DORLIB2D$00000127
 10
1553672.056374314
 20
154727.9862517814
 30
0.0
 41
-1400.0
 42
200.0
 43
-1400.0
 50
180.0
  0
ATTRIB
  5
302
330
301
100
AcDbEntity
  8
WINDOW_TEXT
  6
ByBlock
100
AcDbText
 10
1553504.056374315
 20
153601.3115859063
 30
0.0
 40
892.5
  1

  7
_TCH_WINDOW
 41
0.5647058823529412
100
AcDbAttribute
  2
A
 70
0
 71
1
 72
0
  0
SEQEND
  5
303
330
301
100
AcDbEntity
  8
WINDOW
  6
ByBlock
  0
INSERT
  5
304
330
17
100
AcDbEntity
  8
WINDOW
  6
ByBlock
100
AcDbBlockReference
 66
1
  2
$DORLIB2D$00000127
 10
1550772.056374314
 20
154727.9862517814
 30
0.0
 41
-1400.0
 42
200.0
 43
-1400.0
 50
180.0
  0
ATTRIB
  5
305
330
304
100
AcDbEntity
  8
WINDOW_TEXT
  6
ByBlock
100
AcDbText
 10
1550604.056374315
 20
153601.3115859063
 30
0.0
 40
892.5
  1

  7
_TCH_WINDOW
 41
0.5647058823529412
100
AcDbAttribute
  2
A
 70
0
 71
1
 72
0
  0
SEQEND
  5
306
330
304
100
AcDbEntity
  8
WINDOW
  6
ByBlock
  0
LINE
  5
307
330
17
100
AcDbEntity
  8
CURTWALL
100
AcDbLine
 10
1581267.253095228
 20
153177.9862517648
 30
0.0
 11
1580472.056374325
 21
153177.9862517663
 31
0.0
  0
LINE
  5
308
330
17
100
AcDbEntity
  8
CURTWALL
100
AcDbLine
 10
1581368.022986758
 20
153077.9862517648
 30
0.0
 11
1580572.056374325
 21
153077.9862517667
 31
0.0
  0
LINE
  5
309
330
17
100
AcDbEntity
  8
CURTWALL
100
AcDbLine
 10
1581166.415413637
 20
153277.9862517648
 30
0.0
 11
1580372.056374325
 21
153277.9862517658
 31
0.0
  0
LINE
  5
30A
330
17
100
AcDbEntity
  8
CURTWALL
100
AcDbLine
 10
1581267.253095227
 20
150777.9862517648
 30
0.0
 11
1580472.056374325
 21
150777.9862517775
 31
0.0
  0
LINE
  5
30B
330
17
100
AcDbEntity
  8
CURTWALL
100
AcDbLine
 10
1581166.415413636
 20
150677.9862517648
 30
0.0
 11
1580372.056374325
 21
150677.9862517398
 31
0.0
  0
LINE
  5
30C
330
17
100
AcDbEntity
  8
CURTWALL
100
AcDbLine
 10
1581368.022986758
 20
150877.9862517648
 30
0.0
 11
1580572.056374325
 21
150877.9862517388
 31
0.0
  0
LINE
  5
30D
330
17
100
AcDbEntity
  8
CURTWALL
100
AcDbLine
 10
1580472.056374325
 20
153177.9862517663
 30
0.0
 11
1580472.056374325
 21
150777.9862517775
 31
0.0
  0
LINE
  5
30E
330
17
100
AcDbEntity
  8
CURTWALL
100
AcDbLine
 10
1580572.056374325
 20
153077.9862517667
 30
0.0
 11
1580572.056374325
 21
150877.9862517388
 31
0.0
  0
LINE
  5
30F
330
17
100
AcDbEntity
  8
CURTWALL
100
AcDbLine
 10
1580372.056374325
 20
153277.9862517658
 30
0.0
 11
1580372.056374325
 21
150677.9862517398
 31
0.0
  0
INSERT
  5
310
330
17
100
AcDbEntity
  8
WINDOW
100
AcDbBlockReference
 66
1
  2
$DorLib2D$00000002
 10
1568672.056374318
 20
163877.9862381757
 30
0.0
 41
-1500.0
 42
-1500.0
 43
-1500.0
 50
180.0
  0
ATTRIB
  5
311
330
310
100
AcDbEntity
  8
WINDOW_TEXT
100
AcDbText
 10
1568360.056374318
 20
162980.4862517826
 30
0.0
 40
595.0
  1

  7
_TCH_WINDOW
 41
0.5647058823529412
100
AcDbAttribute
  2
A
 70
0
 71
1
 72
0
  0
SEQEND
  5
312
330
310
100
AcDbEntity
  8
WINDOW
  0
LINE
  5
313
330
17
100
AcDbEntity
  8
WINDOW
100
AcDbLine
 10
1569422.056374318
 20
163777.9862381757
 30
0.0
 11
1567922.056374318
 21
163777.9862381757
 31
0.0
  0
INSERT
  5
314
330
17
100
AcDbEntity
  8
WINDOW
100
AcDbBlockReference
 66
1
  2
$DorLib2D$00000002
 10
1568672.056374317
 20
139927.9862381785
 30
0.0
 41
-1500.0
 42
1500.0
 43
-1500.0
 50
180.0
  0
ATTRIB
  5
315
330
314
100
AcDbEntity
  8
WINDOW_TEXT
100
AcDbText
 10
1568360.056374318
 20
140171.6743067076
 30
0.0
 40
595.0
  1

  7
_TCH_WINDOW
 41
0.5647058823529412
100
AcDbAttribute
  2
A
 70
0
 71
1
 72
0
  0
SEQEND
  5
316
330
314
100
AcDbEntity
  8
WINDOW
  0
LINE
  5
317
330
17
100
AcDbEntity
  8
WINDOW
100
AcDbLine
 10
1569422.056374317
 20
140027.9862381785
 30
0.0
 11
1567922.056374317
 21
140027.9862381785
 31
0.0
  0
INSERT
  5
318
330
17
100
AcDbEntity
  8
WINDOW
100
AcDbBlockReference
 66
1
  2
$DorLib2D$00000002
 10
1566422.056374318
 20
139927.9862381785
 30
0.0
 41
1500.0
 42
1500.0
 43
1500.0
 50
180.0
  0
ATTRIB
  5
319
330
318
100
AcDbEntity
  8
WINDOW_TEXT
100
AcDbText
 10
1566110.056374318
 20
140171.6743067076
 30
0.0
 40
595.0
  1

  7
_TCH_WINDOW
 41
0.5647058823529412
100
AcDbAttribute
  2
A
 70
0
 71
1
 72
0
  0
SEQEND
  5
31A
330
318
100
AcDbEntity
  8
WINDOW
  0
LINE
  5
31B
330
17
100
AcDbEntity
  8
WINDOW
100
AcDbLine
 10
1567172.056374318
 20
140027.9862381785
 30
0.0
 11
1565672.056374318
 21
140027.9862381785
 31
0.0
  0
INSERT
  5
31C
330
17
100
AcDbEntity
  8
WINDOW
100
AcDbBlockReference
 66
1
  2
$DorLib2D$00000002
 10
1559322.056374318
 20
139927.9862381785
 30
0.0
 41
-1500.0
 42
1500.0
 43
-1500.0
 50
180.0
  0
ATTRIB
  5
31D
330
31C
100
AcDbEntity
  8
WINDOW_TEXT
100
AcDbText
 10
1559010.056374318
 20
140171.6743067077
 30
0.0
 40
595.0
  1

  7
_TCH_WINDOW
 41
0.5647058823529412
100
AcDbAttribute
  2
A
 70
0
 71
1
 72
0
  0
SEQEND
  5
31E
330
31C
100
AcDbEntity
  8
WINDOW
  0
LINE
  5
31F
330
17
100
AcDbEntity
  8
WINDOW
100
AcDbLine
 10
1560072.056374318
 20
140027.9862381785
 30
0.0
 11
1558572.056374318
 21
140027.9862381785
 31
0.0
  0
INSERT
  5
320
330
17
100
AcDbEntity
  8
WINDOW
100
AcDbBlockReference
 66
1
  2
$DorLib2D$00000002
 10
1548072.056374319
 20
139927.9862381785
 30
0.0
 41
1500.0
 42
1500.0
 43
1500.0
 50
180.0
  0
ATTRIB
  5
321
330
320
100
AcDbEntity
  8
WINDOW_TEXT
100
AcDbText
 10
1547760.056374319
 20
140171.6743067076
 30
0.0
 40
595.0
  1

  7
_TCH_WINDOW
 41
0.5647058823529412
100
AcDbAttribute
  2
A
 70
0
 71
1
 72
0
  0
SEQEND
  5
322
330
320
100
AcDbEntity
  8
WINDOW
  0
LINE
  5
323
330
17
100
AcDbEntity
  8
WINDOW
100
AcDbLine
 10
1548822.056374319
 20
140027.9862381785
 30
0.0
 11
1547322.056374319
 21
140027.9862381785
 31
0.0
  0
INSERT
  5
324
330
17
100
AcDbEntity
  8
WINDOW
100
AcDbBlockReference
 66
1
  2
$DorLib2D$00000002
 10
1548072.056374319
 20
163877.9862381757
 30
0.0
 41
1500.0
 42
-1500.0
 43
1500.0
 50
180.0
  0
ATTRIB
  5
325
330
324
100
AcDbEntity
  8
WINDOW_TEXT
100
AcDbText
 10
1547760.056374319
 20
162980.4862517826
 30
0.0
 40
595.0
  1

  7
_TCH_WINDOW
 41
0.5647058823529412
100
AcDbAttribute
  2
A
 70
0
 71
1
 72
0
  0
SEQEND
  5
326
330
324
100
AcDbEntity
  8
WINDOW
  0
LINE
  5
327
330
17
100
AcDbEntity
  8
WINDOW
100
AcDbLine
 10
1548822.056374319
 20
163777.9862381757
 30
0.0
 11
1547322.056374319
 21
163777.9862381757
 31
0.0
  0
INSERT
  5
328
330
17
100
AcDbEntity
  8
WINDOW
100
AcDbBlockReference
 66
1
  2
$DorLib2D$00000002
 10
1566422.056374318
 20
163877.9862381757
 30
0.0
 41
1500.0
 42
-1500.0
 43
1500.0
 50
180.0
  0
ATTRIB
  5
329
330
328
100
AcDbEntity
  8
WINDOW_TEXT
100
AcDbText
 10
1566110.056374318
 20
162980.4862517826
 30
0.0
 40
595.0
  1

  7
_TCH_WINDOW
 41
0.5647058823529412
100
AcDbAttribute
  2
A
 70
0
 71
1
 72
0
  0
SEQEND
  5
32A
330
328
100
AcDbEntity
  8
WINDOW
  0
LINE
  5
32B
330
17
100
AcDbEntity
  8
WINDOW
100
AcDbLine
 10
1567172.056374318
 20
163777.9862381757
 30
0.0
 11
1565672.056374318
 21
163777.9862381757
 31
0.0
  0
INSERT
  5
32C
330
17
100
AcDbEntity
  8
WINDOW
100
AcDbBlockReference
 66
1
  2
$DorLib2D$00000002
 10
1559322.056374318
 20
163877.9862381757
 30
0.0
 41
-1500.0
 42
-1500.0
 43
-1500.0
 50
180.0
  0
ATTRIB
  5
32D
330
32C
100
AcDbEntity
  8
WINDOW_TEXT
100
AcDbText
 10
1559010.056374318
 20
162980.4862517825
 30
0.0
 40
595.0
  1

  7
_TCH_WINDOW
 41
0.5647058823529412
100
AcDbAttribute
  2
A
 70
0
 71
1
 72
0
  0
SEQEND
  5
32E
330
32C
100
AcDbEntity
  8
WINDOW
  0
LINE
  5
32F
330
17
100
AcDbEntity
  8
WINDOW
100
AcDbLine
 10
1560072.056374318
 20
163777.9862381757
 30
0.0
 11
1558572.056374318
 21
163777.9862381757
 31
0.0
  0
INSERT
  5
330
330
17
100
AcDbEntity
  8
WINDOW
100
AcDbBlockReference
 66
1
  2
$DorLib2D$00000002
 10
1550322.056374318
 20
163877.9862381757
 30
0.0
 41
-1500.0
 42
-1500.0
 43
-1500.0
 50
180.0
  0
ATTRIB
  5
331
330
330
100
AcDbEntity
  8
WINDOW_TEXT
100
AcDbText
 10
1550010.056374318
 20
162980.4862517826
 30
0.0
 40
595.0
  1

  7
_TCH_WINDOW
 41
0.5647058823529412
100
AcDbAttribute
  2
A
 70
0
 71
1
 72
0
  0
SEQEND
  5
332
330
330
100
AcDbEntity
  8
WINDOW
  0
LINE
  5
333
330
17
100
AcDbEntity
  8
WINDOW
100
AcDbLine
 10
1551072.056374318
 20
163777.9862381757
 30
0.0
 11
1549572.056374318
 21
163777.9862381757
 31
0.0
  0
INSERT
  5
334
330
17
100
AcDbEntity
  8
WINDOW
100
AcDbBlockReference
 66
1
  2
$DorLib2D$00000002
 10
1557422.056374318
 20
163877.9862381757
 30
0.0
 41
1500.0
 42
-1500.0
 43
1500.0
 50
180.0
  0
ATTRIB
  5
335
330
334
100
AcDbEntity
  8
WINDOW_TEXT
100
AcDbText
 10
1557110.056374318
 20
162980.4862517825
 30
0.0
 40
595.0
  1

  7
_TCH_WINDOW
 41
0.5647058823529412
100
AcDbAttribute
  2
A
 70
0
 71
1
 72
0
  0
SEQEND
  5
336
330
334
100
AcDbEntity
  8
WINDOW
  0
LINE
  5
337
330
17
100
AcDbEntity
  8
WINDOW
100
AcDbLine
 10
1558172.056374318
 20
163777.9862381757
 30
0.0
 11
1556672.056374318
 21
163777.9862381757
 31
0.0
  0
INSERT
  5
338
330
17
100
AcDbEntity
  8
WINDOW
100
AcDbBlockReference
 66
1
  2
$DorLib2D$00000002
 10
1550322.056374317
 20
139927.9862381785
 30
0.0
 41
-1500.0
 42
1500.0
 43
-1500.0
 50
180.0
  0
ATTRIB
  5
339
330
338
100
AcDbEntity
  8
WINDOW_TEXT
100
AcDbText
 10
1550010.056374318
 20
140171.6743067076
 30
0.0
 40
595.0
  1

  7
_TCH_WINDOW
 41
0.5647058823529412
100
AcDbAttribute
  2
A
 70
0
 71
1
 72
0
  0
SEQEND
  5
33A
330
338
100
AcDbEntity
  8
WINDOW
  0
LINE
  5
33B
330
17
100
AcDbEntity
  8
WINDOW
100
AcDbLine
 10
1551072.056374317
 20
140027.9862381785
 30
0.0
 11
1549572.056374317
 21
140027.9862381785
 31
0.0
  0
INSERT
  5
33C
330
17
100
AcDbEntity
  8
WINDOW
100
AcDbBlockReference
 66
1
  2
$DorLib2D$00000002
 10
1557422.056374318
 20
139927.9862381785
 30
0.0
 41
1500.0
 42
1500.0
 43
1500.0
 50
180.0
  0
ATTRIB
  5
33D
330
33C
100
AcDbEntity
  8
WINDOW_TEXT
100
AcDbText
 10
1557110.056374318
 20
140171.6743067077
 30
0.0
 40
595.0
  1

  7
_TCH_WINDOW
 41
0.5647058823529412
100
AcDbAttribute
  2
A
 70
0
 71
1
 72
0
  0
SEQEND
  5
33E
330
33C
100
AcDbEntity
  8
WINDOW
  0
LINE
  5
33F
330
17
100
AcDbEntity
  8
WINDOW
100
AcDbLine
 10
1558172.056374318
 20
140027.9862381785
 30
0.0
 11
1556672.056374318
 21
140027.9862381785
 31
0.0
  0
INSERT
  5
340
330
17
100
AcDbEntity
  8
WINDOW
100
AcDbBlockReference
 66
1
  2
$DorLib2D$00000002
 10
1570272.05637433
 20
146527.9862517833
 30
0.0
 41
1500.0
 42
1500.0
 43
1500.0
 50
270.0
  0
ATTRIB
  5
341
330
340
100
AcDbEntity
  8
WINDOW_TEXT
100
AcDbText
 10
1569869.556374318
 20
146215.9862517833
 30
0.0
 40
595.0
  1

 50
90.0
  7
_TCH_WINDOW
 41
0.5647058823529412
100
AcDbAttribute
  2
A
 70
0
 71
1
 72
0
  0
SEQEND
  5
342
330
340
100
AcDbEntity
  8
WINDOW
  0
LINE
  5
343
330
17
100
AcDbEntity
  8
WINDOW
100
AcDbLine
 10
1570372.05637433
 20
147277.9862517833
 30
0.0
 11
1570372.05637433
 21
145777.9862517833
 31
0.0
  0
LINE
  5
344
330
17
100
AcDbEntity
  8
WALL
100
AcDbLine
 10
1567472.056374313
 20
139827.9862381752
 30
0.0
 11
1567472.056374314
 21
129454.6435924979
 31
0.0
  0
LINE
  5
345
330
17
100
AcDbEntity
  8
WALL
100
AcDbLine
 10
1567272.056374316
 20
139827.9862381793
 30
0.0
 11
1567272.056374314
 21
129442.605822916
 31
0.0
  0
LINE
  5
346
330
17
100
AcDbEntity
  8
WALL
100
AcDbLine
 10
1549472.056374316
 20
139827.9862381795
 30
0.0
 11
1549472.056374314
 21
129442.6058229169
 31
0.0
  0
LINE
  5
347
330
17
100
AcDbEntity
  8
WALL
100
AcDbLine
 10
1549272.056374314
 20
139827.9862381724
 30
0.0
 11
1549272.056374314
 21
129454.6435924989
 31
0.0
  0
LINE
  5
348
330
17
100
AcDbEntity
  8
WALL
100
AcDbLine
 10
1558272.056374314
 20
129977.9862517664
 30
0.0
 11
1558272.056374314
 21
139827.9862381795
 31
0.0
  0
LINE
  5
349
330
17
100
AcDbEntity
  8
WALL
100
AcDbLine
 10
1558472.056374314
 20
129977.9862517664
 30
0.0
 11
1558472.056374314
 21
139827.9862381793
 31
0.0
  0
LINE
  5
34A
330
17
100
AcDbEntity
  8
WALL
100
AcDbLine
 10
1567372.056374315
 20
140027.9862381785
 30
0.0
 11
1567172.056374321
 21
140027.9862381759
 31
0.0
  0
LINE
  5
34B
330
17
100
AcDbEntity
  8
WALL
100
AcDbLine
 10
1567172.056374321
 20
140027.9862381759
 30
0.0
 11
1567172.056374321
 21
139827.9862381793
 31
0.0
  0
LINE
  5
34C
330
17
100
AcDbEntity
  8
WALL
100
AcDbLine
 10
1567172.056374321
 20
139827.9862381793
 30
0.0
 11
1567272.056374316
 21
139827.9862381793
 31
0.0
  0
LINE
  5
34D
330
17
100
AcDbEntity
  8
WALL
100
AcDbLine
 10
1558472.056374314
 20
139827.9862381793
 30
0.0
 11
1558572.056374321
 21
139827.9862381793
 31
0.0
  0
LINE
  5
34E
330
17
100
AcDbEntity
  8
WALL
100
AcDbLine
 10
1558572.056374321
 20
139827.9862381793
 30
0.0
 11
1558572.056374321
 21
140027.9862381759
 31
0.0
  0
LINE
  5
34F
330
17
100
AcDbEntity
  8
WALL
100
AcDbLine
 10
1558572.056374321
 20
140027.9862381759
 30
0.0
 11
1558372.056374314
 21
140027.9862381785
 31
0.0
  0
LINE
  5
350
330
17
100
AcDbEntity
  8
WALL
100
AcDbLine
 10
1565672.056374321
 20
140027.9862381759
 30
0.0
 11
1560072.056374321
 21
140027.9862381759
 31
0.0
  0
LINE
  5
351
330
17
100
AcDbEntity
  8
WALL
100
AcDbLine
 10
1560072.056374321
 20
140027.9862381759
 30
0.0
 11
1560072.056374321
 21
139827.9862381793
 31
0.0
  0
LINE
  5
352
330
17
100
AcDbEntity
  8
WALL
100
AcDbLine
 10
1560072.056374321
 20
139827.9862381793
 30
0.0
 11
1565672.056374321
 21
139827.9862381793
 31
0.0
  0
LINE
  5
353
330
17
100
AcDbEntity
  8
WALL
100
AcDbLine
 10
1565672.056374321
 20
139827.9862381793
 30
0.0
 11
1565672.056374321
 21
140027.9862381759
 31
0.0
  0
LINE
  5
354
330
17
100
AcDbEntity
  8
WALL
100
AcDbLine
 10
1549372.056374314
 20
140027.9862381785
 30
0.0
 11
1548822.056374321
 21
140027.9862381714
 31
0.0
  0
LINE
  5
355
330
17
100
AcDbEntity
  8
WALL
100
AcDbLine
 10
1548822.056374321
 20
140027.9862381714
 30
0.0
 11
1548822.056374321
 21
139827.9862381765
 31
0.0
  0
LINE
  5
356
330
17
100
AcDbEntity
  8
WALL
100
AcDbLine
 10
1548822.056374321
 20
139827.9862381765
 30
0.0
 11
1549272.056374314
 21
139827.9862381724
 31
0.0
  0
LINE
  5
357
330
17
100
AcDbEntity
  8
WALL
100
AcDbLine
 10
1546372.05637407
 20
139827.9862381724
 30
0.0
 11
1547322.056374321
 21
139827.9862381765
 31
0.0
  0
LINE
  5
358
330
17
100
AcDbEntity
  8
WALL
100
AcDbLine
 10
1547322.056374321
 20
139827.9862381765
 30
0.0
 11
1547322.056374321
 21
140027.9862381705
 31
0.0
  0
LINE
  5
359
330
17
100
AcDbEntity
  8
WALL
100
AcDbLine
 10
1547322.056374321
 20
140027.9862381705
 30
0.0
 11
1546572.056374073
 21
140027.9862381767
 31
0.0
  0
LINE
  5
35A
330
17
100
AcDbEntity
  8
WALL
100
AcDbLine
 10
1558372.056374314
 20
140027.9862381785
 30
0.0
 11
1558172.056374321
 21
140027.9862381795
 31
0.0
  0
LINE
  5
35B
330
17
100
AcDbEntity
  8
WALL
100
AcDbLine
 10
1558172.056374321
 20
140027.9862381795
 30
0.0
 11
1558172.056374321
 21
139827.9862381798
 31
0.0
  0
LINE
  5
35C
330
17
100
AcDbEntity
  8
WALL
100
AcDbLine
 10
1558172.056374321
 20
139827.9862381798
 30
0.0
 11
1558272.056374314
 21
139827.9862381795
 31
0.0
  0
LINE
  5
35D
330
17
100
AcDbEntity
  8
WALL
100
AcDbLine
 10
1549472.056374316
 20
139827.9862381795
 30
0.0
 11
1549572.056374321
 21
139827.9862381798
 31
0.0
  0
LINE
  5
35E
330
17
100
AcDbEntity
  8
WALL
100
AcDbLine
 10
1549572.056374321
 20
139827.9862381798
 30
0.0
 11
1549572.056374321
 21
140027.9862381795
 31
0.0
  0
LINE
  5
35F
330
17
100
AcDbEntity
  8
WALL
100
AcDbLine
 10
1549572.056374321
 20
140027.9862381795
 30
0.0
 11
1549372.056374314
 21
140027.9862381785
 31
0.0
  0
LINE
  5
360
330
17
100
AcDbEntity
  8
WALL
100
AcDbLine
 10
1556672.056374321
 20
140027.9862381795
 30
0.0
 11
1551072.056374321
 21
140027.9862381795
 31
0.0
  0
LINE
  5
361
330
17
100
AcDbEntity
  8
WALL
100
AcDbLine
 10
1551072.056374321
 20
140027.9862381795
 30
0.0
 11
1551072.056374321
 21
139827.9862381798
 31
0.0
  0
LINE
  5
362
330
17
100
AcDbEntity
  8
WALL
100
AcDbLine
 10
1551072.056374321
 20
139827.9862381798
 30
0.0
 11
1556672.056374321
 21
139827.9862381798
 31
0.0
  0
LINE
  5
363
330
17
100
AcDbEntity
  8
WALL
100
AcDbLine
 10
1556672.056374321
 20
139827.9862381798
 30
0.0
 11
1556672.056374321
 21
140027.9862381795
 31
0.0
  0
LINE
  5
364
330
17
100
AcDbEntity
  8
CURTWALL
100
AcDbLine
 10
1558372.056374314
 20
129877.9862517582
 30
0.0
 11
1557172.056374306
 21
129877.9862517744
 31
0.0
  0
LINE
  5
365
330
17
100
AcDbEntity
  8
CURTWALL
100
AcDbLine
 10
1558372.056374314
 20
129777.9862517582
 30
0.0
 11
1557272.056374306
 21
129777.9862517485
 31
0.0
  0
LINE
  5
366
330
17
100
AcDbEntity
  8
CURTWALL
100
AcDbLine
 10
1558372.056374314
 20
129977.9862517582
 30
0.0
 11
1557072.056374307
 21
129977.9862517495
 31
0.0
  0
TEXT
  5
367
330
17
100
AcDbEntity
  8
房间名
100
AcDbText
 10
1562045.315936296
 20
166949.2544130078
 30
0.0
 40
771.6312056737588
  1
办公
  7
_TCH_SPACE
100
AcDbText
  0
TEXT
  5
368
330
17
100
AcDbEntity
  8
房间名
100
AcDbText
 10
1563168.720191615
 20
166949.2544130078
 30
0.0
 40
680.0
  1
03
  7
_TCH_SPACE
 41
0.7058823529411765
100
AcDbText
  0
TEXT
  5
369
330
17
100
AcDbEntity
  8
房间名
100
AcDbText
 10
1573407.815936296
 20
166679.33913857
 30
0.0
 40
771.6312056737588
  1
办公
  7
_TCH_SPACE
100
AcDbText
  0
TEXT
  5
36A
330
17
100
AcDbEntity
  8
房间名
100
AcDbText
 10
1574531.220191615
 20
166679.33913857
 30
0.0
 40
680.0
  1
04
  7
_TCH_SPACE
 41
0.7058823529411765
100
AcDbText
  0
TEXT
  5
36B
330
17
100
AcDbEntity
  8
房间名
100
AcDbText
 10
1573407.815936296
 20
135422.2544130078
 30
0.0
 40
771.6312056737588
  1
办公
  7
_TCH_SPACE
100
AcDbText
  0
TEXT
  5
36C
330
17
100
AcDbEntity
  8
房间名
100
AcDbText
 10
1574531.220191615
 20
135422.2544130078
 30
0.0
 40
680.0
  1
06
  7
_TCH_SPACE
 41
0.7058823529411765
100
AcDbText
  0
TEXT
  5
36D
330
17
100
AcDbEntity
  8
房间名
100
AcDbText
 10
1562358.315936296
 20
135422.2544130078
 30
0.0
 40
771.6312056737588
  1
办公
  7
_TCH_SPACE
100
AcDbText
  0
TEXT
  5
36E
330
17
100
AcDbEntity
  8
房间名
100
AcDbText
 10
1563481.720191615
 20
135422.2544130078
 30
0.0
 40
680.0
  1
07
  7
_TCH_SPACE
 41
0.7058823529411765
100
AcDbText
  0
TEXT
  5
36F
330
17
100
AcDbEntity
  8
房间名
100
AcDbText
 10
1542587.815936296
 20
135422.2544130078
 30
0.0
 40
771.6312056737588
  1
办公
  7
_TCH_SPACE
100
AcDbText
  0
TEXT
  5
370
330
17
100
AcDbEntity
  8
房间名
100
AcDbText
 10
1543711.220191615
 20
135422.2544130078
 30
0.0
 40
680.0
  1
09
  7
_TCH_SPACE
 41
0.7058823529411765
100
AcDbText
  0
TEXT
  5
371
330
17
100
AcDbEntity
  8
房间名
100
AcDbText
 10
1542587.815936296
 20
166968.83913857
 30
0.0
 40
771.6312056737588
  1
办公
  7
_TCH_SPACE
100
AcDbText
  0
TEXT
  5
372
330
17
100
AcDbEntity
  8
房间名
100
AcDbText
 10
1543711.220191615
 20
166968.83913857
 30
0.0
 40
680.0
  1
01
  7
_TCH_SPACE
 41
0.7058823529411765
100
AcDbText
  0
TEXT
  5
373
330
17
100
AcDbEntity
  8
房间名
100
AcDbText
 10
1553231.815936296
 20
135422.2544130078
 30
0.0
 40
771.6312056737588
  1
办公
  7
_TCH_SPACE
100
AcDbText
  0
TEXT
  5
374
330
17
100
AcDbEntity
  8
房间名
100
AcDbText
 10
1554355.220191615
 20
135422.2544130078
 30
0.0
 40
680.0
  1
08
  7
_TCH_SPACE
 41
0.7058823529411765
100
AcDbText
  0
TEXT
  5
375
330
17
100
AcDbEntity
  8
房间名
100
AcDbText
 10
1573367.336767111
 20
151247.0790976146
 30
0.0
 40
771.6312056737588
  1
办公
  7
_TCH_SPACE
100
AcDbText
  0
TEXT
  5
376
330
17
100
AcDbEntity
  8
房间名
100
AcDbText
 10
1574490.74102243
 20
151247.0790976146
 30
0.0
 40
680.0
  1
05
  7
_TCH_SPACE
 41
0.7058823529411765
100
AcDbText
  0
TEXT
  5
377
330
17
100
AcDbEntity
  8
房间名
100
AcDbText
 10
1552849.315936296
 20
166949.2544130078
 30
0.0
 40
771.6312056737588
  1
办公
  7
_TCH_SPACE
100
AcDbText
  0
TEXT
  5
378
330
17
100
AcDbEntity
  8
房间名
100
AcDbText
 10
1553972.720191615
 20
166949.2544130078
 30
0.0
 40
680.0
  1
02
  7
_TCH_SPACE
 41
0.7058823529411765
100
AcDbText
  0
TEXT
  5
379
330
17
100
AcDbEntity
  8
房间名
100
AcDbText
 10
1542466.385931135
 20
151204.8208391243
 30
0.0
 40
771.6312056737588
  1
办公
  7
_TCH_SPACE
100
AcDbText
  0
TEXT
  5
37A
330
17
100
AcDbEntity
  8
房间名
100
AcDbText
 10
1543589.790186454
 20
151204.8208391243
 30
0.0
 40
680.0
  1
10
  7
_TCH_SPACE
 41
0.7058823529411765
100
AcDbText
  0
LINE
  5
37B
330
17
100
AcDbEntity
  8
WALL
100
AcDbLine
 10
1567472.056374333
 20
174501.3289110335
 30
0.0
 11
1567472.056374333
 21
163977.9862381773
 31
0.0
  0
LINE
  5
37C
330
17
100
AcDbEntity
  8
WALL
100
AcDbLine
 10
1567272.056374333
 20
174513.3666806154
 30
0.0
 11
1567272.056374331
 21
163977.9862381762
 31
0.0
  0
LINE
  5
37D
330
17
100
AcDbEntity
  8
WALL
100
AcDbLine
 10
1558472.056374333
 20
173977.9862517766
 30
0.0
 11
1558472.056374333
 21
163977.9862381762
 31
0.0
  0
LINE
  5
37E
330
17
100
AcDbEntity
  8
WALL
100
AcDbLine
 10
1558272.056374331
 20
173977.9862517766
 30
0.0
 11
1558272.056374331
 21
163977.9862381736
 31
0.0
  0
LINE
  5
37F
330
17
100
AcDbEntity
  8
WALL
100
AcDbLine
 10
1549472.056374333
 20
174513.3666806173
 30
0.0
 11
1549472.056374333
 21
163977.9862381736
 31
0.0
  0
LINE
  5
380
330
17
100
AcDbEntity
  8
WALL
100
AcDbLine
 10
1549272.056374333
 20
174501.3289110354
 30
0.0
 11
1549272.056374331
 21
163977.9862381777
 31
0.0
  0
LINE
  5
381
330
17
100
AcDbEntity
  8
WALL
100
AcDbLine
 10
1549472.056374309
 20
163777.9862381736
 30
0.0
 11
1549472.056374333
 21
163777.9862517501
 31
0.0
  0
LINE
  5
382
330
17
100
AcDbEntity
  8
WALL
100
AcDbLine
 10
1549272.056374628
 20
163777.9862381748
 30
0.0
 11
1549272.056374333
 21
163777.9862517501
 31
0.0
  0
LINE
  5
383
330
17
100
AcDbEntity
  8
WALL
100
AcDbLine
 10
1549472.056374333
 20
163777.9862517501
 30
0.0
 11
1549272.056374333
 21
163777.9862517501
 31
0.0
  0
LINE
  5
384
330
17
100
AcDbEntity
  8
WALL
100
AcDbLine
 10
1549272.056374331
 20
163977.9862381777
 30
0.0
 11
1548822.056374321
 21
163977.9862381855
 31
0.0
  0
LINE
  5
385
330
17
100
AcDbEntity
  8
WALL
100
AcDbLine
 10
1548822.056374321
 20
163977.9862381855
 30
0.0
 11
1548822.056374321
 21
163777.9862381759
 31
0.0
  0
LINE
  5
386
330
17
100
AcDbEntity
  8
WALL
100
AcDbLine
 10
1548822.056374321
 20
163777.9862381759
 30
0.0
 11
1549272.056374628
 21
163777.9862381748
 31
0.0
  0
LINE
  5
387
330
17
100
AcDbEntity
  8
WALL
100
AcDbLine
 10
1546572.056374072
 20
163777.9862381748
 30
0.0
 11
1547322.056374321
 21
163777.9862381759
 31
0.0
  0
LINE
  5
388
330
17
100
AcDbEntity
  8
WALL
100
AcDbLine
 10
1547322.056374321
 20
163777.9862381759
 30
0.0
 11
1547322.056374321
 21
163977.9862381855
 31
0.0
  0
LINE
  5
389
330
17
100
AcDbEntity
  8
WALL
100
AcDbLine
 10
1547322.056374321
 20
163977.9862381855
 30
0.0
 11
1546372.056374072
 21
163977.9862381777
 31
0.0
  0
LINE
  5
38A
330
17
100
AcDbEntity
  8
WALL
100
AcDbLine
 10
1558472.056374303
 20
163777.9862381762
 30
0.0
 11
1558472.056374333
 21
163777.9862517501
 31
0.0
  0
LINE
  5
38B
330
17
100
AcDbEntity
  8
WALL
100
AcDbLine
 10
1558272.056374316
 20
163777.9862381736
 30
0.0
 11
1558272.056374333
 21
163777.9862517501
 31
0.0
  0
LINE
  5
38C
330
17
100
AcDbEntity
  8
WALL
100
AcDbLine
 10
1558472.056374333
 20
163777.9862517501
 30
0.0
 11
1558272.056374333
 21
163777.9862517501
 31
0.0
  0
LINE
  5
38D
330
17
100
AcDbEntity
  8
WALL
100
AcDbLine
 10
1558272.056374331
 20
163977.9862381736
 30
0.0
 11
1558172.056374321
 21
163977.9862381719
 31
0.0
  0
LINE
  5
38E
330
17
100
AcDbEntity
  8
WALL
100
AcDbLine
 10
1558172.056374321
 20
163977.9862381719
 30
0.0
 11
1558172.056374321
 21
163777.9862381736
 31
0.0
  0
LINE
  5
38F
330
17
100
AcDbEntity
  8
WALL
100
AcDbLine
 10
1558172.056374321
 20
163777.9862381736
 30
0.0
 11
1558272.056374316
 21
163777.9862381736
 31
0.0
  0
LINE
  5
390
330
17
100
AcDbEntity
  8
WALL
100
AcDbLine
 10
1549472.056374309
 20
163777.9862381736
 30
0.0
 11
1549572.056374321
 21
163777.9862381736
 31
0.0
  0
LINE
  5
391
330
17
100
AcDbEntity
  8
WALL
100
AcDbLine
 10
1549572.056374321
 20
163777.9862381736
 30
0.0
 11
1549572.056374321
 21
163977.9862381719
 31
0.0
  0
LINE
  5
392
330
17
100
AcDbEntity
  8
WALL
100
AcDbLine
 10
1549572.056374321
 20
163977.9862381719
 30
0.0
 11
1549472.056374333
 21
163977.9862381736
 31
0.0
  0
LINE
  5
393
330
17
100
AcDbEntity
  8
WALL
100
AcDbLine
 10
1556672.056374283
 20
163977.9862381719
 30
0.0
 11
1551072.056374321
 21
163977.9862381719
 31
0.0
  0
LINE
  5
394
330
17
100
AcDbEntity
  8
WALL
100
AcDbLine
 10
1551072.056374321
 20
163977.9862381719
 30
0.0
 11
1551072.056374321
 21
163777.9862381736
 31
0.0
  0
LINE
  5
395
330
17
100
AcDbEntity
  8
WALL
100
AcDbLine
 10
1551072.056374321
 20
163777.9862381736
 30
0.0
 11
1556672.056374283
 21
163777.9862381736
 31
0.0
  0
LINE
  5
396
330
17
100
AcDbEntity
  8
WALL
100
AcDbLine
 10
1556672.056374283
 20
163777.9862381736
 30
0.0
 11
1556672.056374283
 21
163977.9862381719
 31
0.0
  0
LINE
  5
397
330
17
100
AcDbEntity
  8
WALL
100
AcDbLine
 10
1567472.056374297
 20
163777.986238177
 30
0.0
 11
1567472.056374333
 21
163777.9862517501
 31
0.0
  0
LINE
  5
398
330
17
100
AcDbEntity
  8
WALL
100
AcDbLine
 10
1567272.05637431
 20
163777.9862381762
 30
0.0
 11
1567272.056374333
 21
163777.9862517501
 31
0.0
  0
LINE
  5
399
330
17
100
AcDbEntity
  8
WALL
100
AcDbLine
 10
1567472.056374333
 20
163777.9862517501
 30
0.0
 11
1567272.056374333
 21
163777.9862517501
 31
0.0
  0
LINE
  5
39A
330
17
100
AcDbEntity
  8
WALL
100
AcDbLine
 10
1567272.056374331
 20
163977.9862381762
 30
0.0
 11
1567172.056374321
 21
163977.9862381753
 31
0.0
  0
LINE
  5
39B
330
17
100
AcDbEntity
  8
WALL
100
AcDbLine
 10
1567172.056374321
 20
163977.9862381753
 30
0.0
 11
1567172.056374321
 21
163777.9862381771
 31
0.0
  0
LINE
  5
39C
330
17
100
AcDbEntity
  8
WALL
100
AcDbLine
 10
1567172.056374321
 20
163777.9862381771
 30
0.0
 11
1567272.05637431
 21
163777.9862381762
 31
0.0
  0
LINE
  5
39D
330
17
100
AcDbEntity
  8
WALL
100
AcDbLine
 10
1558472.056374303
 20
163777.9862381762
 30
0.0
 11
1558572.056374321
 21
163777.9862381771
 31
0.0
  0
LINE
  5
39E
330
17
100
AcDbEntity
  8
WALL
100
AcDbLine
 10
1558572.056374321
 20
163777.9862381771
 30
0.0
 11
1558572.056374321
 21
163977.9862381753
 31
0.0
  0
LINE
  5
39F
330
17
100
AcDbEntity
  8
WALL
100
AcDbLine
 10
1558572.056374321
 20
163977.9862381753
 30
0.0
 11
1558472.056374333
 21
163977.9862381762
 31
0.0
  0
LINE
  5
3A0
330
17
100
AcDbEntity
  8
WALL
100
AcDbLine
 10
1565672.056374321
 20
163977.9862381753
 30
0.0
 11
1560072.056374321
 21
163977.9862381753
 31
0.0
  0
LINE
  5
3A1
330
17
100
AcDbEntity
  8
WALL
100
AcDbLine
 10
1560072.056374321
 20
163977.9862381753
 30
0.0
 11
1560072.056374321
 21
163777.9862381771
 31
0.0
  0
LINE
  5
3A2
330
17
100
AcDbEntity
  8
WALL
100
AcDbLine
 10
1560072.056374321
 20
163777.9862381771
 30
0.0
 11
1565672.056374321
 21
163777.9862381771
 31
0.0
  0
LINE
  5
3A3
330
17
100
AcDbEntity
  8
WALL
100
AcDbLine
 10
1565672.056374321
 20
163777.9862381771
 30
0.0
 11
1565672.056374321
 21
163977.9862381753
 31
0.0
  0
LINE
  5
3A4
330
17
100
AcDbEntity
  8
CURTWALL
100
AcDbLine
 10
1558372.056374333
 20
174077.9862517907
 30
0.0
 11
1557172.056374304
 21
174077.9862517874
 31
0.0
  0
LINE
  5
3A5
330
17
100
AcDbEntity
  8
CURTWALL
100
AcDbLine
 10
1558372.056374333
 20
173977.9862517907
 30
0.0
 11
1557072.056374343
 21
173977.9862517884
 31
0.0
  0
LINE
  5
3A6
330
17
100
AcDbEntity
  8
CURTWALL
100
AcDbLine
 10
1558372.056374333
 20
174177.9862517907
 30
0.0
 11
1557272.056374304
 21
174177.9862518117
 31
0.0
  0
LINE
  5
3A7
330
17
100
AcDbEntity
  8
WALL
100
AcDbLine
 10
1581101.412213446
 20
147377.9862517776
 30
0.0
 11
1570372.056374329
 21
147377.986251779
 31
0.0
  0
LINE
  5
3A8
330
17
100
AcDbEntity
  8
WALL
100
AcDbLine
 10
1581107.422938134
 20
147577.9862517776
 30
0.0
 11
1570372.05637433
 21
147577.9862517759
 31
0.0
  0
INSERT
  5
3A9
330
17
100
AcDbEntity
  8
WINDOW
100
AcDbBlockReference
 66
1
  2
$DorLib2D$00000002
 10
1546472.056374071
 20
157427.9862518023
 30
0.0
 41
-1500.0
 42
-1500.0
 43
-1500.0
 50
270.0
  0
ATTRIB
  5
3AA
330
3A9
100
AcDbEntity
  8
WINDOW_TEXT
100
AcDbText
 10
1547369.556374317
 20
157115.9862518022
 30
0.0
 40
595.0
  1

 50
90.0
  7
_TCH_WINDOW
 41
0.5647058823529412
100
AcDbAttribute
  2
A
 70
0
 71
1
 72
0
  0
SEQEND
  5
3AB
330
3A9
100
AcDbEntity
  8
WINDOW
  0
LINE
  5
3AC
330
17
100
AcDbEntity
  8
WINDOW
100
AcDbLine
 10
1546572.056374071
 20
158177.9862518023
 30
0.0
 11
1546572.056374071
 21
156677.9862518023
 31
0.0
  0
INSERT
  5
3AD
330
17
100
AcDbEntity
  8
WINDOW
100
AcDbBlockReference
 66
1
  2
$DorLib2D$00000002
 10
1570272.05637433
 20
157127.9862517578
 30
0.0
 41
-1500.0
 42
1500.0
 43
-1500.0
 50
270.0
  0
ATTRIB
  5
3AE
330
3AD
100
AcDbEntity
  8
WINDOW_TEXT
100
AcDbText
 10
1569869.556374317
 20
156815.986251758
 30
0.0
 40
595.0
  1

 50
90.0
  7
_TCH_WINDOW
 41
0.5647058823529412
100
AcDbAttribute
  2
A
 70
0
 71
1
 72
0
  0
SEQEND
  5
3AF
330
3AD
100
AcDbEntity
  8
WINDOW
  0
LINE
  5
3B0
330
17
100
AcDbEntity
  8
WINDOW
100
AcDbLine
 10
1570372.05637433
 20
157877.9862517578
 30
0.0
 11
1570372.05637433
 21
156377.9862517578
 31
0.0
  0
INSERT
  5
3B1
330
17
100
AcDbEntity
  8
WINDOW
100
AcDbBlockReference
 66
1
  2
$DorLib2D$00000002
 10
1570272.05637433
 20
148427.9862517769
 30
0.0
 41
-1500.0
 42
1500.0
 43
-1500.0
 50
270.0
  0
ATTRIB
  5
3B2
330
3B1
100
AcDbEntity
  8
WINDOW_TEXT
100
AcDbText
 10
1569869.556374315
 20
148115.9862517768
 30
0.0
 40
595.0
  1

 50
90.0
  7
_TCH_WINDOW
 41
0.5647058823529412
100
AcDbAttribute
  2
A
 70
0
 71
1
 72
0
  0
SEQEND
  5
3B3
330
3B1
100
AcDbEntity
  8
WINDOW
  0
LINE
  5
3B4
330
17
100
AcDbEntity
  8
WINDOW
100
AcDbLine
 10
1570372.05637433
 20
149177.9862517769
 30
0.0
 11
1570372.05637433
 21
147677.9862517769
 31
0.0
  0
INSERT
  5
3B5
330
17
100
AcDbEntity
  8
WINDOW
100
AcDbBlockReference
 66
1
  2
$DorLib2D$00000002
 10
1570272.05637433
 20
155127.9862517738
 30
0.0
 41
1500.0
 42
1500.0
 43
1500.0
 50
270.0
  0
ATTRIB
  5
3B6
330
3B5
100
AcDbEntity
  8
WINDOW_TEXT
100
AcDbText
 10
1569869.556374315
 20
154815.9862517738
 30
0.0
 40
595.0
  1

 50
90.0
  7
_TCH_WINDOW
 41
0.5647058823529412
100
AcDbAttribute
  2
A
 70
0
 71
1
 72
0
  0
SEQEND
  5
3B7
330
3B5
100
AcDbEntity
  8
WINDOW
  0
LINE
  5
3B8
330
17
100
AcDbEntity
  8
WINDOW
100
AcDbLine
 10
1570372.05637433
 20
155877.9862517738
 30
0.0
 11
1570372.05637433
 21
154377.9862517738
 31
0.0
  0
LINE
  5
3B9
330
17
100
AcDbEntity
  8
WALL
100
AcDbLine
 10
1535636.689810503
 20
147577.9862517909
 30
0.0
 11
1546372.05637407
 21
147577.9862517844
 31
0.0
  0
LINE
  5
3BA
330
17
100
AcDbEntity
  8
WALL
100
AcDbLine
 10
1535642.700535191
 20
147377.9862517909
 30
0.0
 11
1546372.05637407
 21
147377.986251783
 31
0.0
  0
LINE
  5
3BB
330
17
100
AcDbEntity
  8
WALL
100
AcDbLine
 10
1535642.700535193
 20
156577.9862517909
 30
0.0
 11
1546372.056374072
 21
156577.9862517842
 31
0.0
  0
LINE
  5
3BC
330
17
100
AcDbEntity
  8
WALL
100
AcDbLine
 10
1535636.689810505
 20
156377.9862517909
 30
0.0
 11
1546372.05637407
 21
156377.9862517829
 31
0.0
  0
INSERT
  5
3BD
330
17
100
AcDbEntity
  8
WINDOW
100
AcDbBlockReference
 66
1
  2
$DorLib2D$00000002
 10
1546472.056374071
 20
146527.9862517807
 30
0.0
 41
1500.0
 42
-1500.0
 43
1500.0
 50
270.0
  0
ATTRIB
  5
3BE
330
3BD
100
AcDbEntity
  8
WINDOW_TEXT
100
AcDbText
 10
1547369.556374317
 20
146215.9862517808
 30
0.0
 40
595.0
  1

 50
90.0
  7
_TCH_WINDOW
 41
0.5647058823529412
100
AcDbAttribute
  2
A
 70
0
 71
1
 72
0
  0
SEQEND
  5
3BF
330
3BD
100
AcDbEntity
  8
WINDOW
  0
LINE
  5
3C0
330
17
100
AcDbEntity
  8
WINDOW
100
AcDbLine
 10
1546572.056374071
 20
147277.9862517807
 30
0.0
 11
1546572.056374071
 21
145777.9862517807
 31
0.0
  0
INSERT
  5
3C1
330
17
100
AcDbEntity
  8
WINDOW
100
AcDbBlockReference
 66
1
  2
$DorLib2D$00000002
 10
1546472.056374071
 20
148427.9862517885
 30
0.0
 41
-1500.0
 42
-1500.0
 43
-1500.0
 50
270.0
  0
ATTRIB
  5
3C2
330
3C1
100
AcDbEntity
  8
WINDOW_TEXT
100
AcDbText
 10
1547369.556374317
 20
148115.9862517885
 30
0.0
 40
595.0
  1

 50
90.0
  7
_TCH_WINDOW
 41
0.5647058823529412
100
AcDbAttribute
  2
A
 70
0
 71
1
 72
0
  0
SEQEND
  5
3C3
330
3C1
100
AcDbEntity
  8
WINDOW
  0
LINE
  5
3C4
330
17
100
AcDbEntity
  8
WINDOW
100
AcDbLine
 10
1546572.056374071
 20
149177.9862517885
 30
0.0
 11
1546572.056374071
 21
147677.9862517885
 31
0.0
  0
INSERT
  5
3C5
330
17
100
AcDbEntity
  8
WINDOW
100
AcDbBlockReference
 66
1
  2
$DorLib2D$00000002
 10
1546472.056374071
 20
155527.9862517668
 30
0.0
 41
1500.0
 42
-1500.0
 43
1500.0
 50
270.0
  0
ATTRIB
  5
3C6
330
3C5
100
AcDbEntity
  8
WINDOW_TEXT
100
AcDbText
 10
1547369.556374317
 20
155215.9862517668
 30
0.0
 40
595.0
  1

 50
90.0
  7
_TCH_WINDOW
 41
0.5647058823529412
100
AcDbAttribute
  2
A
 70
0
 71
1
 72
0
  0
SEQEND
  5
3C7
330
3C5
100
AcDbEntity
  8
WINDOW
  0
LINE
  5
3C8
330
17
100
AcDbEntity
  8
WINDOW
100
AcDbLine
 10
1546572.056374071
 20
156277.9862517668
 30
0.0
 11
1546572.056374071
 21
154777.9862517668
 31
0.0
  0
LINE
  5
3C9
330
17
100
AcDbEntity
  8
WALL
100
AcDbLine
 10
1570172.05637433
 20
147477.9862517773
 30
0.0
 11
1570172.05637433
 21
147277.9862517929
 31
0.0
  0
LINE
  5
3CA
330
17
100
AcDbEntity
  8
WALL
100
AcDbLine
 10
1570172.05637433
 20
147277.9862517929
 30
0.0
 11
1570372.056374331
 21
147277.9862517929
 31
0.0
  0
LINE
  5
3CB
330
17
100
AcDbEntity
  8
WALL
100
AcDbLine
 10
1570372.056374331
 20
147277.9862517929
 30
0.0
 11
1570372.056374329
 21
147377.986251779
 31
0.0
  0
LINE
  5
3CC
330
17
100
AcDbEntity
  8
WALL
100
AcDbLine
 10
1570372.056374329
 20
139827.9862381752
 30
0.0
 11
1570372.056374331
 21
145777.9862517929
 31
0.0
  0
LINE
  5
3CD
330
17
100
AcDbEntity
  8
WALL
100
AcDbLine
 10
1570372.056374331
 20
145777.9862517929
 30
0.0
 11
1570172.05637433
 21
145777.9862517929
 31
0.0
  0
LINE
  5
3CE
330
17
100
AcDbEntity
  8
WALL
100
AcDbLine
 10
1570172.05637433
 20
145777.9862517929
 30
0.0
 11
1570172.05637433
 21
140027.9862381846
 31
0.0
  0
LINE
  5
3CF
330
17
100
AcDbEntity
  8
WALL
100
AcDbLine
 10
1579872.056374329
 20
156277.9862517697
 30
0.0
 11
1581213.205595753
 21
156277.9862517738
 31
0.0
  0
LINE
  5
3D0
330
17
100
AcDbEntity
  8
WALL
100
AcDbLine
 10
1579772.056374329
 20
156077.9862517738
 30
0.0
 11
1581213.205595753
 21
156077.9862517738
 31
0.0
  0
LINE
  5
3D1
330
17
100
AcDbEntity
  8
WALL
100
AcDbLine
 10
1570172.05637433
 20
156177.9862517738
 30
0.0
 11
1570172.056374327
 21
155877.9862517548
 31
0.0
  0
LINE
  5
3D2
330
17
100
AcDbEntity
  8
WALL
100
AcDbLine
 10
1570172.056374327
 20
155877.9862517548
 30
0.0
 11
1570372.056374331
 21
155877.9862517548
 31
0.0
  0
LINE
  5
3D3
330
17
100
AcDbEntity
  8
WALL
100
AcDbLine
 10
1570372.056374331
 20
155877.9862517548
 30
0.0
 11
1570372.05637433
 21
156077.9862517738
 31
0.0
  0
LINE
  5
3D4
330
17
100
AcDbEntity
  8
WALL
100
AcDbLine
 10
1570372.05637433
 20
147577.9862517759
 30
0.0
 11
1570372.056374331
 21
147677.9862517929
 31
0.0
  0
LINE
  5
3D5
330
17
100
AcDbEntity
  8
WALL
100
AcDbLine
 10
1570372.056374331
 20
147677.9862517929
 30
0.0
 11
1570172.056374327
 21
147677.9862517929
 31
0.0
  0
LINE
  5
3D6
330
17
100
AcDbEntity
  8
WALL
100
AcDbLine
 10
1570172.056374327
 20
147677.9862517929
 30
0.0
 11
1570172.05637433
 21
147477.9862517773
 31
0.0
  0
LINE
  5
3D7
330
17
100
AcDbEntity
  8
WALL
100
AcDbLine
 10
1570172.056374327
 20
154377.9862517548
 30
0.0
 11
1570172.056374327
 21
149177.9862517929
 31
0.0
  0
LINE
  5
3D8
330
17
100
AcDbEntity
  8
WALL
100
AcDbLine
 10
1570172.056374327
 20
149177.9862517929
 30
0.0
 11
1570372.056374331
 21
149177.9862517929
 31
0.0
  0
LINE
  5
3D9
330
17
100
AcDbEntity
  8
WALL
100
AcDbLine
 10
1570372.056374331
 20
149177.9862517929
 30
0.0
 11
1570372.056374331
 21
154377.9862517548
 31
0.0
  0
LINE
  5
3DA
330
17
100
AcDbEntity
  8
WALL
100
AcDbLine
 10
1570372.056374331
 20
154377.9862517548
 30
0.0
 11
1570172.056374327
 21
154377.9862517548
 31
0.0
  0
LINE
  5
3DB
330
17
100
AcDbEntity
  8
WALL
100
AcDbLine
 10
1546372.05637407
 20
156377.9862517829
 30
0.0
 11
1546372.056374071
 21
156277.9862517929
 31
0.0
  0
LINE
  5
3DC
330
17
100
AcDbEntity
  8
WALL
100
AcDbLine
 10
1546372.056374071
 20
156277.9862517929
 30
0.0
 11
1546572.05637407
 21
156277.9862517929
 31
0.0
  0
LINE
  5
3DD
330
17
100
AcDbEntity
  8
WALL
100
AcDbLine
 10
1546572.05637407
 20
156277.9862517929
 30
0.0
 11
1546572.056374071
 21
156477.9862517846
 31
0.0
  0
LINE
  5
3DE
330
17
100
AcDbEntity
  8
WALL
100
AcDbLine
 10
1546572.056374071
 20
147477.9862517837
 30
0.0
 11
1546572.05637407
 21
147677.9862517548
 31
0.0
  0
LINE
  5
3DF
330
17
100
AcDbEntity
  8
WALL
100
AcDbLine
 10
1546572.05637407
 20
147677.9862517548
 30
0.0
 11
1546372.056374071
 21
147677.9862517548
 31
0.0
  0
LINE
  5
3E0
330
17
100
AcDbEntity
  8
WALL
100
AcDbLine
 10
1546372.056374071
 20
147677.9862517548
 30
0.0
 11
1546372.05637407
 21
147577.9862517844
 31
0.0
  0
LINE
  5
3E1
330
17
100
AcDbEntity
  8
WALL
100
AcDbLine
 10
1546372.056374071
 20
154777.9862517548
 30
0.0
 11
1546372.056374071
 21
149177.9862517929
 31
0.0
  0
LINE
  5
3E2
330
17
100
AcDbEntity
  8
WALL
100
AcDbLine
 10
1546372.056374071
 20
149177.9862517929
 30
0.0
 11
1546572.05637407
 21
149177.9862517929
 31
0.0
  0
LINE
  5
3E3
330
17
100
AcDbEntity
  8
WALL
100
AcDbLine
 10
1546572.05637407
 20
149177.9862517929
 30
0.0
 11
1546572.05637407
 21
154777.9862517548
 31
0.0
  0
LINE
  5
3E4
330
17
100
AcDbEntity
  8
WALL
100
AcDbLine
 10
1546572.05637407
 20
154777.9862517548
 30
0.0
 11
1546372.056374071
 21
154777.9862517548
 31
0.0
  0
LINE
  5
3E5
330
17
100
AcDbEntity
  8
WALL
100
AcDbLine
 10
1546372.05637407
 20
147377.986251783
 30
0.0
 11
1546372.05637407
 21
147277.9862517929
 31
0.0
  0
LINE
  5
3E6
330
17
100
AcDbEntity
  8
WALL
100
AcDbLine
 10
1546372.05637407
 20
147277.9862517929
 30
0.0
 11
1546572.056374068
 21
147277.9862517929
 31
0.0
  0
LINE
  5
3E7
330
17
100
AcDbEntity
  8
WALL
100
AcDbLine
 10
1546572.056374068
 20
147277.9862517929
 30
0.0
 11
1546572.056374071
 21
147477.9862517837
 31
0.0
  0
LINE
  5
3E8
330
17
100
AcDbEntity
  8
WALL
100
AcDbLine
 10
1546572.056374073
 20
140027.9862381767
 30
0.0
 11
1546572.056374069
 21
145777.9862517929
 31
0.0
  0
LINE
  5
3E9
330
17
100
AcDbEntity
  8
WALL
100
AcDbLine
 10
1546572.056374069
 20
145777.9862517929
 30
0.0
 11
1546372.05637407
 21
145777.9862517929
 31
0.0
  0
LINE
  5
3EA
330
17
100
AcDbEntity
  8
WALL
100
AcDbLine
 10
1546372.05637407
 20
145777.9862517929
 30
0.0
 11
1546372.05637407
 21
139827.9862381724
 31
0.0
  0
ARC
  5
3EB
330
17
100
AcDbEntity
  8
CURTWALL
100
AcDbCircle
 10
1575480.928223013
 20
151977.9862517467
 30
0.0
 40
149900.0000002738
100
AcDbArc
 50
181.7202785176087
 51
187.0418279387652
  0
ARC
  5
3EC
330
17
100
AcDbEntity
  8
CURTWALL
100
AcDbCircle
 10
1575480.928223012
 20
151977.9862517468
 30
0.0
 40
149800.0000002729
100
AcDbArc
 50
181.7202785176088
 51
187.0418279387652
  0
ARC
  5
3ED
330
17
100
AcDbEntity
  8
CURTWALL
100
AcDbCircle
 10
1575480.928223012
 20
151977.9862517488
 30
0.0
 40
150000.000000273
100
AcDbArc
 50
181.7202785176095
 51
187.041827938766
  0
ARC
  5
3EE
330
17
100
AcDbEntity
  8
CURTWALL
100
AcDbCircle
 10
1575480.92822298
 20
151977.9862517072
 30
0.0
 40
149900.0000002422
100
AcDbArc
 50
178.279721482358
 51
179.5413230833668
  0
ARC
  5
3EF
330
17
100
AcDbEntity
  8
CURTWALL
100
AcDbCircle
 10
1575480.928222982
 20
151977.9862517181
 30
0.0
 40
149800.0000002441
100
AcDbArc
 50
178.2797214823622
 51
179.502767367644
  0
ARC
  5
3F0
330
17
100
AcDbEntity
  8
CURTWALL
100
AcDbCircle
 10
1575480.928222981
 20
151977.9862517163
 30
0.0
 40
150000.0000002431
100
AcDbArc
 50
178.2797214823615
 51
179.5798271841791
  0
ENDSEC
  0
SECTION
  2
OBJECTS
  0
DICTIONARY
  5
A
330
0
100
AcDbDictionary
281
1
  3
ACAD_COLOR
350
B
  3
ACAD_GROUP
350
C
  3
ACAD_LAYOUT
350
D
  3
ACAD_MATERIAL
350
E
  3
ACAD_MLEADERSTYLE
350
F
  3
ACAD_MLINESTYLE
350
10
  3
ACAD_PLOTSETTINGS
350
11
  3
ACAD_PLOTSTYLENAME
350
12
  3
ACAD_SCALELIST
350
14
  3
ACAD_TABLESTYLE
350
15
  3
ACAD_VISUALSTYLE
350
16
  3
EZDXF_META
350
2D
  0
DICTIONARY
  5
B
330
A
100
AcDbDictionary
281
1
  0
DICTIONARY
  5
C
330
A
100
AcDbDictionary
281
1
  0
DICTIONARY
  5
D
330
A
100
AcDbDictionary
281
1
  3
Model
350
1A
  3
Layout1
350
1E
  0
DICTIONARY
  5
E
330
A
100
AcDbDictionary
281
1
  3
ByBlock
350
1F
  3
ByLayer
350
20
  3
Global
350
21
  0
DICTIONARY
  5
F
330
A
100
AcDbDictionary
281
1
  3
Standard
350
2C
  0
DICTIONARY
  5
10
330
A
100
AcDbDictionary
281
1
  3
Standard
350
22
  0
DICTIONARY
  5
11
330
A
100
AcDbDictionary
281
1
  0
ACDBDICTIONARYWDFLT
  5
12
330
A
100
AcDbDictionary
281
1
  3
Normal
350
13
100
AcDbDictionaryWithDefault
340
13
  0
ACDBPLACEHOLDER
  5
13
330
12
  0
DICTIONARY
  5
14
330
A
100
AcDbDictionary
281
1
  0
DICTIONARY
  5
15
330
A
100
AcDbDictionary
281
1
  0
DICTIONARY
  5
16
330
A
100
AcDbDictionary
281
1
  0
LAYOUT
  5
1A
330
D
100
AcDbPlotSettings
  1

  4
A3
  6

 40
7.5
 41
20.0
 42
7.5
 43
20.0
 44
420.0
 45
297.0
 46
0.0
 47
0.0
 48
0.0
 49
0.0
140
0.0
141
0.0
142
1.0
143
1.0
 70
1024
 72
1
 73
0
 74
5
  7

 75
16
 76
0
 77
2
 78
300
147
1.0
148
0.0
149
0.0
100
AcDbLayout
  1
Model
 70
1
 71
0
 10
0.0
 20
0.0
 11
420.0
 21
297.0
 12
0.0
 22
0.0
 32
0.0
 14
1e+20
 24
1e+20
 34
1e+20
 15
-1e+20
 25
-1e+20
 35
-1e+20
146
0.0
 13
0.0
 23
0.0
 33
0.0
 16
1.0
 26
0.0
 36
0.0
 17
0.0
 27
1.0
 37
0.0
 76
1
330
17
  0
LAYOUT
  5
1E
330
D
100
AcDbPlotSettings
  1

  4
A3
  6

 40
7.5
 41
20.0
 42
7.5
 43
20.0
 44
420.0
 45
297.0
 46
0.0
 47
0.0
 48
0.0
 49
0.0
140
0.0
141
0.0
142
1.0
143
1.0
 70
0
 72
1
 73
0
 74
5
  7

 75
16
 76
0
 77
2
 78
300
147
1.0
148
0.0
149
0.0
100
AcDbLayout
  1
Layout1
 70
1
 71
1
 10
0.0
 20
0.0
 11
420.0
 21
297.0
 12
0.0
 22
0.0
 32
0.0
 14
1e+20
 24
1e+20
 34
1e+20
 15
-1e+20
 25
-1e+20
 35
-1e+20
146
0.0
 13
0.0
 23
0.0
 33
0.0
 16
1.0
 26
0.0
 36
0.0
 17
0.0
 27
1.0
 37
0.0
 76
1
330
1B
  0
MATERIAL
  5
1F
102
{ACAD_REACTORS
330
E
102
}
330
E
100
AcDbMaterial
  1
ByBlock
  2

 70
0
 40
1.0
 71
1
 41
1.0
 91
-1023410177
 42
1.0
 72
1
  3

 73
1
 74
1
 75
1
 44
0.5
 73
0
 45
1.0
 46
1.0
 77
1
  4

 78
1
 79
1
170
1
 48
1.0
171
1
  6

172
1
173
1
174
1
140
1.0
141
1.0
175
1
  7

176
1
177
1
178
1
143
1.0
179
1
  8

270
1
271
1
272
1
145
1.0
146
1.0
273
1
  9

274
1
275
1
276
1
 42
1.0
 72
1
  3

 73
1
 74
1
 75
1
 94
63
  0
MATERIAL
  5
20
102
{ACAD_REACTORS
330
E
102
}
330
E
100
AcDbMaterial
  1
ByLayer
  2

 70
0
 40
1.0
 71
1
 41
1.0
 91
-1023410177
 42
1.0
 72
1
  3

 73
1
 74
1
 75
1
 44
0.5
 73
0
 45
1.0
 46
1.0
 77
1
  4

 78
1
 79
1
170
1
 48
1.0
171
1
  6

172
1
173
1
174
1
140
1.0
141
1.0
175
1
  7

176
1
177
1
178
1
143
1.0
179
1
  8

270
1
271
1
272
1
145
1.0
146
1.0
273
1
  9

274
1
275
1
276
1
 42
1.0
 72
1
  3

 73
1
 74
1
 75
1
 94
63
  0
MATERIAL
  5
21
102
{ACAD_REACTORS
330
E
102
}
330
E
100
AcDbMaterial
  1
Global
  2

 70
0
 40
1.0
 71
1
 41
1.0
 91
-1023410177
 42
1.0
 72
1
  3

 73
1
 74
1
 75
1
 44
0.5
 73
0
 45
1.0
 46
1.0
 77
1
  4

 78
1
 79
1
170
1
 48
1.0
171
1
  6

172
1
173
1
174
1
140
1.0
141
1.0
175
1
  7

176
1
177
1
178
1
143
1.0
179
1
  8

270
1
271
1
272
1
145
1.0
146
1.0
273
1
  9

274
1
275
1
276
1
 42
1.0
 72
1
  3

 73
1
 74
1
 75
1
 94
63
  0
MLINESTYLE
  5
22
102
{ACAD_REACTORS
330
10
102
}
330
10
100
AcDbMlineStyle
  2
Standard
 70
0
  3

 62
256
 51
90.0
 52
90.0
 71
2
 49
0.5
 62
256
  6
BYLAYER
 49
-0.5
 62
256
  6
BYLAYER
  0
MLEADERSTYLE
  5
2C
102
{ACAD_REACTORS
330
F
102
}
330
F
100
AcDbMLeaderStyle
179
2
170
2
171
1
172
0
 90
2
 40
0.0
 41
0.0
173
1
 91
-1056964608
 92
-2
290
1
 42
2.0
291
1
 43
8.0
  3
Standard
 44
4.0
300

342
29
174
1
175
1
176
0
178
1
 93
-1056964608
 45
4.0
292
0
297
0
 46
4.0
 94
-1056964608
 47
1.0
 49
1.0
140
1.0
294
1
141
0.0
177
0
142
1.0
295
0
296
0
143
3.75
271
0
272
9
273
9
  0
DICTIONARY
  5
2D
330
A
100
AcDbDictionary
280
1
281
1
  3
CREATED_BY_EZDXF
350
2E
  3
WRITTEN_BY_EZDXF
350
46C
  0
DICTIONARYVAR
  5
2E
330
2D
100
DictionaryVariables
280
0
  1
1.4.4 @ 2026-08-12T07:31:03.943823+00:00
  0
DICTIONARYVAR
  5
46C
330
2D
100
DictionaryVariables
280
0
  1
1.4.4 @ 2026-08-12T07:31:03.962883+00:00
  0
ENDSEC
  0
EOF
